<svg id="Grupo_145370" data-name="Grupo 145370" xmlns="http://www.w3.org/2000/svg" xmlns:xlink="http://www.w3.org/1999/xlink" width="1240" height="230.146" viewBox="0 0 1240 230.146">
  <defs>
    <clipPath id="clip-path">
      <rect id="Rect치ngulo_44223" data-name="Rect치ngulo 44223" width="1240" height="230.146" fill="none"/>
    </clipPath>
  </defs>
  <g id="Grupo_145369" data-name="Grupo 145369" clip-path="url(#clip-path)">
    <path id="Trazado_197823" data-name="Trazado 197823" d="M199.994,230.146H30.151A30.151,30.151,0,0,1,0,199.995V30.152A30.151,30.151,0,0,1,30.151,0H199.994a30.151,30.151,0,0,1,30.151,30.152V199.995a30.151,30.151,0,0,1-30.151,30.151" fill="#c0c3b0"/>
    <path id="Trazado_197824" data-name="Trazado 197824" d="M451.434,230.146H281.591a30.151,30.151,0,0,1-30.151-30.151V30.152A30.151,30.151,0,0,1,281.591,0H451.434a30.151,30.151,0,0,1,30.151,30.152V199.995a30.151,30.151,0,0,1-30.151,30.151" fill="#c0c3b0"/>
    <path id="Trazado_197825" data-name="Trazado 197825" d="M115.073,102.5H68.99v84.067H94.126l8.379-8.379h25.136l8.379,8.379h25.416V102.5Z" fill="#a34f3e"/>
    <path id="Trazado_197826" data-name="Trazado 197826" d="M136.02,186.572h25.416V102.5H115.073v75.688h12.568Z" fill="#88363f"/>
    <path id="Trazado_197827" data-name="Trazado 197827" d="M129.957,49.881l-10.694,5.347V43.574h-8.379V55.228l-10.695-5.347-3.747,7.5,14.442,7.145,4.189,4.189,4.19-4.189L133.7,57.376Z" fill="#88363f"/>
    <path id="Trazado_197828" data-name="Trazado 197828" d="M133.7,57.376l-3.748-7.495-10.694,5.347V43.574h-4.189V68.71l4.189-4.189Z" fill="#6d1d40"/>
    <path id="Trazado_197829" data-name="Trazado 197829" d="M186.36,104.092c-.613-2.388-2.856-6.746-11.814-11.8-6.485-3.657-15.339-7.213-24.542-10.729-12.241-4.677-30.741-11.746-30.741-17.044h-8.379c0,5.3-18.5,12.367-30.741,17.044C68.947,85.842,58.4,90.045,51.7,94.73c-5.945,4.154-7.563,7.719-7.976,9.719a7.656,7.656,0,0,0,0,2.952,34.538,34.538,0,0,0,9.464,19.013l2.962,2.962,3.242-2.962a31.7,31.7,0,0,0,5.417-7.275,31.64,31.64,0,0,0,5.416,7.275l2.962,2.962,2.962-2.962a31.644,31.644,0,0,0,5.417-7.275,31.672,31.672,0,0,0,5.417,7.275l2.962,2.962,2.962-2.962a31.7,31.7,0,0,0,5.417-7.275,31.668,31.668,0,0,0,5.416,7.275l2.962,2.962,2.962-2.962a31.644,31.644,0,0,0,5.417-7.275,31.672,31.672,0,0,0,5.417,7.275l2.962,2.962,2.962-2.962a31.7,31.7,0,0,0,5.417-7.275,31.644,31.644,0,0,0,5.417,7.275l2.961,2.962,2.962-2.962a31.643,31.643,0,0,0,5.417-7.275,32.847,32.847,0,0,0,5.7,7.275l2.962,2.962,2.962-2.962a31.643,31.643,0,0,0,5.417-7.275,31.672,31.672,0,0,0,5.417,7.275L174,129.376l2.962-2.962c7.509-7.51,8.64-14.841,9.44-18.96A7.569,7.569,0,0,0,186.36,104.092Z" fill="#ffdf8e"/>
    <path id="Trazado_197830" data-name="Trazado 197830" d="M123.452,129.376l2.962-2.962a31.667,31.667,0,0,0,5.417-7.274,31.638,31.638,0,0,0,5.417,7.274l2.962,2.962,2.961-2.962a31.638,31.638,0,0,0,5.417-7.274,32.871,32.871,0,0,0,5.7,7.274l2.962,2.962,2.962-2.962a31.637,31.637,0,0,0,5.417-7.274,31.666,31.666,0,0,0,5.417,7.274L174,129.376l2.962-2.962c7.509-7.509,8.64-14.84,9.44-18.959a7.569,7.569,0,0,0-.046-3.362c-.613-2.388-2.856-6.746-11.814-11.8-6.485-3.657-15.339-7.213-24.542-10.73-12.241-4.676-30.741-11.746-30.741-17.044h-4.19V119.14a31.667,31.667,0,0,0,5.417,7.274Z" fill="#ffc473"/>
    <path id="Trazado_197831" data-name="Trazado 197831" d="M115.073,136.02a20.947,20.947,0,0,0-20.947,20.947v29.605H136.02V156.967a20.947,20.947,0,0,0-20.947-20.947" fill="#88363f"/>
    <path id="Trazado_197832" data-name="Trazado 197832" d="M136.02,156.967a20.947,20.947,0,0,0-20.947-20.947v50.552H136.02Z" fill="#6d1d40"/>
    <path id="Trazado_197833" data-name="Trazado 197833" d="M701.79,230.146H531.947A30.151,30.151,0,0,1,501.8,199.995V30.152A30.151,30.151,0,0,1,531.947,0H701.79a30.151,30.151,0,0,1,30.151,30.152V199.995a30.151,30.151,0,0,1-30.151,30.151" fill="#c0c3b0"/>
    <path id="Trazado_197834" data-name="Trazado 197834" d="M646.588,184.658H587.15l-14.579-14.579V98.168h88.6v71.911Z" fill="#ba6d59"/>
    <path id="Trazado_197835" data-name="Trazado 197835" d="M626.542,98.169l2.572-18.485a39.733,39.733,0,0,0-10.373-32.652l-1.872-2-1.871,2a39.73,39.73,0,0,0-10.373,32.652L607.2,98.169Z" fill="#bde55e"/>
    <path id="Trazado_197836" data-name="Trazado 197836" d="M626.542,98.169,629.5,76.933A39.728,39.728,0,0,1,644.553,50.97l3.925-3.035a39.734,39.734,0,0,1,.87,33.586L642.1,98.169Z" fill="#5ac77f"/>
    <path id="Trazado_197837" data-name="Trazado 197837" d="M642.1,98.169l7.478-17.176a39.726,39.726,0,0,1,24.273-21.965l.351-.112.182,4.106a39.736,39.736,0,0,1-5.426,21.869l-7.793,13.278Z" fill="#bde55e"/>
    <path id="Trazado_197838" data-name="Trazado 197838" d="M607.2,98.169l-2.954-21.236A39.728,39.728,0,0,0,589.185,50.97l-3.925-3.035a39.734,39.734,0,0,0-.87,33.586l7.246,16.648Z" fill="#5ac77f"/>
    <path id="Trazado_197839" data-name="Trazado 197839" d="M591.636,98.169l-7.478-17.176A39.731,39.731,0,0,0,559.885,59.03l-.351-.112-.182,4.107a39.734,39.734,0,0,0,5.426,21.868l7.793,13.276Z" fill="#bde55e"/>
    <rect id="Rect치ngulo_44222" data-name="Rect치ngulo 44222" width="88.596" height="12.196" transform="translate(572.571 113.729)" fill="#ffda44"/>
    <path id="Trazado_197840" data-name="Trazado 197840" d="M622.686,160.41H611.051l-4.486-4.486,2.243-30h16.121l2.243,30c-1.752,1.752-2.733,2.734-4.486,4.486" fill="#f66"/>
    <path id="Trazado_197841" data-name="Trazado 197841" d="M629.137,184.658H604.6a12.124,12.124,0,1,1,0-24.248h24.535a12.124,12.124,0,0,1,0,24.248" fill="#ffda44"/>
    <path id="Trazado_197842" data-name="Trazado 197842" d="M631.851,174.5H601.888a1.962,1.962,0,1,1,0-3.925h29.963a1.962,1.962,0,1,1,0,3.925" fill="#ffb655"/>
    <path id="Trazado_197843" data-name="Trazado 197843" d="M635.548,125.925h25.619v15.489H644.66a9.111,9.111,0,0,1-9.111-9.111v-6.378Z" fill="#80eaff"/>
    <path id="Trazado_197844" data-name="Trazado 197844" d="M655.735,135.632H644.486a1.963,1.963,0,1,1,0-3.925h11.249a1.963,1.963,0,1,1,0,3.925" fill="#4dc3ff"/>
    <path id="Trazado_197845" data-name="Trazado 197845" d="M589.079,141.413H572.571V125.924H598.19V132.3a9.11,9.11,0,0,1-9.111,9.111" fill="#80eaff"/>
    <path id="Trazado_197846" data-name="Trazado 197846" d="M589.253,135.632H578a1.963,1.963,0,1,1,0-3.925h11.249a1.963,1.963,0,1,1,0,3.925" fill="#4dc3ff"/>
    <path id="Trazado_197847" data-name="Trazado 197847" d="M661.167,157.326l-19.906-7.009,12.4,27.264,7.5-7.5Z" fill="#f66"/>
    <path id="Trazado_197848" data-name="Trazado 197848" d="M572.571,157.326l19.906-7.009-12.4,27.264-7.5-7.5Z" fill="#f66"/>
    <path id="Trazado_197849" data-name="Trazado 197849" d="M953.52,230.146H783.677a30.151,30.151,0,0,1-30.151-30.151V30.152A30.151,30.151,0,0,1,783.677,0H953.52a30.151,30.151,0,0,1,30.151,30.152V199.995a30.151,30.151,0,0,1-30.151,30.151" fill="#c0c3b0"/>
    <path id="Trazado_197850" data-name="Trazado 197850" d="M1209.849,230.146H1040.005a30.152,30.152,0,0,1-30.151-30.151V30.152A30.152,30.152,0,0,1,1040.005,0h169.844A30.151,30.151,0,0,1,1240,30.152V199.995a30.151,30.151,0,0,1-30.15,30.151" fill="#c0c3b0"/>
    <path id="Trazado_197851" data-name="Trazado 197851" d="M398.413,122.848H333.524l8.862,61.228,42.312-.005L388.616,182l1.733,2.076h16.123Z" fill="#d97b7b"/>
    <path id="Trazado_197852" data-name="Trazado 197852" d="M334.631,97.169l7.755,86.906H318.161Z" fill="#d16161"/>
    <path id="Trazado_197853" data-name="Trazado 197853" d="M384.7,184.07l5.651,0c2.589-3.346,3.97-8.458,7.878-30.623l8.245,30.623h8.392s-16.939-80.4-16.636-86.906c-1.689-10.907-12.692-22.414-17.325-22.506-10.071-.2-8.327,23.025-8.327,41.323,0,21.443,11.233,24.48,12.122,68.084" fill="#d16161"/>
    <path id="Trazado_197854" data-name="Trazado 197854" d="M366.513,126.7c-11.919,0-18.13-2.232-18.13-2.232v13.987s6.211,5.03,18.13,5.03a36.351,36.351,0,0,0,11.762-1.849c-1.823-5.545-.8-10.019-1.875-15.218-2.078.171-7.241.282-9.887.282" fill="#f8e883"/>
    <path id="Trazado_197855" data-name="Trazado 197855" d="M384.643,124.465a47.589,47.589,0,0,1-11.04,1.951c1.072,5.2,2.849,9.672,4.673,15.217a22.328,22.328,0,0,0,6.367-3.18Z" fill="#eec06b"/>
    <path id="Trazado_197856" data-name="Trazado 197856" d="M351.185,118.183V130.06s3.771,5.03,15.328,5.03a29.078,29.078,0,0,0,9.109-1.306l-.4-16.9Z" fill="#e3a76f"/>
    <path id="Trazado_197857" data-name="Trazado 197857" d="M381.841,130.06V106.532H351.185v11.651c4,2.87,8.548,4.57,12.53,4.57a20.258,20.258,0,0,0,9.026-2.427,55.21,55.21,0,0,0,2.88,13.458C380.161,132.294,381.841,130.06,381.841,130.06Z" fill="#ab7b64"/>
    <path id="Trazado_197858" data-name="Trazado 197858" d="M398.048,116.882a253.486,253.486,0,0,0-2.414-26.692c-.321,6.894-5.887,16.759-14.608,22.792.842,18.745,13.55,23.5,14.791,62.731C400.568,165.928,405.6,147.1,398.048,116.882Z" fill="#8c818f"/>
    <path id="Trazado_197859" data-name="Trazado 197859" d="M395.634,90.19c-1.689-10.907-4.5-21.03-9.135-21.123-10.071-.2-8.327,23.026-8.327,41.324,0,21.635,11.434,24.533,12.143,69.262a1.535,1.535,0,0,0,2.82.817,42.477,42.477,0,0,0,2.682-4.758c-1.2-37.848-10.462-43.606-11.871-60.794a3.485,3.485,0,0,1,1.308-3C392.851,105.837,395.331,96.692,395.634,90.19Z" fill="#655e67"/>
    <path id="Trazado_197860" data-name="Trazado 197860" d="M342.982,103.435s-4.613,11.072-5.207,13.447c-7.556,30.223.278,49.046,5.029,58.831,1.073-33.913,8.622-42.064,11.194-55.756C353.041,119.43,342.982,103.435,342.982,103.435Z" fill="#8c818f"/>
    <path id="Trazado_197861" data-name="Trazado 197861" d="M340.573,116.882c.329-1.32,1.038-3.562,1.6-5.293a1.321,1.321,0,0,1,2.3-.395,36.782,36.782,0,0,0,6.707,6.989A28,28,0,0,0,354,119.957a50.935,50.935,0,0,0,.856-9.566c0-18.3,1.745-41.525-8.327-41.324s-11.548,47.815-11.548,47.815c-9.052,36.2-.035,56.054,4.918,63.6a1.534,1.534,0,0,0,2.814-.824q.033-2.028.093-3.944C338.052,165.928,333.016,147.1,340.573,116.882Z" fill="#655e67"/>
    <path id="Trazado_197862" data-name="Trazado 197862" d="M348.1,76.509V91.28c0,12.747,9.465,23.08,18.413,23.08,6.161,0,13.677-4.067,18.422-10.247,2.817-3.67,4.658-14.41,4.658-15.839V64.032l-23.085-10.6c-.2.135-18.408,10.414-18.408,23.077" fill="#e3a76f"/>
    <path id="Trazado_197863" data-name="Trazado 197863" d="M350.9,91.28V76.509c0-12.663,15.408-22.943,15.61-23.077l-.007,0-23.068,10.6V88.274c0,1.429,1.839,12.166,4.655,15.835,4.745,6.182,12.262,10.251,18.425,10.251C359.869,114.36,350.9,104.027,350.9,91.28Z" fill="#ab7b64"/>
    <path id="Trazado_197864" data-name="Trazado 197864" d="M351.633,97.569c-.646-.648-.641-1.812-.641-4.042a2.087,2.087,0,0,1,.771-.148,4.751,4.751,0,0,1,4.385,3.717,5.643,5.643,0,0,1-2.408,6.395,5.432,5.432,0,0,1-1.661-4.237,1.589,1.589,0,0,0-.369-1.68C351.684,97.574,351.659,97.57,351.633,97.569Zm30.423-12.583a25.177,25.177,0,0,0-5.7,1.1,51.724,51.724,0,0,1-7.747,1.588V80.392a2.1,2.1,0,0,0-4.2,0v7.279a51.8,51.8,0,0,1-7.747-1.588,25.167,25.167,0,0,0-5.7-1.1l-.072,0-2.8,1.906,2.8,2.29.072,0a24.819,24.819,0,0,1,4.638.962,52.741,52.741,0,0,0,8.807,1.742v3.157a2.1,2.1,0,0,0,4.2,0V91.886a52.72,52.72,0,0,0,8.807-1.742,24.835,24.835,0,0,1,4.638-.962,5.16,5.16,0,0,1,4.323,1.791c.9,1.231,1.048,3.05.4,5.123a5.967,5.967,0,0,1-3.168,4.035,2.237,2.237,0,0,1-2-.127,1.449,1.449,0,0,1-.766-1.392,1.472,1.472,0,0,1,.466-1.038,2.1,2.1,0,0,0-.053-4.195,4.75,4.75,0,0,0-4.384,3.717,5.648,5.648,0,0,0,2.531,6.477,6.415,6.415,0,0,0,5.526.54,21.166,21.166,0,0,0,4.657-12.832V88.275a9.276,9.276,0,0,0-7.536-3.289m-15.543,24.743a2.1,2.1,0,0,0-2.1,2.1v2.383a14.754,14.754,0,0,0,4.2,0v-2.383a2.1,2.1,0,0,0-2.1-2.1" fill="#d16161"/>
    <path id="Trazado_197865" data-name="Trazado 197865" d="M350.9,84.987v4.2a5.132,5.132,0,0,0-4.252,1.789c-.9,1.231-1.048,3.05-.4,5.123a5.964,5.964,0,0,0,3.169,4.035,2.237,2.237,0,0,0,2-.126,1.583,1.583,0,0,0,.669-.751,28.136,28.136,0,0,0,1.66,4.237c-.041.027-.08.056-.123.083a6.231,6.231,0,0,1-3.29.926,6.793,6.793,0,0,1-2.238-.391,21.156,21.156,0,0,1-4.656-12.828V88.273a9.259,9.259,0,0,1,7.465-3.286m-1.232,10.489a2.1,2.1,0,0,0,1.968,2.092,27.858,27.858,0,0,1-.641-4.042A2.1,2.1,0,0,0,349.665,95.476Z" fill="#ae3030"/>
    <path id="Trazado_197866" data-name="Trazado 197866" d="M356.911,89.9a2.1,2.1,0,0,1-2.1-2.1V83.344a2.1,2.1,0,0,1,4.2,0V87.8a2.1,2.1,0,0,1-2.1,2.1" fill="#655e67"/>
    <path id="Trazado_197867" data-name="Trazado 197867" d="M376.494,89.9a2.1,2.1,0,0,1-2.1-2.1V83.344a2.1,2.1,0,0,1,4.2,0V87.8a2.1,2.1,0,0,1-2.1,2.1" fill="#655e67"/>
    <path id="Trazado_197868" data-name="Trazado 197868" d="M350.9,77.465c1.614-1.207,6.591-1.353,8.111.167a2.1,2.1,0,0,0,2.967-2.967c-2.242-2.242-6.981-2.877-10.637-1.9-.282,1.22-1.28,2.472-1.28,3.748,0,.283.839.606.839.956" fill="#8c818f"/>
    <path id="Trazado_197869" data-name="Trazado 197869" d="M347.732,77.632a2.1,2.1,0,0,0,2.967,0,1.851,1.851,0,0,1,.2-.167v-.956a16.616,16.616,0,0,1,.441-3.748,7.978,7.978,0,0,0-3.606,1.9,2.1,2.1,0,0,0,0,2.967" fill="#655e67"/>
    <path id="Trazado_197870" data-name="Trazado 197870" d="M374.017,77.632a2.1,2.1,0,1,1-2.968-2.967c3.128-3.128,11.115-3.128,14.243,0a2.1,2.1,0,1,1-2.966,2.967c-1.359-1.359-6.722-1.588-8.309,0" fill="#8c818f"/>
    <path id="Trazado_197871" data-name="Trazado 197871" d="M366.513,105.533a12.536,12.536,0,0,1-6.6-2.015,2.1,2.1,0,0,1,2.364-3.466,7.611,7.611,0,0,0,8.464,0,2.1,2.1,0,0,1,2.363,3.466,12.534,12.534,0,0,1-6.6,2.015" fill="#ab7b64"/>
    <path id="Trazado_197872" data-name="Trazado 197872" d="M345.114,76.655c2.221-8.852,10.149-19.03,21.4-19.03s19.178,10.178,21.4,19.03l26.953,107.421h9.084a2.1,2.1,0,0,0,2.036-2.607c-3.949-15.734-24.518-97.7-26.989-107.546-3.372-13.437-11.49-28.887-32.483-28.887a32.1,32.1,0,0,0-15.176,3.455c-6.194,7.142-11.677,17.492-13.669,25.432-2.736,10.9-24.845,110.153-24.845,110.153h5.338Z" fill="#e7afaf"/>
    <path id="Trazado_197873" data-name="Trazado 197873" d="M351.336,48.492c-10.112,5.314-14.909,15.88-17.306,25.432-2.471,9.848-23.04,91.811-26.988,107.546a2.1,2.1,0,0,0,2.036,2.606h3.744S337.73,84.825,340.465,73.924C342.457,65.984,345.142,55.633,351.336,48.492Z" fill="#d97b7b"/>
    <path id="Trazado_197874" data-name="Trazado 197874" d="M1079.3,173.268a78.532,78.532,0,0,0,45.508,14.442h.154V150.892H1111.9a35.248,35.248,0,0,0-4.925.345l-11.742,3.881A35.06,35.06,0,0,0,1079.3,173.268Z" fill="#bb5f19"/>
    <path id="Trazado_197875" data-name="Trazado 197875" d="M1124.96,187.709a78.533,78.533,0,0,0,45.6-14.612,35.061,35.061,0,0,0-15.928-18.008l-11.743-3.859a35.227,35.227,0,0,0-4.87-.337H1124.96Z" fill="#8e4813"/>
    <path id="Trazado_197876" data-name="Trazado 197876" d="M1124.9,177.726h.032l1.681-5.936-1.681-6.393h-.032a18.5,18.5,0,0,1-17.957-14.153,34.676,34.676,0,0,0-11.734,3.874A30.854,30.854,0,0,0,1124.9,177.726Z" fill="#ffbd32"/>
    <path id="Trazado_197877" data-name="Trazado 197877" d="M1154.595,155.088a34.7,34.7,0,0,0-11.741-3.852,18.5,18.5,0,0,1-17.927,14.162v12.328A30.854,30.854,0,0,0,1154.595,155.088Z" fill="#e17726"/>
    <path id="Trazado_197878" data-name="Trazado 197878" d="M1124.927,84.718s-8.688-9.465-8.688-21.142,8.688-21.141,8.688-21.141l7.135,21.142Z" fill="#ffa39d"/>
    <path id="Trazado_197879" data-name="Trazado 197879" d="M1119.556,63.028l-.934,22.838s-11.4-5.923-15.395-16.895.934-22.838.934-22.838Z" fill="#a8be95"/>
    <path id="Trazado_197880" data-name="Trazado 197880" d="M1112.528,89.29s-12.74-1.666-20.245-10.611-6.934-21.779-6.934-21.779l18.812,11.168Z" fill="#ffa39d"/>
    <path id="Trazado_197881" data-name="Trazado 197881" d="M1108.04,95.578s-12.541,2.792-22.653-3.045-13.965-18.1-13.965-18.1l21.26,5.612Z" fill="#a8be95"/>
    <path id="Trazado_197882" data-name="Trazado 197882" d="M1111.71,103.712s-10.83,6.913-22.329,4.885-19.312-12.227-19.312-12.227l22.614-2.474Z" fill="#ffa39d"/>
    <path id="Trazado_197883" data-name="Trazado 197883" d="M1116.46,110.156s-7.813,10.2-19.312,12.227-22.329-4.885-22.329-4.885l20.821-7.693Z" fill="#a8be95"/>
    <path id="Trazado_197884" data-name="Trazado 197884" d="M1119.975,114.494s-3.853,12.257-13.965,18.1-22.653,3.047-22.653,3.047l17.083-14.44Z" fill="#ffa39d"/>
    <path id="Trazado_197885" data-name="Trazado 197885" d="M1130.3,63.028c-3.994,10.972.934,22.838.934,22.838l15.395-16.895-.934-22.838s-11.4,5.923-15.4,16.9" fill="#a8be95"/>
    <path id="Trazado_197886" data-name="Trazado 197886" d="M1144.26,67.51c-7.505,8.944-6.934,21.78-6.934,21.78l20.245-10.611,6.934-21.779s-12.74,1.666-20.245,10.61" fill="#ffa39d"/>
    <path id="Trazado_197887" data-name="Trazado 197887" d="M1155.779,77.484c-10.112,5.838-13.965,18.1-13.965,18.1l22.653-3.046,13.965-18.095s-12.541-2.792-22.653,3.046" fill="#a8be95"/>
    <path id="Trazado_197888" data-name="Trazado 197888" d="M1157.456,91.485c-11.5,2.028-19.312,12.227-19.312,12.227l21.979,4.151,19.662-11.493s-10.83-6.913-22.329-4.885" fill="#ffa39d"/>
    <path id="Trazado_197889" data-name="Trazado 197889" d="M1155.723,105.271c-11.5-2.028-22.329,4.885-22.329,4.885l18.288,9.111,23.353-1.769s-7.813-10.2-19.312-12.227" fill="#a8be95"/>
    <path id="Trazado_197890" data-name="Trazado 197890" d="M1152.532,117.541c-10.112-5.838-22.653-3.046-22.653-3.046s3.853,12.257,13.965,18.095,22.653,3.046,22.653,3.046-3.853-12.257-13.965-18.1" fill="#ffa39d"/>
    <path id="Trazado_197891" data-name="Trazado 197891" d="M1133.615,63.577c0,11.676-8.688,21.142-8.688,21.142V42.435s8.688,9.466,8.688,21.142" fill="#c77075"/>
    <path id="Trazado_197892" data-name="Trazado 197892" d="M1131.231,85.866s11.4-5.923,15.4-16.895-.934-22.838-.934-22.838Z" fill="#7b9f62"/>
    <path id="Trazado_197893" data-name="Trazado 197893" d="M1141.814,95.578s12.541,2.792,22.653-3.045,13.965-18.1,13.965-18.1Z" fill="#7b9f62"/>
    <path id="Trazado_197894" data-name="Trazado 197894" d="M1137.326,89.29s12.74-1.666,20.245-10.611,6.934-21.779,6.934-21.779Z" fill="#c77075"/>
    <path id="Trazado_197895" data-name="Trazado 197895" d="M1138.144,103.712s10.83,6.913,22.329,4.885,19.312-12.227,19.312-12.227Z" fill="#c77075"/>
    <path id="Trazado_197896" data-name="Trazado 197896" d="M1129.879,114.494s3.853,12.257,13.965,18.1,22.653,3.047,22.653,3.047Z" fill="#c77075"/>
    <path id="Trazado_197897" data-name="Trazado 197897" d="M1133.394,110.156s7.813,10.2,19.312,12.227,22.329-4.885,22.329-4.885Z" fill="#7b9f62"/>
    <path id="Trazado_197898" data-name="Trazado 197898" d="M1119.556,63.028c3.994,10.972-.934,22.838-.934,22.838l-14.461-39.733s11.4,5.923,15.4,16.9" fill="#7b9f62"/>
    <path id="Trazado_197899" data-name="Trazado 197899" d="M1094.075,77.484c10.112,5.838,13.965,18.1,13.965,18.1l-36.618-21.141s12.541-2.792,22.653,3.046" fill="#7b9f62"/>
    <path id="Trazado_197900" data-name="Trazado 197900" d="M1094.131,105.271c11.5-2.028,22.329,4.885,22.329,4.885l-41.64,7.342s7.812-10.2,19.311-12.227" fill="#7b9f62"/>
    <path id="Trazado_197901" data-name="Trazado 197901" d="M1105.594,67.51c7.505,8.944,6.934,21.78,6.934,21.78L1085.349,56.9S1098.089,58.566,1105.594,67.51Z" fill="#c77075"/>
    <path id="Trazado_197902" data-name="Trazado 197902" d="M1092.4,91.485c11.5,2.028,19.312,12.227,19.312,12.227l-41.641-7.342s10.83-6.913,22.329-4.885" fill="#c77075"/>
    <path id="Trazado_197903" data-name="Trazado 197903" d="M1097.322,117.541c10.112-5.838,22.653-3.046,22.653-3.046l-36.618,21.141s3.853-12.257,13.965-18.1" fill="#c77075"/>
    <path id="Trazado_197904" data-name="Trazado 197904" d="M1124.9,155.769h-13.249V135.188H1124.9l4.373,10.328Z" fill="#bb5f19"/>
    <path id="Trazado_197905" data-name="Trazado 197905" d="M1138.144,155.769l-13.249.077V135.188h13.249Z" fill="#8e4813"/>
    <path id="Trazado_197906" data-name="Trazado 197906" d="M1101.781,91.581v28.383a23.115,23.115,0,0,0,46.229,0V91.581L1124.9,82.335Z" fill="#e17726"/>
    <path id="Trazado_197907" data-name="Trazado 197907" d="M1124.9,143.079a23.114,23.114,0,0,0,23.114-23.114V91.582L1124.9,82.335Z" fill="#bb5f19"/>
    <path id="Trazado_197908" data-name="Trazado 197908" d="M1128.382,115.073l-3.486,11.189h-6.4l3.453-24.558h2.951Z" fill="#bb5f19"/>
    <path id="Trazado_197909" data-name="Trazado 197909" d="M1124.9,126.262h6.4l-3.452-24.558H1124.9Z" fill="#8e4813"/>
    <path id="Trazado_197910" data-name="Trazado 197910" d="M1101.781,109.571a23.115,23.115,0,1,1,44.092,9.705,27.445,27.445,0,1,0-41.956,0,23.018,23.018,0,0,1-2.136-9.705" fill="#ffd944"/>
    <path id="Trazado_197911" data-name="Trazado 197911" d="M1148.01,109.571a23.019,23.019,0,0,1-2.136,9.705A27.444,27.444,0,0,0,1124.9,74.137v12.32a23.114,23.114,0,0,1,23.115,23.114" fill="#ffbd32"/>
    <path id="Trazado_197912" data-name="Trazado 197912" d="M1108.846,141.032c0-9.39-6.987-17-6.987-17s-6.988,7.613-6.988,17a20.352,20.352,0,0,0,.405,3.969l5.294-3.322-4.3,6.856a31.273,31.273,0,0,0,5.591,9.5,30.634,30.634,0,0,0,4.087-6.077l-3.3-5.254,4.434,2.783A22.611,22.611,0,0,0,1108.846,141.032Z" fill="#f7f9fa"/>
    <path id="Trazado_197913" data-name="Trazado 197913" d="M1155.175,141.032c0-9.39-6.987-17-6.987-17s-6.988,7.613-6.988,17A20.361,20.361,0,0,0,1141.6,145l5.294-3.322-4.3,6.856a31.271,31.271,0,0,0,5.591,9.5,30.634,30.634,0,0,0,4.087-6.077l-3.3-5.254,4.434,2.783A22.611,22.611,0,0,0,1155.175,141.032Z" fill="#dbe1e8"/>
    <path id="Trazado_197914" data-name="Trazado 197914" d="M1101.858,112.653a7.975,7.975,0,1,1-7.975,7.976,7.976,7.976,0,0,1,7.975-7.976" fill="#ffeddc"/>
    <path id="Trazado_197915" data-name="Trazado 197915" d="M1101.858,123.98a3.352,3.352,0,1,1,3.352-3.352,3.356,3.356,0,0,1-3.352,3.352" fill="#f3e5d2"/>
    <path id="Trazado_197916" data-name="Trazado 197916" d="M1147.933,112.653a7.975,7.975,0,1,1-7.975,7.976,7.976,7.976,0,0,1,7.975-7.976" fill="#e0cab4"/>
    <path id="Trazado_197917" data-name="Trazado 197917" d="M1147.932,123.98a3.352,3.352,0,1,1,3.352-3.352,3.356,3.356,0,0,1-3.352,3.352" fill="#ffeddc"/>
    <path id="Trazado_197918" data-name="Trazado 197918" d="M868.6,152.724c-36.384,0-61.243,7.567-61.243,17.406,0,4.113,2.466,8.779,3.645,10.774a2.017,2.017,0,0,0,1.736.99h12.172l43.808-4.6,43.572,4.6h12.172a2.014,2.014,0,0,0,1.735-.99c1.18-2,3.646-6.661,3.646-10.774C929.842,160.291,904.982,152.724,868.6,152.724Z" fill="#3b68b0"/>
    <path id="Trazado_197919" data-name="Trazado 197919" d="M905,181.893h7.29a61.3,61.3,0,0,0,.074-14.076l-13.908-3.733Z" fill="#d97b7b"/>
    <path id="Trazado_197920" data-name="Trazado 197920" d="M889.9,158.085l10.974,23.808H905l-3.855-15.12c4.216.281,7.948.62,11.22,1.044a43.913,43.913,0,0,0-1-5.658Z" fill="#d16161"/>
    <path id="Trazado_197921" data-name="Trazado 197921" d="M836.328,181.893h-6.687c-1.378-3.221-1.781-11.831-1.247-16.516l18.908-7.292Z" fill="#d97b7b"/>
    <path id="Trazado_197922" data-name="Trazado 197922" d="M829.641,181.893h-4.733a60.027,60.027,0,0,1,.924-19.734l21.47-4.074-7.191,8.318c-2.68.179-6.8.531-10.3.872a65.559,65.559,0,0,0-.174,14.618" fill="#d16161"/>
    <path id="Trazado_197923" data-name="Trazado 197923" d="M868.717,167.167l-23.66,1.915-3.121,12.811H900.87l-2.941-12.037Z" fill="#8c818f"/>
    <path id="Trazado_197924" data-name="Trazado 197924" d="M839.269,169.856l-2.941,12.037h8.3l3.12-12.811Z" fill="#655e67"/>
    <path id="Trazado_197925" data-name="Trazado 197925" d="M897.11,166.5l-51.367-2.928,1.814,6.28h50.372Z" fill="#e7afaf"/>
    <path id="Trazado_197926" data-name="Trazado 197926" d="M868.6,166.168c8.147,0,18.577-.067,28.511.336l-1.948-7.976H842.036l-2.767,11.328h8.288a4.779,4.779,0,0,1,4.588-3.646C858.05,166.144,863.732,166.168,868.6,166.168Z" fill="#d97b7b"/>
    <path id="Trazado_197927" data-name="Trazado 197927" d="M826.588,160.46c12.61-1.142,30.812-1.821,42.011-1.821,3.549,0,53.818-.477,59.489,4.207-5.184-13.69-21.24-37.7-39.568-49.278H857.683c-15.694,15.815-29.312,31.093-32.959,41.82-.42,1.238.562,5.19,1.864,5.072" fill="#80b6fc"/>
    <path id="Trazado_197928" data-name="Trazado 197928" d="M886.811,156.822a1.8,1.8,0,0,1-1.771-1.634l-1.753-18.754-4.875-.038,1.9,20.367c-4.186-.019-8.168-.006-11.717-.006-11.2,0-26.711-.128-39.322,1.015a1.8,1.8,0,0,1-1.863-2.383c3.646-10.727,14.576-26.006,30.27-41.82h-9.006c-22.349,14.121-41.322,46.721-41.322,56.561,0-9.839,39.073-9.339,61.243-9.339s61.243-.5,61.243,9.339a22.545,22.545,0,0,0-1.754-7.283C922.418,158.163,903.936,157.069,886.811,156.822Z" fill="#5a86cc"/>
    <path id="Trazado_197929" data-name="Trazado 197929" d="M924.368,154.757c-3.961-1.1-10.092-2.111-19.339-2.863-6.472-.526-13.617-.829-20.39-1l-2.025,1.683-2.856-1.784c-4.044-.066-7.848-.089-11.159-.089-9.961,0-24.367.206-36.43,1.187q-1.84.148-3.518.312c-.476,1.1-3.848,2.162-4.2,3.183-.116.342,2.836.686,2.911,1,1.64-.174,3.427-.341,5.378-.5,11.887-.954,26.059-1.154,35.855-1.154,3.409,0,7.348.025,11.536.1l2.561-1.371,2.321,1.475c6.473.166,13.263.458,19.436.953,18.156,1.456,22.3,3.837,22.467,4.113A30.976,30.976,0,0,0,924.368,154.757Z" fill="#d97b7b"/>
    <path id="Trazado_197930" data-name="Trazado 197930" d="M810.277,160.006c.147-.246,3.467-2.169,17.09-3.615a1.789,1.789,0,0,1,.047-1q.52-1.53,1.237-3.182a96.177,96.177,0,0,0-15.821,2.55,30.976,30.976,0,0,0-2.553,5.25" fill="#d16161"/>
    <path id="Trazado_197931" data-name="Trazado 197931" d="M885.017,154.941l-.378-4.044c-1.655-.041-3.286-.074-4.881-.1l.377,4.04C881.732,154.864,883.364,154.9,885.017,154.941Z" fill="#d16161"/>
    <path id="Trazado_197932" data-name="Trazado 197932" d="M832.857,131.1a92.653,92.653,0,0,0,9.234,19.389,1.244,1.244,0,0,0,2.307-.646V122.979c-2.984.064-13.1,3.287-11.541,8.122" fill="#5a86cc"/>
    <path id="Trazado_197933" data-name="Trazado 197933" d="M879.675,109.321l-34.387,9.306a31.274,31.274,0,0,0-.889,7.45c0,13.974,9.029,22.613,20.167,22.613s20.167-8.639,20.167-22.613a29.146,29.146,0,0,0-5.058-16.756" fill="#5a86cc"/>
    <path id="Trazado_197934" data-name="Trazado 197934" d="M883.708,105.288l-34.387,9.306a31.273,31.273,0,0,0-.889,7.45c0,13.974,9.029,22.613,20.167,22.613s20.167-8.639,20.167-22.613A29.146,29.146,0,0,0,883.708,105.288Z" fill="#c8c3ca"/>
    <path id="Trazado_197935" data-name="Trazado 197935" d="M883.708,105.288c-3.7-5.24-9.094-8.546-15.109-8.546-9.071,0-16.743,7.515-19.278,17.852,4.2,3.524,9.3,5.669,13.686,5.669C870.5,120.263,880.08,114,883.708,105.288Z" fill="#a29aa5"/>
    <path id="Trazado_197936" data-name="Trazado 197936" d="M885.191,91.487l-4.53,19c-.467,11.357-5.687,18.042-12.062,18.042-4.434,0-8.309-3.236-10.417-9.025l-9.437-5.4c1.681,13.8,9.931,22.492,19.854,22.492,11.138,0,20.167-10.954,20.167-27.782a41.871,41.871,0,0,0-3.575-17.322" fill="#f3f1f4"/>
    <path id="Trazado_197937" data-name="Trazado 197937" d="M856.5,108.808c0-12.373,5.417-22.4,12.1-22.4s12.1,10.031,12.1,22.4c0,.57-.016,1.125-.038,1.673a20.358,20.358,0,0,0,4.529-12.4V91.487c-3.639-7.945-9.713-13.15-16.592-13.15-11.138,0-20.167,13.643-20.167,30.471a43.913,43.913,0,0,0,.313,5.29,25.79,25.79,0,0,0,9.438,5.4A31.38,31.38,0,0,1,856.5,108.808Z" fill="#c8c3ca"/>
    <path id="Trazado_197938" data-name="Trazado 197938" d="M846.415,80.645c-5.147-1.26-8.067,1.741-8.067,6.6,0,4.138,2.49,8.383,8.081,8.383h44.34c5.591,0,8.08-4.245,8.08-8.383,0-4.861-2.92-7.862-8.066-6.6Z" fill="#e3a76f"/>
    <path id="Trazado_197939" data-name="Trazado 197939" d="M850.9,78.5V92.7c0,12.252,9.1,22.183,17.7,22.183,9.439,0,22.183-9.931,22.183-22.183V66.511L868.594,56.322C868.4,56.451,850.9,66.332,850.9,78.5" fill="#f4c497"/>
    <path id="Trazado_197940" data-name="Trazado 197940" d="M853.59,92.7V72.156c15.009,4.731,37.192,2.559,37.192-6.468l-22.2-9.368L846.415,66.511V92.7c0,12.252,12.744,22.184,22.184,22.184-6.387,0-15.009-9.932-15.009-22.184" fill="#e3a76f"/>
    <path id="Trazado_197941" data-name="Trazado 197941" d="M872.959,79.583a2.016,2.016,0,0,0,2.852,0c1.526-1.527,6.681-1.306,7.986,0a2.017,2.017,0,0,0,2.852-2.852c-3.007-3.007-10.683-3.007-13.69,0a2.018,2.018,0,0,0,0,2.852" fill="#8c818f"/>
    <path id="Trazado_197942" data-name="Trazado 197942" d="M868.6,106.4a12.063,12.063,0,0,1-6.34-1.936,2.017,2.017,0,0,1,2.273-3.332,7.316,7.316,0,0,0,8.126.006,2.017,2.017,0,0,1,2.282,3.326A12.076,12.076,0,0,1,868.6,106.4" fill="#ab7b64"/>
    <path id="Trazado_197943" data-name="Trazado 197943" d="M868.6,94.3a2.478,2.478,0,0,0,1.113-.332,2.017,2.017,0,0,1,2.283,3.326,6.068,6.068,0,0,1-6.791,0,2.017,2.017,0,0,1,2.282-3.326,2.478,2.478,0,0,0,1.113.332" fill="#e3a76f"/>
    <path id="Trazado_197944" data-name="Trazado 197944" d="M878.193,91.376a2.017,2.017,0,0,1-2.017-2.017V85.074a2.017,2.017,0,1,1,4.034,0v4.285a2.017,2.017,0,0,1-2.017,2.017" fill="#655e67"/>
    <path id="Trazado_197945" data-name="Trazado 197945" d="M859.37,91.376a2.017,2.017,0,0,1-2.017-2.017V85.074a2.017,2.017,0,1,1,4.034,0v4.285a2.017,2.017,0,0,1-2.017,2.017" fill="#655e67"/>
    <path id="Trazado_197946" data-name="Trazado 197946" d="M864.239,76.731c-2.244-2.243-7.085-2.812-10.648-1.708l-.807,2.3.807,2.1c1.55-1.16,6.334-1.3,7.795.16a2.017,2.017,0,0,0,2.853-2.852" fill="#8c818f"/>
    <path id="Trazado_197947" data-name="Trazado 197947" d="M850.548,76.731a2.017,2.017,0,0,0,2.852,2.852,1.794,1.794,0,0,1,.19-.16v-4.4a7.372,7.372,0,0,0-3.042,1.708" fill="#655e67"/>
    <path id="Trazado_197948" data-name="Trazado 197948" d="M853.59,76.406l3.278-3.352L850.9,69.467Z" fill="#8c818f"/>
    <path id="Trazado_197949" data-name="Trazado 197949" d="M846.415,65.688c-4.026,6.437,0,18.053,0,18.053l7.175-7.335v-4.25c1.06.334,2.157.633,3.279.9L861.4,68.42Z" fill="#655e67"/>
    <path id="Trazado_197950" data-name="Trazado 197950" d="M890.783,65.688c4.026,6.437,0,18.053,0,18.053l-9.989-10.212Z" fill="#8c818f"/>
    <path id="Trazado_197951" data-name="Trazado 197951" d="M890.783,65.688,875.8,68.42l5,5.109c5.878-1.342,9.989-3.956,9.989-7.841" fill="#655e67"/>
    <path id="Trazado_197952" data-name="Trazado 197952" d="M868.6,52.286c16.336,0,29.578,3.612,29.578,8.067S884.935,68.42,868.6,68.42s-29.578-3.612-29.578-8.067,13.242-8.067,29.578-8.067" fill="#faf0b0"/>
    <path id="Trazado_197953" data-name="Trazado 197953" d="M866.717,51.479c12.252,0,22.184,2.71,22.184,6.05s-9.932,6.05-22.184,6.05-22.184-2.707-22.184-6.05,9.932-6.05,22.184-6.05" fill="#f4c497"/>
    <path id="Trazado_197954" data-name="Trazado 197954" d="M868.6,48.253c12.252,0,22.184,2.709,22.184,6.05s-9.932,6.05-22.184,6.05-22.184-2.708-22.184-6.05,9.932-6.05,22.184-6.05" fill="#fefae3"/>
  </g>
</svg>
