<svg id="Grupo_145374" data-name="Grupo 145374" xmlns="http://www.w3.org/2000/svg" xmlns:xlink="http://www.w3.org/1999/xlink" width="221.294" height="445.733" viewBox="0 0 221.294 445.733">
  <defs>
    <clipPath id="clip-path">
      <rect id="Rectángulo_44244" data-name="Rectángulo 44244" width="221.294" height="445.733" fill="none"/>
    </clipPath>
  </defs>
  <g id="Grupo_145373" data-name="Grupo 145373" clip-path="url(#clip-path)">
    <path id="Trazado_197955" data-name="Trazado 197955" d="M66.419,222.334c-.078-.028-.159-.056-.236-.085l.007.021.229.064" fill="#f9be6e"/>
    <path id="Trazado_197956" data-name="Trazado 197956" d="M199.13,284.6c0,.083-.007.169-.01.253l.027-.239-.017-.014" fill="#f9be6e"/>
    <path id="Trazado_197957" data-name="Trazado 197957" d="M183.229,199.8l-.447-29.422-3.661,28.059h1.1a4.022,4.022,0,0,1,3.01,1.363" fill="#f9be6e"/>
    <path id="Trazado_197958" data-name="Trazado 197958" d="M180.222,207.411h-.733l9.526,72.794a46.775,46.775,0,0,1,3.9-4.018c.827-.758,1.641-1.443,2.439-2.086L183.443,205.79a4.027,4.027,0,0,1-3.221,1.621" fill="#f9be6e"/>
    <path id="Trazado_197959" data-name="Trazado 197959" d="M184.443,157.654l28.984-.008h3.821a4.052,4.052,0,0,0,4.047-4.05v-.885a4.047,4.047,0,0,0-4.05-4.045l-3.821,0-27.81.007Z" fill="#f3e5ce"/>
    <path id="Trazado_197960" data-name="Trazado 197960" d="M176.828,326.327l-14.28.005V331.2h-3.317v-4.865l-3.317,0,0,4.866H152.6v-4.865H149.28V331.2h-3.316l0-4.866-3.317,0v4.866h-.618l.025,74.858,4.023,0h5.355l3.064,0h4.975l4.975,0h12.441l-.028-86.06h-.034Z" fill="#a84d17"/>
    <rect id="Rectángulo_44236" data-name="Rectángulo 44236" width="0.037" height="0.001" transform="translate(77.971 306.056)" fill="#a84d17"/>
    <path id="Trazado_197961" data-name="Trazado 197961" d="M112.794,326.348h-3.318v4.868h-3.316l0-4.866h-3.316l0,4.867H99.526v-4.866H96.208l0,4.865-3.316,0,0-4.867-14.878.006,0-6.334h-.035L78,406.085l4.025,0h1.785l9.951,0h1.656l4.976,0h12.442l0,4.782-.026-79.643H112.8Z" fill="#a84d17"/>
    <path id="Trazado_197962" data-name="Trazado 197962" d="M103.34,100.3l0,9.237a6.454,6.454,0,0,1-.911-.363c.417,1.681.9,3.3,1.427,4.872a2.842,2.842,0,0,1,.479-.1,3.024,3.024,0,0,1,3.024,3.024l0,5.27a40.873,40.873,0,0,0,3.8,5.907,2.972,2.972,0,0,1,1.925-.741,3.025,3.025,0,0,1,3.024,3.024l0,2.776a18.577,18.577,0,0,0,10.9,4.293v-.193a3.025,3.025,0,0,1,3.024-3.027,2.982,2.982,0,0,1,2.893,2.373,20.823,20.823,0,0,0,6.562-3.8v-2.425a3.024,3.024,0,0,1,3.024-3.024,2.935,2.935,0,0,1,1.636.545,39.495,39.495,0,0,0,2.619-3.833c.517-.872.993-1.793,1.464-2.719l0-4.433a3.026,3.026,0,0,1,3.024-3.028c.023,0,.041.013.064.013.494-1.488.95-3.008,1.342-4.577-.24.094-.414.152-.414.152l0-9.24a2.983,2.983,0,0,1,2.307-2.88c.139-1.807.228-3.632.241-5.481-3.7-.155-7.584-.279-11.621-.368l-.008-24.673q.57-1.111,1.065-2.3c.409-.987.784-2,1.109-3.064a38.147,38.147,0,0,0,1.546-8.285c.076-1.018.122-2.049.122-3.1,0-.2-.013-.372-.014-.567a64.085,64.085,0,0,0-.661-9.106,3.649,3.649,0,0,1-1.578-.41,40.939,40.939,0,0,0-34.623.1,3.648,3.648,0,0,1-1.312.316,59.13,59.13,0,0,0-.713,9.112c0,.194-.014.367-.014.564,0,1.048.047,2.08.125,3.1a38.12,38.12,0,0,0,1.55,8.282c.325,1.061.7,2.079,1.112,3.066a31,31,0,0,0,1.666,3.46l.009,23.5c-4.253.093-8.341.224-12.222.388.013,1.826.1,3.62.236,5.389a3,3,0,0,1,2.769,2.973m33.108-54.621c.53,0,.964.857.964,1.915s-.431,1.918-.964,1.918-.964-.857-.964-1.918.431-1.915.964-1.915M134.3,50.45a.46.46,0,0,1,.576.3A3.928,3.928,0,0,0,138.5,53.18a.459.459,0,0,1-.035.916l-.036,0A4.817,4.817,0,0,1,134,51.024a.457.457,0,0,1,.3-.574m-8.225-1.068a1.531,1.531,0,0,1,2.892.254c.721,2.882,2.118,9.512-.345,9.306-2.256-.187-3.636-6.705-2.547-9.56m-3.233,15.439a16.284,16.284,0,0,0,2.657.827c.259.056.522.1.781.147a.792.792,0,0,1,.1.025c.029,0,.021,0,.078.006.462.045.924.086,1.388.1s.931.007,1.393-.018l.6-.046.383-.042a17.265,17.265,0,0,0,2.695-.671,2.312,2.312,0,0,1,2.821,1.6,2.347,2.347,0,0,1-1.6,2.821,18.251,18.251,0,0,1-12.511-.327,2.351,2.351,0,0,1-1.6-2.819,2.318,2.318,0,0,1,2.821-1.6m-3.491-19.138c.533,0,.964.857.964,1.915s-.431,1.919-.961,1.919-.965-.858-.965-1.916.429-1.918.962-1.918M117.3,53.188a3.931,3.931,0,0,0,3.625-2.436.467.467,0,0,1,.576-.3.458.458,0,0,1,.3.574,4.819,4.819,0,0,1-4.43,3.072l-.036,0a.459.459,0,0,1-.035-.916m-4.745,31.494,0-16.632c3.571,6.246,8.969,10.226,15.01,10.223,6.117,0,11.566-4.091,15.132-10.473h.474l0,6.008s-7.53,23.459-30.614,10.874" fill="#a84d17"/>
    <path id="Trazado_197963" data-name="Trazado 197963" d="M143.169,73.807l0-6.008h-.474c-3.565,6.383-9.015,10.473-15.132,10.474-6.04,0-11.439-3.976-15.01-10.224l0,16.633c23.084,12.585,30.614-10.875,30.614-10.875" fill="#8d3914"/>
    <path id="Trazado_197964" data-name="Trazado 197964" d="M146.888,53.226c1.079-1.612,2.388-2.52,3.421-2.162,1.512.522,1.847,3.514.748,6.685s-3.209,5.313-4.722,4.79a1.811,1.811,0,0,1-.993-1.028c-.324,1.06-.7,2.078-1.109,3.065a3.229,3.229,0,0,0,1.154.749c2.735.947,6.266-2.083,7.888-6.766s.72-9.249-2.015-10.2a4.484,4.484,0,0,0-4.264,1.2c0,.2.014.368.014.567,0,1.047-.045,2.079-.122,3.1" fill="#8d3914"/>
    <path id="Trazado_197965" data-name="Trazado 197965" d="M146.335,62.54c1.512.523,3.626-1.621,4.722-4.79s.764-6.163-.749-6.686c-1.032-.357-2.341.551-3.42,2.163a38.147,38.147,0,0,1-1.546,8.285,1.811,1.811,0,0,0,.993,1.028" fill="#29120b"/>
    <path id="Trazado_197966" data-name="Trazado 197966" d="M108.777,62.552c-1.512.522-3.626-1.62-4.727-4.788s-.766-6.162.746-6.685c1.033-.358,2.343.549,3.423,2.161-.077-1.019-.124-2.051-.124-3.1,0-.2.013-.37.014-.564a4.483,4.483,0,0,0-4.267-1.2c-2.732.948-3.633,5.515-2.009,10.2s5.16,7.711,7.895,6.762a3.259,3.259,0,0,0,1.154-.752c-.41-.987-.787-2-1.112-3.065a1.815,1.815,0,0,1-.993,1.03" fill="#8d3914"/>
    <path id="Trazado_197967" data-name="Trazado 197967" d="M104.8,51.079c-1.512.523-1.846,3.517-.747,6.686s3.215,5.31,4.727,4.787a1.82,1.82,0,0,0,.994-1.03,38.179,38.179,0,0,1-1.552-8.282c-1.08-1.613-2.391-2.52-3.422-2.161" fill="#29120b"/>
    <path id="Trazado_197968" data-name="Trazado 197968" d="M140.4,30.662l.016,0c0-.018,0-.035,0-.053-.005.017-.011.032-.017.049" fill="#a84d17"/>
    <path id="Trazado_197969" data-name="Trazado 197969" d="M130.822,29.075h.017l-.007-.054c0,.018-.006.035-.01.053" fill="#a84d17"/>
    <path id="Trazado_197970" data-name="Trazado 197970" d="M128.618,58.942c2.464.206,1.066-6.424.345-9.306a1.531,1.531,0,0,0-2.892-.254c-1.089,2.854.291,9.372,2.547,9.56" fill="#8d3914"/>
    <path id="Trazado_197971" data-name="Trazado 197971" d="M136.448,49.511c.533,0,.964-.86.964-1.918s-.434-1.916-.964-1.916-.964.858-.964,1.916.431,1.918.964,1.918" fill="#29120b"/>
    <path id="Trazado_197972" data-name="Trazado 197972" d="M119.35,49.516c.53,0,.962-.86.962-1.918s-.432-1.916-.965-1.916-.963.858-.961,1.918.431,1.916.964,1.916" fill="#29120b"/>
    <path id="Trazado_197973" data-name="Trazado 197973" d="M120.017,66.424a2.35,2.35,0,0,0,1.6,2.819,18.251,18.251,0,0,0,12.511.327,2.347,2.347,0,0,0,1.6-2.821,2.312,2.312,0,0,0-2.821-1.6,17.293,17.293,0,0,1-2.695.671l-.383.042-.6.046c-.462.025-.929.03-1.393.017s-.926-.053-1.388-.1c-.057,0-.049,0-.079,0a.749.749,0,0,0-.1-.025c-.259-.051-.523-.091-.781-.147a16.284,16.284,0,0,1-2.657-.827,2.318,2.318,0,0,0-2.821,1.6m2.377.051c5.029,2.261,11.364.7,11.427.685a.459.459,0,0,1,.224.891,23.094,23.094,0,0,1-5.179.578,16.834,16.834,0,0,1-6.85-1.319l-.228-.607Z" fill="#8d3914"/>
    <path id="Trazado_197974" data-name="Trazado 197974" d="M128.867,68.629a23.1,23.1,0,0,0,5.179-.578.459.459,0,0,0-.224-.891c-.063.015-6.4,1.576-11.427-.685l-.607.228.229.607a16.831,16.831,0,0,0,6.85,1.319" fill="#29120b"/>
    <path id="Trazado_197975" data-name="Trazado 197975" d="M138.43,54.093l.035,0a.459.459,0,0,0,.036-.917,3.926,3.926,0,0,1-3.628-2.433.461.461,0,0,0-.576-.3.456.456,0,0,0-.3.573,4.82,4.82,0,0,0,4.433,3.07" fill="#29120b"/>
    <path id="Trazado_197976" data-name="Trazado 197976" d="M117.335,54.1l.036,0a4.818,4.818,0,0,0,4.43-3.072.457.457,0,0,0-.3-.573.465.465,0,0,0-.576.3,3.93,3.93,0,0,1-3.625,2.436.459.459,0,0,0,.035.916" fill="#29120b"/>
    <path id="Trazado_197977" data-name="Trazado 197977" d="M174.4,420.024l-3.316,0,0-13.971h-3.316l.005,13.97-3.319,0,0-13.971h-3.318l.005,13.97h-3.316l0-13.969h-3.316l.005,13.971h-3.319l-.005-13.97H147.86l.005,13.972h-3.316l0-13.97h-2.492l.008,22.211,0,7.063a10.361,10.361,0,0,0,10.365,10.36l57.546-.018a13.276,13.276,0,0,0-8.583-12.414l-24.5-9.256,0-17.956H174.4Z" fill="#29120b"/>
    <path id="Trazado_197978" data-name="Trazado 197978" d="M112.839,406.075h-2.491l0,13.969-3.316,0-.005-13.971h-3.316l0,13.97-3.316,0,0-13.971H97.081l0,13.97-3.319,0,0-13.972-9.951,0,0,13.971H80.5l0-13.969,1.534,0-4.025,0,.006,17.958-24.49,9.271a13.273,13.273,0,0,0-8.576,12.419l57.546-.02a10.359,10.359,0,0,0,10.36-10.364l-.008-24.492h0Zm-25.7,13.977-.005-13.97h3.316l0,13.97Z" fill="#29120b"/>
    <path id="Trazado_197979" data-name="Trazado 197979" d="M92.628,160.821c-17.494-5.5-25.1-25.831-25.1-25.831l8,63.477L97.7,198.46Z" fill="#8d3914"/>
    <path id="Trazado_197980" data-name="Trazado 197980" d="M186.885,134.952S179.291,155.288,161.8,160.8l-5.047,37.642,22.174-.007Z" fill="#8d3914"/>
    <path id="Trazado_197981" data-name="Trazado 197981" d="M162.546,320v6.333l14.281-.005,0-6.333h-1.013l-.005-13.97h-3.316L172.5,320H169.18l0-13.969,1.792,0-5.108,0,0,13.969Z" fill="#8d3914"/>
    <path id="Trazado_197982" data-name="Trazado 197982" d="M154.789,317.232h1.122l0,9.1h3.316l0-9.1Z" fill="#8d3914"/>
    <rect id="Rectángulo_44237" data-name="Rectángulo 44237" width="3.318" height="9.104" transform="translate(149.278 317.233)" fill="#8d3914"/>
    <rect id="Rectángulo_44238" data-name="Rectángulo 44238" width="3.316" height="9.104" transform="translate(142.645 317.235)" fill="#8d3914"/>
    <rect id="Rectángulo_44239" data-name="Rectángulo 44239" width="3.316" height="9.103" transform="translate(102.842 317.248)" fill="#8d3914"/>
    <rect id="Rectángulo_44240" data-name="Rectángulo 44240" width="3.317" height="9.102" transform="translate(109.476 317.246)" fill="#8d3914"/>
    <rect id="Rectángulo_44241" data-name="Rectángulo 44241" width="3.318" height="9.103" transform="translate(96.207 317.25)" fill="#8d3914"/>
    <path id="Trazado_197983" data-name="Trazado 197983" d="M79.417,306.055h0Z" fill="#8d3914"/>
    <path id="Trazado_197984" data-name="Trazado 197984" d="M78.012,320.026l0,6.334,14.879-.005,0-9.1h-.156v2.77H89.416l-.005-13.97H86.095l0,13.972H82.784l0-13.97,2.12,0-5.436,0,0,13.97Z" fill="#8d3914"/>
    <path id="Trazado_197985" data-name="Trazado 197985" d="M179.49,207.411h.733a4.08,4.08,0,0,0,4.046-4.046l0-.885a4.084,4.084,0,0,0-4.047-4.047h-1.292l-22.174.006L97.7,198.46l-22.173.007H73.858a4.047,4.047,0,0,0-4.044,4.05v.884a4.048,4.048,0,0,0,4.049,4.046h.217l-1.364,11.866c.269.072.536.141.807.214,8.822,2.359,15.695,5.315,15.353,6.6-.336,1.251-7.385.457-15.891-1.761.372.127.742.25,1.119.383,9.525,3.324,16.893,7.035,16.454,8.294-.4,1.147-7.174-.154-15.6-2.915,6.725,2.621,11.471,5.278,11.1,6.348-.38,1.085-5.919.17-12.979-2.037,4.98,2.223,8.3,4.46,7.97,5.4-.351,1-4.753.423-10.549-1.26l-7.757,67.484,6.767,0h1.627l6.833,0h1.491l5.436,0h5.483l2.347,0-.01-31.5-8.514,8.519-8.412-8.407-8.407,8.413L65.711,281.4l1.756-15.277,8.326,8.32,8.407-8.411,8.519,8.514L92.7,207.441l69.812-.024.022,67.108,8.514-8.519,8.412,8.407,7.78-7.786,1.971,15.066-1.339,1.342-8.412-8.406-8.407,8.411-8.519-8.513.01,31.5h8.426l1.524,0h3.831l2.8,0h4.556l5.394,0h3.317l-2.785-21.282-.594-4.534Z" fill="#eec893"/>
    <path id="Trazado_197986" data-name="Trazado 197986" d="M139.363,317.237l3.281,0v0h3.316l3.316,0v0h9.951v0h3.318l-.005-11.2h0l-.01-31.5h0L150.8,286.263,139.21,274.682l-11.582,11.589-11.589-11.58-11.583,11.587L92.719,274.549l.01,31.5,0,11.2h.274l3.2,0h3.319l3.316,0v0h3.316l3.319,0v0H116l3.423,0h14.145l2.438,0h3.354Z" fill="#f3e5ce"/>
    <path id="Trazado_197987" data-name="Trazado 197987" d="M104.449,262.809l11.59,11.582L127.621,262.8l11.589,11.583,11.584-11.591,11.736,11.732h0l-.023-67.108-69.811.024.021,67.107h0Z" fill="#f3e5ce"/>
    <path id="Trazado_197988" data-name="Trazado 197988" d="M15.992,217.047,56.1,232.96a72.61,72.61,0,0,0,9.8,4.146c1.594.557,3.138,1.047,4.6,1.471,5.795,1.683,10.2,2.265,10.549,1.259.326-.936-2.99-3.173-7.97-5.4,7.06,2.208,12.6,3.122,12.978,2.037s-4.373-3.727-11.1-6.348c8.422,2.761,15.195,4.062,15.6,2.915.439-1.258-6.929-4.97-16.454-8.294-.377-.131-.747-.255-1.119-.382,8.506,2.217,15.555,3.011,15.891,1.76.342-1.287-6.531-4.242-15.353-6.6l-.807-.214c-3.243-.859-6.3-1.616-8.854-2.157,5.079-2.578,8.657-5.411,8.121-6.534-.576-1.2-5.628.02-11.28,2.727-.955.457-1.844.927-2.695,1.4L30.8,197.215l36.728-62.226,7.943,63.478h.056l-8-63.478s7.606,20.333,25.1,25.831L97.7,198.459l59.054-.02L161.8,160.8c17.491-5.51,25.085-25.846,25.085-25.846l-7.958,63.481h.195l3.661-28.059.446,29.422a4.019,4.019,0,0,1,1.038,2.684l0,.885a4,4,0,0,1-.826,2.426L195.357,274.1c-.8.643-1.611,1.328-2.439,2.086a46.775,46.775,0,0,0-3.9,4.018l.594,4.532a37.625,37.625,0,0,0,5.662-4.2c-.491,2.79-.963,6.208-1.406,9.848-1.1,9.066-.929,16.546.393,16.705,1.286.158,3.179-6.674,4.3-15.39-.021.389-.044.776-.063,1.172-.474,10.08.221,18.3,1.553,18.362,1.215.058,2.537-6.72,3.116-15.576-.08,7.228.615,12.631,1.748,12.683,1.149.055,2.368-5.427,2.954-12.8.2,5.451,1.043,9.364,2.032,9.411,1.329.063,2.727-6.685,3.12-15.071a72.9,72.9,0,0,0-.187-10.622l.527-71.788.084.007-.015-49.832-28.984.008,1.171-8.979,27.81-.008-.007-22.8a31.753,31.753,0,0,0-30.781-31.715c-6.467-.945-15.805-1.711-26.922-2.2-.013,1.8-.1,3.579-.228,5.342a3.005,3.005,0,0,1,2.815,2.981c0,5.16-2.779,7.543-4.57,8.56q-.646,2.721-1.5,5.288a3,3,0,0,1,2.056,2.829c0,7.576-6.046,9.241-6.046,9.241l0-2.878c-.23.415-.438.855-.678,1.259a40.338,40.338,0,0,1-2.721,3.975,2.971,2.971,0,0,1,.7,1.871c0,7.576-6.046,9.24-6.046,9.24l0-5.643a21.308,21.308,0,0,1-6.458,3.561c-.156,7.32-6.018,8.965-6.018,8.965l0-8.127a19.169,19.169,0,0,1-10.9-4.067l0,5.319s-6.052-1.662-6.054-9.238a2.931,2.931,0,0,1,.515-1.592,40.454,40.454,0,0,1-3.214-4.733l0,2.1s-6.052-1.662-6.054-9.238a3,3,0,0,1,1.676-2.674c-.616-1.836-1.148-3.754-1.614-5.73-1.767-1.166-4.085-3.581-4.086-8.27a2.981,2.981,0,0,1,2.369-2.9c-.137-1.784-.226-3.591-.24-5.431-17.252.763-30.227,2.2-34.8,3.932a31.668,31.668,0,0,0-19.564,14.646L4.066,179.992l-.1-.067a25.32,25.32,0,0,0,12.029,37.122m50.427,5.286-.229-.064-.007-.02.236.084M199.13,284.6l.017.014-.027.239c0-.084.008-.17.01-.253" fill="#a84d17"/>
    <path id="Trazado_197989" data-name="Trazado 197989" d="M189.077,306.021l0,13.969H192.4l-.005-13.97h-3.316Z" fill="#f29100"/>
    <path id="Trazado_197990" data-name="Trazado 197990" d="M182.442,306.022l0,13.97h3.316l-.005-13.97h-3.316Z" fill="#f29100"/>
    <path id="Trazado_197991" data-name="Trazado 197991" d="M176.322,306.025h-.515l.005,13.97h3.319l-.005-13.971h0Z" fill="#f29100"/>
    <path id="Trazado_197992" data-name="Trazado 197992" d="M169.18,320H172.5l-.005-13.972h-3.316Z" fill="#f29100"/>
    <path id="Trazado_197993" data-name="Trazado 197993" d="M162.545,317.229h0V320l3.315,0,0-13.97h-3.319Z" fill="#f29100"/>
    <path id="Trazado_197994" data-name="Trazado 197994" d="M162.546,317.229h-3.318l0,9.1V331.2h3.317v-13.97Z" fill="#f8b133"/>
    <path id="Trazado_197995" data-name="Trazado 197995" d="M154.789,317.232h-2.194V331.2h3.319l0-4.867,0-9.1Z" fill="#f8b133"/>
    <path id="Trazado_197996" data-name="Trazado 197996" d="M149.276,317.232l-3.316,0h0l0,9.1,0,4.865h3.316l0-4.866,0-9.1Z" fill="#f8b133"/>
    <path id="Trazado_197997" data-name="Trazado 197997" d="M142.645,326.34l0-9.1h0l-3.28,0h-.038l.005,13.97h3.316Z" fill="#f8b133"/>
    <path id="Trazado_197998" data-name="Trazado 197998" d="M133.571,317.238h-.878l.005,13.969,3.316,0-.005-13.969h0Z" fill="#f8b133"/>
    <path id="Trazado_197999" data-name="Trazado 197999" d="M174.4,420.024l0-13.969h-3.318v0l.005,13.971Z" fill="#f8b133"/>
    <path id="Trazado_198000" data-name="Trazado 198000" d="M167.767,420.026l-.005-13.97h-3.316l0,13.972Z" fill="#f8b133"/>
    <path id="Trazado_198001" data-name="Trazado 198001" d="M161.133,420.029l-.005-13.97h-3.316l.005,13.969Z" fill="#f8b133"/>
    <path id="Trazado_198002" data-name="Trazado 198002" d="M154.5,420.031,154.5,406.06h0l-3.063,0h-.256l.005,13.97Z" fill="#f8b133"/>
    <path id="Trazado_198003" data-name="Trazado 198003" d="M144.549,420.034h3.316l-.005-13.972h-3.316Z" fill="#f8b133"/>
    <path id="Trazado_198004" data-name="Trazado 198004" d="M110.353,420.044l-.005-13.969h-3.316v0l.005,13.971Z" fill="#f8b133"/>
    <path id="Trazado_198005" data-name="Trazado 198005" d="M103.718,420.047l0-13.97H100.4l.005,13.972Z" fill="#f8b133"/>
    <path id="Trazado_198006" data-name="Trazado 198006" d="M97.086,420.049l-.005-13.97H93.765l0,13.972Z" fill="#f8b133"/>
    <rect id="Rectángulo_44242" data-name="Rectángulo 44242" width="3.316" height="13.97" transform="translate(87.132 406.082)" fill="#f8b133"/>
    <path id="Trazado_198007" data-name="Trazado 198007" d="M80.5,420.054h3.319l0-13.972H80.5Z" fill="#f8b133"/>
    <path id="Trazado_198008" data-name="Trazado 198008" d="M126.058,317.239v0l0,13.97,3.316,0-.005-13.969h-3.316Z" fill="#f8b133"/>
    <path id="Trazado_198009" data-name="Trazado 198009" d="M119.426,317.242h0l0,13.969h3.318l-.005-13.97Z" fill="#f8b133"/>
    <path id="Trazado_198010" data-name="Trazado 198010" d="M112.791,317.245l0,9.1,0,4.867h3.316l-.005-13.97h-3.316Z" fill="#f8b133"/>
    <path id="Trazado_198011" data-name="Trazado 198011" d="M106.161,331.217h3.316V317.244l-3.319,0h0l0,9.1Z" fill="#f8b133"/>
    <path id="Trazado_198012" data-name="Trazado 198012" d="M99.526,331.219h3.319l0-4.867,0-9.1v0l-3.316,0h0v13.969Z" fill="#f8b133"/>
    <path id="Trazado_198013" data-name="Trazado 198013" d="M92.894,331.222l3.316,0,0-4.865,0-9.1h0l-3.2,0h-.117l0,9.1Z" fill="#f8b133"/>
    <path id="Trazado_198014" data-name="Trazado 198014" d="M89.416,320.022h3.319v-2.771l0-11.2h0l-2.348,0h-.97Z" fill="#f29100"/>
    <path id="Trazado_198015" data-name="Trazado 198015" d="M82.784,320.025H86.1l0-13.972H84.9l-2.12,0Z" fill="#f29100"/>
    <path id="Trazado_198016" data-name="Trazado 198016" d="M79.465,320.025l0-13.97H77.971l-1.827,0,.005,13.969h3.316Z" fill="#f29100"/>
    <path id="Trazado_198017" data-name="Trazado 198017" d="M69.511,306.058l0,13.972,3.318,0-.005-13.97H69.511Z" fill="#f29100"/>
    <rect id="Rectángulo_44243" data-name="Rectángulo 44243" width="3.316" height="13.971" transform="translate(62.879 306.06)" fill="#f29100"/>
    <path id="Trazado_198018" data-name="Trazado 198018" d="M139.21,274.385,127.621,262.8l-11.582,11.59-11.59-11.582-11.73,11.739,11.738,11.73,11.582-11.587,11.59,11.58,11.581-11.589L150.8,286.263l11.729-11.737-11.736-11.732Z" fill="#eec893"/>
    <path id="Trazado_198019" data-name="Trazado 198019" d="M92.719,274.548,84.2,266.034l-8.407,8.412-8.326-8.321L65.711,281.4l1.675,1.673,8.407-8.412,8.412,8.406,8.514-8.519h0Z" fill="#c89a61"/>
    <path id="Trazado_198020" data-name="Trazado 198020" d="M162.532,274.526l8.519,8.514,8.407-8.412,8.412,8.406,1.339-1.342-1.971-15.065-7.78,7.785-8.412-8.407-8.514,8.519h0Z" fill="#c89a61"/>
    <path id="Trazado_198021" data-name="Trazado 198021" d="M151.324,113.946a2.975,2.975,0,0,1,.907.183q.849-2.568,1.5-5.288a8.5,8.5,0,0,1-1.065.528c-.392,1.569-.848,3.089-1.342,4.577" fill="#29120b"/>
    <path id="Trazado_198022" data-name="Trazado 198022" d="M102.431,109.173a8.958,8.958,0,0,1-1.057-.6c.466,1.976,1,3.894,1.614,5.73a2.97,2.97,0,0,1,.87-.256c-.527-1.574-1.01-3.191-1.427-4.872" fill="#29120b"/>
    <path id="Trazado_198023" data-name="Trazado 198023" d="M132.935,136.655a2.892,2.892,0,0,1,.131.651c0,.1-.026.177-.028.277a21.265,21.265,0,0,0,6.458-3.561V132.85a20.838,20.838,0,0,1-6.561,3.8" fill="#29120b"/>
    <path id="Trazado_198024" data-name="Trazado 198024" d="M116.114,133.209v1.145a19.162,19.162,0,0,0,10.9,4.067V137.5a18.577,18.577,0,0,1-10.9-4.293" fill="#29120b"/>
    <path id="Trazado_198025" data-name="Trazado 198025" d="M107.364,122.242v1.868a40.534,40.534,0,0,0,3.213,4.733,2.93,2.93,0,0,1,.584-.693,41.021,41.021,0,0,1-3.8-5.908" fill="#29120b"/>
    <path id="Trazado_198026" data-name="Trazado 198026" d="M146.774,124.112a38.962,38.962,0,0,1-2.62,3.833,2.957,2.957,0,0,1,.685.61,40.128,40.128,0,0,0,2.721-3.976c.24-.4.449-.843.679-1.259v-1.927c-.471.927-.947,1.849-1.464,2.719" fill="#29120b"/>
    <path id="Trazado_198027" data-name="Trazado 198027" d="M155.274,97.256c.075,0,.138.037.212.043.131-1.763.215-3.541.228-5.342,0-.195.017-.386.017-.582a.46.46,0,0,0-.919,0c0,.183-.014.362-.015.545-.012,1.849-.1,3.673-.241,5.481a2.888,2.888,0,0,1,.718-.145" fill="#29120b"/>
    <path id="Trazado_198028" data-name="Trazado 198028" d="M100.313,97.274c.091,0,.169.044.258.052-.136-1.77-.223-3.563-.236-5.389,0-.183-.017-.36-.017-.544a.459.459,0,0,0-.919,0c0,.2.017.387.018.583.015,1.839.1,3.646.241,5.43a2.917,2.917,0,0,1,.655-.132" fill="#29120b"/>
    <path id="Trazado_198029" data-name="Trazado 198029" d="M132.935,136.655a2.982,2.982,0,0,0-2.893-2.373,3.025,3.025,0,0,0-3.024,3.026v1.113l0,8.128s5.862-1.646,6.018-8.966c0-.1.028-.175.028-.277a2.892,2.892,0,0,0-.131-.651" fill="#f3e5ce"/>
    <path id="Trazado_198030" data-name="Trazado 198030" d="M142.52,127.4a3.024,3.024,0,0,0-3.025,3.024v9.241s6.049-1.665,6.046-9.241a3.053,3.053,0,0,0-1.389-2.479,2.928,2.928,0,0,0-1.634-.545" fill="#f3e5ce"/>
    <path id="Trazado_198031" data-name="Trazado 198031" d="M151.26,113.933a3.026,3.026,0,0,0-3.024,3.027l0,4.433v1.927l0,2.878s6.049-1.664,6.046-9.241a3.118,3.118,0,0,0-2.963-3.011c-.023,0-.041-.013-.064-.013" fill="#f3e5ce"/>
    <path id="Trazado_198032" data-name="Trazado 198032" d="M154.557,97.4a2.982,2.982,0,0,0-2.308,2.879l0,9.241s.173-.059.413-.152a8.568,8.568,0,0,0,1.065-.528c1.79-1.017,4.571-3.4,4.569-8.561a3,3,0,0,0-2.815-2.981c-.073-.005-.135-.043-.211-.043a2.907,2.907,0,0,0-.717.145" fill="#f3e5ce"/>
    <path id="Trazado_198033" data-name="Trazado 198033" d="M116.112,130.433a3.025,3.025,0,0,0-3.024-3.024,3,3,0,0,0-2.51,1.434,2.945,2.945,0,0,0-.515,1.593c0,7.576,6.054,9.238,6.054,9.238l0-5.32v-1.145Z" fill="#f3e5ce"/>
    <path id="Trazado_198034" data-name="Trazado 198034" d="M107.362,116.973a3.024,3.024,0,0,0-3.024-3.024,2.842,2.842,0,0,0-.479.1,2.942,2.942,0,0,0-.87.257,3,3,0,0,0-1.676,2.673c0,7.576,6.054,9.238,6.054,9.238v-3.971Z" fill="#f3e5ce"/>
    <path id="Trazado_198035" data-name="Trazado 198035" d="M103.343,109.536l0-9.238a3,3,0,0,0-2.768-2.972c-.09-.008-.167-.052-.258-.052a2.862,2.862,0,0,0-.655.132,2.982,2.982,0,0,0-2.37,2.9c0,4.689,2.319,7.1,4.086,8.27a8.958,8.958,0,0,0,1.057.6,6.454,6.454,0,0,0,.911.363" fill="#f3e5ce"/>
    <path id="Trazado_198036" data-name="Trazado 198036" d="M145.175,32.228a32.04,32.04,0,0,1,3.041,1.347,3.625,3.625,0,0,1,.931.734,69.441,69.441,0,0,0,4.245-11.391c2.659-9.286,3.359-17.232,1.562-17.747-1.25-.358-3.387,3-5.466,8.213-.229,2.183-.582,4.577-1.067,7.083a69.191,69.191,0,0,1-3.246,11.761" fill="#93c01f"/>
    <path id="Trazado_198037" data-name="Trazado 198037" d="M140.42,30.613c0,.018,0,.035,0,.053a45.6,45.6,0,0,1,4.756,1.563,69.191,69.191,0,0,0,3.246-11.761c.485-2.506.838-4.9,1.067-7.083.637-6.078.286-10.472-1.064-10.733-1.3-.252-3.178,3.415-4.813,8.952-.1,2.07-.289,4.327-.589,6.685a67.6,67.6,0,0,1-2.6,12.324" fill="#39a935"/>
    <path id="Trazado_198038" data-name="Trazado 198038" d="M138.11,17.763a63.686,63.686,0,0,1-1.916,11.966c1.52.273,2.938.589,4.209.932.006-.017.012-.032.017-.049a67.581,67.581,0,0,0,2.6-12.324c.3-2.357.493-4.614.589-6.685C143.9,5.258,143.27.686,141.873.51c-1.141-.145-2.522,2.678-3.7,7.1a69.55,69.55,0,0,1-.063,10.152" fill="#93c01f"/>
    <path id="Trazado_198039" data-name="Trazado 198039" d="M130.832,29.023l.006.054a49.872,49.872,0,0,1,5.356.653,63.714,63.714,0,0,0,1.916-11.966,69.691,69.691,0,0,0,.063-10.152c-.339-4.489-1.218-7.474-2.458-7.566-1.558-.116-3.227,4.368-4.246,10.8.179,2.051.279,4.3.28,6.65a65.387,65.387,0,0,1-.917,11.531" fill="#39a935"/>
    <path id="Trazado_198040" data-name="Trazado 198040" d="M110.824,31.931a72.9,72.9,0,0,1-2.9-10.826c-.487-2.507-.841-4.9-1.071-7.087-2.082-5.21-4.22-8.567-5.472-8.207-1.794.515-1.089,8.461,1.575,17.747a73.915,73.915,0,0,0,3.675,10.179,3.6,3.6,0,0,1,.413-.246c1.272-.59,2.531-1.1,3.779-1.56" fill="#93c01f"/>
    <path id="Trazado_198041" data-name="Trazado 198041" d="M110.824,31.931a48.3,48.3,0,0,1,4.853-1.5,70.86,70.86,0,0,1-2.353-11.514c-.3-2.355-.5-4.611-.593-6.68-1.64-5.537-3.518-9.206-4.819-8.954-1.349.263-1.7,4.656-1.058,10.732.23,2.184.584,4.58,1.071,7.087a72.9,72.9,0,0,0,2.9,10.826" fill="#39a935"/>
    <path id="Trazado_198042" data-name="Trazado 198042" d="M115.677,30.434c1.451-.369,2.871-.652,4.266-.873a66.556,66.556,0,0,1-1.707-11.168,69.565,69.565,0,0,1-.07-10.157c-1.181-4.42-2.563-7.241-3.7-7.1-1.4.178-2.031,4.752-1.733,11.1.1,2.069.293,4.325.594,6.681a70.632,70.632,0,0,0,2.353,11.513" fill="#93c01f"/>
    <path id="Trazado_198043" data-name="Trazado 198043" d="M118.236,18.392a66.585,66.585,0,0,0,1.707,11.169,47.826,47.826,0,0,1,5.337-.552,65.546,65.546,0,0,1-.924-11.514c0-2.555.117-4.975.324-7.163-1.032-5.811-2.6-9.769-4.062-9.659-1.238.093-2.115,3.077-2.452,7.563a69.552,69.552,0,0,0,.07,10.156" fill="#39a935"/>
    <path id="Trazado_198044" data-name="Trazado 198044" d="M125.28,29.009a48.507,48.507,0,0,1,5.542.066c0-.017.007-.034.01-.052a65.482,65.482,0,0,0,.918-11.531c0-2.356-.1-4.6-.28-6.65C130.915,4.48,129.592,0,128.048,0c-1.5,0-2.791,4.245-3.367,10.331-.208,2.188-.326,4.608-.325,7.163a65.651,65.651,0,0,0,.924,11.514" fill="#93c01f"/>
    <path id="Trazado_198045" data-name="Trazado 198045" d="M144.757,40.048a3.67,3.67,0,0,0,3.458-6.473,32.254,32.254,0,0,0-3.04-1.346,45.708,45.708,0,0,0-4.757-1.563l-.016,0c-1.27-.343-2.689-.659-4.208-.932a49.619,49.619,0,0,0-5.356-.653h-.017a47.377,47.377,0,0,0-10.878.485c-1.4.221-2.815.5-4.266.873a48.747,48.747,0,0,0-4.853,1.5c-1.248.461-2.508.97-3.78,1.561a3.621,3.621,0,0,0-.413.245,3.658,3.658,0,0,0,1.963,6.752c.076,0,.152-.019.228-.024a3.648,3.648,0,0,0,1.312-.316,40.939,40.939,0,0,1,34.623-.1" fill="#c89a61"/>
  </g>
</svg>
