<svg xmlns="http://www.w3.org/2000/svg" xmlns:xlink="http://www.w3.org/1999/xlink" width="398.998" height="474.064" viewBox="0 0 398.998 474.064">
  <defs>
    <clipPath id="clip-path">
      <rect id="Rectángulo_44170" data-name="Rectángulo 44170" width="336.554" height="474.065" fill="none"/>
    </clipPath>
  </defs>
  <g id="Grupo_145691" data-name="Grupo 145691" transform="translate(-180 -10373.731)">
    <path id="Unión_1" data-name="Unión 1" d="M0,399V145.646H0V122A122.927,122.927,0,0,1,2.48,97.412,121.343,121.343,0,0,1,20.837,53.789a122.354,122.354,0,0,1,53.676-44.2,121.334,121.334,0,0,1,22.9-7.109,123.188,123.188,0,0,1,49.174,0,121.343,121.343,0,0,1,43.624,18.357,122.369,122.369,0,0,1,44.2,53.676,121.408,121.408,0,0,1,7.108,22.9A122.861,122.861,0,0,1,244,122v27.318h0V399Z" transform="translate(578.998 10474.421) rotate(90)" fill="#c0c3b0"/>
    <g id="Grupo_145362" data-name="Grupo 145362" transform="translate(242.443 10373.731)">
      <g id="Grupo_145361" data-name="Grupo 145361" clip-path="url(#clip-path)">
        <path id="Trazado_193803" data-name="Trazado 193803" d="M14.89,123.39C5.7,129.691-.764,139.933.073,151.371c.818,11.185,6.982,21.334,14.415,29.685,5.547-5.648,10.636-12.292,16.183-17.94l-8.553,26a108.334,108.334,0,0,0,40.546,39.876c7.645-1.926,15.641-4.634,22.2-9.028q-5.415,7.184-10.83,14.37c-1.114,1.512,28.749,17.511,30.823,18.56,8.025,4.058,15.722,9.3,24.334,12.008,29.85,9.379,25.557-23.339,17.463-41.021a206.361,206.361,0,0,0-31.192-48.673,57.484,57.484,0,0,1-1.928,19.5c-1.651-12.006-6.258-21.306-8.562-33.205A307.458,307.458,0,0,1,75.645,135.1a171.31,171.31,0,0,1-24.36,8.5A75.339,75.339,0,0,1,70.82,131.394C62.2,123.1,48.5,117.528,36.637,116.9a35.748,35.748,0,0,0-21.747,6.5" transform="translate(0 64.504)" fill="#dfddcc"/>
        <path id="Trazado_193804" data-name="Trazado 193804" d="M12.7,130.262S113.2,200.607,156.411,280.6" transform="translate(7.01 71.906)" fill="none" stroke="#211d1d" stroke-linecap="round" stroke-linejoin="round" stroke-width="0.665"/>
        <line id="Línea_1926" data-name="Línea 1926" x2="5.845" y2="52.992" transform="translate(92.18 215.481)" fill="none" stroke="#211d1d" stroke-linecap="round" stroke-linejoin="round" stroke-width="0.665"/>
        <path id="Trazado_193805" data-name="Trazado 193805" d="M18.456,191.417l61.481-4.67-5.947-51.8" transform="translate(10.188 74.49)" fill="none" stroke="#211d1d" stroke-linecap="round" stroke-linejoin="round" stroke-width="0.665"/>
        <path id="Trazado_193806" data-name="Trazado 193806" d="M234.116,169.818c9.708,4.6,17.426,13.366,18.374,24.384.927,10.776-3.4,21.381-9.2,30.466-6.143-4.532-12-10.083-18.145-14.617q6.053,11.726,12.107,23.454a101.222,101.222,0,0,1-5.834,12.546,104.207,104.207,0,0,1-26.7,31.6c-7.574-.667-15.6-2.029-22.518-5.212l12.5,12.033c1.291,1.271-24.706,21.056-26.521,22.371-7.023,5.088-13.554,11.254-21.342,15.141-26.993,13.482-27.891-18.328-22.88-36.4a199.016,199.016,0,0,1,22.282-51.1,55.483,55.483,0,0,0,4.808,18.281c-.256-11.685,2.713-21.241,3.093-32.923a296.313,296.313,0,0,0,23.9-29.619,165.185,165.185,0,0,0,24.492,4.383,72.6,72.6,0,0,0-20.462-8.646c6.945-9.208,19.138-16.6,30.34-19.015a34.472,34.472,0,0,1,21.7,2.87" transform="translate(67.115 91.79)" fill="#ffddae"/>
        <path id="Trazado_193807" data-name="Trazado 193807" d="M233.058,177.791s-84.974,82.3-113.93,165.059" transform="translate(65.76 98.143)" fill="none" stroke="#211d1d" stroke-linecap="round" stroke-linejoin="round" stroke-width="0.641"/>
        <line id="Línea_1927" data-name="Línea 1927" x2="2.233" y2="50.234" transform="translate(238.538 292.678)" fill="none" stroke="#211d1d" stroke-linecap="round" stroke-linejoin="round" stroke-width="0.641"/>
        <line id="Línea_1928" data-name="Línea 1928" x2="2.511" y2="51.35" transform="translate(231.84 299.655)" fill="none" stroke="#211d1d" stroke-linecap="round" stroke-linejoin="round" stroke-width="0.641"/>
        <line id="Línea_1929" data-name="Línea 1929" y1="3.813" x2="56.083" transform="translate(242.449 337.841)" fill="none" stroke="#211d1d" stroke-linecap="round" stroke-linejoin="round" stroke-width="0.749"/>
        <line id="Línea_1930" data-name="Línea 1930" x1="0.809" y1="47.985" transform="translate(187.321 411.878)" fill="none" stroke="#e5bda8" stroke-linecap="round" stroke-linejoin="round" stroke-width="2.205"/>
        <line id="Línea_1931" data-name="Línea 1931" x1="5.133" y1="31.939" transform="translate(205.81 347.508)" fill="none" stroke="#e5bda8" stroke-linecap="round" stroke-linejoin="round" stroke-width="2.205"/>
        <path id="Trazado_193811" data-name="Trazado 193811" d="M114.245,269.234a51.5,51.5,0,0,1-.771,14.306c-1.105,5.632-3.147,11.044-4.307,16.666-1.574,7.619-.7,16.471,5.134,22.16,5.474,5.342,16.634,8.462,20.591-.214,3.258-7.142.965-17.162-1.6-24.194-1.2-3.286-2.674-6.571-2.752-10.068a54.219,54.219,0,0,1,.7-6.64,24.961,24.961,0,0,0-3.8-15.866Z" transform="translate(59.88 146.494)" fill="#822d1e"/>
        <path id="Trazado_193812" data-name="Trazado 193812" d="M128.985,293.413c-7.038-.982-13.838.5-20.2,3.276a19.341,19.341,0,0,0,5.347,10.371c5.474,5.342,16.634,8.462,20.591-.214a22.809,22.809,0,0,0,1.432-11.66,37.273,37.273,0,0,0-7.169-1.772" transform="translate(60.05 161.8)" fill="#e5bda8"/>
        <path id="Trazado_193813" data-name="Trazado 193813" d="M133.523,227.181a10.021,10.021,0,0,0-3.079,9.933c.661,2.494,2.294,4.7,2.615,7.259.3,2.43-.615,4.822-1.207,7.2-1.113,4.45-1.006,9.464,1.571,13.257s8.1,5.73,12,3.315a7.4,7.4,0,0,0,2.519-2.618c2.165-3.813.584-8.544-.6-12.767a62.5,62.5,0,0,1-1.507-26.766Z" transform="translate(71.836 124.75)" fill="#822d1e"/>
        <path id="Trazado_193814" data-name="Trazado 193814" d="M146.9,243.093a30.057,30.057,0,0,0-16.077,5.257,13.726,13.726,0,0,0,2.213,7.04c2.576,3.793,8.1,5.728,12,3.314a7.385,7.385,0,0,0,2.522-2.618c2.165-3.813.582-8.544-.6-12.767-.023-.074-.039-.151-.061-.225" transform="translate(72.218 134.19)" fill="#e5bda8"/>
        <path id="Trazado_193815" data-name="Trazado 193815" d="M109.279,122.386c-7.467,10.133-11.626,24.519-11.733,42.668s4.423,63.147,8.618,74.337c-2.8,6.993-2.465,43.079,2.1,65.043,4.057,19.52,8.084,30.859,12.368,43.942a7.506,7.506,0,0,0,6.919,5.167l3.941.115a7.028,7.028,0,0,0,7.229-6.92l-1.082-213.651c-2.569.152-1.391-1.924-3.754-2.941-7.729-3.328-16.873-4.431-24.6-7.759" transform="translate(53.845 67.558)" fill="#e5bda8"/>
        <path id="Trazado_193816" data-name="Trazado 193816" d="M111.921,130.376c.855,7.417,1.772,15.037,5.3,21.62s6.422,9.624,13.88,9.238c2.941,19.034,9.492,40.168,14.364,58.8-8.651,12.169-7.856,39.145-5.786,60.365a6.144,6.144,0,0,0,6.317,5.547l4.8-.155a7.614,7.614,0,0,0,6.914-5.01c4.589-12.622,16.977-46.078,20.618-55.9a18.671,18.671,0,0,0,1.152-5.822c.5-14.154-5.122-73.351-24.041-95.717Z" transform="translate(61.782 68.086)" fill="#e5bda8"/>
        <rect id="Rectángulo_44169" data-name="Rectángulo 44169" width="72.746" height="26.848" transform="translate(153.955 178.691)" fill="#2d1a14"/>
        <path id="Trazado_193817" data-name="Trazado 193817" d="M103.632,166.162c.1.546.2,4.215.355,8.15h74.821c-.172-6.1-.638-12.852-.38-16.78a126.407,126.407,0,0,1,1.841-15.683c.986-5.1,2.446-10.991,3.833-16,3.489-12.577,16.647-30.354,14.181-43.158C196.3,72.377,184.995,61.712,168.7,59.218c-4.653-.712-9.36-.67-13.951-1.007-7.37-.542-14.716-1.374-22.107-1.592-15.526-.459-35.311,2.156-42.718,17.842-6.553,13.88,3.573,31.841,6.944,46,3.5,14.687,3.658,29.063,6.759,45.7" transform="translate(48.449 31.227)" fill="#f4d0b8"/>
        <path id="Trazado_193818" data-name="Trazado 193818" d="M134.524,44.555c-.227,8.294,3.647,18.047,5.44,21.19L136.9,67.605c-.833.5-1.668,1.01-2.545,1.434a15.307,15.307,0,0,1-10.411,1.024,16.1,16.1,0,0,1-8.711-6.228c2.035-2.129,3.959-5.989,5.209-18.939Z" transform="translate(63.607 24.595)" fill="#822d1e"/>
        <path id="Trazado_193819" data-name="Trazado 193819" d="M122.55,58.328a25.236,25.236,0,0,0,11.28-10.409,29.238,29.238,0,0,1-.113-3.363l-14.088.341c-.768,7.959-1.791,12.484-2.938,15.284a27.884,27.884,0,0,0,5.859-1.853" transform="translate(64.415 24.595)" fill="#2d1a14"/>
        <path id="Trazado_193820" data-name="Trazado 193820" d="M122.1,32.541c3.14.686,4.866,3.989,4.417,6.951s-2.572,5.553-4.968,7.653c-1.2-3.61-2.055-6.79-3.259-10.4-.452-1.356-.76-3.132.528-4a5.451,5.451,0,0,1,3.283-.21" transform="translate(65.081 17.881)" fill="#2d201b"/>
        <path id="Trazado_193821" data-name="Trazado 193821" d="M137.58,52.17c0,.177,0,.354-.011.529,0,.112-.009.228-.025.338,0,.061,0,.121-.009.177,0,.04,0,.07-.011.106-.009.116-.025.222-.036.334l-.014.1c-.026.161-.051.312-.076.469s-.071.332-.106.494c-.011.061-.031.116-.045.177a.745.745,0,0,1-.026.1c-.034.137-.076.278-.116.414-.1.332-.222.65-.352.973-.031.071-.071.152-.1.227a10.6,10.6,0,0,1-1.11,1.912c-.1.132-.192.253-.289.379-.05.065-.106.132-.166.2a4.129,4.129,0,0,1-.272.318c-.237.251-.484.5-.737.736,0,.006-.009.011-.016.011-.11.106-.231.206-.348.3a9.923,9.923,0,0,1-.9.661c-.231.157-.48.3-.726.433a9.438,9.438,0,0,1-1.367.621.121.121,0,0,0-.025.011c-.092.029-.186.065-.282.095l-.222.076c-.04.011-.081.02-.127.036a.711.711,0,0,1-.11.029c-.121.036-.242.067-.368.1a9.979,9.979,0,0,1-2.255.278c-.168,0-.338,0-.511,0a10.212,10.212,0,0,1-5.165-1.67,10.724,10.724,0,0,1-3.553-3.936,10.6,10.6,0,0,1-1.211-4.828l-.02-2.486,0-.374v-.278l-.006-.3,0-.565c0-.168,0-.334,0-.5l-.045-5.126v-.186l-.02-2.291-.026-3.158c0-.172,0-.348.011-.52,0-.085,0-.171.009-.258.006-.061.011-.13.016-.2s.011-.137.016-.2a.143.143,0,0,0,0-.045c0-.045.011-.085.016-.126s.009-.1.016-.146.014-.061.02-.092a1.327,1.327,0,0,1,.029-.211.886.886,0,0,1,.031-.182q.007-.061.014-.107c.031-.141.061-.282.092-.424.02-.076.04-.151.056-.227s.034-.146.061-.217.04-.137.056-.211l0-.006c.025-.07.045-.135.065-.206s.045-.137.07-.206.047-.137.071-.2A10.219,10.219,0,0,1,118,32.02c.092-.172.186-.343.287-.5a1.509,1.509,0,0,1,.116-.192c.106-.171.222-.338.334-.5a.288.288,0,0,0,.054-.065,3.745,3.745,0,0,1,.278-.363c.061-.071.116-.147.177-.217,0,0,.009-.016.016-.02A10.2,10.2,0,0,1,136.015,31.7a9.428,9.428,0,0,1,.692,1.417,10.629,10.629,0,0,1,.731,3.795l.045,5.05.011,1.175.061,6.175.009,1.175Z" transform="translate(64.452 14.612)" fill="#822d1e"/>
        <path id="Trazado_193822" data-name="Trazado 193822" d="M120.669,40.456a4.073,4.073,0,0,1-1.3,3.033c-.085.081-.171.155-.262.227a.226.226,0,0,0-.045.036,2.282,2.282,0,0,1-.2.135,3.851,3.851,0,0,1-2.139.661,4.055,4.055,0,0,1-.071-8.108,3.9,3.9,0,0,1,1.554.3,3.985,3.985,0,0,1,.843.484,4.072,4.072,0,0,1,1.625,3.23" transform="translate(62.213 20.115)" fill="#822d1e"/>
        <path id="Trazado_193823" data-name="Trazado 193823" d="M128.658,41.043a3.983,3.983,0,1,0,3.947-4.091,4.018,4.018,0,0,0-3.947,4.091" transform="translate(71.021 20.398)" fill="#822d1e"/>
        <line id="Línea_1932" data-name="Línea 1932" x1="74.09" transform="translate(152.458 198.453)" fill="none" stroke="#472a1c" stroke-linecap="round" stroke-linejoin="round" stroke-width="0.354"/>
        <path id="Trazado_193824" data-name="Trazado 193824" d="M123.347,39.777l-.04,1.78,1.342.1-1.19,1.509" transform="translate(68.066 21.957)" fill="none" stroke="#472a1c" stroke-linecap="round" stroke-linejoin="round" stroke-width="0.232"/>
        <path id="Trazado_193825" data-name="Trazado 193825" d="M116.9,41.207c.017-.154.245-.146.388-.085a6.921,6.921,0,0,1,3.892,4.271,8.508,8.508,0,0,1,6.082-2.8,8.092,8.092,0,0,1,5.946,2.685.9.9,0,0,0,.135-.5,5.109,5.109,0,0,1,4.305-4.11c.267,1.645.706,3.146.972,4.793a19.247,19.247,0,0,1,.309,2.73,9.91,9.91,0,0,1-6.595,9.312c-4.689,1.558-10.3.793-13.642-2.848s-2.316-8.536-1.793-13.448" transform="translate(64.215 22.449)" fill="#2d1a14"/>
        <path id="Trazado_193826" data-name="Trazado 193826" d="M126.677,44.266c0,.8-1.048,1.456-2.342,1.456S122,45.07,122,44.266s1.048-1.456,2.34-1.456,2.342.652,2.342,1.456" transform="translate(67.343 23.632)" fill="#822d1e"/>
        <path id="Trazado_193827" data-name="Trazado 193827" d="M224.9,9.137a5.2,5.2,0,0,0-7.1,1.9L190.111,59.006,159.434,76.3v38.938c.015-.014.033-.025.048-.037l45.974-37.554,1.748-1.426a7.566,7.566,0,0,0,2.463-3.664l17.608-57.4a5.2,5.2,0,0,0-2.37-6.023" transform="translate(88.009 4.659)" fill="#b15546"/>
        <path id="Trazado_193828" data-name="Trazado 193828" d="M175.535,49.914,150.189,64.206a18.378,18.378,0,0,0-2.416,1.65,17.079,17.079,0,1,0,21.61,26.454l8.628-7.048a333.305,333.305,0,0,0-2.475-35.349" transform="translate(78.109 27.553)" fill="#f4d0b8"/>
        <path id="Trazado_193829" data-name="Trazado 193829" d="M196.983,8.307a4.27,4.27,0,0,1,2-4.08,11,11,0,0,1,1.083-.6L206.879.393A2.612,2.612,0,0,1,208.055.12a1.442,1.442,0,0,1,1.228,2.291,4.83,4.83,0,0,1-1.374,1.4,39.738,39.738,0,0,1,2.649,9.976,3.334,3.334,0,0,1-.618,2.359,80.821,80.821,0,0,1-6.191,7.482,3.1,3.1,0,0,1-5.34-1.814c-.45-4.256-1.043-9.865-1.426-13.512" transform="translate(108.724 0.066)" fill="#b15546"/>
        <path id="Trazado_193830" data-name="Trazado 193830" d="M196.983,8.307a4.27,4.27,0,0,1,2-4.08,11,11,0,0,1,1.083-.6L206.879.393A2.612,2.612,0,0,1,208.055.12a1.442,1.442,0,0,1,1.228,2.291,4.83,4.83,0,0,1-1.374,1.4,39.738,39.738,0,0,1,2.649,9.976,3.334,3.334,0,0,1-.618,2.359,80.821,80.821,0,0,1-6.191,7.482,3.1,3.1,0,0,1-5.34-1.814C197.96,17.563,197.367,11.954,196.983,8.307Z" transform="translate(108.724 0.066)" fill="none" stroke="#782b1e" stroke-linecap="round" stroke-linejoin="round" stroke-width="0.24"/>
        <path id="Trazado_193831" data-name="Trazado 193831" d="M109.337,75.147l-28.4-16.011L53.247,11.17a5.2,5.2,0,0,0-9.469,4.121l17.608,57.4a7.54,7.54,0,0,0,2.46,3.661L65.6,77.779l43.74,35.732Z" transform="translate(24.04 4.73)" fill="#b15546"/>
        <path id="Trazado_193832" data-name="Trazado 193832" d="M109.728,64.076,85.677,50.515c-1.7,11.418-3.405,22.922-4.017,34.416l8.874,7.249a18.388,18.388,0,0,0,2.415,1.65,17.079,17.079,0,0,0,16.779-29.754" transform="translate(45.077 27.885)" fill="#f4d0b8"/>
        <path id="Trazado_193833" data-name="Trazado 193833" d="M54.7,8.437a4.267,4.267,0,0,0-2-4.08,11,11,0,0,0-1.083-.6L44.809.523A2.612,2.612,0,0,0,43.633.25C42.1.294,41.926,1.656,42.405,2.541a4.831,4.831,0,0,0,1.374,1.4,39.685,39.685,0,0,0-2.649,9.978,3.332,3.332,0,0,0,.618,2.358,80.819,80.819,0,0,0,6.191,7.482,3.1,3.1,0,0,0,5.34-1.813c.45-4.257,1.043-9.866,1.426-13.513" transform="translate(22.691 0.138)" fill="#b15546"/>
        <path id="Trazado_193834" data-name="Trazado 193834" d="M54.7,8.437a4.267,4.267,0,0,0-2-4.08,11,11,0,0,0-1.083-.6L44.809.523A2.612,2.612,0,0,0,43.633.25C42.1.294,41.926,1.656,42.405,2.541a4.831,4.831,0,0,0,1.374,1.4,39.685,39.685,0,0,0-2.649,9.978,3.332,3.332,0,0,0,.618,2.358,80.819,80.819,0,0,0,6.191,7.482,3.1,3.1,0,0,0,5.34-1.813C53.729,17.693,54.322,12.084,54.7,8.437Z" transform="translate(22.691 0.138)" fill="none" stroke="#782b1e" stroke-linecap="round" stroke-linejoin="round" stroke-width="0.24"/>
        <path id="Trazado_193835" data-name="Trazado 193835" d="M122.437,42.906a1.581,1.581,0,0,0,3.129,0Z" transform="translate(67.587 23.685)" fill="#fff"/>
        <path id="Trazado_193836" data-name="Trazado 193836" d="M118.986,39.784c-.019.408.736.782,1.813.956a8.179,8.179,0,0,0,1.021.1,7.8,7.8,0,0,0,1.2-.045c1-.116,1.709-.425,1.726-.812.016-.36-.568-.692-1.446-.886a7.761,7.761,0,0,0-1.388-.166,7.971,7.971,0,0,0-1.274.053c-.959.124-1.63.427-1.647.8" transform="translate(65.681 21.486)" fill="#fff"/>
        <path id="Trazado_193837" data-name="Trazado 193837" d="M119.85,39.685a1.247,1.247,0,0,0,.472,1.055,8.514,8.514,0,0,0,1.021.1,8.2,8.2,0,0,0,1.2-.045,1.253,1.253,0,0,0,.514-.9,1.177,1.177,0,0,0-.234-.8,7.736,7.736,0,0,0-1.388-.168,7.944,7.944,0,0,0-1.273.054,1.207,1.207,0,0,0-.307.7" transform="translate(66.157 21.486)" fill="#2d1a14"/>
        <path id="Trazado_193838" data-name="Trazado 193838" d="M123.954,39.81c-.019.408.736.782,1.813.956a8.173,8.173,0,0,0,1.021.1,7.8,7.8,0,0,0,1.2-.045c1-.116,1.709-.425,1.726-.812.016-.359-.568-.692-1.446-.885a7.615,7.615,0,0,0-1.387-.168,8.156,8.156,0,0,0-1.274.053c-.959.124-1.63.427-1.647.8" transform="translate(68.424 21.501)" fill="#fff"/>
        <path id="Trazado_193839" data-name="Trazado 193839" d="M124.819,39.711a1.247,1.247,0,0,0,.472,1.055,8.511,8.511,0,0,0,1.021.1,8.2,8.2,0,0,0,1.2-.045,1.253,1.253,0,0,0,.514-.9,1.177,1.177,0,0,0-.234-.8,7.736,7.736,0,0,0-1.387-.168,7.943,7.943,0,0,0-1.273.054,1.207,1.207,0,0,0-.307.7" transform="translate(68.9 21.5)" fill="#2d1a14"/>
        <path id="Trazado_193840" data-name="Trazado 193840" d="M137.768,41.958q-.009.6-.026,1.2c-.034,1.782-.074,3.568-.11,5.344a4.946,4.946,0,0,1-2.083-2.235,9.759,9.759,0,0,1-.858-4.662c.112-2.634.8-5.292.286-7.88-.16-.813-.573-1.721-1.381-1.873s-1.554.576-1.876,1.342a15.256,15.256,0,0,1-.877,2.336,3.461,3.461,0,0,1-4.062,1.105,6.607,6.607,0,0,1-3.239-3.062c-.312-.535-.636-1.145-1.226-1.347-.787-.262-1.6.363-2.064,1.049a6.981,6.981,0,0,0-1.063,3.3,14.539,14.539,0,0,0-.02,2.159c.036.531.085,1.055.13,1.585a18.88,18.88,0,0,1,.1,4.066,9.694,9.694,0,0,1-1.876,4.662c-.121.157-.244.307-.376.453a.833.833,0,0,1-.068.087c.009-.112.02-.217.025-.327s.016-.223.02-.334c.011-.186.016-.379.016-.565,0-.166,0-.334,0-.5a25.4,25.4,0,0,0-.888-5.611,3.845,3.845,0,0,1,.841.484v-.186l-.02-2.291-.026-3.158c0-.171,0-.348.012-.52,0-.085,0-.171.008-.256.006-.061.012-.132.017-.2s.009-.137.016-.2a.153.153,0,0,0,0-.045c0-.047.009-.087.016-.127s.009-.1.014-.146a.384.384,0,0,0,.019-.092,1.816,1.816,0,0,1,.033-.211,1.058,1.058,0,0,1,.029-.182l.016-.106c.031-.141.061-.282.092-.424.02-.076.04-.152.054-.228s.036-.146.059-.216.042-.137.057-.213l0,0c.025-.071.045-.137.065-.206s.047-.137.071-.208.045-.137.071-.2a10.321,10.321,0,0,1,.585-1.291c.09-.172.186-.343.286-.5a1.878,1.878,0,0,1,.118-.192c.106-.171.222-.337.334-.5a.4.4,0,0,0,.054-.065,3.882,3.882,0,0,1,.278-.363c.059-.07.116-.146.177-.217l.014-.02A10.2,10.2,0,0,1,136.3,31.7a9.266,9.266,0,0,1,.689,1.417,10.569,10.569,0,0,1,.733,3.795Z" transform="translate(64.169 14.611)" fill="#2d1a14"/>
        <path id="Trazado_193841" data-name="Trazado 193841" d="M103.5,225.74H103.5a16.823,16.823,0,0,1-16.822-16.822V116.236h33.651v92.681A16.823,16.823,0,0,1,103.5,225.74" transform="translate(47.844 64.163)" fill="#cca593"/>
        <path id="Trazado_193842" data-name="Trazado 193842" d="M159.135,58.276s-24.283,62.276-54.03,99.5" transform="translate(58.019 32.169)" fill="none" stroke="#cca593" stroke-linecap="round" stroke-linejoin="round" stroke-width="5.88"/>
        <line id="Línea_1933" data-name="Línea 1933" x2="34.601" transform="translate(134.138 210.817)" fill="none" stroke="#2d1a14" stroke-miterlimit="10" stroke-width="4.41"/>
        <line id="Línea_1934" data-name="Línea 1934" x2="33.649" transform="translate(134.613 220.703)" fill="none" stroke="#2d1a14" stroke-miterlimit="10" stroke-width="4.41"/>
        <line id="Línea_1935" data-name="Línea 1935" x2="33.46" transform="translate(134.708 265.189)" fill="none" stroke="#2d1a14" stroke-miterlimit="10" stroke-width="4.41"/>
        <path id="Trazado_193843" data-name="Trazado 193843" d="M87.041,161.506l8.078-15.733,8.08,16.158L95.119,180Z" transform="translate(48.047 80.468)" fill="#2d1a14"/>
        <path id="Trazado_193844" data-name="Trazado 193844" d="M97.452,161.78l8.078-15.733,8.08,16.158-8.08,18.072Z" transform="translate(53.794 80.619)" fill="#2d1a14"/>
        <path id="Trazado_193845" data-name="Trazado 193845" d="M123.149,151.579a20.922,20.922,0,0,0,13.439-10.816" transform="translate(67.98 77.703)" fill="none" stroke="#472a1c" stroke-linecap="round" stroke-linejoin="round" stroke-width="0.354"/>
      </g>
    </g>
  </g>
</svg>
