<svg xmlns="http://www.w3.org/2000/svg" xmlns:xlink="http://www.w3.org/1999/xlink" width="457.253" height="505.611" viewBox="0 0 457.253 505.611">
  <defs>
    <clipPath id="clip-path">
      <rect id="Rectángulo_44143" data-name="Rectángulo 44143" width="193.807" height="505.063" fill="none"/>
    </clipPath>
    <clipPath id="clip-path-2">
      <rect id="Rectángulo_44154" data-name="Rectángulo 44154" width="204.836" height="482.49" transform="translate(0 0)" fill="none"/>
    </clipPath>
  </defs>
  <g id="Grupo_145399" data-name="Grupo 145399" transform="translate(-918 -7097.887)">
    <path id="Unión_4" data-name="Unión 4" d="M13112.332,12099v-253.351h0V11822a122.858,122.858,0,0,1,2.478-24.59,121.38,121.38,0,0,1,18.358-43.623,122.262,122.262,0,0,1,53.676-44.2,121.314,121.314,0,0,1,22.9-7.11,123.1,123.1,0,0,1,49.174,0,121.417,121.417,0,0,1,43.622,18.355,121.742,121.742,0,0,1,53.79,101.167v277Z" transform="translate(-11981.081 -4495.498)" fill="#c0c3b0"/>
    <g id="Grupo_145342" data-name="Grupo 145342" transform="translate(918 7097.892)">
      <g id="Grupo_145341" data-name="Grupo 145341" transform="translate(0 -0.005)" clip-path="url(#clip-path)">
        <path id="Trazado_193675" data-name="Trazado 193675" d="M119.55,1118.095l-.059,0v44.244h44.592v-16.045H119.55Z" transform="translate(-75.666 -708.013)" fill="#d36f51"/>
        <path id="Trazado_193676" data-name="Trazado 193676" d="M331.168,1146.327H286.636v-28.18h-.029v44.224H331.2v-44.224h-.03Z" transform="translate(-181.49 -708.048)" fill="#d36f51"/>
        <path id="Trazado_193677" data-name="Trazado 193677" d="M119.652,1118.1v28.2h44.533v-28.18H119.974c-.109,0-.213-.015-.322-.017" transform="translate(-75.768 -708.018)" fill="#dba387"/>
        <rect id="Rectángulo_44142" data-name="Rectángulo 44142" width="44.532" height="28.18" transform="translate(105.147 410.099)" fill="#dba387"/>
        <path id="Trazado_193678" data-name="Trazado 193678" d="M142.65,189.076a.783.783,0,0,1,1.565,0c0,.135.018.265.02.4q3.863-1.144,8.032-2.016c0-.167-.02-.33-.02-.5a.783.783,0,0,1,1.565,0c0,.059.007.117.007.177q3.219-.623,6.589-1.071V171.9a35.99,35.99,0,0,1-5.35-9.09,4.143,4.143,0,0,1-1.489.93c-1.642.568-3.506.008-5.239-1.355-1.672,4.565-5.013,10.63-11.6,17.923a59.794,59.794,0,0,0-11.167,17.385,72.57,72.57,0,0,1,17.131-7.748c-.007-.29-.044-.573-.044-.865" transform="translate(-79.511 -102.823)" fill="#1f0f0b"/>
        <path id="Trazado_193679" data-name="Trazado 193679" d="M313.242,163.564a4.142,4.142,0,0,1-1.489-.93,35.192,35.192,0,0,1-6.118,9.953v13.136c2.526.3,5,.68,7.406,1.132,0-.022,0-.043,0-.065a.783.783,0,1,1,1.565,0c0,.125-.014.247-.015.372,2.64.535,5.206,1.149,7.67,1.851,0-.036.006-.072.006-.109a.783.783,0,1,1,1.565,0c0,.193-.026.38-.029.573a74.283,74.283,0,0,1,17.444,7.64,60.036,60.036,0,0,0-11-16.985c-6.635-7.346-9.978-13.447-11.638-18.023-1.77,1.437-3.685,2.038-5.367,1.455" transform="translate(-193.539 -102.651)" fill="#1f0f0b"/>
        <path id="Trazado_193680" data-name="Trazado 193680" d="M57.865,573.5a1.565,1.565,0,0,1,0-3.131h.892l9.818-36.133a29.388,29.388,0,0,1-6.62-18.615V513.3h-4.09a1.565,1.565,0,0,1-1.565-1.565H52.086L42.5,630.219h0L57.907,573.5Z" transform="translate(-26.909 -324.047)" fill="#4b5a86"/>
        <path id="Trazado_193681" data-name="Trazado 193681" d="M445.483,317.149l2.907,34.565-2.848-37.541h-.084c.055.581.084,1.165.084,1.753,0,.41-.032.816-.059,1.223" transform="translate(-282.08 -198.943)" fill="#172751"/>
        <path id="Trazado_193682" data-name="Trazado 193682" d="M425.047,513.3H418v2.323a29.365,29.365,0,0,1-4.907,16.283l10.451,38.464h1.5a1.565,1.565,0,0,1,0,3.131h-.653l15.033,55.326-8.883-117.092h-3.931a1.565,1.565,0,0,1-1.565,1.565" transform="translate(-261.584 -324.047)" fill="#4b5a86"/>
        <path id="Trazado_193683" data-name="Trazado 193683" d="M205.979,529h25.37L243.192,516H194.135Z" transform="translate(-122.933 -326.75)" fill="#f4dfc3"/>
        <path id="Trazado_193684" data-name="Trazado 193684" d="M208.467,264.173a32.047,32.047,0,0,0,32.008-31.905c-2.465-.7-5.03-1.315-7.671-1.851-.163,16.355-10.927,29.6-24.151,29.6-13.191,0-23.93-13.178-24.147-29.474q-4.162.869-8.033,2.016a32.039,32.039,0,0,0,31.993,31.615" transform="translate(-111.749 -145.906)" fill="#4b5a86"/>
        <path id="Trazado_193685" data-name="Trazado 193685" d="M225.2,255.967c12.444,0,22.57-12.708,22.6-28.342-2.407-.451-4.88-.827-7.406-1.132v6.659a15.6,15.6,0,1,1-31.2,0v-6.486q-3.366.447-6.589,1.071c.077,15.582,10.179,28.23,22.595,28.23" transform="translate(-128.297 -143.421)" fill="#4b5a86"/>
        <path id="Trazado_193686" data-name="Trazado 193686" d="M73.113,1047.28a1.488,1.488,0,0,1-.323-.065l-.608,6.627a17.748,17.748,0,0,0,17.3,19.361l.059,0c.109,0,.213.017.322.017H198.243a17.813,17.813,0,0,0,17.707-19.749l-.686-6.271a1.5,1.5,0,0,1-.384.078Z" transform="translate(-45.66 -663.123)" fill="#1f0f0b"/>
        <path id="Trazado_193687" data-name="Trazado 193687" d="M231.8,551.424h-5.372l12.685,13.915L251.8,551.424h-20Z" transform="translate(-143.381 -349.179)" fill="#1f0f0b"/>
        <path id="Trazado_193688" data-name="Trazado 193688" d="M15.737,925.776H25.888a1.564,1.564,0,0,1,1.565-1.565H169.219a1.564,1.564,0,0,1,1.565,1.565h7.287c10.468,0,18.014-10.67,15.108-21.363L180.814,858.9a1.529,1.529,0,0,1-.4.081H14.784a1.543,1.543,0,0,1-1.489-1.188L.628,904.413c-2.9,10.693,4.641,21.363,15.109,21.363" transform="translate(0 -543.185)" fill="#1f0f0b"/>
        <path id="Trazado_193689" data-name="Trazado 193689" d="M203.642,743.359l-2.143-7.888-15.033-55.326H164.347c.376.513.519.922.377,1.194-.42.8-3.165.275-7.181-1.194h-3.768c7.149,4.984,11.8,9.195,11.106,10.305-.822,1.321-8.911-2.208-18.651-8.026,7.658,5.164,12.833,9.817,12.068,11.045-.78,1.251-7.442-1.451-15.64-6.2,5.6,4.178,9.108,7.907,8.438,8.983-.9,1.446-9.026-1.987-18.146-7.669a93.321,93.321,0,0,1-11.048-7.915l-.78-.528h-3.471l-.78.528a93.279,93.279,0,0,1-11.047,7.916c-9.121,5.683-17.246,9.115-18.147,7.669-.671-1.076,2.843-4.806,8.439-8.984-8.2,4.746-14.86,7.447-15.64,6.2-.766-1.229,4.409-5.881,12.066-11.045-9.739,5.817-17.827,9.346-18.65,8.025C73.2,689.34,77.851,685.129,85,680.145H81.23c-4.016,1.469-6.761,1.994-7.181,1.194-.142-.272,0-.681.377-1.194H54.654L39.243,736.862,37.358,743.8a1.557,1.557,0,0,1,1.082-.441Z" transform="translate(-23.656 -430.69)" fill="#1f0f0b"/>
        <path id="Trazado_193690" data-name="Trazado 193690" d="M122.693,600.988c2.577-1.35,5.075-2.63,7.387-3.768l-26.691-18.057c-.226-.148-.448-.3-.669-.452l-.507-.343.011-.027a29.672,29.672,0,0,1-5.571-5.247l-9.818,36.133h22.37a104.531,104.531,0,0,1,13.487-8.238" transform="translate(-54.988 -362.901)" fill="#1f0f0b"/>
        <path id="Trazado_193691" data-name="Trazado 193691" d="M180.67,666.019c.432-.269.857-.527,1.284-.789-1.626.839-3.218,1.626-4.741,2.34h1.017c.8-.515,1.608-1.032,2.44-1.551" transform="translate(-112.217 -421.245)" fill="#1f0f0b"/>
        <path id="Trazado_193692" data-name="Trazado 193692" d="M211.159,652.863v-.026c-.084.055-.173.109-.257.164l.256-.138" transform="translate(-133.551 -413.397)" fill="#1f0f0b"/>
        <path id="Trazado_193693" data-name="Trazado 193693" d="M345.141,574.313l.011.028-.509.345c-.22.153-.441.3-.664.449l-26.693,18.058c2.312,1.138,4.81,2.418,7.387,3.769a104.484,104.484,0,0,1,13.487,8.237h24.717l-10.451-38.464a29.645,29.645,0,0,1-7.284,7.578" transform="translate(-200.917 -358.875)" fill="#1f0f0b"/>
        <path id="Trazado_193694" data-name="Trazado 193694" d="M331.874,665.224c.428.262.856.521,1.289.791.833.519,1.643,1.036,2.44,1.551h1.016c-1.525-.714-3.118-1.5-4.746-2.342" transform="translate(-210.154 -421.241)" fill="#1f0f0b"/>
        <path id="Trazado_193695" data-name="Trazado 193695" d="M310.426,652.863l.261.14c-.086-.055-.177-.111-.262-.167,0,.009,0,.018,0,.026" transform="translate(-196.572 -413.397)" fill="#1f0f0b"/>
        <path id="Trazado_193696" data-name="Trazado 193696" d="M401.983,673.175a1.565,1.565,0,0,0-1.565-1.565H374.2a17.972,17.972,0,0,1,3.448,3.131h22.772a1.564,1.564,0,0,0,1.565-1.565" transform="translate(-236.955 -425.285)" fill="#b56e5a"/>
        <path id="Trazado_193697" data-name="Trazado 193697" d="M256.282,678.118h3.471l-1.736-1.174Z" transform="translate(-162.287 -428.663)" fill="#b56e5a"/>
        <path id="Trazado_193698" data-name="Trazado 193698" d="M104.963,671.61H81.7a1.565,1.565,0,0,0,0,3.131h19.814a17.979,17.979,0,0,1,3.448-3.131" transform="translate(-50.744 -425.285)" fill="#b56e5a"/>
        <path id="Trazado_193699" data-name="Trazado 193699" d="M164.4,671.61c-2.742,1.284-5.261,2.341-7.421,3.131h3.769c1.461-1.019,3.023-2.067,4.669-3.131Z" transform="translate(-99.405 -425.285)" fill="#b56e5a"/>
        <path id="Trazado_193700" data-name="Trazado 193700" d="M342.043,671.61c1.646,1.063,3.209,2.112,4.67,3.131h3.768c-2.16-.79-4.679-1.846-7.421-3.131Z" transform="translate(-216.594 -425.285)" fill="#b56e5a"/>
        <path id="Trazado_193701" data-name="Trazado 193701" d="M37.605,855.632H203.232a1.7,1.7,0,0,0,1.567-1.565,1.565,1.565,0,0,0-1.567-1.565H37.605a1.577,1.577,0,0,0-1.565,1.565,1.5,1.5,0,0,0,.076.377,1.543,1.543,0,0,0,1.489,1.189" transform="translate(-22.822 -539.831)" fill="#b56e5a"/>
        <path id="Trazado_193702" data-name="Trazado 193702" d="M213.913,1038.878H72.147a1.564,1.564,0,0,0-1.565,1.565,1.542,1.542,0,0,0,1.243,1.5,1.485,1.485,0,0,0,.322.065H213.913a1.512,1.512,0,0,0,.384-.077,1.543,1.543,0,0,0,1.181-1.488,1.564,1.564,0,0,0-1.565-1.565" transform="translate(-44.695 -657.852)" fill="#b56e5a"/>
        <path id="Trazado_193703" data-name="Trazado 193703" d="M107.746,542.19l-.011.028.507.343c.221.154.443.3.669.452L135.6,561.069q2.118-1.043,3.992-1.9c-7.069-1.788-12.313-4.332-11.958-5.884.38-1.662,7.031-1.558,14.853.233,1.149.263,2.252.549,3.309.849l10.443-11.455L143.554,529l-11.843-12.991H95.555v2.323a29.366,29.366,0,0,0,12.191,23.861" transform="translate(-60.509 -326.751)" fill="#dba387"/>
        <path id="Trazado_193704" data-name="Trazado 193704" d="M302.526,650.88a104.486,104.486,0,0,0-13.487-8.237c-2.577-1.35-5.075-2.63-7.387-3.769l-20.639,13.963,1.736,1.174.78.528a93.3,93.3,0,0,0,11.047,7.915c9.121,5.682,17.244,9.115,18.146,7.669.67-1.076-2.843-4.805-8.438-8.983,8.2,4.745,14.859,7.446,15.639,6.2.765-1.229-4.41-5.882-12.068-11.046,9.74,5.818,17.83,9.346,18.651,8.026.692-1.111-3.957-5.322-11.106-10.305-1.461-1.018-3.023-2.067-4.67-3.131-.8-.515-1.608-1.032-2.44-1.551-.434-.27-.86-.529-1.289-.791,1.628.84,3.222,1.628,4.746,2.342,2.742,1.285,5.261,2.341,7.421,3.131,4.016,1.469,6.761,1.994,7.181,1.194.143-.272,0-.681-.377-1.194a17.992,17.992,0,0,0-3.448-3.131m-23.389-6.859c0-.009,0-.018,0-.026.085.055.175.111.262.167l-.261-.141" transform="translate(-165.283 -404.555)" fill="#dba387"/>
        <path id="Trazado_193705" data-name="Trazado 193705" d="M202.988,561.068l26.693-18.058q.335-.221.664-.449l.509-.345-.011-.028a29.415,29.415,0,0,0,12.191-23.861V516H206.877l-11.843,12.991L182.349,542.91l-10.443,11.454c-1.057-.3-2.161-.586-3.31-.849-7.822-1.791-14.472-1.894-14.853-.232-.355,1.552,4.89,4.1,11.958,5.884q-1.872.859-3.992,1.9c-2.312,1.138-4.81,2.418-7.387,3.768a104.542,104.542,0,0,0-13.487,8.238,18,18,0,0,0-3.448,3.131c-.376.513-.52.922-.377,1.194.42.8,3.166.275,7.181-1.194,2.16-.79,4.679-1.846,7.422-3.131,1.523-.713,3.115-1.5,4.741-2.34-.428.261-.853.52-1.285.789-.833.519-1.642,1.036-2.44,1.551-1.646,1.063-3.208,2.112-4.669,3.131-7.148,4.983-11.8,9.195-11.106,10.305.823,1.321,8.911-2.208,18.65-8.025-7.657,5.164-12.832,9.816-12.066,11.045.779,1.251,7.442-1.451,15.64-6.2-5.6,4.178-9.11,7.908-8.439,8.984.9,1.445,9.026-1.987,18.148-7.669a93.277,93.277,0,0,0,11.047-7.916l.78-.528,1.736-1.174Zm-38.762,5.147-.256.137c.084-.054.173-.109.257-.164v.026" transform="translate(-86.619 -326.75)" fill="#dba387"/>
        <path id="Trazado_193706" data-name="Trazado 193706" d="M73.675,336.026H206.182a1.565,1.565,0,0,1,1.565,1.565h4.219l-2.936-34.919-2.907-34.565c.027-.407.059-.813.059-1.223,0-.588-.03-1.172-.084-1.753-.746-7.9-6.523-15.109-15.668-20.764a74.3,74.3,0,0,0-17.444-7.64,33.55,33.55,0,0,1-67.084.293,72.542,72.542,0,0,0-17.13,7.748c-8.784,5.6-14.3,12.669-15.014,20.4l-6.3,72.424H72.11a1.565,1.565,0,0,1,1.565-1.565" transform="translate(-42.719 -149.903)" fill="#4b5a86"/>
        <path id="Trazado_193707" data-name="Trazado 193707" d="M236.169,231.568a15.6,15.6,0,0,0,15.6-15.6v-5.541c-23.518,12.832-31.2-11.07-31.2-11.07v16.611a15.6,15.6,0,0,0,15.6,15.6" transform="translate(-139.673 -126.238)" fill="#dba387"/>
        <path id="Trazado_193708" data-name="Trazado 193708" d="M251.769,203.44V189.186c-4.21,4.713-9.478,7.545-15.215,7.545-6.086,0-11.658-3.166-15.984-8.409v4.047s7.681,23.9,31.2,11.07" transform="translate(-139.673 -119.251)" fill="#8e5f47"/>
        <path id="Trazado_193709" data-name="Trazado 193709" d="M182.7,86.809a4.145,4.145,0,0,0,1.488-.93,36.011,36.011,0,0,0,5.35,9.09c4.327,5.243,9.9,8.409,15.984,8.409,5.736,0,11-2.833,15.215-7.545a35.188,35.188,0,0,0,6.118-9.954,4.137,4.137,0,0,0,1.488.931c1.681.583,3.6-.018,5.367-1.455a16.147,16.147,0,0,0,4.736-7.2c2.078-6,.924-11.838-2.577-13.054-1.708-.592-3.658.034-5.451,1.521,0-.16,0-.316-.006-.475-.058.14-.1.277-.159.417,0,0-13.172-12.515-16.182-25.656-2.762.058-5.612.089-8.53.089-3.016,0-5.961-.033-8.809-.094-2.925,12.784-15.425,24.935-16.109,25.591,0,.043,0,.084,0,.127-1.791-1.485-3.741-2.111-5.448-1.52-3.5,1.215-4.655,7.058-2.577,13.054a16.014,16.014,0,0,0,4.863,7.3c1.733,1.363,3.6,1.924,5.239,1.355m47.571-15.487c1.382-2.064,3.059-3.227,4.383-2.769,1.933.67,2.361,4.5.954,8.558s-4.113,6.8-6.046,6.131a2.318,2.318,0,0,1-1.272-1.316,48.812,48.812,0,0,0,1.981-10.6m-7.807,4.84c0,1.367-1.934,2.473-4.319,2.473s-4.32-1.106-4.32-2.473,1.934-2.475,4.32-2.475,4.319,1.108,4.319,2.475m-6.441-14.51c.682,0,1.234,1.1,1.234,2.454s-.552,2.453-1.234,2.453-1.233-1.1-1.233-2.453.552-2.454,1.233-2.454m-2.754,6.11a.586.586,0,0,1,.735.381,5.034,5.034,0,0,0,4.643,3.115.588.588,0,0,1-.044,1.174l-.045,0a6.176,6.176,0,0,1-5.673-3.933.585.585,0,0,1,.384-.735m-9.551-1.043a1.958,1.958,0,0,1,3.7-.327c1.4,3.653-.37,12-3.256,12.239-3.153.263-1.367-8.221-.444-11.911m-5.049,16.609a22.119,22.119,0,0,0,3.457.856l.054.008c.143.016.286.032.43.045.254.023.508.043.763.057q.89.051,1.782.023c.6-.018,1.186-.068,1.779-.129l.1-.009c.032-.007.064-.015.125-.026.333-.066.668-.12,1-.191a20.892,20.892,0,0,0,3.4-1.06c1.524-.617,3.167.681,3.612,2.052a3.011,3.011,0,0,1-2.051,3.609,23.383,23.383,0,0,1-16.016.425,3.005,3.005,0,0,1-2.049-3.612,2.956,2.956,0,0,1,3.61-2.049m-4.534-21.675c.682,0,1.234,1.1,1.234,2.454s-.552,2.453-1.234,2.453-1.233-1.1-1.233-2.453.552-2.454,1.233-2.454m-2.623,9.6a5.033,5.033,0,0,0,4.643-3.115.587.587,0,0,1,1.12.354A6.177,6.177,0,0,1,191.6,72.43l-.045,0a.588.588,0,0,1-.044-1.174m1.39,2.43c2.386,0,4.319,1.108,4.319,2.475s-1.933,2.473-4.319,2.473-4.319-1.106-4.319-2.473,1.933-2.475,4.319-2.475m-17.464,3.424c-1.407-4.056-.979-7.888.955-8.558,1.322-.458,3,.7,4.381,2.766a48.835,48.835,0,0,0,1.982,10.606,2.319,2.319,0,0,1-1.272,1.316c-1.934.67-4.641-2.074-6.046-6.131" transform="translate(-108.639 -25.896)" fill="#dba387"/>
        <path id="Trazado_193710" data-name="Trazado 193710" d="M188.008,129.5a48.836,48.836,0,0,1-1.982-10.606c-1.382-2.063-3.058-3.225-4.381-2.766-1.934.67-2.362,4.5-.955,8.557s4.113,6.8,6.046,6.131a2.319,2.319,0,0,0,1.272-1.316" transform="translate(-113.895 -73.473)" fill="#1f0f0b"/>
        <path id="Trazado_193711" data-name="Trazado 193711" d="M327.5,130.819c1.933.67,4.64-2.075,6.047-6.131s.979-7.888-.954-8.558c-1.324-.458-3,.7-4.382,2.768a48.809,48.809,0,0,1-1.982,10.6,2.318,2.318,0,0,0,1.272,1.317" transform="translate(-206.578 -73.473)" fill="#1f0f0b"/>
        <path id="Trazado_193712" data-name="Trazado 193712" d="M257.35,120.606c2.886-.241,4.651-8.586,3.256-12.239a1.958,1.958,0,0,0-3.7.327c-.923,3.69-2.709,12.174.444,11.912" transform="translate(-161.83 -67.872)" fill="#8e5f47"/>
        <path id="Trazado_193713" data-name="Trazado 193713" d="M222.28,135.248c2.385,0,4.319-1.106,4.319-2.473s-1.934-2.475-4.319-2.475-4.319,1.108-4.319,2.475,1.934,2.473,4.319,2.473" transform="translate(-138.02 -82.509)" fill="#8e5f47"/>
        <path id="Trazado_193714" data-name="Trazado 193714" d="M286.787,132.774c0,1.367,1.934,2.473,4.32,2.473s4.319-1.106,4.319-2.473-1.934-2.475-4.319-2.475-4.32,1.108-4.32,2.475" transform="translate(-181.604 -82.508)" fill="#8e5f47"/>
        <path id="Trazado_193715" data-name="Trazado 193715" d="M230.97,102.393c.682,0,1.234-1.1,1.234-2.453s-.552-2.454-1.234-2.454-1.233,1.1-1.233,2.454.552,2.453,1.233,2.453" transform="translate(-145.477 -61.73)" fill="#1f0f0b"/>
        <path id="Trazado_193716" data-name="Trazado 193716" d="M290.651,102.393c.682,0,1.234-1.1,1.234-2.453s-.552-2.454-1.234-2.454-1.233,1.1-1.233,2.454.552,2.453,1.233,2.453" transform="translate(-183.27 -61.73)" fill="#1f0f0b"/>
        <path id="Trazado_193717" data-name="Trazado 193717" d="M235.47,157.628a3,3,0,0,0,2.049,3.611,23.383,23.383,0,0,0,16.016-.425,3.011,3.011,0,0,0,2.05-3.61c-.444-1.371-2.087-2.667-3.611-2.052a20.945,20.945,0,0,1-3.4,1.06c-.332.072-.667.125-1,.191-.061.012-.092.019-.125.026l-.1.009c-.592.061-1.183.111-1.779.129s-1.189.011-1.782-.023c-.255-.014-.509-.034-.763-.057-.143-.014-.287-.029-.43-.045l-.053-.008a22.123,22.123,0,0,1-3.457-.856,2.957,2.957,0,0,0-3.61,2.05m2.447.525c.081.019,8.19,2.014,14.628-.883a.587.587,0,1,1,.482,1.07,21.574,21.574,0,0,1-8.776,1.69,29.376,29.376,0,0,1-6.62-.74.587.587,0,0,1,.287-1.138" transform="translate(-149.054 -98.146)" fill="#8e5f47"/>
        <path id="Trazado_193718" data-name="Trazado 193718" d="M240.742,163.13a29.376,29.376,0,0,0,6.62.74,21.574,21.574,0,0,0,8.776-1.69.587.587,0,1,0-.482-1.07c-6.437,2.9-14.546.9-14.628.883a.587.587,0,0,0-.287,1.138" transform="translate(-152.165 -101.985)" fill="#1f0f0b"/>
        <path id="Trazado_193719" data-name="Trazado 193719" d="M225.053,118.768l.045,0a6.177,6.177,0,0,0,5.674-3.933.587.587,0,0,0-1.119-.354,5.033,5.033,0,0,1-4.644,3.115.588.588,0,0,0,.044,1.174" transform="translate(-142.139 -72.233)" fill="#1f0f0b"/>
        <path id="Trazado_193720" data-name="Trazado 193720" d="M289.849,118.765l.045,0a.588.588,0,0,0,.044-1.174,5.034,5.034,0,0,1-4.643-3.115.587.587,0,0,0-1.119.354,6.176,6.176,0,0,0,5.674,3.933" transform="translate(-179.932 -72.231)" fill="#1f0f0b"/>
        <path id="Trazado_193721" data-name="Trazado 193721" d="M171,510.6h43.2a1.565,1.565,0,0,0,0-3.131H81.7a1.565,1.565,0,0,0,0,3.131H171Z" transform="translate(-50.744 -321.345)" fill="#b56e5a"/>
        <path id="Trazado_193722" data-name="Trazado 193722" d="M206.551,39.359c-6.757-.146-12.961-.457-18.245-.892a42.3,42.3,0,0,0,2.063,26.553l.073-.07c.684-.657,13.184-12.807,16.109-25.591" transform="translate(-118.459 -24.357)" fill="#1f0f0b"/>
        <path id="Trazado_193723" data-name="Trazado 193723" d="M303.646,65.061c.06-.14.1-.277.16-.417a42.368,42.368,0,0,0,1.908-26.112c-5.3.429-11.5.733-18.249.873,3.009,13.141,16.182,25.656,16.182,25.656" transform="translate(-182.032 -24.397)" fill="#1f0f0b"/>
        <path id="Trazado_193724" data-name="Trazado 193724" d="M187.029,26.1c2.918,0,5.768-.031,8.53-.089,6.746-.14,12.954-.445,18.25-.873,10.88-.881,17.921-2.285,17.921-3.866,0-1.516-6.476-2.868-16.6-3.754a1.555,1.555,0,0,1-1.217,1.277,129.2,129.2,0,0,1-26.37,2.688,113.094,113.094,0,0,1-25.832-2.7,1.55,1.55,0,0,1-1.154-1.4c-11.053.879-18.229,2.294-18.229,3.89,0,1.567,6.925,2.961,17.645,3.842,5.284.435,11.488.746,18.245.892,2.848.062,5.793.094,8.809.094" transform="translate(-90.128 -11.006)" fill="#c2ad8d"/>
        <path id="Trazado_193725" data-name="Trazado 193725" d="M247.59,4.723a1.521,1.521,0,0,1,.923.117C247.749,2.14,236.413,0,222.5,0c-13.709,0-24.926,2.082-25.981,4.728a1.476,1.476,0,0,1,.284.015,124.906,124.906,0,0,0,50.786-.014" transform="translate(-124.443 0.005)" fill="#c2ad8d"/>
        <path id="Trazado_193726" data-name="Trazado 193726" d="M193.171,15.886A113.069,113.069,0,0,0,219,18.588a129.17,129.17,0,0,0,26.37-2.688,1.555,1.555,0,0,0,1.217-1.277,1.6,1.6,0,0,0-1.857-1.786,124.9,124.9,0,0,1-50.786.015,1.478,1.478,0,0,0-.284-.015,1.551,1.551,0,0,0-.492,3.049" transform="translate(-121.586 -8.11)" fill="#b56e5a"/>
        <path id="Trazado_193727" data-name="Trazado 193727" d="M238.525,233.033a.782.782,0,0,0-.783.783c0,.037-.005.072-.005.109a32,32,0,0,1-64,.29c0-.134-.02-.265-.02-.4a.783.783,0,0,0-1.565,0c0,.292.036.575.044.865a33.549,33.549,0,0,0,67.084-.293c0-.192.029-.379.029-.573a.782.782,0,0,0-.783-.783" transform="translate(-109.012 -147.563)" fill="#fca01f"/>
        <path id="Trazado_193728" data-name="Trazado 193728" d="M222.486,258.024c13.224,0,23.988-13.245,24.151-29.6,0-.125.015-.247.015-.372a.783.783,0,1,0-1.565,0c0,.022,0,.043,0,.065-.028,15.634-10.154,28.342-22.6,28.342-12.416,0-22.518-12.648-22.595-28.23,0-.06-.007-.117-.007-.177a.783.783,0,0,0-1.565,0c0,.168.018.331.02.5.217,16.3,10.956,29.474,24.147,29.474" transform="translate(-125.583 -143.913)" fill="#fca01f"/>
        <path id="Trazado_193729" data-name="Trazado 193729" d="M41.509,1238.727v24.836l-26.468,10.009a16.992,16.992,0,0,0-10.982,15.895H77.722A13.266,13.266,0,0,0,90.987,1276.2v-37.473H41.509Z" transform="translate(-2.57 -784.403)" fill="#1f0f0b"/>
        <path id="Trazado_193730" data-name="Trazado 193730" d="M286.607,1244.85v31.35a13.265,13.265,0,0,0,13.265,13.266h73.662a16.992,16.992,0,0,0-10.982-15.895l-26.466-10.009v-24.836H286.607Z" transform="translate(-181.49 -784.403)" fill="#1f0f0b"/>
      </g>
    </g>
    <g id="Grupo_145345" data-name="Grupo 145345" transform="translate(1080.253 7120.458)">
      <g id="Grupo_145344" data-name="Grupo 145344" transform="translate(0 0.001)" clip-path="url(#clip-path-2)">
        <path id="Trazado_193731" data-name="Trazado 193731" d="M571.224,891.486l-.018-.013c0,.087,0,.178,0,.266.005-.084.01-.17.016-.253" transform="translate(-385.698 -601.954)" fill="#fff1aa"/>
        <path id="Trazado_193733" data-name="Trazado 193733" d="M290.979,119.636l.019-.005c-.007-.02-.014-.038-.02-.059,0,.022,0,.043,0,.064" transform="translate(-196.478 -80.739)"/>
        <path id="Trazado_193734" data-name="Trazado 193734" d="M328.4,113.383h.013l-.008-.042c0,.014,0,.028-.005.043" transform="translate(-221.75 -76.531)"/>
        <path id="Trazado_193735" data-name="Trazado 193735" d="M389.233,152.812c-1.575-.731-3.133-1.357-4.672-1.9,2.259,4.774,3.6,11.314,3.661,20.072,1.6-1.323,3.331-1.881,4.852-1.353,3.117,1.081,4.144,6.283,2.293,11.622s-5.877,8.79-8.994,7.709a3.689,3.689,0,0,1-1.325-.828,31.329,31.329,0,0,1-5.449,8.862v15.734a96.336,96.336,0,0,1,18.366,3.628c0-.171.008-.339.008-.511a.523.523,0,0,1,1.046,0c0,.278-.01.552-.013.828a73.006,73.006,0,0,1,7.507,2.861l3.75-3.832,16.393,16.394A67.235,67.235,0,0,0,443.513,211.9c4.22-7.8,2.82-17.681-3.893-23.473a10.865,10.865,0,0,0-7.687-3.009c-10.01.538-17.616-3.768-19.485-13.1s-5.339-16.684-14.279-17.759a12.272,12.272,0,0,1-4.992-1.768,4.611,4.611,0,0,1-3.946.02" transform="translate(-256.318 -101.899)"/>
        <path id="Trazado_193736" data-name="Trazado 193736" d="M129.918,223.18a.524.524,0,0,1,.74,0l2.772-2.772,3.22,3.29a67.527,67.527,0,0,1,10.2-4.365c-.006-.415-.019-.827-.019-1.244a.523.523,0,0,1,1.046,0c0,.3.01.595.013.893a92.125,92.125,0,0,1,14.363-3.342V198.467a32.063,32.063,0,0,1-4.763-8.091,3.684,3.684,0,0,1-1.326.829c-3.117,1.081-7.144-2.371-8.994-7.709s-.823-10.541,2.294-11.622c1.52-.527,3.256.03,4.851,1.353.055-8.207,1.117-14.386,2.938-18.991-.86.376-1.385.646-1.5.709a4.64,4.64,0,0,1-4.152.083,12.27,12.27,0,0,1-5.009,1.779c-8.941,1.076-12.41,8.432-14.279,17.76s-9.476,13.634-19.484,13.1a10.864,10.864,0,0,0-7.687,3.01c-6.712,5.792-8.113,15.674-3.893,23.473a67.356,67.356,0,0,0,17.638,20.806l11.031-11.032a.527.527,0,0,1,0-.74" transform="translate(-66.751 -104.146)"/>
        <path id="Trazado_193737" data-name="Trazado 193737" d="M201.955,1080.8H201.9v96.83c.022,0,.042-.006.063-.006H241.6v-65.912H201.955Z" transform="translate(-136.332 -729.796)" fill="#956651"/>
        <path id="Trazado_193738" data-name="Trazado 193738" d="M403.867,1111.715H364.22V1080.8h-.025v91.777l-.041-.016v5.326a5.053,5.053,0,0,1,1.549-.265h36.326a5.084,5.084,0,0,1,1.866.363V1080.8h-.027Z" transform="translate(-245.889 -729.796)" fill="#956651"/>
        <rect id="Rectángulo_44144" data-name="Rectángulo 44144" width="39.647" height="30.911" transform="translate(65.623 351.007)" fill="#694839"/>
        <rect id="Rectángulo_44145" data-name="Rectángulo 44145" width="39.647" height="30.911" transform="translate(118.331 351.007)" fill="#694839"/>
        <path id="Trazado_193739" data-name="Trazado 193739" d="M365.667,1409.691a5.062,5.062,0,0,1-1.549-.265v12.882c-.309,7.106,3.628,11.81,10.151,11.81h65.583a15.131,15.131,0,0,0-9.777-14.152L403.859,1409.8v-.475a5.094,5.094,0,0,1-1.865.363Z" transform="translate(-245.854 -951.628)" fill="#0b0502"/>
        <path id="Trazado_193740" data-name="Trazado 193740" d="M122.647,1410.15l-27.029,10.222a15.132,15.132,0,0,0-9.779,14.151h65.583a11.808,11.808,0,0,0,11.81-11.809v-12.468H123.6a5.107,5.107,0,0,1-.949-.1" transform="translate(-57.961 -952.183)" fill="#0b0502"/>
        <path id="Trazado_193741" data-name="Trazado 193741" d="M268.281,795.587a5.1,5.1,0,0,1,3.489-4.828l-.8-3.007H222.389a.5.5,0,0,1-.328.5l-.157.024a.523.523,0,0,1-.5-.366l-.049-.156H192.434l-.046.15a.522.522,0,0,1-.5.372l-.152-.022a.5.5,0,0,1-.334-.5h-2.21c2.942,2.341,4.568,4.112,4.181,4.759-.606,1.012-5.963-1.028-12.948-4.759h-.667c5.135,3.6,8.357,6.62,7.8,7.55-.674,1.126-6.648-1.178-14.021-5.277,5.048,3.634,8.234,6.9,7.654,7.869-.78,1.3-8.065-1.629-16.271-6.547-2.02-1.21-3.9-2.427-5.59-3.595h-16.3l5.693,28.695-.1-.513,7.394-7.394,13.327,13.328,13.328-13.328,13.2,13.2,13.2-13.2,13.2,13.2,13.2-13.2,13.374,13.373-13.374,13.374-13.2-13.2-13.2,13.2-13.2-13.2-13.2,13.2-13.328-13.328-13.327,13.328-4.434-4.433,1.485,7.485,2.95-2.949,13.327,13.327,13.328-13.327,13.2,13.2,13.2-13.2,13.2,13.2,13.2-13.2,13.374,13.374-13.374,13.373-13.2-13.2-13.2,13.2-13.2-13.2-13.2,13.2-13.328-13.328-11.849,11.848,4.417,22.267h94.27l6.721-37.271-.238,1.319-.672,3.726-.853,4.733-.854,4.734-11.4-11.4,13.374-13.374,2.116,2.115,2.823-15.655-.641,3.552-1.23,6.815-3.068,3.07-13.374-13.374,13.374-13.373,6.217,6.217-.624,3.463,3.26-18.082a5.1,5.1,0,0,1-2.823-4.551" transform="translate(-96.576 -531.918)" fill="#eebc80"/>
        <path id="Trazado_193742" data-name="Trazado 193742" d="M182.109,984.761l1.369,6.9-.523-2.637Z" transform="translate(-122.967 -664.945)" fill="#eebc80"/>
        <path id="Trazado_193743" data-name="Trazado 193743" d="M256.68,959.425l-7.785-7.786-7.786,7.786,7.786,7.787Zm-7.785-2.2,2.2,2.2-2.2,2.2-2.2-2.2Z" transform="translate(-162.805 -642.58)" fill="#165425"/>
        <rect id="Rectángulo_44146" data-name="Rectángulo 44146" width="3.11" height="3.11" transform="translate(83.891 316.845) rotate(-44.983)" fill="#d9000d"/>
        <path id="Trazado_193744" data-name="Trazado 193744" d="M203.532,961.182l13.2-13.2,13.2,13.2,13.2-13.2,13.2,13.2,13.374-13.374-13.374-13.374-13.2,13.2-13.2-13.2-13.2,13.2-13.2-13.2L190.2,947.763l-13.327-13.328-2.95,2.95.924,4.661,2.024-2.024,7.786,7.786-7.231,7.233.523,2.637.4,2.024h0L190.2,947.855Zm52.815-21.16,7.787,7.786-7.787,7.787-7.787-7.787Zm-26.408,0,7.786,7.786-7.786,7.787-7.785-7.787Zm-26.407,0,7.785,7.786-7.785,7.787-7.786-7.787Z" transform="translate(-117.442 -630.963)" fill="#bf874c"/>
        <path id="Trazado_193745" data-name="Trazado 193745" d="M186.582,959.426l-7.786-7.786-2.024,2.024.926,4.663,1.1-1.1,2.2,2.2-2.2,2.2-.554-.556.263,1.326.846,4.263Z" transform="translate(-119.363 -642.58)" fill="#165425"/>
        <path id="Trazado_193746" data-name="Trazado 193746" d="M182.92,971.042l-2.2-2.2-1.1,1.1.545,2.744.554.556Z" transform="translate(-121.287 -654.196)" fill="#d9000d"/>
        <path id="Trazado_193747" data-name="Trazado 193747" d="M338,959.425l-7.786-7.786-7.785,7.786,7.785,7.787Zm-7.786-2.2,2.2,2.2-2.2,2.2-2.2-2.2Z" transform="translate(-217.712 -642.58)" fill="#165425"/>
        <rect id="Rectángulo_44147" data-name="Rectángulo 44147" width="3.11" height="3.11" transform="translate(110.298 316.845) rotate(-45)" fill="#d9000d"/>
        <path id="Trazado_193748" data-name="Trazado 193748" d="M419.307,959.425l-7.787-7.786-7.787,7.786,7.787,7.787Zm-7.787-2.2,2.2,2.2-2.2,2.2-2.2-2.2Z" transform="translate(-272.615 -642.58)" fill="#165425"/>
        <rect id="Rectángulo_44148" data-name="Rectángulo 44148" width="3.11" height="3.11" transform="translate(136.707 316.845) rotate(-45)" fill="#d9000d"/>
        <path id="Trazado_193749" data-name="Trazado 193749" d="M468.957,947.809l11.4,11.4.854-4.734-6.669-6.668,7.787-7.786,1.263,1.261.853-4.733-2.116-2.115Z" transform="translate(-316.656 -630.964)" fill="#bf874c"/>
        <path id="Trazado_193750" data-name="Trazado 193750" d="M486.16,959.426l6.669,6.668.853-4.732-1.934-1.935,2.2-2.2.408.408.238-1.319.616-3.415-1.263-1.261Z" transform="translate(-328.272 -642.58)" fill="#165425"/>
        <path id="Trazado_193751" data-name="Trazado 193751" d="M503.368,971.042l1.934,1.935.672-3.726-.408-.408Z" transform="translate(-339.892 -654.196)" fill="#d9000d"/>
        <path id="Trazado_193752" data-name="Trazado 193752" d="M256.68,876.751l-7.785-7.786-7.786,7.786,7.786,7.785Zm-7.785-2.2,2.2,2.2-2.2,2.2-2.2-2.2Z" transform="translate(-162.805 -586.756)" fill="#165425"/>
        <rect id="Rectángulo_44149" data-name="Rectángulo 44149" width="3.109" height="3.109" transform="translate(83.891 289.995) rotate(-44.983)" fill="#d9000d"/>
        <path id="Trazado_193753" data-name="Trazado 193753" d="M180.963,865.18l13.328,13.327,13.2-13.2,13.2,13.2,13.2-13.2,13.2,13.2,13.374-13.374L247.106,851.76l-13.2,13.2-13.2-13.2-13.2,13.2-13.2-13.2-13.328,13.328L167.636,851.76l-7.394,7.394.1.513.823,4.148,6.468-6.468,7.786,7.786-7.786,7.785-5.817-5.815,1.383,6.97h0l4.434,4.432Zm66.143-7.832,7.787,7.786-7.787,7.785-7.787-7.785Zm-26.408,0,7.786,7.786-7.786,7.785-7.785-7.785Zm-26.407,0,7.785,7.786-7.785,7.785-7.786-7.785Z" transform="translate(-108.201 -575.138)" fill="#bf874c"/>
        <path id="Trazado_193754" data-name="Trazado 193754" d="M177.342,876.751l-7.786-7.786-6.468,6.468.652,3.288,5.817,5.815Zm-7.786-2.2,2.2,2.2-2.2,2.2-2.2-2.2Z" transform="translate(-110.122 -586.756)" fill="#165425"/>
        <rect id="Rectángulo_44150" data-name="Rectángulo 44150" width="3.109" height="3.109" transform="translate(57.235 289.995) rotate(-45)" fill="#d9000d"/>
        <path id="Trazado_193755" data-name="Trazado 193755" d="M338,876.751l-7.786-7.786-7.785,7.786,7.785,7.785Zm-7.786-2.2,2.2,2.2-2.2,2.2-2.2-2.2Z" transform="translate(-217.712 -586.756)" fill="#165425"/>
        <rect id="Rectángulo_44151" data-name="Rectángulo 44151" width="3.109" height="3.109" transform="translate(110.299 289.995) rotate(-45)" fill="#d9000d"/>
        <path id="Trazado_193756" data-name="Trazado 193756" d="M419.307,876.751l-7.787-7.786-7.787,7.786,7.787,7.785Zm-7.787-2.2,2.2,2.2-2.2,2.2-2.2-2.2Z" transform="translate(-272.615 -586.756)" fill="#165425"/>
        <rect id="Rectángulo_44152" data-name="Rectángulo 44152" width="3.109" height="3.109" transform="translate(136.707 289.995) rotate(-45)" fill="#d9000d"/>
        <path id="Trazado_193757" data-name="Trazado 193757" d="M482.331,851.761l-13.374,13.373,13.374,13.374,3.068-3.07,1.229-6.815-4.3,4.3-7.787-7.785,7.787-7.786,5.364,5.364.229-1.271.624-3.463Z" transform="translate(-316.656 -575.139)" fill="#bf874c"/>
        <path id="Trazado_193758" data-name="Trazado 193758" d="M486.16,876.75l7.787,7.785,4.3-4.3.641-3.552.425-2.36-5.364-5.364Zm7.787,2.2-2.2-2.2,2.2-2.2,2.2,2.2Z" transform="translate(-328.272 -586.755)" fill="#165425"/>
        <rect id="Rectángulo_44153" data-name="Rectángulo 44153" width="3.109" height="3.109" transform="translate(163.476 289.995) rotate(-45)" fill="#d9000d"/>
        <path id="Trazado_193759" data-name="Trazado 193759" d="M445.071,356.262a73.1,73.1,0,0,0-7.507-2.861,85.788,85.788,0,0,1-.861,11.412Z" transform="translate(-294.878 -238.629)" fill="#956651"/>
        <path id="Trazado_193760" data-name="Trazado 193760" d="M225.433,354.679a67.527,67.527,0,0,0-10.2,4.365l12.081,12.345a83.781,83.781,0,0,1-1.879-16.71" transform="translate(-145.332 -239.492)" fill="#956651"/>
        <path id="Trazado_193761" data-name="Trazado 193761" d="M261.1,346.14h33.433l14.756-15.079a84.826,84.826,0,0,0,1.066-13,96.33,96.33,0,0,0-18.366-3.627v-3.045c-20.937,11.424-27.776-9.856-27.776-9.856V315.1a92.116,92.116,0,0,0-14.363,3.342,82.481,82.481,0,0,0,2.238,18.491Z" transform="translate(-168.705 -203.605)" fill="#956651"/>
        <path id="Trazado_193762" data-name="Trazado 193762" d="M222.29,748.152c-.077-.048-.158-.1-.234-.143,0,.007,0,.016,0,.023l.233.12" transform="translate(-149.94 -505.082)" fill="#f4dfc3"/>
        <path id="Trazado_193763" data-name="Trazado 193763" d="M295.158,690.272H298.6l10.712-37.681v-.072l.01.036.01-.036v.072l10.714,37.681h4.039l-14.742-46.884Z" transform="translate(-199.301 -434.438)" fill="#f4dfc3"/>
        <path id="Trazado_193764" data-name="Trazado 193764" d="M147.082,758.9l-13.208-8.886-2.355,12.257h20.04c-1.728-1.2-3.246-2.341-4.477-3.371" transform="translate(-88.807 -506.433)" fill="#f4dfc3"/>
        <path id="Trazado_193765" data-name="Trazado 193765" d="M259.44,768.912l.865-2.861c-2.31.129-8.933-2.236-16.494-5.975.388.228.775.454,1.168.69a118.3,118.3,0,0,1,12.265,8.3h2.21c0-.052-.031-.1-.015-.152" transform="translate(-164.63 -513.229)" fill="#f4dfc3"/>
        <path id="Trazado_193766" data-name="Trazado 193766" d="M246.578,781.317c1.095.711,2.131,1.41,3.1,2.09h.667c-1.213-.648-2.472-1.346-3.768-2.09" transform="translate(-166.498 -527.573)" fill="#f4dfc3"/>
        <path id="Trazado_193767" data-name="Trazado 193767" d="M265.749,407.54l-9.011-9.209a69.849,69.849,0,0,0,2.212,7.393l5.259,5.26h36.5l11.858-11.859c.545-2.149,1-4.376,1.37-6.663L299.182,407.54Z" transform="translate(-173.358 -265.004)" fill="#f4dfc3"/>
        <path id="Trazado_193768" data-name="Trazado 193768" d="M368.521,419.2,357.79,429.927l-.371.153H340.4v18.17c.28.013.559.036.84.036,12,0,22.387-11.895,27.279-29.091" transform="translate(-229.851 -283.055)" fill="#f4dfc3"/>
        <path id="Trazado_193769" data-name="Trazado 193769" d="M289.412,444.628H270.542l-.37-.153-3.734-3.735c5.133,12.517,13.465,20.988,22.975,21.984Z" transform="translate(-179.908 -297.603)" fill="#f4dfc3"/>
        <path id="Trazado_193770" data-name="Trazado 193770" d="M474.69,506.445l-.021.006,1.105,4.153,4.814,18.471c.032-.008.062-.021.094-.03l5.243,19.7.8,3.008a5.057,5.057,0,0,1,1.628-.289h19.984l-8.395-51.777c0-.026-.008-.053-.013-.08l-.032-.2-.009,0c-.131-.8-.288-1.6-.5-2.393l-16.479-63.227-21.545,21.545Z" transform="translate(-311.532 -292.908)" fill="#956651"/>
        <path id="Trazado_193771" data-name="Trazado 193771" d="M535.031,836.888c-.763.69-1.541,1.427-2.322,2.215-5.032,5.071-8.239,10.049-7.161,11.119,1.006,1,5.4-1.769,10.072-6.273-.407,3.2-.758,7.109-1.065,11.268-.766,10.38-.16,18.883,1.353,19,1.473.109,3.259-7.772,4.06-17.754,0,.445-.008.888-.008,1.34.008,11.5,1.244,20.82,2.763,20.818,1.385,0,2.522-7.771,2.705-17.867.3,8.215,1.385,14.312,2.674,14.312,1.311,0,2.4-6.307,2.671-14.737.527,6.2,1.693,10.6,2.823,10.6,1.517,0,2.742-7.758,2.736-17.326a67.091,67.091,0,0,0-1.32-14.742l-1.82-11.225H532.568Zm5.223,11.492c-.006.083-.01.169-.016.253,0-.088,0-.179,0-.266l.018.013" transform="translate(-354.727 -558.848)" fill="#956651"/>
        <path id="Trazado_193772" data-name="Trazado 193772" d="M7.168,514.942l37.9,25.5,13.208,8.886c1.231,1.029,2.749,2.174,4.477,3.371,1.686,1.168,3.571,2.385,5.591,3.595,8.206,4.918,15.49,7.848,16.27,6.548.581-.969-2.605-4.235-7.654-7.869,7.372,4.1,13.347,6.4,14.021,5.277.557-.93-2.665-3.952-7.8-7.551q-1.455-1.02-3.1-2.089c1.3.743,2.555,1.442,3.768,2.089,6.985,3.732,12.342,5.772,12.948,4.76.387-.647-1.239-2.418-4.181-4.76a118.277,118.277,0,0,0-12.265-8.3c-.393-.236-.779-.461-1.168-.69,7.561,3.739,14.184,6.1,16.494,5.976l.44-1.456c-1.641-2.074-7.661-6-15.2-9.8-3.727-1.872-7.262-3.578-10.216-4.872,6.265-1.7,10.894-4.045,10.554-5.421-.364-1.475-6.282-1.279-13.218.435-1.081.267-2.117.557-3.105.859L50.1,514.232,29.9,493.5l29.543-27.867,7.838-7.394L48.686,439.648,8.248,477.793a26.283,26.283,0,0,0-1.084,37.154ZM72.35,539.936l-.233-.12c0-.007,0-.016,0-.023.076.048.157.1.234.143" transform="translate(0 -296.866)" fill="#956651"/>
        <path id="Trazado_193773" data-name="Trazado 193773" d="M214.855,373.624l-12.081-12.345-3.22-3.29-2.772,2.772,20.024,20.026a73.117,73.117,0,0,1-1.952-7.162" transform="translate(-132.874 -241.726)" fill="#f4dfc3"/>
        <path id="Trazado_193774" data-name="Trazado 193774" d="M151.8,417.8l-9.337,48.6L157.288,481.6c.988-.3,2.024-.592,3.105-.859,6.937-1.714,12.855-1.91,13.218-.435.34,1.376-4.289,3.721-10.554,5.421,2.954,1.294,6.489,3,10.217,4.872,7.544,3.79,13.563,7.722,15.2,9.8l13.389-44.265V415.2c-10.472-1.046-19.572-10.729-24.779-24.84L155.531,368.8,144.5,379.836l-7.713,7.713,4.262,4.262L159.642,410.4Z" transform="translate(-92.363 -249.03)" fill="#f4dfc3"/>
        <path id="Trazado_193775" data-name="Trazado 193775" d="M380.045,354.244l-8.367,8.55q-.484,3.358-1.219,6.539L386,353.792a.524.524,0,0,1,.74.74l-16.757,16.757c-4.814,18.57-15.883,31.6-28.74,31.6-.282,0-.56-.023-.84-.036v40.857l15.275,48.579c.017.054-.013.1-.014.157h48.581L399,472.747c-.032.008-.062.021-.094.03l-4.814-18.471-1.105-4.152.021-.006-13.321-51.113,21.545-21.545,4.819-4.82-5.864-5.865-16.393-16.393Z" transform="translate(-229.851 -236.611)" fill="#f4dfc3"/>
        <path id="Trazado_193776" data-name="Trazado 193776" d="M532.193,796.41a5.113,5.113,0,0,0,1.628,9.945h22.9a5.117,5.117,0,0,0,0-10.234h-22.9a5.062,5.062,0,0,0-1.628.289" transform="translate(-356.999 -537.569)" fill="#f4dfc3"/>
        <path id="Trazado_193777" data-name="Trazado 193777" d="M358.284,1378.937a5.117,5.117,0,0,0,0,10.233H394.61a5.116,5.116,0,0,0,0-10.233Z" transform="translate(-238.471 -931.107)" fill="#f4dfc3"/>
        <path id="Trazado_193778" data-name="Trazado 193778" d="M191.4,1378.943a5.114,5.114,0,0,0,.063,10.227H231.55a5.116,5.116,0,0,0,0-10.233H191.458c-.021,0-.041.006-.063.006" transform="translate(-125.824 -931.107)" fill="#f4dfc3"/>
        <path id="Trazado_193779" data-name="Trazado 193779" d="M321.849,303.892V291.2c-3.749,4.195-8.438,6.716-13.544,6.716-5.419,0-10.379-2.819-14.231-7.487v3.6s6.839,21.28,27.776,9.856" transform="translate(-198.568 -196.109)" fill="#79422f"/>
        <path id="Trazado_193780" data-name="Trazado 193780" d="M254.732,217.839c-1.722.6-2.1,4.008-.851,7.619s3.661,6.055,5.383,5.459a2.067,2.067,0,0,0,1.133-1.174,43.447,43.447,0,0,1-1.764-9.44c-1.231-1.837-2.723-2.872-3.9-2.464" transform="translate(-170.932 -147.033)" fill="#1f0f0b"/>
        <path id="Trazado_193781" data-name="Trazado 193781" d="M401.44,230.917c1.722.6,4.131-1.847,5.383-5.459s.872-7.022-.85-7.619c-1.177-.408-2.67.627-3.9,2.464a43.49,43.49,0,0,1-1.765,9.442,2.065,2.065,0,0,0,1.132,1.171" transform="translate(-270.302 -147.033)" fill="#1f0f0b"/>
        <path id="Trazado_193782" data-name="Trazado 193782" d="M275.033,197.448c5.106,0,9.8-2.521,13.544-6.716a31.343,31.343,0,0,0,5.449-8.862,3.686,3.686,0,0,0,1.325.828c3.117,1.081,7.144-2.372,8.994-7.709s.825-10.541-2.293-11.622c-1.521-.527-3.257.031-4.852,1.353-.065-8.759-1.4-15.3-3.661-20.072a52.3,52.3,0,0,0-37.736,1.081c-1.821,4.605-2.883,10.784-2.938,18.991-1.595-1.322-3.331-1.88-4.851-1.353-3.117,1.081-4.144,6.283-2.294,11.622s5.877,8.79,8.994,7.709a3.685,3.685,0,0,0,1.326-.829,32.072,32.072,0,0,0,4.763,8.092c3.852,4.669,8.812,7.487,14.231,7.487m22.035-28.539c1.231-1.837,2.723-2.872,3.9-2.464,1.722.6,2.1,4.008.85,7.619s-3.661,6.055-5.383,5.459a2.063,2.063,0,0,1-1.132-1.171,43.464,43.464,0,0,0,1.764-9.442m-43.438,10.614c-1.722.6-4.132-1.847-5.383-5.459s-.87-7.022.852-7.619c1.177-.408,2.67.627,3.9,2.464a43.449,43.449,0,0,0,1.764,9.44,2.067,2.067,0,0,1-1.133,1.174m35.788-9.317c0,1.138-1.609,2.059-3.594,2.059s-3.593-.921-3.593-2.059,1.609-2.057,3.593-2.057,3.594.921,3.594,2.057m-5.358-12.068c.566,0,1.025.913,1.025,2.04s-.459,2.041-1.025,2.041-1.025-.913-1.025-2.041.459-2.04,1.025-2.04m-2.3,5.048a.521.521,0,0,1,.653.34,4.16,4.16,0,0,0,3.832,2.568.522.522,0,0,1-.04,1.043h-.039a5.171,5.171,0,0,1-4.749-3.3.522.522,0,0,1,.342-.655m-7.937-.834a1.629,1.629,0,0,1,3.077-.274c1.162,3.039-.307,9.983-2.707,10.182-2.623.218-1.137-6.84-.37-9.908m6.986,15.193a.523.523,0,1,1,.431.952,17.983,17.983,0,0,1-7.313,1.409,24.4,24.4,0,0,1-5.517-.617.522.522,0,0,1,.255-1.013c.068.018,6.8,1.674,12.146-.731m-14.957-19.407c.566,0,1.027.913,1.027,2.04s-.461,2.041-1.027,2.041-1.025-.913-1.025-2.041.459-2.04,1.025-2.04m-2.184,7.956a4.156,4.156,0,0,0,3.831-2.57.532.532,0,0,1,.658-.337.521.521,0,0,1,.339.653,5.172,5.172,0,0,1-4.748,3.3h-.04a.522.522,0,0,1-.04-1.043m-2.435,4.112c0-1.136,1.609-2.057,3.594-2.057s3.592.921,3.592,2.057-1.608,2.059-3.592,2.059-3.594-.921-3.594-2.059" transform="translate(-165.297 -95.639)" fill="#956651"/>
        <path id="Trazado_193783" data-name="Trazado 193783" d="M332.21,212.717c2.4-.2,3.868-7.143,2.707-10.182a1.629,1.629,0,0,0-3.078.274c-.767,3.068-2.253,10.127.371,9.908" transform="translate(-223.315 -136.096)" fill="#79422f"/>
        <path id="Trazado_193784" data-name="Trazado 193784" d="M302.584,225.327c0-1.136-1.608-2.057-3.592-2.057s-3.593.921-3.593,2.057,1.609,2.059,3.593,2.059,3.592-.921,3.592-2.059" transform="translate(-199.464 -150.76)" fill="#79422f"/>
        <path id="Trazado_193785" data-name="Trazado 193785" d="M360.056,225.327c0,1.138,1.609,2.059,3.593,2.059s3.594-.921,3.594-2.059-1.609-2.057-3.594-2.057-3.593.921-3.593,2.057" transform="translate(-243.122 -150.76)" fill="#79422f"/>
        <path id="Trazado_193786" data-name="Trazado 193786" d="M307.488,196.525c.566,0,1.027-.913,1.027-2.041s-.461-2.04-1.027-2.04-1.025.913-1.025,2.04.459,2.041,1.025,2.041" transform="translate(-206.935 -129.945)" fill="#1f0f0b"/>
        <path id="Trazado_193787" data-name="Trazado 193787" d="M363.556,196.525c.566,0,1.025-.913,1.025-2.041s-.459-2.04-1.025-2.04-1.025.913-1.025,2.04.459,2.041,1.025,2.041" transform="translate(-244.794 -129.945)" fill="#1f0f0b"/>
        <path id="Trazado_193788" data-name="Trazado 193788" d="M316.3,253.213a.521.521,0,0,0,.378.635,24.437,24.437,0,0,0,5.518.617,17.985,17.985,0,0,0,7.313-1.408.523.523,0,0,0-.431-.953c-5.342,2.4-12.078.749-12.146.731a.523.523,0,0,0-.633.378" transform="translate(-213.563 -170.199)" fill="#1f0f0b"/>
        <path id="Trazado_193789" data-name="Trazado 193789" d="M301.929,211.893h.04a5.172,5.172,0,0,0,4.748-3.3.521.521,0,0,0-.339-.653.532.532,0,0,0-.658.337,4.157,4.157,0,0,1-3.831,2.57.522.522,0,0,0,.04,1.042" transform="translate(-203.519 -140.395)" fill="#1f0f0b"/>
        <path id="Trazado_193790" data-name="Trazado 193790" d="M362.25,211.886h.04a.522.522,0,0,0,.039-1.042,4.162,4.162,0,0,1-3.832-2.569.522.522,0,0,0-1,.315,5.169,5.169,0,0,0,4.748,3.3" transform="translate(-241.381 -140.389)" fill="#1f0f0b"/>
        <path id="Trazado_193791" data-name="Trazado 193791" d="M243.971,54.47a87.813,87.813,0,0,1-4.12-14.906c-.616-3.18-1.065-6.218-1.356-8.987-2.64-6.609-5.349-10.867-6.937-10.412-2.277.654-1.386,10.731,1.989,22.51a88.045,88.045,0,0,0,5.389,14.446,4.6,4.6,0,0,1,1.183-.935,38.009,38.009,0,0,1,3.851-1.716" transform="translate(-155.504 -13.594)" fill="#129bdb"/>
        <path id="Trazado_193792" data-name="Trazado 193792" d="M260.2,47.855a59.144,59.144,0,0,1,6.034-1.979c0-.021,0-.042,0-.064a85.85,85.85,0,0,1-3.306-15.63c-.381-2.989-.627-5.851-.749-8.476-2.077-7.022-4.457-11.674-6.109-11.355-1.71.332-2.155,5.9-1.345,13.611.291,2.769.74,5.807,1.356,8.987a87.814,87.814,0,0,0,4.12,14.906" transform="translate(-171.735 -6.979)" fill="#005fab"/>
        <path id="Trazado_193793" data-name="Trazado 193793" d="M282.358,40.175c.007.02.014.039.021.059,1.615-.437,3.4-.846,5.335-1.194a80.957,80.957,0,0,1-2.431-15.165A88.416,88.416,0,0,1,285.2,11c-1.5-5.609-3.248-9.188-4.694-9-1.773.225-2.577,6.025-2.2,14.075.122,2.625.369,5.487.749,8.476a85.878,85.878,0,0,0,3.307,15.63" transform="translate(-187.858 -1.342)" fill="#129bdb"/>
        <path id="Trazado_193794" data-name="Trazado 193794" d="M299.4,22.657a80.953,80.953,0,0,0,2.431,15.165,63,63,0,0,1,6.8-.847l.005-.043a83.086,83.086,0,0,1-1.169-14.622c0-2.987.127-5.831.353-8.432C306.526,5.725,304.408.037,302.432.185c-1.572.117-2.685,3.9-3.115,9.594a88.373,88.373,0,0,0,.084,12.878" transform="translate(-201.977 -0.123)" fill="#005fab"/>
        <path id="Trazado_193795" data-name="Trazado 193795" d="M406.572,55.722c1.581.583,3.178,1.237,4.79,1.984a4.582,4.582,0,0,1,.525.311A93.858,93.858,0,0,0,416.545,45.1c3.375-11.778,4.266-21.856,1.989-22.508-1.588-.456-4.3,3.8-6.937,10.408-.291,2.77-.74,5.808-1.356,8.989a92.445,92.445,0,0,1-3.669,13.728" transform="translate(-274.531 -15.236)" fill="#129bdb"/>
        <path id="Trazado_193796" data-name="Trazado 193796" d="M387.626,47.2a61.507,61.507,0,0,1,6.153,1.907,92.367,92.367,0,0,0,3.668-13.728c.617-3.18,1.066-6.219,1.356-8.989.81-7.705.365-13.276-1.345-13.607-1.651-.32-4.032,4.332-6.109,11.355-.122,2.624-.368,5.486-.749,8.474A89.769,89.769,0,0,1,387.626,47.2" transform="translate(-261.739 -8.62)" fill="#005fab"/>
        <path id="Trazado_193797" data-name="Trazado 193797" d="M373.121,26.307a84.477,84.477,0,0,1-2.155,14.141c1.768.281,3.573.649,5.411,1.116a89.8,89.8,0,0,0,2.975-14.588c.381-2.988.627-5.85.749-8.474.374-8.05-.429-13.849-2.2-14.075-1.447-.185-3.2,3.394-4.695,9a88.391,88.391,0,0,1-.084,12.879" transform="translate(-250.489 -2.984)" fill="#129bdb"/>
        <path id="Trazado_193798" data-name="Trazado 193798" d="M350.115,38.535a60.568,60.568,0,0,1,6.771.691,84.438,84.438,0,0,0,2.155-14.14,88.443,88.443,0,0,0,.084-12.879c-.429-5.692-1.543-9.478-3.115-9.594-1.858-.138-3.841,4.886-5.148,12.261.264,2.773.414,5.839.414,9.076a83.239,83.239,0,0,1-1.162,14.586" transform="translate(-236.41 -1.762)" fill="#005fab"/>
        <path id="Trazado_193799" data-name="Trazado 193799" d="M325.99,36.81l.008.042a61.746,61.746,0,0,1,7.038-.078A83.24,83.24,0,0,0,334.2,22.188c0-3.237-.15-6.3-.413-9.076C333.051,5.388,331.414,0,329.509,0c-1.958,0-3.634,5.685-4.336,13.754-.226,2.6-.353,5.445-.353,8.433A83.091,83.091,0,0,0,325.99,36.81" transform="translate(-219.33 -0.001)" fill="#129bdb"/>
        <path id="Trazado_193800" data-name="Trazado 193800" d="M259.849,127.122c.12-.063.645-.333,1.5-.709a52.3,52.3,0,0,1,37.736-1.08c1.539.547,3.1,1.173,4.672,1.9A4.642,4.642,0,0,0,308.2,119.1a4.559,4.559,0,0,0-.525-.311c-1.612-.748-3.209-1.4-4.791-1.984a61.609,61.609,0,0,0-6.153-1.907c-1.838-.467-3.643-.835-5.411-1.116a60.488,60.488,0,0,0-6.771-.691,61.816,61.816,0,0,0-7.038.078H277.5a63.071,63.071,0,0,0-6.8.847c-1.931.347-3.72.757-5.335,1.194l-.02,0a59.169,59.169,0,0,0-6.034,1.979,38.185,38.185,0,0,0-3.851,1.716,4.653,4.653,0,0,0,4.386,8.207" transform="translate(-170.848 -76.322)" fill="#bf874c"/>
        <path id="Trazado_193801" data-name="Trazado 193801" d="M316.474,671.5l-.01.036-.01-.036v.072l-10.712,37.681h21.447l-10.714-37.681Z" transform="translate(-206.447 -453.423)" fill="#956651"/>
        <path id="Trazado_193802" data-name="Trazado 193802" d="M225.845,491.655a.5.5,0,0,0,.335.5l.152.022a.522.522,0,0,0,.5-.372l.046-.15,14.181-46.884L255.8,491.655l.049.157a.523.523,0,0,0,.5.365l.157-.024a.5.5,0,0,0,.328-.5c0-.054.031-.1.013-.156l-15.275-48.58V402.062c.28.013.559.036.841.036,12.857,0,23.926-13.027,28.74-31.6l16.757-16.757a.524.524,0,0,0-.74-.741l-15.541,15.542q.734-3.177,1.219-6.54a85.78,85.78,0,0,0,.861-11.411c0-.277.013-.551.013-.828a.523.523,0,0,0-1.046,0c0,.171-.007.34-.007.511a84.937,84.937,0,0,1-1.066,13c-.37,2.288-.826,4.514-1.37,6.663L258.37,381.8h-36.5l-5.259-5.259a69.98,69.98,0,0,1-2.213-7.393,82.533,82.533,0,0,1-2.238-18.49c0-.3-.013-.593-.013-.893a.523.523,0,0,0-1.046,0c0,.417.013.829.019,1.243A83.781,83.781,0,0,0,213,367.719a72.931,72.931,0,0,0,1.952,7.162l-20.024-20.025a.524.524,0,0,0-.74.74l21.558,21.559c5.207,14.111,14.307,23.794,24.779,24.84v40.927l-13.389,44.265-.441,1.456-.865,2.861c-.016.053.014.1.015.152M241.57,382.846h17.018l.37-.153,10.731-10.732c-4.891,17.2-15.281,29.091-27.278,29.091-.282,0-.561-.023-.841-.036Zm-24.021-3.888,3.734,3.735.371.153h18.87v18.1c-9.51-1-17.843-9.468-22.975-21.984" transform="translate(-131.019 -235.821)" fill="#1f0f0b"/>
      </g>
    </g>
  </g>
</svg>
