<svg xmlns="http://www.w3.org/2000/svg" xmlns:xlink="http://www.w3.org/1999/xlink" width="505" height="480.65" viewBox="0 0 505 480.65">
  <defs>
    <clipPath id="clip-path">
      <rect id="Rectángulo_44383" data-name="Rectángulo 44383" width="255.185" height="477.988" fill="none"/>
    </clipPath>
    <clipPath id="clip-path-2">
      <rect id="Rectángulo_44384" data-name="Rectángulo 44384" width="132.744" height="183.982" fill="none"/>
    </clipPath>
    <clipPath id="clip-path-3">
      <rect id="Rectángulo_44385" data-name="Rectángulo 44385" width="124.356" height="131.266" fill="none"/>
    </clipPath>
    <clipPath id="clip-path-4">
      <rect id="Rectángulo_44386" data-name="Rectángulo 44386" width="34.552" height="53.916" fill="none"/>
    </clipPath>
    <clipPath id="clip-path-5">
      <rect id="Rectángulo_44387" data-name="Rectángulo 44387" width="27.786" height="61.751" fill="none"/>
    </clipPath>
    <clipPath id="clip-path-6">
      <rect id="Rectángulo_44388" data-name="Rectángulo 44388" width="15.244" height="24.746" fill="none"/>
    </clipPath>
    <clipPath id="clip-path-7">
      <rect id="Rectángulo_44389" data-name="Rectángulo 44389" width="183.333" height="209.759" fill="none"/>
    </clipPath>
    <clipPath id="clip-path-8">
      <rect id="Rectángulo_44390" data-name="Rectángulo 44390" width="181.569" height="200.172" fill="none"/>
    </clipPath>
    <clipPath id="clip-path-9">
      <rect id="Rectángulo_44391" data-name="Rectángulo 44391" width="50.736" height="63.725" fill="none"/>
    </clipPath>
    <clipPath id="clip-path-10">
      <rect id="Rectángulo_44392" data-name="Rectángulo 44392" width="78.478" height="89.27" fill="none"/>
    </clipPath>
    <clipPath id="clip-path-11">
      <rect id="Rectángulo_44393" data-name="Rectángulo 44393" width="6.503" height="27.384" fill="none"/>
    </clipPath>
    <clipPath id="clip-path-12">
      <rect id="Rectángulo_44394" data-name="Rectángulo 44394" width="17.082" height="7.615" fill="none"/>
    </clipPath>
    <clipPath id="clip-path-13">
      <rect id="Rectángulo_44395" data-name="Rectángulo 44395" width="18.699" height="8.139" fill="none"/>
    </clipPath>
    <clipPath id="clip-path-14">
      <rect id="Rectángulo_44396" data-name="Rectángulo 44396" width="6.087" height="4.662" fill="none"/>
    </clipPath>
    <clipPath id="clip-path-15">
      <rect id="Rectángulo_44397" data-name="Rectángulo 44397" width="17.665" height="5.129" fill="none"/>
    </clipPath>
    <clipPath id="clip-path-16">
      <rect id="Rectángulo_44398" data-name="Rectángulo 44398" width="4.233" height="7.865" fill="none"/>
    </clipPath>
    <clipPath id="clip-path-17">
      <rect id="Rectángulo_44399" data-name="Rectángulo 44399" width="18.849" height="5.074" fill="none"/>
    </clipPath>
    <clipPath id="clip-path-18">
      <rect id="Rectángulo_44400" data-name="Rectángulo 44400" width="20.202" height="4.918" fill="none"/>
    </clipPath>
    <clipPath id="clip-path-19">
      <rect id="Rectángulo_44401" data-name="Rectángulo 44401" width="6.523" height="17.72" fill="none"/>
    </clipPath>
    <clipPath id="clip-path-20">
      <rect id="Rectángulo_44402" data-name="Rectángulo 44402" width="7.124" height="19.053" fill="none"/>
    </clipPath>
    <clipPath id="clip-path-21">
      <rect id="Rectángulo_44403" data-name="Rectángulo 44403" width="68.718" height="60.733" fill="none"/>
    </clipPath>
    <clipPath id="clip-path-22">
      <rect id="Rectángulo_44404" data-name="Rectángulo 44404" width="89.038" height="106.825" fill="none"/>
    </clipPath>
    <clipPath id="clip-path-23">
      <rect id="Rectángulo_44405" data-name="Rectángulo 44405" width="109.498" height="54.333" fill="none"/>
    </clipPath>
    <clipPath id="clip-path-24">
      <rect id="Rectángulo_44406" data-name="Rectángulo 44406" width="24.631" height="3.702" fill="none"/>
    </clipPath>
    <clipPath id="clip-path-25">
      <rect id="Rectángulo_44407" data-name="Rectángulo 44407" width="31.26" height="4.57" fill="none"/>
    </clipPath>
    <clipPath id="clip-path-26">
      <rect id="Rectángulo_44408" data-name="Rectángulo 44408" width="23.136" height="3.03" fill="none"/>
    </clipPath>
    <clipPath id="clip-path-27">
      <rect id="Rectángulo_44409" data-name="Rectángulo 44409" width="9.405" height="4.437" fill="none"/>
    </clipPath>
    <clipPath id="clip-path-28">
      <rect id="Rectángulo_44410" data-name="Rectángulo 44410" width="33.938" height="36.001" fill="none"/>
    </clipPath>
    <clipPath id="clip-path-29">
      <rect id="Rectángulo_44411" data-name="Rectángulo 44411" width="26.603" height="6.131" fill="none"/>
    </clipPath>
    <clipPath id="clip-path-30">
      <rect id="Rectángulo_44412" data-name="Rectángulo 44412" width="25.231" height="5.374" fill="none"/>
    </clipPath>
    <clipPath id="clip-path-31">
      <rect id="Rectángulo_44413" data-name="Rectángulo 44413" width="18.763" height="4.654" fill="none"/>
    </clipPath>
    <clipPath id="clip-path-32">
      <rect id="Rectángulo_44414" data-name="Rectángulo 44414" width="8.976" height="1.32" fill="none"/>
    </clipPath>
  </defs>
  <g id="Grupo_145691" data-name="Grupo 145691" transform="translate(-915 -1340.703)">
    <g id="Grupo_145546" data-name="Grupo 145546">
      <path id="Unión_4" data-name="Unión 4" d="M13112.332,12099v-253.351h0V11822a122.858,122.858,0,0,1,2.478-24.59,121.38,121.38,0,0,1,18.358-43.623,122.262,122.262,0,0,1,53.676-44.2,121.314,121.314,0,0,1,22.9-7.11,123.1,123.1,0,0,1,49.174,0,121.417,121.417,0,0,1,43.622,18.355,121.742,121.742,0,0,1,53.79,101.167v277Z" transform="translate(-11936.334 -10280.16)" fill="#c0c3b0"/>
      <g id="Grupo_145544" data-name="Grupo 145544" transform="translate(1172.499 1465.945)">
        <path id="Trazado_197617" data-name="Trazado 197617" d="M135.612,216.486c11.7,5.544,21,16.108,22.145,29.385,1.117,12.981-4.094,25.765-11.089,36.714-7.4-5.461-14.463-12.152-21.865-17.615q7.293,14.127,14.59,28.265a122.141,122.141,0,0,1-7.03,15.12,125.6,125.6,0,0,1-32.178,38.085c-9.127-.8-18.8-2.445-27.137-6.281l15.067,14.506c1.557,1.528-29.774,25.375-31.959,26.959-8.464,6.131-16.334,13.562-25.719,18.247C-2.091,416.119-3.174,377.784,2.865,356.008a239.8,239.8,0,0,1,26.854-61.584,66.855,66.855,0,0,0,5.795,22.031c-.308-14.082,3.269-25.6,3.727-39.675a356.9,356.9,0,0,0,28.807-35.694,198.959,198.959,0,0,0,29.516,5.282,87.512,87.512,0,0,0-24.658-10.42c8.37-11.1,23.063-20.008,36.563-22.909a41.545,41.545,0,0,1,26.147,3.458" transform="translate(4.593 -212.279)" fill="#ffddae"/>
        <path id="Trazado_197618" data-name="Trazado 197618" d="M162.5,233.749S60.1,332.926,25.21,432.661" transform="translate(-25.21 -212.279)" fill="none" stroke="#211d1d" stroke-linecap="round" stroke-linejoin="round" stroke-width="0.641"/>
        <line id="Línea_1907" data-name="Línea 1907" x2="2.692" y2="60.537" transform="translate(64.653 41.648)" fill="none" stroke="#211d1d" stroke-linecap="round" stroke-linejoin="round" stroke-width="0.641"/>
        <line id="Línea_1908" data-name="Línea 1908" x2="3.027" y2="61.881" transform="translate(56.582 50.057)" fill="none" stroke="#211d1d" stroke-linecap="round" stroke-linejoin="round" stroke-width="0.641"/>
        <line id="Línea_1909" data-name="Línea 1909" y1="4.596" x2="67.585" transform="translate(69.366 96.074)" fill="none" stroke="#211d1d" stroke-linecap="round" stroke-linejoin="round" stroke-width="0.749"/>
      </g>
      <g id="Grupo_145543" data-name="Grupo 145543" transform="translate(1960 11008)">
        <path id="Trazado_197614" data-name="Trazado 197614" d="M367.362,127.654c11.073,7.593,18.866,19.936,17.858,33.72-.986,13.479-8.414,25.708-17.372,35.773-6.684-6.806-12.817-14.813-19.5-21.618l10.309,31.333a130.552,130.552,0,0,1-48.862,48.054c-9.213-2.321-18.849-5.585-26.759-10.879l13.056,17.316c1.342,1.822-34.646,21.1-37.145,22.367-9.672,4.891-18.946,11.209-29.325,14.471-35.972,11.3-30.8-28.127-21.044-49.434a248.7,248.7,0,0,1,37.59-58.654,69.245,69.245,0,0,0,2.323,23.5c1.99-14.468,7.54-25.676,10.317-40.015a370.577,370.577,0,0,0,35.348-31.827,206.442,206.442,0,0,0,29.356,10.248A90.787,90.787,0,0,0,299.965,137.3c10.388-9.991,26.895-16.709,41.194-17.472a43.078,43.078,0,0,1,26.207,7.828" transform="translate(-982 -9525.224)" fill="#dfddcc"/>
        <path id="Trazado_197615" data-name="Trazado 197615" d="M361.554,144.855S240.443,229.627,188.368,326.028" transform="translate(-982 -9525.224)" fill="none" stroke="#211d1d" stroke-linecap="round" stroke-linejoin="round" stroke-width="0.665"/>
        <line id="Línea_1906" data-name="Línea 1906" x1="7.043" y2="63.86" transform="translate(-714.822 -9364.325)" fill="none" stroke="#211d1d" stroke-linecap="round" stroke-linejoin="round" stroke-width="0.665"/>
        <path id="Trazado_197616" data-name="Trazado 197616" d="M350.788,221.666l-74.09-5.628,7.166-62.427" transform="translate(-982 -9525.224)" fill="none" stroke="#211d1d" stroke-linecap="round" stroke-linejoin="round" stroke-width="0.665"/>
      </g>
      <g id="Grupo_145545" data-name="Grupo 145545" transform="translate(9 35.187)">
        <g id="Grupo_145449" data-name="Grupo 145449" transform="translate(1001.763 1305.516)">
          <g id="Grupo_145448" data-name="Grupo 145448" transform="translate(0 0)" clip-path="url(#clip-path)">
            <path id="Trazado_199610" data-name="Trazado 199610" d="M95.255,258.883l.009-.027c-.1.037-.2.072-.3.11l.3-.082" transform="translate(-95.263 1.363)" fill="#fff"/>
            <path id="Trazado_199611" data-name="Trazado 199611" d="M291.552,151.818q-1.068.935-2.208,1.857l1.687,1.687c.181-1.257.355-2.434.521-3.544" transform="translate(-94.239 0.799)" fill="#063"/>
            <path id="Trazado_199612" data-name="Trazado 199612" d="M287.3,344.846c-.006-.018-.025-.027-.032-.045.013.328.023.652.036.981a1.656,1.656,0,0,0,0-.936" transform="translate(-94.25 1.815)" fill="#07381e"/>
            <path id="Trazado_199613" data-name="Trazado 199613" d="M137.747,225.884l32.337-30.5,2.659-13.842-14.311-14.311-6.209,5.856c.082.047-31.042,29.145-30.989,29.232Z" transform="translate(-95.124 0.88)" fill="#a84d17"/>
            <path id="Trazado_199614" data-name="Trazado 199614" d="M207.612,55.271l.022-.006c-.007-.023-.016-.043-.023-.066,0,.024,0,.048,0,.072" transform="translate(-94.669 0.291)"/>
            <path id="Trazado_199615" data-name="Trazado 199615" d="M220.711,53.066h.014l-.009-.045c0,.015,0,.03-.005.045" transform="translate(-94.6 0.279)"/>
            <path id="Trazado_199616" data-name="Trazado 199616" d="M249.068,68.234c-1.71-.793-3.4-1.473-5.073-2.066,2.451,5.172,3.9,12.268,3.967,21.764,1.731-1.44,3.615-2.053,5.265-1.481,3.379,1.17,4.491,6.807,2.485,12.59s-6.365,9.523-9.744,8.353a3.981,3.981,0,0,1-1.423-.927,33.936,33.936,0,0,1-5.915,9.63v17.047a104.4,104.4,0,0,1,19.9,3.931c0-.185.009-.368.009-.554a.565.565,0,1,1,1.131,0c0,.3-.011.6-.014.9a79.165,79.165,0,0,1,8.132,3.1l4.064-4.153,17.761,17.761q1.138-.921,2.208-1.857a73.82,73.82,0,0,0,6.591-6.548q1.17-1.318,2.22-2.625a71.564,71.564,0,0,0,7.246-10.848c4.571-8.449,3.055-19.155-4.218-25.433a11.778,11.778,0,0,0-8.326-3.259c-10.845.584-19.087-4.081-21.111-14.188s-5.784-18.074-15.47-19.24a13.3,13.3,0,0,1-5.451-1.943,4.783,4.783,0,0,1-4.232.048" transform="translate(-94.506 0.348)"/>
            <path id="Trazado_199617" data-name="Trazado 199617" d="M174.022,142.029a.567.567,0,0,1,.8,0l3-3,3.487,3.565a73.106,73.106,0,0,1,11.051-4.729c-.007-.449-.021-.9-.021-1.347a.566.566,0,1,1,1.133,0c0,.324.011.644.014.968a99.779,99.779,0,0,1,15.563-3.622V115.254a34.752,34.752,0,0,1-5.171-8.794,3.981,3.981,0,0,1-1.423.927c-3.379,1.17-7.741-2.569-9.744-8.353s-.894-11.42,2.485-12.59c1.648-.571,3.527.04,5.256,1.474.058-8.9,1.208-15.593,3.183-20.583-.931.407-1.5.7-1.629.767a5.03,5.03,0,0,1-4.5.091,13.281,13.281,0,0,1-5.426,1.928c-9.687,1.166-13.445,9.134-15.47,19.241s-10.266,14.771-21.109,14.187a11.779,11.779,0,0,0-8.328,3.259c-7.273,6.278-8.789,16.984-4.218,25.433a72.955,72.955,0,0,0,19.109,22.54l11.954-11.952a.567.567,0,0,1,0-.8" transform="translate(-95.024 0.354)"/>
            <path id="Trazado_199618" data-name="Trazado 199618" d="M219.446,496.537V425.128H176.492V391.639h-.057V496.544c.023,0,.044-.007.067-.007Z" transform="translate(-94.834 2.062)" fill="#a84d17"/>
            <path id="Trazado_199619" data-name="Trazado 199619" d="M233.267,394.988V491.07l-.045-.017v5.771a5.5,5.5,0,0,1,1.68-.287h39.357a5.507,5.507,0,0,1,2.02.393V391.639h-.028v33.489H233.3V391.639h-.028v3.349Z" transform="translate(-94.535 2.062)" fill="#a84d17"/>
            <path id="Trazado_199620" data-name="Trazado 199620" d="M219.446,425.128V391.638H176.492v33.489Z" transform="translate(-94.833 2.062)" fill="#8d3914"/>
            <rect id="Rectángulo_44374" data-name="Rectángulo 44374" width="42.954" height="33.489" transform="translate(138.761 393.701)" fill="#8d3914"/>
            <path id="Trazado_199621" data-name="Trazado 199621" d="M163.374,327.108l.481,2.424-.3-1.519Z" transform="translate(-94.902 1.722)" fill="#eec893"/>
            <path id="Trazado_199622" data-name="Trazado 199622" d="M290.817,323.4l1.31-7.265,1.459-8.093.371-2.057.6-3.322.031-.173a5.5,5.5,0,0,1,.721-10.159l-.868-3.259H241.808a.537.537,0,0,1-.357.539l-.17.026a.565.565,0,0,1-.539-.4l-.053-.17H209.356l-.049.164a.57.57,0,0,1-.543.4l-.164-.022a.543.543,0,0,1-.362-.543h-2.394c3.186,2.536,4.948,4.455,4.528,5.157-.656,1.095-6.46-1.115-14.027-5.157h-.724c5.564,3.9,9.055,7.173,8.451,8.181-.73,1.218-7.2-1.277-15.19-5.718,5.469,3.938,8.921,7.475,8.291,8.525-.844,1.409-8.738-1.764-17.627-7.093-2.188-1.311-4.23-2.63-6.056-3.894H155.827l6.381,32.162-.324-1.632,8.01-8.009,14.44,14.44,14.44-14.44,14.3,14.3,14.3-14.3,14.307,14.3,14.3-14.3,14.489,14.489-14.489,14.489-14.3-14.307-14.307,14.307-14.3-14.307-14.3,14.307-14.44-14.44-14.44,14.44-4.8-4.8,3.124,15.753,8.067,40.662h102.13l.08-.446.909-5.036.7-3.876,1.278-7.087.388-2.147.115-.636.688-3.814.181-1,.564-3.127-.454,2.518-12.352-12.354L285,340.679l2.29,2.292-.2,1.113.7-3.894.172-.953.37-2.051.01-.054.4-2.226.925-5.129.574-3.185Zm-34.823,46.259-14.3-14.3-14.307,14.3-14.3-14.3-14.3,14.3-14.44-14.44L171.5,368.055l-1-5.052-1.2-6.052-.59-2.975-1-5.05-1-5.05,3.194-3.2,14.44,14.44,14.44-14.44,14.3,14.306,14.3-14.306,14.307,14.306,14.3-14.306,14.489,14.489Zm33.657-39.8-1.332,7.386L285,340.569,270.508,326.08,285,311.591l6.734,6.734-.924,5.128Z" transform="translate(-94.942 1.522)" fill="#eec893"/>
            <path id="Trazado_199623" data-name="Trazado 199623" d="M284.036,356.943l-.314,1.74,1.565-8.677-.524,2.9Z" transform="translate(-94.269 1.843)" fill="#eec893"/>
            <path id="Trazado_199624" data-name="Trazado 199624" d="M241.633,354.715l-14.307-14.306-14.3,14.306-14.3-14.306-14.44,14.44-14.44-14.44-3.194,3.2,1,5.05,2.192-2.192,8.435,8.434-7.835,7.835,1,5.052,12.837-12.837,14.44,14.439,14.3-14.3,14.3,14.3,14.307-14.3,14.3,14.3L270.426,354.9l-14.489-14.488Zm-42.918,8.617L190.28,354.9l8.435-8.434,8.437,8.434Zm28.611,0-8.435-8.435,8.435-8.434,8.437,8.434Zm28.611,0L247.5,354.9l8.437-8.434,8.435,8.434Z" transform="translate(-94.885 1.792)" fill="#c89a61"/>
            <path id="Trazado_199625" data-name="Trazado 199625" d="M190.156,354.866l8.435,8.434,8.437-8.434-8.437-8.435Zm8.435,2.382-2.38-2.382,2.38-2.382,2.382,2.382Z" transform="translate(-94.761 1.824)" fill="#063"/>
            <rect id="Rectángulo_44375" data-name="Rectángulo 44375" width="3.369" height="3.369" transform="translate(101.448 356.689) rotate(-44.976)" fill="#e20613"/>
            <path id="Trazado_199626" data-name="Trazado 199626" d="M169.833,346.431l-2.193,2.192,1,5.05,1.19-1.191,2.382,2.384-2.382,2.382-.6-.6,1.2,6.052,7.835-7.834Z" transform="translate(-94.88 1.824)" fill="#063"/>
            <path id="Trazado_199627" data-name="Trazado 199627" d="M172.21,354.834l-2.382-2.382-1.19,1.19.59,2.975.6.6Z" transform="translate(-94.875 1.856)" fill="#e20613"/>
            <path id="Trazado_199628" data-name="Trazado 199628" d="M218.617,354.866l8.435,8.434,8.437-8.434-8.437-8.435Zm8.435,2.382-2.382-2.382,2.382-2.382,2.382,2.382Z" transform="translate(-94.612 1.824)" fill="#063"/>
            <rect id="Rectángulo_44376" data-name="Rectángulo 44376" width="3.369" height="3.369" transform="translate(130.058 356.69) rotate(-45)" fill="#e20613"/>
            <path id="Trazado_199629" data-name="Trazado 199629" d="M247.076,354.866l8.437,8.434,8.435-8.434-8.435-8.435Zm8.437,2.382-2.382-2.382,2.382-2.382,2.382,2.382Z" transform="translate(-94.462 1.824)" fill="#063"/>
            <rect id="Rectángulo_44377" data-name="Rectángulo 44377" width="3.369" height="3.369" transform="translate(158.669 356.69) rotate(-45)" fill="#e20613"/>
            <path id="Trazado_199630" data-name="Trazado 199630" d="M283.184,362.122l-7.226-7.224,8.436-8.435,1.367,1.367.724-4.016.2-1.112-2.291-2.293L269.907,354.9l12.352,12.354.454-2.518.057-.317Z" transform="translate(-94.341 1.792)" fill="#c89a61"/>
            <path id="Trazado_199631" data-name="Trazado 199631" d="M275.927,354.866l7.226,7.224.61-3.388.314-1.74-2.1-2.1,2.383-2.382.441.442.524-2.9.4-2.227-1.367-1.367Z" transform="translate(-94.31 1.824)" fill="#063"/>
            <path id="Trazado_199632" data-name="Trazado 199632" d="M284.332,352.452l-2.383,2.382,2.1,2.1.727-4.036Z" transform="translate(-94.278 1.856)" fill="#e20613"/>
            <path id="Trazado_199633" data-name="Trazado 199633" d="M207.028,325.928l-8.437-8.434-8.435,8.434,8.435,8.437Zm-8.437-2.38,2.382,2.38-2.382,2.382-2.38-2.382Z" transform="translate(-94.761 1.672)" fill="#063"/>
            <rect id="Rectángulo_44378" data-name="Rectángulo 44378" width="3.368" height="3.368" transform="translate(101.449 327.601) rotate(-45.024)" fill="#e20613"/>
            <path id="Trazado_199634" data-name="Trazado 199634" d="M169.863,317.525l8.435,8.435-8.435,8.436-6.3-6.3.3,1.519,1.2,6.033h0l4.8,4.8,14.44-14.44,14.44,14.44,14.3-14.306,14.3,14.306,14.307-14.306,14.3,14.306,14.489-14.488-14.489-14.489-14.3,14.3-14.307-14.3-14.3,14.3-14.3-14.3-14.44,14.44-14.44-14.44-8.011,8.008.324,1.633.679,3.42Zm86.1,0,8.435,8.435-8.435,8.436-8.437-8.436Zm-28.611,0,8.437,8.435-8.437,8.436-8.435-8.436Zm-28.611,0,8.437,8.435L198.74,334.4l-8.435-8.436Z" transform="translate(-94.91 1.64)" fill="#c89a61"/>
            <path id="Trazado_199635" data-name="Trazado 199635" d="M169.858,334.365l8.435-8.437-8.435-8.434-7.009,7.009.527,2.656.18.9Zm0-10.818,2.382,2.38-2.382,2.382-2.382-2.382Z" transform="translate(-94.905 1.672)" fill="#063"/>
            <rect id="Rectángulo_44379" data-name="Rectángulo 44379" width="3.369" height="3.369" transform="translate(72.571 327.601) rotate(-45.024)" fill="#e20613"/>
            <path id="Trazado_199636" data-name="Trazado 199636" d="M235.489,325.928l-8.437-8.434-8.435,8.434,8.435,8.437Zm-8.437-2.38,2.382,2.38-2.382,2.382-2.382-2.382Z" transform="translate(-94.612 1.672)" fill="#063"/>
            <rect id="Rectángulo_44380" data-name="Rectángulo 44380" width="3.369" height="3.369" transform="translate(130.059 327.601) rotate(-45.024)" fill="#e20613"/>
            <path id="Trazado_199637" data-name="Trazado 199637" d="M263.948,325.928l-8.435-8.434-8.437,8.434,8.437,8.437Zm-8.435-2.38,2.382,2.38-2.382,2.382-2.382-2.382Z" transform="translate(-94.462 1.672)" fill="#063"/>
            <rect id="Rectángulo_44381" data-name="Rectángulo 44381" width="3.369" height="3.369" transform="translate(158.67 327.601) rotate(-45.024)" fill="#e20613"/>
            <path id="Trazado_199638" data-name="Trazado 199638" d="M275.958,325.96l8.436-8.435,5.81,5.81.924-5.128-6.734-6.734-14.488,14.489,14.488,14.489,3.323-3.325,1.332-7.386-4.655,4.657Z" transform="translate(-94.341 1.64)" fill="#c89a61"/>
            <path id="Trazado_199639" data-name="Trazado 199639" d="M284.363,317.493l-8.436,8.435,8.436,8.436,4.654-4.656,1.156-6.4Zm0,10.818-2.382-2.382,2.382-2.38,2.38,2.38Z" transform="translate(-94.31 1.672)" fill="#063"/>
            <rect id="Rectángulo_44382" data-name="Rectángulo 44382" width="3.368" height="3.368" transform="translate(187.671 327.6) rotate(-45)" fill="#e20613"/>
            <path id="Trazado_199640" data-name="Trazado 199640" d="M267.68,140.144a79.165,79.165,0,0,0-8.132-3.1,92.9,92.9,0,0,1-.932,12.362Z" transform="translate(-94.401 0.722)" fill="#a84d17"/>
            <path id="Trazado_199641" data-name="Trazado 199641" d="M192.151,137.493a73.108,73.108,0,0,0-11.051,4.729l13.087,13.372a90.737,90.737,0,0,1-2.036-18.1" transform="translate(-94.809 0.724)" fill="#a84d17"/>
            <path id="Trazado_199642" data-name="Trazado 199642" d="M205.4,167.22h36.218l15.991-16.341a91.92,91.92,0,0,0,1.154-14.082,104.319,104.319,0,0,0-19.9-3.931v-3.3c-22.682,12.379-30.093-10.676-30.093-10.676v14.7a99.738,99.738,0,0,0-15.561,3.621,89.408,89.408,0,0,0,2.424,20.029Z" transform="translate(-94.745 0.626)" fill="#a84d17"/>
            <path id="Trazado_199643" data-name="Trazado 199643" d="M155.848,289.139h17.664c-1.868-1.294-3.508-2.53-4.84-3.644l-14.321-9.635-2.551,13.28Z" transform="translate(-94.963 1.452)" fill="#f3e5ce"/>
            <path id="Trazado_199644" data-name="Trazado 199644" d="M183.739,275.313l-.279-.171a.271.271,0,0,0,0,.028l.276.143" transform="translate(-94.797 1.449)" fill="#f3e5ce"/>
            <path id="Trazado_199645" data-name="Trazado 199645" d="M224.4,248.513v-.079l.011.04.011-.04v.079l11.607,40.822h4.376l-15.971-50.793-15.362,50.793H212.8Z" transform="translate(-94.662 1.256)" fill="#f3e5ce"/>
            <path id="Trazado_199646" data-name="Trazado 199646" d="M208.035,288.956l.938-3.1c-2.5.141-9.677-2.422-17.867-6.472.419.246.837.491,1.262.745a127.989,127.989,0,0,1,13.291,8.992h2.394c0-.056-.034-.107-.017-.164" transform="translate(-94.756 1.471)" fill="#f3e5ce"/>
            <path id="Trazado_199647" data-name="Trazado 199647" d="M192.061,286.81c1.188.773,2.315,1.532,3.369,2.271h.724c-1.318-.7-2.686-1.463-4.092-2.271" transform="translate(-94.751 1.51)" fill="#f3e5ce"/>
            <path id="Trazado_199648" data-name="Trazado 199648" d="M205.392,167.053l-9.767-9.98a75.7,75.7,0,0,0,2.4,8.008l5.7,5.7h39.543l12.849-12.85c.59-2.327,1.085-4.741,1.485-7.219L241.61,167.053Z" transform="translate(-94.733 0.793)" fill="#f3e5ce"/>
            <path id="Trazado_199649" data-name="Trazado 199649" d="M255.377,160.069l-11.63,11.63-.4.166H224.911v19.684c.3.014.6.039.909.039,13,0,24.257-12.888,29.557-31.519" transform="translate(-94.578 0.843)" fill="#f3e5ce"/>
            <path id="Trazado_199650" data-name="Trazado 199650" d="M223.914,171.825H203.47l-.4-.166-4.048-4.048c5.562,13.561,14.59,22.739,24.894,23.819Z" transform="translate(-94.715 0.882)" fill="#f3e5ce"/>
            <path id="Trazado_199651" data-name="Trazado 199651" d="M267.249,188.52,281.682,243.9l-.024.006,1.256,4.717,5.159,19.795c.034-.009.066-.022.1-.031l5.681,21.339.868,3.259a5.486,5.486,0,0,1,1.763-.314h21.651l-.317-1.955-.43-2.652L315.7,277.672l-.407-2.51-1.18-7.281-.212-1.307-.538-3.314-.45-2.778-.286-1.771-.324-2-.455-2.8-.593-3.657-.25-1.545L310.57,246l-1.241-7.66-.289-1.776-.012-.071-.036-.224-.009,0c-.143-.864-.313-1.728-.538-2.592l-.241-.926-7.592-29.131-.7-2.688L293.8,177.5l-3.211-12.319Z" transform="translate(-94.355 0.87)" fill="#a84d17"/>
            <path id="Trazado_199652" data-name="Trazado 199652" d="M298.121,305.474l1.045,3.925.314,1.178.66,2.485c-.176.16-.347.3-.525.467-.434.4-.876.838-1.315,1.269-.227.222-.451.426-.679.655-.424.428-.813.851-1.212,1.276-1.112,1.182-2.114,2.334-2.993,3.435a1.066,1.066,0,0,0-.239.3c-2.125,2.707-3.438,5-3.508,6.244a1.011,1.011,0,0,0,.2.787,1.173,1.173,0,0,0,.988.153,3.213,3.213,0,0,0,.471-.09,11.128,11.128,0,0,0,2.468-1.219,34.16,34.16,0,0,0,3.545-2.582c.235-.194.466-.379.708-.584.887-.754,1.805-1.6,2.734-2.494-.414,3.251-.773,7.185-1.092,11.384-.021.283-.043.562-.064.846-.043.587-.08,1.164-.116,1.74q-.065,1.071-.114,2.111c-.06,1.324-.1,2.6-.117,3.826q-.026,1.687.005,3.212c.011.582.026,1.144.048,1.685.015.379.033.743.054,1.1.04.71.088,1.385.15,2,.008.09.018.178.027.265a20.778,20.778,0,0,0,.473,2.877c.032.128.068.234.1.348.264.874.582,1.386.952,1.413a.786.786,0,0,0,.6-.347c.768-.89,1.572-3.469,2.272-7.105.154-.8.3-1.646.442-2.536.041-.256.082-.514.122-.778.106-.7.205-1.421.3-2.164.256-1.971.479-4.09.656-6.309,0,.485-.01.965-.009,1.457,0,.509.006,1.006.011,1.507q.008.825.023,1.631v.008q.021,1.1.055,2.162.032.967.073,1.9.066,1.451.156,2.8c.033.5.068.981.106,1.457.139,1.753.306,3.357.5,4.763a18.578,18.578,0,0,0,1.418,5.767c.21.353.427.554.65.554a.673.673,0,0,0,.462-.3,2.049,2.049,0,0,0,.223-.327,7.361,7.361,0,0,0,.583-1.555,33.082,33.082,0,0,0,.822-4.361c.065-.488.127-1,.185-1.531.042-.39.082-.8.122-1.211.081-.85.157-1.734.222-2.668.032-.458.06-.932.088-1.408q.081-1.383.138-2.855c0-.043,0-.088,0-.131q.042-1.129.067-2.3c.006-.234.01-.471.014-.709.009.23.017.46.026.687.036.858.079,1.7.131,2.5.02.32.044.626.066.938.059.809.123,1.6.2,2.343.059.6.124,1.175.191,1.728.015.122.031.231.047.35q.038.291.076.573c.132.95.276,1.812.432,2.575.129.624.263,1.175.4,1.658.4,1.363.849,2.149,1.327,2.149.421,0,.821-.609,1.183-1.693a21.491,21.491,0,0,0,.714-3.019c.149-.847.284-1.793.405-2.821q.087-.739.165-1.531c.166-1.711.294-3.608.378-5.632q.027-.63.047-1.278.057.66.122,1.293a52.551,52.551,0,0,0,.9,5.9c.6,2.677,1.321,4.3,2.034,4.3.4,0,.788-.514,1.138-1.433a16.52,16.52,0,0,0,.669-2.458c.209-1.016.4-2.2.555-3.53.1-.822.188-1.69.265-2.611.138-1.66.235-3.466.29-5.373q.026-.878.036-1.78c.007-.525.012-1.052.012-1.587v-.033q0-.964-.017-1.9c-.011-.682-.03-1.349-.053-2.007-.024-.709-.056-1.4-.093-2.074q-.053-.965-.121-1.88c-.073-.976-.157-1.91-.254-2.787a39.3,39.3,0,0,0-.89-5.281l-.9-5.545-.256-1.583-.818-5.043H297.471Zm7.678,20c-.007.1-.013.209-.02.313,0-.109,0-.222,0-.33l.023.017" transform="translate(-94.237 1.595)" fill="#a84d17"/>
            <path id="Trazado_199653" data-name="Trazado 199653" d="M122.287,201.225l-7.584,7.153a28.459,28.459,0,0,0-3.651,37.186.534.534,0,0,1,.614-.025L134.23,261.5a.571.571,0,0,1,.137.791l-.3.154,20.527,13.811,14.32,9.635c1.333,1.113,2.973,2.35,4.841,3.644,1.826,1.265,3.867,2.583,6.056,3.894,8.89,5.329,16.783,8.5,17.627,7.092.629-1.048-2.823-4.587-8.291-8.524,7.988,4.441,14.46,6.935,15.19,5.717.6-1.008-2.887-4.281-8.451-8.18-1.054-.739-2.18-1.5-3.37-2.271,1.407.808,2.776,1.566,4.093,2.271,7.568,4.042,13.371,6.252,14.027,5.156.42-.7-1.342-2.62-4.528-5.156a127.932,127.932,0,0,0-13.291-8.992c-.424-.254-.842-.5-1.262-.746,8.19,4.05,15.364,6.613,17.867,6.473l.477-1.578c-1.779-2.246-8.3-6.5-16.474-10.611-4.038-2.029-7.867-3.876-11.068-5.278,6.789-1.844,11.8-4.383,11.433-5.874-.393-1.6-6.806-1.385-14.319.471-1.172.289-2.294.6-3.365.931l-15.676-16.082c-.015.014-.012.038-.029.051ZM184.148,275.7l-.276-.143a.271.271,0,0,1,0-.028l.279.171" transform="translate(-95.206 1.059)" fill="#a84d17"/>
            <path id="Trazado_199654" data-name="Trazado 199654" d="M194.221,155.587l-13.087-13.372-3.487-3.565-3,3,21.692,21.692a79.017,79.017,0,0,1-2.114-7.759" transform="translate(-94.843 0.73)" fill="#f3e5ce"/>
            <path id="Trazado_199655" data-name="Trazado 199655" d="M169.913,195.515l-1.282,6.671-8.694,45.246.3.381a.555.555,0,0,1-.061.743l15.677,16.082c1.07-.328,2.192-.642,3.364-.931,7.513-1.857,13.926-2.07,14.319-.471.37,1.491-4.644,4.031-11.432,5.874,3.2,1.4,7.03,3.249,11.068,5.278,8.172,4.107,14.695,8.365,16.473,10.612l14.5-47.962V192.7c-11.346-1.133-21.205-11.623-26.847-26.912l-23.353-23.354L162,154.387l-8.356,8.356,4.619,4.619,14.311,14.311Z" transform="translate(-94.954 0.75)" fill="#f3e5ce"/>
            <path id="Trazado_199656" data-name="Trazado 199656" d="M257.473,156.5l16.835-16.837a.568.568,0,1,1,.8.8l-18.155,18.154c-5.214,20.117-17.205,34.232-31.136,34.232-.3,0-.606-.025-.91-.038v44.265l16.548,52.63c.019.059-.014.113-.014.171h52.633L288.4,268.536c-.034.009-.067.022-.1.031l-5.16-19.795-1.256-4.717.025-.006-14.433-55.376,23.342-23.342,5.22-5.221-4.665-4.665-1.687-1.687L271.922,136l-4.064,4.153-9.064,9.262q-.525,3.639-1.321,7.085" transform="translate(-94.578 0.716)" fill="#f3e5ce"/>
            <path id="Trazado_199657" data-name="Trazado 199657" d="M294.6,292.314a5.5,5.5,0,0,0-.721,10.159,6.159,6.159,0,0,0,2.484.613h24.807a5.527,5.527,0,0,0,.49-11.037c-.165-.014-.322-.049-.49-.049H296.36a5.486,5.486,0,0,0-1.763.314" transform="translate(-94.231 1.537)" fill="#f3e5ce"/>
            <path id="Trazado_199658" data-name="Trazado 199658" d="M238.787,129.586V115.84c-4.061,4.544-9.141,7.276-14.673,7.276-5.872,0-11.246-3.054-15.42-8.112v3.906s7.411,23.055,30.093,10.676" transform="translate(-94.664 0.605)" fill="#8d3914"/>
            <path id="Trazado_199659" data-name="Trazado 199659" d="M196.09,89.662c-1.867.647-2.278,4.344-.922,8.254s3.967,6.56,5.833,5.913a2.234,2.234,0,0,0,1.226-1.269,47.038,47.038,0,0,1-1.911-10.229c-1.334-1.99-2.951-3.111-4.226-2.67" transform="translate(-94.739 0.472)" fill="#29120b"/>
            <path id="Trazado_199660" data-name="Trazado 199660" d="M247.1,103.828c1.867.647,4.476-2,5.833-5.913s.945-7.607-.922-8.254c-1.275-.441-2.892.68-4.225,2.67a47.128,47.128,0,0,1-1.911,10.228,2.232,2.232,0,0,0,1.225,1.27" transform="translate(-94.468 0.472)" fill="#29120b"/>
            <path id="Trazado_199661" data-name="Trazado 199661" d="M224.2,123.391c5.533,0,10.613-2.732,14.674-7.276a33.987,33.987,0,0,0,5.915-9.63,3.992,3.992,0,0,0,1.423.926c3.379,1.17,7.741-2.568,9.744-8.353s.893-11.42-2.485-12.59c-1.651-.572-3.535.042-5.265,1.481-.071-9.495-1.516-16.591-3.967-21.764a56.659,56.659,0,0,0-40.874,1.174c-1.973,4.991-3.124,11.687-3.183,20.583-1.728-1.434-3.608-2.045-5.256-1.474-3.378,1.17-4.491,6.807-2.485,12.59s6.365,9.523,9.744,8.353a3.991,3.991,0,0,0,1.423-.926,34.788,34.788,0,0,0,5.171,8.794c4.174,5.057,9.547,8.112,15.419,8.112m23.872-30.92c1.332-1.99,2.949-3.111,4.225-2.67,1.867.647,2.278,4.344.922,8.255s-3.966,6.559-5.833,5.912a2.233,2.233,0,0,1-1.226-1.27,47.128,47.128,0,0,0,1.912-10.228m-47.059,11.5c-1.866.647-4.476-2-5.833-5.912s-.945-7.608.922-8.255c1.275-.441,2.892.68,4.225,2.67a47.088,47.088,0,0,0,1.912,10.229,2.235,2.235,0,0,1-1.226,1.269m38.771-10.092c0,1.231-1.742,2.231-3.893,2.231s-3.892-1-3.892-2.231,1.744-2.229,3.892-2.229,3.893,1,3.893,2.229m-5.8-13.075c.614,0,1.113.99,1.113,2.211s-.5,2.211-1.113,2.211-1.111-.989-1.111-2.211.5-2.211,1.111-2.211m-2.493,5.471a.562.562,0,0,1,.709.369,4.5,4.5,0,0,0,4.151,2.778.566.566,0,0,1-.043,1.131h-.043a5.6,5.6,0,0,1-5.144-3.569.562.562,0,0,1,.371-.709m-8.6-.906a1.764,1.764,0,0,1,3.333-.3c1.258,3.293-.332,10.814-2.933,11.031-2.842.236-1.231-7.41-.4-10.735m7.569,16.46a.566.566,0,1,1,.466,1.032A19.475,19.475,0,0,1,223,104.384a26.646,26.646,0,0,1-5.978-.667.566.566,0,0,1,.278-1.1c.074.017,7.37,1.811,13.158-.794M214.255,80.8c.614,0,1.112.99,1.112,2.211s-.5,2.211-1.112,2.211-1.111-.989-1.111-2.211.5-2.211,1.111-2.211m-2.366,8.617a4.531,4.531,0,0,0,4.153-2.778.566.566,0,0,1,1.08.34,5.607,5.607,0,0,1-5.147,3.569h-.042a.566.566,0,0,1-.043-1.131m-2.637,4.458c0-1.231,1.743-2.229,3.892-2.229s3.892,1,3.892,2.229-1.743,2.231-3.892,2.231-3.892-1-3.892-2.231" transform="translate(-94.755 0.331)" fill="#a84d17"/>
            <path id="Trazado_199662" data-name="Trazado 199662" d="M223.134,95.99c2.6-.217,4.192-7.738,2.933-11.031a1.764,1.764,0,0,0-3.333.3c-.831,3.325-2.442,10.97.4,10.735" transform="translate(-94.596 0.442)" fill="#8d3914"/>
            <path id="Trazado_199663" data-name="Trazado 199663" d="M216.944,93.726c0-1.231-1.743-2.229-3.892-2.229s-3.892,1-3.892,2.229,1.743,2.231,3.892,2.231,3.892-1,3.892-2.231" transform="translate(-94.661 0.482)" fill="#f1a876"/>
            <path id="Trazado_199664" data-name="Trazado 199664" d="M231.789,93.726c0,1.231,1.743,2.231,3.892,2.231s3.893-1,3.893-2.231-1.742-2.229-3.893-2.229-3.892,1-3.892,2.229" transform="translate(-94.542 0.482)" fill="#f1a876"/>
            <path id="Trazado_199665" data-name="Trazado 199665" d="M214.142,85.129c.614,0,1.112-.989,1.112-2.211s-.5-2.211-1.112-2.211-1.111.989-1.111,2.211.5,2.211,1.111,2.211" transform="translate(-94.641 0.425)" fill="#29120b"/>
            <path id="Trazado_199666" data-name="Trazado 199666" d="M233.766,85.129c.614,0,1.113-.989,1.113-2.211s-.5-2.211-1.113-2.211-1.111.989-1.111,2.211.5,2.211,1.111,2.211" transform="translate(-94.538 0.425)" fill="#29120b"/>
            <path id="Trazado_199667" data-name="Trazado 199667" d="M216.484,102.827a.566.566,0,0,0,.41.687,26.568,26.568,0,0,0,5.978.667,19.478,19.478,0,0,0,7.925-1.526.567.567,0,0,0-.467-1.032c-5.787,2.606-13.084.811-13.157.794a.566.566,0,0,0-.689.41" transform="translate(-94.623 0.535)" fill="#29120b"/>
            <path id="Trazado_199668" data-name="Trazado 199668" d="M211.828,90.428h.043a5.6,5.6,0,0,0,5.146-3.569.566.566,0,0,0-1.08-.341,4.53,4.53,0,0,1-4.153,2.779.566.566,0,0,0,.043,1.131" transform="translate(-94.65 0.453)" fill="#29120b"/>
            <path id="Trazado_199669" data-name="Trazado 199669" d="M236.055,90.428h.043a.566.566,0,0,0,.043-1.131,4.5,4.5,0,0,1-4.151-2.779.567.567,0,0,0-1.081.341,5.6,5.6,0,0,0,5.145,3.569" transform="translate(-94.547 0.453)" fill="#29120b"/>
            <path id="Trazado_199670" data-name="Trazado 199670" d="M201.187,57.6a95.085,95.085,0,0,1-4.462-16.149c-.667-3.445-1.154-6.736-1.47-9.737-2.859-7.161-5.794-11.773-7.516-11.279-2.467.707-1.5,11.627,2.155,24.386a95.314,95.314,0,0,0,5.839,15.651,5,5,0,0,1,1.281-1.012,41.485,41.485,0,0,1,4.174-1.86" transform="translate(-94.781 0.107)" fill="#35a8e0"/>
            <path id="Trazado_199671" data-name="Trazado 199671" d="M201.142,57.616a63.963,63.963,0,0,1,6.537-2.143c0-.025,0-.048,0-.073A93.059,93.059,0,0,1,204.1,38.47c-.413-3.238-.68-6.339-.811-9.183-2.251-7.608-4.829-12.647-6.618-12.3-1.854.358-2.335,6.393-1.458,14.743.316,3,.8,6.292,1.47,9.737a95.085,95.085,0,0,0,4.462,16.149" transform="translate(-94.737 0.089)" fill="#1d70b7"/>
            <path id="Trazado_199672" data-name="Trazado 199672" d="M207.635,55.416c.008.023.016.044.023.067,1.749-.473,3.686-.917,5.779-1.293A87.621,87.621,0,0,1,210.8,37.762a95.534,95.534,0,0,1-.091-13.956c-1.619-6.074-3.518-9.951-5.086-9.752-1.92.244-2.791,6.527-2.384,15.248.132,2.845.4,5.945.811,9.184a93.059,93.059,0,0,0,3.582,16.93" transform="translate(-94.693 0.074)" fill="#35a8e0"/>
            <path id="Trazado_199673" data-name="Trazado 199673" d="M210.765,37.766A87.691,87.691,0,0,0,213.4,54.193a68.345,68.345,0,0,1,7.367-.918l.006-.045A90,90,0,0,1,219.5,37.389c0-3.235.138-6.316.382-9.134-1.4-8.833-3.7-15-5.84-14.837-1.7.126-2.908,4.226-3.374,10.391a95.679,95.679,0,0,0,.091,13.956" transform="translate(-94.654 0.071)" fill="#1d70b7"/>
            <path id="Trazado_199674" data-name="Trazado 199674" d="M248.07,57.172c1.712.631,3.442,1.34,5.188,2.149a5,5,0,0,1,.57.338,101.591,101.591,0,0,0,5.045-13.988c3.657-12.762,4.622-23.679,2.155-24.388-1.72-.494-4.655,4.118-7.515,11.277-.314,3-.8,6.293-1.469,9.738a100.278,100.278,0,0,1-3.975,14.874" transform="translate(-94.456 0.112)" fill="#35a8e0"/>
            <path id="Trazado_199675" data-name="Trazado 199675" d="M241.439,55.124A66.836,66.836,0,0,1,248.1,57.19a100.253,100.253,0,0,0,3.976-14.873c.667-3.446,1.153-6.737,1.469-9.738.877-8.349.4-14.384-1.459-14.743-1.788-.346-4.367,4.692-6.617,12.3-.132,2.844-.4,5.946-.812,9.186a97.362,97.362,0,0,1-3.223,15.8" transform="translate(-94.491 0.094)" fill="#1d70b7"/>
            <path id="Trazado_199676" data-name="Trazado 199676" d="M237.942,38.612a91.385,91.385,0,0,1-2.334,15.319q2.873.455,5.862,1.208a97.362,97.362,0,0,0,3.223-15.8c.413-3.239.68-6.341.812-9.186.406-8.72-.465-15-2.385-15.245-1.566-.2-3.465,3.679-5.086,9.755a95.493,95.493,0,0,1-.091,13.953" transform="translate(-94.522 0.078)" fill="#35a8e0"/>
            <path id="Trazado_199677" data-name="Trazado 199677" d="M228.31,53.186a65.523,65.523,0,0,1,7.336.749,91.506,91.506,0,0,0,2.334-15.319,95.493,95.493,0,0,0,.091-13.953c-.464-6.167-1.671-10.269-3.374-10.394-2.014-.151-4.162,5.294-5.577,13.285.284,3,.447,6.325.447,9.831a90.205,90.205,0,0,1-1.259,15.8" transform="translate(-94.56 0.075)" fill="#1d70b7"/>
            <path id="Trazado_199678" data-name="Trazado 199678" d="M220.724,53.23l.008.045a66.785,66.785,0,0,1,7.624-.084,90.109,90.109,0,0,0,1.259-15.8c0-3.506-.162-6.829-.446-9.831-.8-8.369-2.567-14.206-4.631-14.206-2.121,0-3.939,6.16-4.7,14.9-.244,2.818-.381,5.9-.381,9.134a89.918,89.918,0,0,0,1.266,15.841" transform="translate(-94.607 0.07)" fill="#35a8e0"/>
            <path id="Trazado_199679" data-name="Trazado 199679" d="M201.727,68.178c.129-.068.7-.36,1.628-.767a56.656,56.656,0,0,1,40.873-1.174c1.671.593,3.363,1.274,5.073,2.066a4.783,4.783,0,0,0,4.232-.048,4.978,4.978,0,0,0,2.464-2.4,5.237,5.237,0,0,0-2.455-6.7c-1.746-.81-3.476-1.519-5.189-2.15a66.67,66.67,0,0,0-6.666-2.066c-1.991-.506-3.947-.9-5.862-1.209a65.515,65.515,0,0,0-7.336-.748,66.8,66.8,0,0,0-7.625.084h-.014a68.376,68.376,0,0,0-7.367.918c-2.092.376-4.029.819-5.778,1.293l-.022.006a63.905,63.905,0,0,0-6.538,2.143,41.28,41.28,0,0,0-4.173,1.86A4.949,4.949,0,0,0,195.69,60.3a5.036,5.036,0,0,0,6.037,7.879" transform="translate(-94.739 0.279)" fill="#c89a61"/>
            <path id="Trazado_199680" data-name="Trazado 199680" d="M224.407,248.382l-.011.039-.011-.039v.079l-11.607,40.822h23.236l-11.607-40.822Z" transform="translate(-94.642 1.308)" fill="#a84d17"/>
            <path id="Trazado_199681" data-name="Trazado 199681" d="M208.126,289.713c-.017.057.016.108.017.164a.543.543,0,0,0,.362.543l.164.022a.567.567,0,0,0,.543-.4l.05-.164,15.362-50.794L240.6,289.877l.053.17a.563.563,0,0,0,.539.4l.17-.026a.535.535,0,0,0,.356-.539c0-.058.033-.112.015-.17l-16.548-52.631V192.812c.3.013.6.038.909.038,13.931,0,25.922-14.115,31.137-34.232l18.154-18.154a.567.567,0,1,0-.8-.8L257.741,156.5q.795-3.441,1.322-7.085A92.894,92.894,0,0,0,260,137.053c0-.3.014-.6.014-.9a.565.565,0,1,0-1.131,0c0,.186-.007.369-.008.555a91.918,91.918,0,0,1-1.155,14.082c-.4,2.478-.894,4.891-1.485,7.219l-12.849,12.85H203.839l-5.7-5.7a75.7,75.7,0,0,1-2.4-8.008,89.349,89.349,0,0,1-2.425-20.029c0-.324-.014-.643-.014-.968a.566.566,0,1,0-1.133,0c0,.452.014.9.02,1.348a90.735,90.735,0,0,0,2.037,18.1,79.113,79.113,0,0,0,2.114,7.76L174.648,141.67a.567.567,0,1,0-.8.8L197.2,165.826c5.642,15.288,15.5,25.779,26.848,26.912v44.335l-14.506,47.961-.478,1.577Zm17.054-117.72h18.435l.4-.166,11.63-11.63c-5.3,18.632-16.557,31.519-29.557,31.519-.3,0-.606-.025-.909-.039Zm-26.027-4.214,4.048,4.048.4.166h20.445v19.6c-10.3-1.08-19.333-10.258-24.894-23.819" transform="translate(-94.848 0.714)" fill="#29120b"/>
            <path id="Trazado_199682" data-name="Trazado 199682" d="M133.248,261.977l.3.213.328.1.164-.083.3-.154a.57.57,0,0,0-.138-.791l-22.562-15.958a.536.536,0,0,0-.615.025c-.058.038-.132.049-.175.111a.535.535,0,0,0,.022.609c.039.062.051.137.115.181Z" transform="translate(-95.179 1.291)" fill="#29120b"/>
          </g>
        </g>
        <path id="Trazado_199683" data-name="Trazado 199683" d="M34.436,473.421q.234,1.975.487,3.948a145.069,145.069,0,0,0,50.44,2.266q.487-55.893,3.972-111.706c.005-.323,7.592.275,7.6.417,2.477,36.671,5.506,73.121,7.236,109.794.023.5,12.351,1.563,13.336,1.663q7.757.79,15.562.931a186.479,186.479,0,0,0,31.655-2.125c1.575-.238-2.116-77.129-2.349-84.241-.952-29.111-2.53-58.251-6.554-87.12q-.425-3.044-.885-6.083c-2.014-.213-3.655-1.064-5.626-1.5-15.275-3.359-31.146-1.882-46.715-.39-10.96,1.05-22.118.255-32.961,2.249-3.1.569-34.49,5.918-34.551,7.156-3.417,54.473-7.1,110.319-.647,164.739" transform="translate(906.163 1304.554)" fill="#6eb2cc"/>
        <g id="Grupo_145452" data-name="Grupo 145452" transform="translate(938.557 1602.184)" opacity="0.43" style="mix-blend-mode: multiply;isolation: isolate">
          <g id="Grupo_145451" data-name="Grupo 145451" transform="translate(0 0)">
            <g id="Grupo_145450" data-name="Grupo 145450" clip-path="url(#clip-path-2)">
              <path id="Trazado_199684" data-name="Trazado 199684" d="M50.748,473.5a12.12,12.12,0,0,0,.6,4.829c2.973,5.948,27.517,2.155,34.03,1.3q.486-55.893,3.971-111.706c.005-.323,7.593.275,7.6.417q.692,10.245,1.432,20.486c.419,5.872-.157,12.88,1.545,18.463.667-19.437,13.248-37.978,31.063-45.781l-23.262,26.639a194.3,194.3,0,0,1,38.442-2.088Q132.284,400.521,118.52,415.1c2.177,1.925,5.369,2.135,8.262,1.862s5.821-.929,8.672-.368q-4.978,3.937-9.675,8.21l11.2,7.822c.933.65,1.967,1.493,1.936,2.63q-8.612,4.154-17.588,7.49c2.691,4.343,8.817,5.929,10.8,10.638a14.885,14.885,0,0,1,.835,5.33q.222,6.783.359,13.566c.04,2.01-.537,5.21.113,7.089.659,1.9,1.882,1.4,4.063,1.391a185.111,185.111,0,0,0,27.239-2.152c1.575-.239-2.116-77.129-2.348-84.24-.953-29.112-2.531-58.251-6.555-87.121q-.424-3.043-.885-6.083c-2.014-.213-3.655-1.064-5.626-1.5-15.275-3.359-31.146-1.882-46.715-.39-10.96,1.051-22.118.255-32.961,2.249-3.1.569-34.489,5.918-34.551,7.156-.38,7.493-1.208,14.783-1.551,22.294q-.581,12.758-1.162,25.516c2.023-3.048,2.748-5.992,5.719-8.545a47.058,47.058,0,0,1,10.182-6.116c3.267-1.6,7.267-3.188,10.35-1.253a17.3,17.3,0,0,0-9.359,4.7c6.77,3.139,15.692,2.417,20.488,8.134A48.384,48.384,0,0,0,48.345,358.7a39.075,39.075,0,0,1,12.209,20.527c1.53,6.735,1.236,13.734.934,20.634a3.645,3.645,0,0,1-.357,1.713,3.506,3.506,0,0,1-2.015,1.313,35.921,35.921,0,0,1-11.364,1.937,31.814,31.814,0,0,0,4.84,9.973l-11.338-5.363a201.03,201.03,0,0,0,14.138,33.686l-9.408-.735q2.235,9.031,3.593,18.249.677,4.6,1.133,9.233c.093.947.047,2.274.038,3.634" transform="translate(-32.387 -297.63)" fill="#6eb2cc"/>
            </g>
          </g>
        </g>
        <g id="Grupo_145455" data-name="Grupo 145455" transform="translate(940.615 1622.794)" opacity="0.47" style="mix-blend-mode: multiply;isolation: isolate">
          <g id="Grupo_145454" data-name="Grupo 145454" transform="translate(0)">
            <g id="Grupo_145453" data-name="Grupo 145453" clip-path="url(#clip-path-3)">
              <path id="Trazado_199685" data-name="Trazado 199685" d="M52.712,407.8a39.882,39.882,0,0,1,10.171,7.806A39.9,39.9,0,0,1,52.712,407.8" transform="translate(-34.338 -317.66)" fill="#4d8491"/>
              <path id="Trazado_199686" data-name="Trazado 199686" d="M44.2,442.232c4.235,1.6,8.281,2.988,12.6,4.339a20.178,20.178,0,0,1-12.6-4.339" transform="translate(-34.382 -317.479)" fill="#4d8491"/>
              <path id="Trazado_199687" data-name="Trazado 199687" d="M144.824,341.148a30.958,30.958,0,0,1,6.346-9.331,30.971,30.971,0,0,1-6.346,9.331" transform="translate(-33.853 -318.06)" fill="#4d8491"/>
              <path id="Trazado_199688" data-name="Trazado 199688" d="M37.907,346.413a41.282,41.282,0,0,1,6.859-8.988,25,25,0,0,1-6.859,8.988" transform="translate(-34.416 -318.03)" fill="#4d8491"/>
              <path id="Trazado_199689" data-name="Trazado 199689" d="M122.37,443.8c8.025,1.979,15.977,3.6,24.134,4.936A59.858,59.858,0,0,1,122.37,443.8" transform="translate(-33.971 -317.47)" fill="#4d8491"/>
              <path id="Trazado_199690" data-name="Trazado 199690" d="M98.482,365.672c-4.914-.372-10.041-.791-14.492-3.476a4.291,4.291,0,0,1-1.387-1.487c-.639-1.2-.978-4.221-1.3-5.547-2.333-12.193-4.116-24.586-3.859-37.03A309.451,309.451,0,0,0,82.206,355c.265,1.15.619,4.307,1.142,5.327a3.484,3.484,0,0,0,1.091,1.246c4.1,2.69,9.26,3.338,14.044,4.1" transform="translate(-34.208 -318.132)" fill="#4d8491"/>
              <path id="Trazado_199691" data-name="Trazado 199691" d="M98.912,362.514c-4.423-.486-11.4-.468-12.99-5.619-.495-2.375-1.151-7.5-1.538-9.946-1.024-8.03-1.865-16.491-2.123-24.592,1.194,9.567,2.634,21.09,3.924,30.568l.431,3.05c.771,5.405,8.053,5.578,12.3,6.539" transform="translate(-34.182 -318.11)" fill="#4d8491"/>
              <path id="Trazado_199692" data-name="Trazado 199692" d="M90.61,354.154a9.6,9.6,0,0,1,7.1,1.621,21.11,21.11,0,0,1-7.1-1.621" transform="translate(-34.138 -317.943)" fill="#4d8491"/>
              <path id="Trazado_199693" data-name="Trazado 199693" d="M96.048,348.221a1.984,1.984,0,0,1,1.9.337.99.99,0,0,1-1.9-.337" transform="translate(-34.109 -317.974)" fill="#4d8491"/>
              <path id="Trazado_199694" data-name="Trazado 199694" d="M101.734,363.219a53.512,53.512,0,0,1,12.912-17.545c1.811-1.543,3.691-3.5,6.181-3.767-2.369.689-3.946,2.66-5.646,4.324a107.8,107.8,0,0,0-13.447,16.988" transform="translate(-34.08 -318.007)" fill="#4d8491"/>
              <path id="Trazado_199695" data-name="Trazado 199695" d="M106.337,364.516a35.609,35.609,0,0,1,19.437-12.972,73.009,73.009,0,0,0-19.437,12.972" transform="translate(-34.055 -317.956)" fill="#4d8491"/>
              <path id="Trazado_199696" data-name="Trazado 199696" d="M83.942,366.016c-5.727-1.9-10.9-5.272-16.6-7.166a29,29,0,0,0-13.222-1.3,30.772,30.772,0,0,0-4.428.886,24.458,24.458,0,0,1,4.346-1.372c11.534-2.634,20.234,4.035,29.9,8.948" transform="translate(-34.354 -317.93)" fill="#4d8491"/>
              <path id="Trazado_199697" data-name="Trazado 199697" d="M69.922,353.855a6.538,6.538,0,0,1,5.644,4.077c-2.015-1.411-3.668-2.613-5.644-4.077" transform="translate(-34.247 -317.944)" fill="#4d8491"/>
              <path id="Trazado_199698" data-name="Trazado 199698" d="M61.91,338.353a11.979,11.979,0,0,1,8.506,3.807c-2.973-1.2-5.632-2.393-8.506-3.807" transform="translate(-34.289 -318.026)" fill="#4d8491"/>
              <path id="Trazado_199699" data-name="Trazado 199699" d="M104.859,388.446a51.12,51.12,0,0,1,36.007-14.976c.887.019,1.772.051,2.655.091-1.517.093-3.74.265-5.273.457a64.831,64.831,0,0,0-33.389,14.428" transform="translate(-34.063 -317.841)" fill="#4d8491"/>
              <path id="Trazado_199700" data-name="Trazado 199700" d="M158.262,378.269a98.2,98.2,0,0,1-23.534,29.3l3.2-3.464a218.5,218.5,0,0,0,20.336-25.835" transform="translate(-33.906 -317.815)" fill="#4d8491"/>
              <path id="Trazado_199701" data-name="Trazado 199701" d="M150.5,406.649a29.242,29.242,0,0,1-11.21,11.268c3.845-3.744,7.49-7.4,11.21-11.268" transform="translate(-33.882 -317.666)" fill="#4d8491"/>
              <path id="Trazado_199702" data-name="Trazado 199702" d="M34.434,394.571A295.024,295.024,0,0,0,65.29,437.464l2.315,2.67a170.173,170.173,0,0,1-33.171-45.563" transform="translate(-34.434 -317.73)" fill="#4d8491"/>
            </g>
          </g>
        </g>
        <path id="Trazado_199703" data-name="Trazado 199703" d="M9.718,217.832A18.858,18.858,0,0,0,8.7,224.718c.308,3.014,2.045,5.693,4,8,2.883,3.4,6.5,6.366,10.8,7.549,2.521.7,5.677-.332,8.239-.7a1.3,1.3,0,0,0,1.408-1.39q2.468-18.632,4.5-37.316a2.458,2.458,0,0,0-.312-1.893,2.414,2.414,0,0,0-1.022-.6,103.911,103.911,0,0,0-20.933-5.469c-2.284,8.212-3.41,16.8-5.667,24.926" transform="translate(906.046 1304.002)" fill="#ad7166"/>
        <path id="Trazado_199704" data-name="Trazado 199704" d="M160.641,229.622c1.555,3.264,3.726,5.96,5.459,9.112a15.193,15.193,0,0,0,12.716,8.14,16.212,16.212,0,0,0,12.479-5.792c3.32-3.765,2.621-9.249,1.536-13.851-1.469-6.233-4.177-11.3-6.775-17.022-2.85-6.277-6.24-12.29-9.673-18.263-.228-.4-.514-.834-.966-.912a1.593,1.593,0,0,0-1.111.4c-4.666,3.209-9.179,6.269-14.173,9.046-3.144,1.75-7.425,3.317-10.016,5.886a1.462,1.462,0,0,0-.453.675,1.533,1.533,0,0,0,.171.9c3.1,7.494,7.328,14.373,10.808,21.676" transform="translate(906.788 1303.993)" fill="#d39181"/>
        <g id="Grupo_145458" data-name="Grupo 145458" transform="translate(1056.43 1495.057)" opacity="0.54" style="mix-blend-mode: multiply;isolation: isolate">
          <g id="Grupo_145457" data-name="Grupo 145457" transform="translate(0 0)">
            <g id="Grupo_145456" data-name="Grupo 145456" clip-path="url(#clip-path-4)">
              <path id="Trazado_199705" data-name="Trazado 199705" d="M160.641,229.664c1.555,3.264,3.726,5.96,5.459,9.112,1.15,2.09,3.858,5.991,6.439,6.192,2.721.212,6.067-2.5,7.65-4.44a14.992,14.992,0,0,0,3.238-8.831c.2-4.906-2.813-8.451-7.892-8.334a16.006,16.006,0,0,0-5.815,1.463c4.813-5.193,10.124-10.579,14-16.531,1.216-1.868-.164-3.271-1.112-5.088-1.978-3.793-4.091-7.512-6.223-11.22-.228-.4-.514-.834-.966-.912a1.593,1.593,0,0,0-1.111.4c-4.666,3.209-9.179,6.269-14.173,9.046-3.144,1.749-7.425,3.317-10.016,5.886a1.462,1.462,0,0,0-.453.675,1.528,1.528,0,0,0,.171.9c3.1,7.5,7.328,14.374,10.808,21.677" transform="translate(-149.642 -191.064)" fill="#d39181"/>
            </g>
          </g>
        </g>
        <path id="Trazado_199706" data-name="Trazado 199706" d="M27.659,226.615c-1.578-5.341-5.462-10.249-11.361-10.889a6.941,6.941,0,0,0-7.046,3.763,13.02,13.02,0,0,0-1.116,4.318A44.147,44.147,0,0,0,9,237.572c2.746,13.769,8.846,26.242,15.563,38.471.333.606.762,1.279,1.447,1.379a2.285,2.285,0,0,0,.953-.137l9.227-2.707c-3.523-15.81-3.894-32.351-8.533-47.963" transform="translate(906.042 1304.122)" fill="#d39181"/>
        <g id="Grupo_145461" data-name="Grupo 145461" transform="translate(914.448 1519.805)" opacity="0.32" style="mix-blend-mode: multiply;isolation: isolate">
          <g id="Grupo_145460" data-name="Grupo 145460" transform="translate(0 0)">
            <g id="Grupo_145459" data-name="Grupo 145459" clip-path="url(#clip-path-5)">
              <path id="Trazado_199707" data-name="Trazado 199707" d="M27.657,226.615c-1.578-5.341-5.462-10.249-11.361-10.889a6.941,6.941,0,0,0-7.046,3.763c-.57,1.136-.485,2.408-.847,3.622a2.058,2.058,0,0,1,2.343-.291,6.019,6.019,0,0,1,1.888,1.648A39.921,39.921,0,0,1,16,228.741a36.985,36.985,0,0,1,3.849,8.914q2.04,6.3,3.738,12.7a3.388,3.388,0,0,1,.12,1.947,3.763,3.763,0,0,1-.772,1.146,16.607,16.607,0,0,0-3.867,10.63c0,2.125,1.129,3.773,2.093,5.627q1.66,3.189,3.4,6.338c.333.606.762,1.279,1.447,1.379a2.285,2.285,0,0,0,.953-.137l9.227-2.707c-3.523-15.81-3.894-32.351-8.533-47.963" transform="translate(-8.404 -215.683)" fill="#d39181"/>
            </g>
          </g>
        </g>
        <g id="Grupo_145464" data-name="Grupo 145464" transform="translate(921.333 1519.817)" opacity="0.47" style="mix-blend-mode: multiply;isolation: isolate">
          <g id="Grupo_145463" data-name="Grupo 145463" transform="translate(0 0)">
            <g id="Grupo_145462" data-name="Grupo 145462" clip-path="url(#clip-path-6)">
              <path id="Trazado_199708" data-name="Trazado 199708" d="M15.253,215.7c5.756-.019,10.037,4.122,12.1,9.2,2.084,4.859,2.827,10.307,3.139,15.545-.351-1.278-.5-2.6-.788-3.877-1.764-8.368-4.457-19.494-14.456-20.868" transform="translate(-15.253 -215.695)" fill="#ad7166"/>
            </g>
          </g>
        </g>
        <path id="Trazado_199709" data-name="Trazado 199709" d="M0,202.1a54.79,54.79,0,0,0,35.756,14.44c-.025,12.239-.936,24.511-1.345,36.787-.563,16.115-.3,32.259-3.068,48.191-.566,3.251.711,7.033.02,9.933-.736,3.1-4.1,5.176-1.1,8.631L26.093,323.5c.152-.125,9.625,4.042,10.72,4.347,3.724,1.035,7.487,1.889,11.286,2.6a225.157,225.157,0,0,0,83.3-.166c12.352-2.359,24.831-5.916,34.87-13.49-2.671-1.376-5.687-3.244-5.93-6.238-.2-2.472,1.655-4.834,1.2-7.272-.366-1.967-2.1-3.327-3.3-4.932-2.071-2.774-2.556-6.384-2.975-9.82-1.6-13.176-3.243-26.347-4.635-39.546-1.493-14.151-3.31-28.26-3.475-42.477q2.03,5.959,4.06,11.918a2.61,2.61,0,0,0,.484.957c.7.762,1.954.434,2.911.035,14.64-6.1,28.642-15.987,38.6-28.26-3.865-2.913-6.5-7.221-9.35-11.149-3.332-4.592-6.477-9.318-9.5-14.121-6.056-9.633-11.6-19.576-17.173-29.49a2.53,2.53,0,0,0-1.857-1.535c-20.009-6.537-41.1-8.952-61.791-12.83a16.708,16.708,0,0,0-4.358-.426,16.711,16.711,0,0,0-4.04,1.013L43.62,136.812c-3.928,1.342-7.86,2.686-11.674,4.326a12.192,12.192,0,0,0-4.118,2.519A12.681,12.681,0,0,0,25.736,147c-4.448,9.176-8.233,18.72-12.1,28.109C12.669,177.455.287,202.356,0,202.1" transform="translate(906 1303.627)" fill="#ace2e0"/>
        <g id="Grupo_145467" data-name="Grupo 145467" transform="translate(914.332 1427.966)" opacity="0.74" style="mix-blend-mode: multiply;isolation: isolate">
          <g id="Grupo_145466" data-name="Grupo 145466" transform="translate(0 0)">
            <g id="Grupo_145465" data-name="Grupo 145465" clip-path="url(#clip-path-7)">
              <path id="Trazado_199710" data-name="Trazado 199710" d="M154.831,294.859q.255-.412.5-.831a53.673,53.673,0,0,1-30.5,13.514,77.047,77.047,0,0,0,18.737-17.675,60.115,60.115,0,0,1-19.117,6.612c-1.609-2-1.471-4.987-.307-7.274a18.011,18.011,0,0,1,5.182-5.609c5.024-3.983,10.5-8.224,16.165-11.249,4.021-2.145,7.475-3.342,6.657-8.8-.327-2.179-.7-4.351-1.045-6.527-.231-1.459-2.939-12.845-1.5-13.64a117.763,117.763,0,0,1-17.968,8.364c1.143-2.773-.767-6.073-3.454-7.4s-5.862-1.146-8.822-.665c.271-3.74,2.913-6.822,5.422-9.607l17.392-19.306a170.9,170.9,0,0,1-22.485,13.32,185.685,185.685,0,0,1,.017-35.243c.083-.872,11.358-2.341,12.268-2.512,1.3-.244,2.762-.456,3.848.3a4.665,4.665,0,0,1,1.419,2,31.282,31.282,0,0,1,2.17,18.915c-.526,2.631-1.46,5.2-1.7,7.877.846-.494,7.708-7.386,7.615-7.942q1.14,6.781,2.278,13.562.11-8.5.221-17.005c0,3.253,2.264,7.37,3.288,10.374a2.608,2.608,0,0,0,.483.957c.7.762,1.955.434,2.912.035a104.117,104.117,0,0,0,21.972-12.488c5.1-3.784,12.624-9.049,15.135-15.164-3.865,2.454-7.6,5.1-11.565,7.424-2.736,1.6-9.833,3.7-11.595,6.145a51.88,51.88,0,0,0,7.825-16.169A38.237,38.237,0,0,0,165.3,202.133a79.008,79.008,0,0,0,3.048-26.388c-.075-1.388-.306-2.981-1.481-3.722-5.656,3.97-8.71,11.463-10.765,17.78q.217-9.1-.265-18.207a10.92,10.92,0,0,0-5.8,7.8,174.319,174.319,0,0,1,5.019-41.839,6.31,6.31,0,0,0-4.09,1.422q1.16-2.173,2.321-4.346c-.022.04-3.3-1.588-3.87-1.423-1.109.323-2.255,2.778-2.834,3.69a40.021,40.021,0,0,0-4.5,9.8c.506-3.785,1.009-7.655.252-11.4-4.839,7.729-8.173,16.286-10.872,24.966a176.532,176.532,0,0,0-6.02,23.957l-7.759-2.748a256.22,256.22,0,0,0,2.793-31.909c.162-6.582.01-13.438-2.934-19.328-1.529-3.06-4.285-6-7.705-5.909A85.514,85.514,0,0,1,108.25,172.7c-5.9.556-10.535,6.914-9.267,12.7-.037-.17-18.014.828-19.7.839-6.7.043-12.584-.867-19.195-1.687a126.551,126.551,0,0,0,3.492-15.164,33.814,33.814,0,0,0-.106-12.125,17.6,17.6,0,0,0-6.131-10.25,2.041,2.041,0,0,1-.921-1.118c-.829-4.665,3.91-12.648,6.669-16.092-4.193.528-7.808,3.5-9.9,7.17a26.81,26.81,0,0,0-3.03,12.185,1.628,1.628,0,0,1-.31,1.084,1.718,1.718,0,0,1-1.308.32c-5.681-.093-14.912,6.52-14,13.182-.081-.6-.3-1.976-.572-3.786-.988-6.573-2.687-18.8-1.113-19.457l-4.92,2.068c.857,8.3,1.668,16.963-1.373,24.728-3.3,8.413-8.894,15.812-12.267,24.261l6.461,1.941q-5.9,5.219-12.21,9.959a34.13,34.13,0,0,0,9.826,6.068l-10.08-.742c4.14.3,9.68,4.405,13.867,5.625,5.889,1.717,9.287,1.925,14.971-.169-4.81-5.765-6.26-13.753-5.543-21.227s3.382-14.6,6.022-21.633c1.293-3.441,2.621-6.945,4.909-9.821,1.639-2.059,4.047-3.84,6.664-3.572a6.778,6.778,0,0,1,5.189,4.268,17.234,17.234,0,0,1,1.024,6.921,83.017,83.017,0,0,1-12.746,43.7c-1.429,2.264-3.76,4.665-6.656,3.811,1.512,4.5-.521,10.377-.719,15.1-.3,7.174-.716,14.343-.955,21.52-.564,16.115-.3,32.259-3.068,48.191-.566,3.251.711,7.033.02,9.933-.736,3.1-4.1,5.176-1.1,8.631L26,323.49c.153-.126,9.626,4.042,10.721,4.347,3.722,1.034,7.486,1.888,11.286,2.6a224.523,224.523,0,0,0,27.7,3.4,134.869,134.869,0,0,0,34.842-2.414c9.89-1.917,18.135-6.952,27.646-9.866a145.869,145.869,0,0,1-45.088,6.361c11.4-4.048,23.257-6.826,34.377-11.59,10.823-4.636,21.174-11.474,27.348-21.464" transform="translate(-8.288 -124.325)" fill="#ace2e0"/>
            </g>
          </g>
        </g>
        <g id="Grupo_145470" data-name="Grupo 145470" transform="translate(912.129 1433.074)" opacity="0.75" style="mix-blend-mode: multiply;isolation: isolate">
          <g id="Grupo_145469" data-name="Grupo 145469" transform="translate(0 0)">
            <g id="Grupo_145468" data-name="Grupo 145468" clip-path="url(#clip-path-8)">
              <path id="Trazado_199711" data-name="Trazado 199711" d="M41.2,309.194a37.192,37.192,0,0,1,9.7.466,16.774,16.774,0,0,1-9.7-.466" transform="translate(-5.912 -128.46)" fill="#93c1bf"/>
              <path id="Trazado_199712" data-name="Trazado 199712" d="M115.811,307.687a165.968,165.968,0,0,0,27.643-18.508,75.17,75.17,0,0,1-27.643,18.508" transform="translate(-5.519 -128.565)" fill="#93c1bf"/>
              <path id="Trazado_199713" data-name="Trazado 199713" d="M145.038,277.433a34.5,34.5,0,0,1-12.78,7.794,130.867,130.867,0,0,1,12.78-7.794" transform="translate(-5.432 -128.627)" fill="#93c1bf"/>
              <path id="Trazado_199714" data-name="Trazado 199714" d="M39.552,318.843A76.166,76.166,0,0,1,50.907,321.2a21.054,21.054,0,0,1-11.355-2.354" transform="translate(-5.921 -128.409)" fill="#93c1bf"/>
              <path id="Trazado_199715" data-name="Trazado 199715" d="M132.056,326.042c8.494-3.71,17.993-7.542,26.691-10.746a127.02,127.02,0,0,1-26.691,10.746" transform="translate(-5.434 -128.427)" fill="#93c1bf"/>
              <path id="Trazado_199716" data-name="Trazado 199716" d="M68.5,307.933c18.758-2.415,35.446-12,51.176-21.946l6.835-4.245c-17.234,12.393-36.232,24.811-58.011,26.191" transform="translate(-5.768 -128.604)" fill="#93c1bf"/>
              <path id="Trazado_199717" data-name="Trazado 199717" d="M28.741,144.249c-.445,11.652,1.583,23.12,2.771,34.678.762,10.086,2.686,24.443,3.931,34.612a339.991,339.991,0,0,1-4.93-34.514c-1.077-11.525-3.03-23.173-1.771-34.776" transform="translate(-5.98 -129.328)" fill="#93c1bf"/>
              <path id="Trazado_199718" data-name="Trazado 199718" d="M33.384,173.37a57.463,57.463,0,0,1-1.583-31c-.04.652-.088,1.3-.151,1.951a108.05,108.05,0,0,0,1.734,29.052" transform="translate(-5.969 -129.338)" fill="#93c1bf"/>
              <path id="Trazado_199719" data-name="Trazado 199719" d="M149.686,134.295c-11.359,15.717-9.507,36.26-6.2,54.322.946,5.428,2.374,13.194,2.986,18.606-.99-5.319-2.653-13.077-3.747-18.466-3.71-18.019-5.435-39.29,6.962-54.462" transform="translate(-5.392 -129.38)" fill="#93c1bf"/>
              <path id="Trazado_199720" data-name="Trazado 199720" d="M144.426,151.117a16.925,16.925,0,0,1,7.158-12.054,50.211,50.211,0,0,0-7.158,12.054" transform="translate(-5.368 -129.355)" fill="#93c1bf"/>
              <path id="Trazado_199721" data-name="Trazado 199721" d="M140.9,140.908c-4.949,13.827-3.625,28.813-1.827,43.1-3.207-14.094-4.435-29.658,1.827-43.1" transform="translate(-5.41 -129.345)" fill="#93c1bf"/>
              <path id="Trazado_199722" data-name="Trazado 199722" d="M142.845,175.576a7.307,7.307,0,0,1,1.426-6.385,20.681,20.681,0,0,1-1.426,6.385" transform="translate(-5.378 -129.197)" fill="#93c1bf"/>
              <path id="Trazado_199723" data-name="Trazado 199723" d="M151.036,208.141a163.567,163.567,0,0,0,14.005-28.7q.359-1.007.749-2.007a77.071,77.071,0,0,1-14.754,30.7" transform="translate(-5.334 -129.153)" fill="#93c1bf"/>
              <path id="Trazado_199724" data-name="Trazado 199724" d="M149.436,197.695a12.792,12.792,0,0,1,2.838-6.623,12.779,12.779,0,0,1-2.838,6.623" transform="translate(-5.342 -129.081)" fill="#93c1bf"/>
              <path id="Trazado_199725" data-name="Trazado 199725" d="M150.378,190.4a14.034,14.034,0,0,1,2.6-7.1,14.04,14.04,0,0,1-2.6,7.1" transform="translate(-5.337 -129.122)" fill="#93c1bf"/>
              <path id="Trazado_199726" data-name="Trazado 199726" d="M158.649,211.722a218.754,218.754,0,0,0,24.869-19.6l3.346-3.07a94.2,94.2,0,0,1-28.215,22.67" transform="translate(-5.293 -129.092)" fill="#93c1bf"/>
              <path id="Trazado_199727" data-name="Trazado 199727" d="M175.809,174.366a13.557,13.557,0,0,1-3.785,6.386,13.554,13.554,0,0,1,3.785-6.386" transform="translate(-5.223 -129.169)" fill="#93c1bf"/>
              <path id="Trazado_199728" data-name="Trazado 199728" d="M6.1,202.224A84.268,84.268,0,0,0,32.034,208.2q.893.042,1.79.118A46.5,46.5,0,0,1,6.1,202.224" transform="translate(-6.097 -129.023)" fill="#93c1bf"/>
              <path id="Trazado_199729" data-name="Trazado 199729" d="M17.187,199.421a16.423,16.423,0,0,0,7.3-2.746,5.866,5.866,0,0,1-7.3,2.746" transform="translate(-6.038 -129.052)" fill="#93c1bf"/>
              <path id="Trazado_199730" data-name="Trazado 199730" d="M20.363,186.043c2.531-5.036,4.949-9.922,7.432-14.982a33.662,33.662,0,0,1-7.432,14.982" transform="translate(-6.022 -129.187)" fill="#93c1bf"/>
              <path id="Trazado_199731" data-name="Trazado 199731" d="M131.354,129.627a.237.237,0,0,0-.357-.064c-.4.228-.462.671-.641,1.1a54.346,54.346,0,0,1-6.09,11.306,53.346,53.346,0,0,1,4.69-9.975c.31-.53.637-1.048.968-1.565.249-.359.506-.895,1.022-1,.165-.053.391.035.408.206" transform="translate(-5.475 -129.406)" fill="#93c1bf"/>
              <path id="Trazado_199732" data-name="Trazado 199732" d="M133.191,136.475a70.715,70.715,0,0,1-2.8,10.891,19.886,19.886,0,0,1,2.8-10.891" transform="translate(-5.442 -129.369)" fill="#93c1bf"/>
              <path id="Trazado_199733" data-name="Trazado 199733" d="M40.507,140.718a208.035,208.035,0,0,0,8.078,29.515l1.478,4.133a88.668,88.668,0,0,1-9.556-33.647" transform="translate(-5.916 -129.346)" fill="#93c1bf"/>
              <path id="Trazado_199734" data-name="Trazado 199734" d="M60.509,181.884a23.07,23.07,0,0,1,6.386,7.332,23.072,23.072,0,0,1-6.386-7.332" transform="translate(-5.81 -129.13)" fill="#93c1bf"/>
              <path id="Trazado_199735" data-name="Trazado 199735" d="M80.031,187.236c3.606.6,6.853-1.359,9.83-3.138a161.308,161.308,0,0,0,21.588-15.444c1.378-1.122,2.691-2.317,4.044-3.476a96.549,96.549,0,0,1-25.251,19.59c-3.052,1.644-6.665,3.511-10.211,2.469" transform="translate(-5.707 -129.218)" fill="#93c1bf"/>
              <path id="Trazado_199736" data-name="Trazado 199736" d="M131.5,190.451a40.651,40.651,0,0,1-15.758,13.076A189.844,189.844,0,0,0,131.5,190.451" transform="translate(-5.519 -129.085)" fill="#93c1bf"/>
              <path id="Trazado_199737" data-name="Trazado 199737" d="M144.729,206.379c-6.06,12.736-17.467,21.85-28.907,29.586-1.666,1.086-3.316,2.192-5.007,3.24,12.335-9.487,25.938-19.16,33.915-32.826" transform="translate(-5.545 -129.001)" fill="#93c1bf"/>
              <path id="Trazado_199738" data-name="Trazado 199738" d="M112.978,242.188a45.56,45.56,0,0,1,12.749-5.028,45.561,45.561,0,0,1-12.749,5.028" transform="translate(-5.534 -128.839)" fill="#93c1bf"/>
              <path id="Trazado_199739" data-name="Trazado 199739" d="M155.465,294.32c-9.214,13.036-25.341,17.461-40,21.354a232.626,232.626,0,0,1-45.556,7.359c3.825-.424,7.644-.874,11.445-1.443a296.937,296.937,0,0,0,33.857-6.887c14.654-3.819,30.454-7.93,40.253-20.383" transform="translate(-5.761 -128.538)" fill="#93c1bf"/>
              <path id="Trazado_199740" data-name="Trazado 199740" d="M152.71,302.784a48.762,48.762,0,0,1-18.125,9.2c6.108-3.051,12.06-6.067,18.125-9.2" transform="translate(-5.42 -128.493)" fill="#93c1bf"/>
              <path id="Trazado_199741" data-name="Trazado 199741" d="M159.484,308.807c-10.909,11.091-36.016,17.432-51.316,19.216-2.631.272-5.265.5-7.9.611a173.245,173.245,0,0,0,30.9-6.433c9.92-3.211,20.294-6.477,28.323-13.394" transform="translate(-5.601 -128.461)" fill="#93c1bf"/>
              <path id="Trazado_199742" data-name="Trazado 199742" d="M28.986,317.656c4.964,3.638,11.145,4.852,17.026,6.184a134.99,134.99,0,0,0,51.818.52c4.249-.82,8.548-1.827,12.72-2.985a120.032,120.032,0,0,1-12.607,3.539,119.556,119.556,0,0,1-52.083-.389C40,323.051,33.741,321.6,28.986,317.656" transform="translate(-5.976 -128.415)" fill="#93c1bf"/>
              <path id="Trazado_199743" data-name="Trazado 199743" d="M32.229,310.249a197.332,197.332,0,0,0,72.386,3.036l4.811-.737-4.767,1a157.747,157.747,0,0,1-72.43-3.3" transform="translate(-5.959 -128.454)" fill="#93c1bf"/>
            </g>
          </g>
        </g>
        <path id="Trazado_199744" data-name="Trazado 199744" d="M77.93,114.557q.056,2.487-.036,4.974c-.176,4.784-1.387,6.812-5.417,9.384a33.707,33.707,0,0,1-7.933,3.671c.638-.2,7.816,15.4,8.66,16.937a185.27,185.27,0,0,0,11.06,17.687c-.228-.323,15.676-17.348,17.1-19.07,5.421-6.573,10.336-13.546,15.4-20.418a44.058,44.058,0,0,1-9.844-2.093,6.784,6.784,0,0,1-2.705-1.438,6.868,6.868,0,0,1-1.57-3.57c-1.16-5.559-1.111-11.5-1.046-17.138a27.613,27.613,0,0,1-12.518,3.458c-1.377.048-11.659-.177-11.923-2.082a84.375,84.375,0,0,1,.777,9.7" transform="translate(906.34 1303.532)" fill="#d39181"/>
        <g id="Grupo_145473" data-name="Grupo 145473" transform="translate(970.884 1407.017)" opacity="0.58" style="mix-blend-mode: multiply;isolation: isolate">
          <g id="Grupo_145472" data-name="Grupo 145472" transform="translate(0 0)">
            <g id="Grupo_145471" data-name="Grupo 145471" clip-path="url(#clip-path-9)">
              <path id="Trazado_199745" data-name="Trazado 199745" d="M77.93,114.557q.056,2.487-.036,4.974c-.176,4.784-1.387,6.812-5.417,9.384a33.707,33.707,0,0,1-7.933,3.671c.638-.2,7.816,15.4,8.66,16.937a185.27,185.27,0,0,0,11.06,17.687c-.228-.323,15.676-17.348,17.1-19.07,4.811-5.829,9.441-11.962,13.918-18.008-.923-1.156-2.768-.347-3.95.544a132.024,132.024,0,0,0-12.475,10.68c-2.018,1.957-3.91,4.02-5.852,6.05-1.155,1.207-2.378,3.419-3.753,4.188-1.983-3.082-3.489-6.618-5.183-9.88a.712.712,0,0,1,.091-1.017,141.886,141.886,0,0,0,13.769-17.888c1.531-2.432,4.024-5.4,3.994-8.316-.037-3.65-.369-7.327-.327-11.009a27.613,27.613,0,0,1-12.518,3.458c-1.377.048-11.659-.177-11.923-2.082a84.375,84.375,0,0,1,.777,9.7" transform="translate(-64.544 -103.485)" fill="#d39181"/>
            </g>
          </g>
        </g>
        <path id="Trazado_199746" data-name="Trazado 199746" d="M61.288,32.289c-2.415,3.666-3.254,8.14-3.656,12.512a45.6,45.6,0,0,0,.7,14.963,3.843,3.843,0,0,0-4.212-2.743,5.031,5.031,0,0,0-3.435,2.8c-2.284,4.441-1.08,11.737.206,16.361,1.291,4.643,4.328,9.746,9.731,9.825a.845.845,0,0,1,.45.086.79.79,0,0,1,.269.482c.974,3.519,1.617,7.8,3.326,11.057A23.179,23.179,0,0,0,76.1,107.752c9.045,3.925,19.038,3.886,27.2-1.853a34.717,34.717,0,0,0,9.578-10.238c2.4-3.923,3.44-8.009,4.442-12.436,1.263,1.954,4.21,2.2,6.247,1.078s3.321-3.232,4.308-5.339a36.366,36.366,0,0,0,3.274-12.133c.282-3.148.647-8.014-1.026-10.807a5.733,5.733,0,0,0-4.394-3.014c-1.146-.026-4.455,1.111-4.316,2.709-.538-6.145-1.077-12.3-2.07-18.385-.9-5.524-4.565-9.547-9.35-12.337-5-2.911-10.921-3.831-16.7-3.9A63.332,63.332,0,0,0,74.172,23.82c-5.079,1.542-9.886,3.918-12.883,8.468" transform="translate(906.26 1303.098)" fill="#d39181"/>
        <g id="Grupo_145476" data-name="Grupo 145476" transform="translate(957.79 1324.191)" opacity="0.29" style="mix-blend-mode: multiply;isolation: isolate">
          <g id="Grupo_145475" data-name="Grupo 145475" transform="translate(0 0)">
            <g id="Grupo_145474" data-name="Grupo 145474" clip-path="url(#clip-path-10)">
              <path id="Trazado_199747" data-name="Trazado 199747" d="M76.093,107.751a33.981,33.981,0,0,0,6.123,2.007,14.813,14.813,0,0,0,5.206.531c-2.471.342-6.06-1.558-8.112-2.739a22.309,22.309,0,0,1-6.66-5.843,33.1,33.1,0,0,1-5.22-11.625,91.719,91.719,0,0,1-2.67-21.4c-.157-6.792.168-13.6.335-20.387,2.21-.671,3.344-3.164,3.584-5.461s-.128-4.65.363-6.907a4.874,4.874,0,0,1,4.871-4.247c3.434-.218,6.907-.526,10.361-.683a156.827,156.827,0,0,1,22.182.565c2.332.225,6.082.147,7.633,2.155a18.777,18.777,0,0,1,3.142,7.7c1.651,8.048,1.368,16.376.447,24.54a92.84,92.84,0,0,0-1.046,13.379c.127,3.865,2.817,7.231,6.932,4.96a6.752,6.752,0,0,0,3.056-3.2,2.5,2.5,0,0,1-2.389-.358,5.153,5.153,0,0,1-1.5-2.065,13.616,13.616,0,0,1-.893-8.573,1.187,1.187,0,0,1,.572-.919c.5-.2.988.3,1.231.776,1.056,2.058.646,4.529.213,6.8a32.725,32.725,0,0,0,4.174-15.02,4.224,4.224,0,0,0-.279-1.976,1.577,1.577,0,0,0-1.613-.95,2.1,2.1,0,0,0-1.062.718,10.4,10.4,0,0,0-2.041,3.239,32.1,32.1,0,0,0,1.337-3.558,6.652,6.652,0,0,1,2.082-3.119A3.077,3.077,0,0,1,130,55.889a5.382,5.382,0,0,0-4.271-2.878c-1.146-.027-4.455,1.11-4.316,2.709-.537-6.145-1.076-12.3-2.07-18.386-.9-5.524-4.564-9.547-9.35-12.336-5-2.912-10.92-3.832-16.7-3.9a63.293,63.293,0,0,0-19.125,2.722c-5.079,1.542-9.887,3.919-12.884,8.468-2.415,3.666-3.253,8.141-3.655,12.512a45.6,45.6,0,0,0,.7,14.963,3.815,3.815,0,0,0-2.316-2.527c-1.333-.519-2.068.4-3.155.3A3.054,3.054,0,0,1,55.2,59.3a5.693,5.693,0,0,1,.434,3,2.179,2.179,0,0,0-2.762.275,4.615,4.615,0,0,0-1.215,2.718,14.612,14.612,0,0,0,.174,4.938,21.579,21.579,0,0,0,2.27,6.334c.835,1.525,1.992,3.048,3.672,3.5a22.5,22.5,0,0,1-1.643-5.529,7.587,7.587,0,0,1,1.259-5.5A30.248,30.248,0,0,1,58.85,80.107a5.442,5.442,0,0,1-.735,2.832,2.116,2.116,0,0,1-2.572.85c1.084,1.58,3.2,2.187,5.07,2.216a.833.833,0,0,1,.45.085.794.794,0,0,1,.27.482c.973,3.519,1.616,7.8,3.325,11.058a23.191,23.191,0,0,0,11.434,10.121" transform="translate(-51.518 -21.093)" fill="#d39181"/>
            </g>
          </g>
        </g>
        <g id="Grupo_145479" data-name="Grupo 145479" transform="translate(986.578 1357.286)" style="mix-blend-mode: multiply;isolation: isolate">
          <g id="Grupo_145478" data-name="Grupo 145478" transform="translate(0 0)">
            <g id="Grupo_145477" data-name="Grupo 145477" clip-path="url(#clip-path-11)">
              <path id="Trazado_199748" data-name="Trazado 199748" d="M82.281,54.015c-.6,7.779-1.736,15.616-.719,23.394.23,2.789,2.479,4.829,5.1,2.992a3.194,3.194,0,0,1-3.776.641A5.132,5.132,0,0,1,80.8,77.55a39.3,39.3,0,0,1-.644-7.912,77.308,77.308,0,0,1,2.124-15.623" transform="translate(-80.156 -54.015)" fill="#ad7166"/>
            </g>
          </g>
        </g>
        <path id="Trazado_199749" data-name="Trazado 199749" d="M71.342,66.83a6.624,6.624,0,0,0,.074-2.995A2.594,2.594,0,0,0,69.9,61.746a2.092,2.092,0,0,0-2.244,1.019,5.482,5.482,0,0,0,.062,4.944c1.109,2.119,3.164.907,3.628-.88" transform="translate(906.353 1303.312)"/>
        <path id="Trazado_199750" data-name="Trazado 199750" d="M104.43,66.379a6.624,6.624,0,0,0,.074-2.995,2.594,2.594,0,0,0-1.521-2.089,2.092,2.092,0,0,0-2.244,1.019,5.482,5.482,0,0,0,.062,4.944c1.109,2.119,3.164.907,3.628-.88" transform="translate(906.527 1303.309)"/>
        <g id="Grupo_145482" data-name="Grupo 145482" transform="translate(967.8 1374.886)" opacity="0.76" style="mix-blend-mode: multiply;isolation: isolate">
          <g id="Grupo_145481" data-name="Grupo 145481" transform="translate(0 0)">
            <g id="Grupo_145480" data-name="Grupo 145480" clip-path="url(#clip-path-12)">
              <path id="Trazado_199751" data-name="Trazado 199751" d="M74.315,72.04a23.785,23.785,0,0,0-10.164.067c-2.505.7-3.729,3.812-1.533,5.616a7.368,7.368,0,0,0,4.1,1.3,18.058,18.058,0,0,0,7.38-.61c1.669-.564,5.134-1.893,4.351-4.275-.368-1.12-1.674-1.589-2.827-1.839-.423-.091-.858-.178-1.3-.257" transform="translate(-61.476 -71.523)" fill="#e2a996"/>
            </g>
          </g>
        </g>
        <g id="Grupo_145485" data-name="Grupo 145485" transform="translate(999.891 1373.741)" opacity="0.76" style="mix-blend-mode: multiply;isolation: isolate">
          <g id="Grupo_145484" data-name="Grupo 145484" transform="translate(0 0)">
            <g id="Grupo_145483" data-name="Grupo 145483" clip-path="url(#clip-path-13)">
              <path id="Trazado_199752" data-name="Trazado 199752" d="M97.46,77.995c-1.314-.23-3.01-.6-3.638-1.435a2.979,2.979,0,0,1,.536-3.672,5.775,5.775,0,0,1,1.955-1.054,21.164,21.164,0,0,1,11.237-1.123,6.421,6.421,0,0,1,3.488,1.623,2.911,2.911,0,0,1,.588,3.786c-.822,1.208-1.924,1.353-3.214,1.653a23.876,23.876,0,0,1-9.931.4c-.283-.052-.636-.109-1.021-.176" transform="translate(-93.399 -70.384)" fill="#e2a996"/>
            </g>
          </g>
        </g>
        <g id="Grupo_145488" data-name="Grupo 145488" transform="translate(988.487 1379.849)" opacity="0.76" style="mix-blend-mode: multiply;isolation: isolate">
          <g id="Grupo_145487" data-name="Grupo 145487" transform="translate(0 0)">
            <g id="Grupo_145486" data-name="Grupo 145486" clip-path="url(#clip-path-14)">
              <path id="Trazado_199753" data-name="Trazado 199753" d="M86.84,77.2c.124-.165.251-.328.385-.485a.61.61,0,0,1,.392-.26c.282-.016.439.322.484.6a3.538,3.538,0,0,1-2.089,3.775c-1.809.772-2.689-.149-3.956-1.169a2.5,2.5,0,0,0,3.059-.362,12.227,12.227,0,0,0,1.725-2.1" transform="translate(-82.055 -76.46)" fill="#e2a996"/>
            </g>
          </g>
        </g>
        <g id="Grupo_145491" data-name="Grupo 145491" transform="translate(983.691 1386.778)" style="mix-blend-mode: multiply;isolation: isolate">
          <g id="Grupo_145490" data-name="Grupo 145490" transform="translate(0 0)">
            <g id="Grupo_145489" data-name="Grupo 145489" clip-path="url(#clip-path-15)">
              <path id="Trazado_199754" data-name="Trazado 199754" d="M77.284,84.58c5.486,3.139,12.537,2.258,17.665-1.229C91.779,89.4,81.109,90.46,77.284,84.58" transform="translate(-77.284 -83.352)" fill="#ad7166"/>
            </g>
          </g>
        </g>
        <g id="Grupo_145494" data-name="Grupo 145494" transform="translate(990.553 1400.865)" opacity="0.44" style="mix-blend-mode: multiply;isolation: isolate">
          <g id="Grupo_145493" data-name="Grupo 145493" transform="translate(0 0)">
            <g id="Grupo_145492" data-name="Grupo 145492" clip-path="url(#clip-path-16)">
              <path id="Trazado_199755" data-name="Trazado 199755" d="M84.339,97.366c.775,2.677,1.011,6.715,4,7.855-3.705.27-4.76-5.048-4-7.855" transform="translate(-84.11 -97.366)" fill="#ad7166"/>
            </g>
          </g>
        </g>
        <path id="Trazado_199756" data-name="Trazado 199756" d="M68.182,54.589a24.473,24.473,0,0,1,5.148.369c.349.062,4.379,1.2,4.385.749a.829.829,0,0,0-.348-.677,1.608,1.608,0,0,0,1.5-.323,1.282,1.282,0,0,0,.129-1.12c-.411-1.584-1.94-2.6-3.441-3.257-3.927-1.707-8.648-2.115-12.471.064a15.26,15.26,0,0,0-2.107,1.574c-.417.343-1.054,1.325.045,1.027l2.25-.609a6.791,6.791,0,0,0-2.962,2.327c-.181.318-.654,1.158-.205,1.44.326.2,1.77-.522,2.16-.633a24.34,24.34,0,0,1,4.689-.86q.615-.051,1.231-.072" transform="translate(906.315 1303.244)" fill="#6b5a72"/>
        <g id="Grupo_145497" data-name="Grupo 145497" transform="translate(966.229 1354.361)" opacity="0.42" style="mix-blend-mode: multiply;isolation: isolate">
          <g id="Grupo_145496" data-name="Grupo 145496" transform="translate(0 0)">
            <g id="Grupo_145495" data-name="Grupo 145495" clip-path="url(#clip-path-17)">
              <path id="Trazado_199757" data-name="Trazado 199757" d="M68.182,54.577a24.473,24.473,0,0,1,5.148.369c.349.062,4.379,1.2,4.385.749a.829.829,0,0,0-.348-.677c.641.081,1.78-.084,1.267-1.047a1.79,1.79,0,0,0-.831-.685c-3.79-1.894-8.341-1.307-12.333-.489a3.911,3.911,0,0,0,1.124-.719.552.552,0,0,0,.235-.454.51.51,0,0,0-.331-.334,5.207,5.207,0,0,0-3.068.13A6.411,6.411,0,0,0,60.8,52.738a3.627,3.627,0,0,0,2.47-.362A6.791,6.791,0,0,0,60.307,54.7c-.181.318-.654,1.158-.205,1.44.326.2,1.77-.522,2.16-.633a24.34,24.34,0,0,1,4.689-.86q.615-.051,1.231-.072" transform="translate(-59.914 -51.105)" fill="#6b5a72"/>
            </g>
          </g>
        </g>
        <path id="Trazado_199758" data-name="Trazado 199758" d="M95.732,52.713a6.642,6.642,0,0,0-1.5,1.421c-1.456,1.885,2.04.868,2.722.606a19.164,19.164,0,0,1,8.906-1.142,29.41,29.41,0,0,1,4.428.9c1.007.271,2.68.868,3.484-.157a2.07,2.07,0,0,0-.362-2.451,8.55,8.55,0,0,0-3.759-2.454A20.827,20.827,0,0,0,99.591,48.26c-2.05.268-4.2.935-5.476,2.558a.8.8,0,0,0-.218.492c.006.183.185.366.358.307-.636.218-2.167,1.817-1.621,2.569.388.536.971-.275,1.318-.525a7.61,7.61,0,0,1,1.78-.948" transform="translate(906.487 1303.24)" fill="#6b5a72"/>
        <g id="Grupo_145500" data-name="Grupo 145500" transform="translate(999.461 1353.562)" opacity="0.42" style="mix-blend-mode: multiply;isolation: isolate">
          <g id="Grupo_145499" data-name="Grupo 145499" transform="translate(0 0)">
            <g id="Grupo_145498" data-name="Grupo 145498" clip-path="url(#clip-path-18)">
              <path id="Trazado_199759" data-name="Trazado 199759" d="M95.729,52.691a6.66,6.66,0,0,0-1.5,1.42c-1.456,1.886,2.04.869,2.722.607a19.164,19.164,0,0,1,8.906-1.142,29.407,29.407,0,0,1,4.428.9c.591.16,2.061.557,2.618.166.826-.579-.428-1.051-.96-1.468a13.1,13.1,0,0,0-6.458-2.71A18.491,18.491,0,0,0,95.9,51.725a5.494,5.494,0,0,0-2.923,2.4,19.509,19.509,0,0,0,2.757-1.434" transform="translate(-92.971 -50.31)" fill="#6b5a72"/>
            </g>
          </g>
        </g>
        <g id="Grupo_145503" data-name="Grupo 145503" transform="translate(958.585 1365.065)" style="mix-blend-mode: multiply;isolation: isolate">
          <g id="Grupo_145502" data-name="Grupo 145502" transform="translate(0 0)">
            <g id="Grupo_145501" data-name="Grupo 145501" clip-path="url(#clip-path-19)">
              <path id="Trazado_199760" data-name="Trazado 199760" d="M52.31,65.567a6.241,6.241,0,0,1,.962-3.617.7.7,0,0,1,.714-.159c1.482.6,2.046,2.163,2.545,3.507,1.488,4.1,2.9,8.628,2.038,13.069-.111.506-.4,1.125-1.091,1.1a1.037,1.037,0,0,1-.757-.45A10.192,10.192,0,0,1,55.382,72.7a9.8,9.8,0,0,1,1.368-4,10.605,10.605,0,0,0,.666,9.789c.077.1.134.106.1.092s-.037.028.021-.055a13.7,13.7,0,0,0,.177-4.9,48.036,48.036,0,0,0-1.919-8.08c-.359-1.227-.792-2.682-1.97-3.283-.122-.046-.173-.05-.266.016a6.79,6.79,0,0,0-1.254,3.3" transform="translate(-52.309 -61.753)" fill="#ad7166"/>
            </g>
          </g>
        </g>
        <g id="Grupo_145506" data-name="Grupo 145506" transform="translate(1026.986 1361.787)" style="mix-blend-mode: multiply;isolation: isolate">
          <g id="Grupo_145505" data-name="Grupo 145505" transform="translate(0 0)">
            <g id="Grupo_145504" data-name="Grupo 145504" clip-path="url(#clip-path-20)">
              <path id="Trazado_199761" data-name="Trazado 199761" d="M127.446,61.794c-.046-1-.591-3.415-1.967-2.744a8.34,8.34,0,0,0-2.2,3.421,31.462,31.462,0,0,0-1.754,8.274c-.118,1.977-.679,4.493.785,5.953.014.007.1-.029.186-.12,1.776-2.473,1.869-6.4-.8-8.352a5.424,5.424,0,0,1,2.68,4.6c-.088,1.3-.722,5.923-2.808,4.421-1.658-1.845-1.181-4.451-1.04-6.6a26.959,26.959,0,0,1,2.048-8.481,8.441,8.441,0,0,1,2.683-3.552c1.787-.717,2.368,1.9,2.191,3.181" transform="translate(-120.352 -58.492)" fill="#ad7166"/>
            </g>
          </g>
        </g>
        <path id="Trazado_199762" data-name="Trazado 199762" d="M110.894,34.658a7.671,7.671,0,0,0,5.517,9.649c-.023,2.566-.137,5.2.047,7.763.171,2.38-.358,4.848-.019,7.219.094.656.273,1.3.4,1.95.72,3.706.135,7.969-.392,11.676,2.526-4.033,3.087-8.793,4.3-13.294.587-2.186,2.885-6.929,5.844-6.086.994-9.716,1.994-20.146-3.278-28.708a8.251,8.251,0,0,1-.6-1.469C121.5,20.137,118.93,19.5,116,18.619a32.636,32.636,0,0,1-7.362-3.237,13.77,13.77,0,0,0-4.216-2.026,2.206,2.206,0,0,0-2.191.541c-.486.627.025,1.827.794,1.63a48.054,48.054,0,0,0-10.042-5.049,3.716,3.716,0,0,0-2.86-.09c-.866.462-1.117,1.96-.218,2.354a13.1,13.1,0,0,0-5.965-3.973,2.754,2.754,0,0,0-1.568-.148,2.076,2.076,0,0,0-1.226,2.413,5.411,5.411,0,0,0,1.527,2.507,17.146,17.146,0,0,0-7.037-3.485,8.505,8.505,0,0,0-7.4,1.858c-1.913,1.822-2.522,5.049-.984,7.2-1.263-1.22-2.989-2.266-4.692-1.838s-2.625,3.056-1.136,3.986a2.744,2.744,0,1,0-4.093,3.6,1.149,1.149,0,0,0-1.776.111,2.46,2.46,0,0,0-.266,2,6.538,6.538,0,0,0,2.278,3.872,8.56,8.56,0,0,0-2.047,4.916c-1.166,7.153-.565,14.463.038,21.686,1.647.7,2.562,3.923,2.948,5.47,1.061,4.246,1.407,8.661,2.192,12.983-.145-5.058.347-10.683-.758-15.6-1.1-4.885.345-10.548.678-15.494a4.439,4.439,0,0,0,2.988-3.588,13.047,13.047,0,0,0-.309-4.891c2.994,1.954,7.65,2.2,11.113,2.618a71.978,71.978,0,0,0,12.4.4A71.471,71.471,0,0,0,110.9,33.766" transform="translate(906.289 1303.032)" fill="#6b5a72"/>
        <g id="Grupo_145509" data-name="Grupo 145509" transform="translate(961.501 1318.191)" opacity="0.46" style="mix-blend-mode: multiply;isolation: isolate">
          <g id="Grupo_145508" data-name="Grupo 145508" transform="translate(0 0)">
            <g id="Grupo_145507" data-name="Grupo 145507" clip-path="url(#clip-path-21)">
              <path id="Trazado_199763" data-name="Trazado 199763" d="M110.892,34.623a7.671,7.671,0,0,0,5.517,9.649c-.023,2.566-.137,5.2.047,7.763.171,2.38-.358,4.848-.019,7.219.094.656.273,1.3.4,1.95.72,3.706.135,7.969-.392,11.676,2.975-4.749,3.59-10.347,3.4-15.81a42.538,42.538,0,0,1,.8-7.194c.122-.915,1.421-7.354.8-7.793l2.288,1.626a21.05,21.05,0,0,0-5.185-16.8,5.637,5.637,0,0,0-2.646-1.859c-1.761-.444-2.857.76-4.447,1.03a8.222,8.222,0,0,1-3.523-.488c-2.09-.727-3.645-2.467-5.527-3.632-.4-.246-.925-.463-1.3-.19a1.231,1.231,0,0,0-.3,1.17,13.15,13.15,0,0,0,.832,3.315,40.329,40.329,0,0,0-9.316-5.572A11.326,11.326,0,0,0,96.1,28.812c-6.617-1.674-11.211-7.469-16.678-11.553-1.826-1.363-4.1-2.6-6.284-1.957a5.532,5.532,0,0,0-3.53,4.521A14.952,14.952,0,0,0,70.2,25.8l-3.685-2.088c-4.677-2.65-5.327,3.859-2.867,6.523a6.764,6.764,0,0,0-2.033-1.713,1.185,1.185,0,0,0-.7-.2c-.592.072-.777.833-.792,1.429a21.514,21.514,0,0,0,.939,6.847,4.669,4.669,0,0,1-2.572-1.42c.657,3.177,1.208,6.838-.83,9.361a7.442,7.442,0,0,1-1.214-3.809c-1.018,3.128-1.107,7.085-1.163,10.375-.01.621-.274,6.066.272,6.3,1.647.7,2.562,3.923,2.948,5.47,1.061,4.246,1.407,8.661,2.192,12.983-.145-5.058.347-10.683-.758-15.6-1.1-4.885.345-10.548.678-15.494A4.439,4.439,0,0,0,63.6,41.174a13.047,13.047,0,0,0-.309-4.891c2.994,1.954,7.65,2.2,11.113,2.618a71.978,71.978,0,0,0,12.4.4,71.471,71.471,0,0,0,24.085-5.565" transform="translate(-55.211 -15.125)" fill="#6b5a72"/>
            </g>
          </g>
        </g>
        <path id="Trazado_199764" data-name="Trazado 199764" d="M110.7,125.074l-28.428,42.72,4.074,6.241h6.4l29.849-46.92Z" transform="translate(906.433 1303.645)" fill="#93c1bf"/>
        <path id="Trazado_199765" data-name="Trazado 199765" d="M71.317,127.1l21.552,46.92-14.922.494-18.659-43.2Z" transform="translate(906.312 1303.656)" fill="#93c1bf"/>
        <line id="Línea_1938" data-name="Línea 1938" x2="30.868" transform="translate(976.587 1477.68)" fill="none" stroke="#93c1bf" stroke-linecap="round" stroke-miterlimit="10" stroke-width="3"/>
        <path id="Trazado_199766" data-name="Trazado 199766" d="M78.225,119.976c-8.327,0-15.462,5.259-20.922,10.8-5.4,5.48-7.555,13.656-8.265,21.177" transform="translate(906.258 1303.618)" fill="none" stroke="#312f44" stroke-miterlimit="10" stroke-width="3"/>
        <path id="Trazado_199767" data-name="Trazado 199767" d="M42.952,199.243a5.341,5.341,0,0,0,5.463-1.528,13.264,13.264,0,0,0,2.833-5.228c2.973-8.75,3.752-18.07,4.507-27.28.331-4.032.516-8.544-2.126-11.608a9.043,9.043,0,0,0-8.849-2.566A13.021,13.021,0,0,0,37.2,156.7c-2.692,4.1-3.469,9.366-4.79,14.016q-2.244,7.894-4.174,15.872a17.262,17.262,0,0,0-.679,7.073c.427,2.348,2.082,4.641,4.433,5.055" transform="translate(906.144 1303.781)" fill="none" stroke="#312f44" stroke-linecap="round" stroke-miterlimit="10" stroke-width="1"/>
        <path id="Trazado_199768" data-name="Trazado 199768" d="M34.478,200.5c-.041.032-.082.063-.125.092a2.209,2.209,0,0,1-1.8.336,3,3,0,0,1-1.878-3.287,2.377,2.377,0,0,1,2.9-1.94,2.962,2.962,0,0,1,1.805,3.352,2.643,2.643,0,0,1-.9,1.448" transform="translate(906.161 1304.017)" fill="#4b496b"/>
        <path id="Trazado_199769" data-name="Trazado 199769" d="M43.478,201.437c-.041.032-.082.063-.125.092a2.209,2.209,0,0,1-1.8.336,3,3,0,0,1-1.878-3.287,2.377,2.377,0,0,1,2.9-1.94,2.962,2.962,0,0,1,1.805,3.353,2.641,2.641,0,0,1-.9,1.447" transform="translate(906.209 1304.021)" fill="#4b496b"/>
        <path id="Trazado_199770" data-name="Trazado 199770" d="M33.267,167.152a28.022,28.022,0,0,1,3.543-9.8,14.647,14.647,0,0,1,8.009-6.407,8.7,8.7,0,0,1,4-.28c3.5.652,6,3.993,6.776,7.469.872,3.9-.035,8.063-.434,11.979" transform="translate(906.175 1303.779)" fill="none" stroke="#312f44" stroke-linecap="round" stroke-miterlimit="10" stroke-width="3"/>
        <path id="Trazado_199771" data-name="Trazado 199771" d="M102.33,119.976c8.267-.01,11.252,4.527,13.986,9.5s3.356,10.835,3.392,16.514c.075,11.714-2.1,23.313-4.26,34.825" transform="translate(906.539 1303.618)" fill="none" stroke="#312f44" stroke-miterlimit="10" stroke-width="3"/>
        <path id="Trazado_199772" data-name="Trazado 199772" d="M126.691,184.74a10.962,10.962,0,1,1-10.962-10.962,10.963,10.963,0,0,1,10.962,10.962" transform="translate(906.552 1303.902)" fill="#fff"/>
        <path id="Trazado_199773" data-name="Trazado 199773" d="M123.257,184.723a7.546,7.546,0,1,1-7.547-7.547,7.547,7.547,0,0,1,7.547,7.547" transform="translate(906.57 1303.92)" fill="#cbcbef"/>
        <path id="Trazado_199774" data-name="Trazado 199774" d="M121.649,184.714a5.946,5.946,0,1,1-5.946-5.946,5.946,5.946,0,0,1,5.946,5.946" transform="translate(906.578 1303.928)" fill="#e4e3ff"/>
        <path id="Trazado_199775" data-name="Trazado 199775" d="M22.616,196.529l13.1,103.582,75.938,3.234-3.04-106.815Z" transform="translate(906.119 1304.021)" fill="#4b496b"/>
        <g id="Grupo_145512" data-name="Grupo 145512" transform="translate(928.736 1500.541)" opacity="0.36" style="mix-blend-mode: multiply;isolation: isolate">
          <g id="Grupo_145511" data-name="Grupo 145511" transform="translate(0 0)">
            <g id="Grupo_145510" data-name="Grupo 145510" clip-path="url(#clip-path-22)">
              <path id="Trazado_199776" data-name="Trazado 199776" d="M22.617,196.534c.106.832,13.1,103.576,13.1,103.576l75.938,3.234q-.262-9.234-.526-18.47-.264-9.319-.53-18.638l-.3-10.372c-.077-2.708-.72-6.09-.369-8.725a29.786,29.786,0,0,1-1.55,6.3,3.819,3.819,0,0,1-1.2,1.893,4.082,4.082,0,0,1-2.5.483l-17.433-.38a1.868,1.868,0,0,0,.495,1.64c-1.92-.282-4.022-.378-5.651.677s-2.314,3.677-.847,4.948c-1.971.634-2.756,3.231-2.028,5.169a8.4,8.4,0,0,0,4.382,4.193c-1.9.9-2.278,3.5-1.789,5.541,1.423,5.968,7.593,9.922,8.98,15.9a218.064,218.064,0,0,1-32.221-11.81c.5-3.354,4.247-5.977,3.577-9.3-.534-2.64-3.521-3.87-6.094-4.665a7.076,7.076,0,0,0-1.495-6.81,15.011,15.011,0,0,0-6.038-3.985,10.678,10.678,0,0,1-3.822-2.1,9.218,9.218,0,0,1-1.779-3.279q-10.156-27.022-17.784-54.9c-.159-.015-2.523-.166-2.53-.1" transform="translate(-22.617 -196.519)" fill="#4b496b"/>
            </g>
          </g>
        </g>
        <path id="Trazado_199777" data-name="Trazado 199777" d="M22.616,196.54l1.621-2.173H106.7l1.92,2.173Z" transform="translate(906.119 1304.01)" fill="#312f44"/>
        <path id="Trazado_199778" data-name="Trazado 199778" d="M182.373,250.045c6.711-4.405,13.378-10.353,11.512-19.276a7.912,7.912,0,0,0-1.3-3.132,8.937,8.937,0,0,0-2.063-1.893c-6.856-4.845-15.156-3.624-21.685,1.07-3.414,2.454-7.313,4.369-10.808,6.745-3.521,2.395-6.977,4.885-10.463,7.331-6.859,4.814-13.883,9.5-21.6,12.848a1.99,1.99,0,0,1-.574.182c-.794.084-1.366-.73-1.691-1.459-.54-1.211-1-2.588-2.141-3.271a5.411,5.411,0,0,0-1.34-.511c-1.949-.551-3.892-1.157-5.856-1.655a20.145,20.145,0,0,0-4.586-.155l.32,5.267c-4.306,3.651-10.437,1.611-15.553,2.326a4.835,4.835,0,0,0-3.668,1.935c-.721,1.239.053,3.261,1.484,3.182a12.935,12.935,0,0,0-5.29.06,3.071,3.071,0,0,0-2.153,1.28c-.778,1.444.726,3.035,2.1,3.927a1.964,1.964,0,0,0-.387,2.582,5.01,5.01,0,0,0,2.229,1.764,30.7,30.7,0,0,0,4.192,1.538,2.052,2.052,0,0,0,.136,2.737,5.98,5.98,0,0,0,2.63,1.437l6.461,2.21a14.442,14.442,0,0,0,3.354.853,13.489,13.489,0,0,0,3.78-.357c2.985-.588,5.83-1.456,8.737-2.322,2.573-.767,4.372-2.37,6.613-3.813,3.195-2.055,6.952-3.01,10.641-3.917,16.365-4.024,32.706-8.153,46.969-17.514" transform="translate(906.446 1304.159)" fill="#e2a996"/>
        <g id="Grupo_145515" data-name="Grupo 145515" transform="translate(991.152 1527.824)" opacity="0.42" style="mix-blend-mode: multiply;isolation: isolate">
          <g id="Grupo_145514" data-name="Grupo 145514" transform="translate(0 0)">
            <g id="Grupo_145513" data-name="Grupo 145513" clip-path="url(#clip-path-23)">
              <path id="Trazado_199779" data-name="Trazado 199779" d="M190.519,225.739a17.462,17.462,0,0,0-2.265-1.36c-.321-.16-1.336-.4-1.539-.719a5.336,5.336,0,0,1,.589,3.853,11,11,0,0,1-1.579,3.643,35.047,35.047,0,0,1-8.708,9.037q-1.61,1.227-3.29,2.36a141.348,141.348,0,0,1-17.746,9.769,76.136,76.136,0,0,1-18.89,6.661c-3.713.713-7.812,1.036-11.041-.934a19.832,19.832,0,0,1-11.494,11.44A29.834,29.834,0,0,1,98.1,270.7c-2.44-.454-8.25-1.433-8.23-4.66,0,.349,6.178,1.047,6.785,1.115,3.506.384,6.752,1.159,10.319.692A22.868,22.868,0,0,0,117.036,264c-9.011,1.518-18.484,1.764-27.076-1.349a3.666,3.666,0,0,1-1.46-.817,1.339,1.339,0,0,1-.28-1.547,1.894,1.894,0,0,1,1.824-.594c3.086.216,5.639,1.818,8.673,2.226a22.5,22.5,0,0,0,15.453-3.59,32.012,32.012,0,0,1-13.736,1.533,25.232,25.232,0,0,1-7.2-1.8,1.885,1.885,0,0,1-1.006-.754,1.319,1.319,0,0,1,.417-1.532,3.449,3.449,0,0,1,1.571-.64c6.217-1.31,13.181,0,18.593-3.325,1-.616,2.014-1.627,1.791-2.781-.417-2.165-3.213-2.125-4.817-2.158l.32,5.267c-4.307,3.652-10.437,1.612-15.554,2.326a4.835,4.835,0,0,0-3.668,1.936c-.721,1.238.053,3.26,1.484,3.181a12.93,12.93,0,0,0-5.289.06,3.066,3.066,0,0,0-2.153,1.281c-.779,1.443.726,3.034,2.1,3.926a1.964,1.964,0,0,0-.386,2.582,5.007,5.007,0,0,0,2.228,1.764,36.99,36.99,0,0,0,12.474,3.63,30.058,30.058,0,0,0,6.721-.125c1.159-.153,5.338-.446,6.032-1.459-1.9,2.774-5.546,3.739-8.9,3.908a29.091,29.091,0,0,1-9.892-1.213,3.646,3.646,0,0,1-2.532-1.767c-.311.437.137.975.428,1.3a5.951,5.951,0,0,0,2.629,1.437l6.461,2.21a14.4,14.4,0,0,0,3.354.853,13.493,13.493,0,0,0,3.781-.357c2.985-.588,5.829-1.456,8.736-2.322,2.574-.767,4.372-2.37,6.614-3.813,3.194-2.055,6.952-3.01,10.641-3.917,16.364-4.024,32.705-8.153,46.968-17.514,6.712-4.405,13.378-10.353,11.512-19.276a7.912,7.912,0,0,0-1.3-3.132,8.937,8.937,0,0,0-2.063-1.893" transform="translate(-84.706 -223.66)" fill="#e2a996"/>
            </g>
          </g>
        </g>
        <g id="Grupo_145518" data-name="Grupo 145518" transform="translate(996.144 1573.726)" opacity="0.47" style="mix-blend-mode: multiply;isolation: isolate">
          <g id="Grupo_145517" data-name="Grupo 145517" transform="translate(0 0)">
            <g id="Grupo_145516" data-name="Grupo 145516" clip-path="url(#clip-path-24)">
              <path id="Trazado_199780" data-name="Trazado 199780" d="M89.671,269.321c7.979,2.025,16.719,4.51,24.63.989a17.859,17.859,0,0,1-2.825,1.515c-7.175,2.633-15.1.535-21.805-2.5" transform="translate(-89.671 -269.321)" fill="#ad7166"/>
            </g>
          </g>
        </g>
        <g id="Grupo_145521" data-name="Grupo 145521" transform="translate(991.868 1567.822)" opacity="0.47" style="mix-blend-mode: multiply;isolation: isolate">
          <g id="Grupo_145520" data-name="Grupo 145520" transform="translate(0)">
            <g id="Grupo_145519" data-name="Grupo 145519" clip-path="url(#clip-path-25)">
              <path id="Trazado_199781" data-name="Trazado 199781" d="M85.419,263.448c2.276,1.5,5.074,1.63,7.676,2.156,2.653.433,5.306.841,7.972,1.149,4.049.794,7.874-.017,11.706-1.368,1.3-.358,2.594-.749,3.906-1.079-2.494,1.063-4.979,2.062-7.552,2.968a17.07,17.07,0,0,1-8.18.476,76.332,76.332,0,0,1-8-1.391c-2.572-.692-5.491-1.048-7.527-2.911" transform="translate(-85.419 -263.448)" fill="#ad7166"/>
            </g>
          </g>
        </g>
        <g id="Grupo_145524" data-name="Grupo 145524" transform="translate(997.203 1562.958)" opacity="0.47" style="mix-blend-mode: multiply;isolation: isolate">
          <g id="Grupo_145523" data-name="Grupo 145523" transform="translate(0 0)">
            <g id="Grupo_145522" data-name="Grupo 145522" clip-path="url(#clip-path-26)">
              <path id="Trazado_199782" data-name="Trazado 199782" d="M90.726,258.87a36.6,36.6,0,0,0,23.136-.26,24.549,24.549,0,0,1-23.136.26" transform="translate(-90.726 -258.61)" fill="#ad7166"/>
            </g>
          </g>
        </g>
        <g id="Grupo_145527" data-name="Grupo 145527" transform="translate(1011.519 1553.915)" opacity="0.47" style="mix-blend-mode: multiply;isolation: isolate">
          <g id="Grupo_145526" data-name="Grupo 145526" transform="translate(0 0)">
            <g id="Grupo_145525" data-name="Grupo 145525" clip-path="url(#clip-path-27)">
              <path id="Trazado_199783" data-name="Trazado 199783" d="M104.966,253.919c3.565-.765,6.287-2.51,9.405-4.3-2.1,2.845-5.793,5.005-9.405,4.3" transform="translate(-104.966 -249.614)" fill="#ad7166"/>
            </g>
          </g>
        </g>
        <path id="Trazado_199784" data-name="Trazado 199784" d="M28.893,285.882a11.287,11.287,0,0,1-4.49-1.251,5.493,5.493,0,0,1-2.778-3.6c-.146-.779.13-1.822.919-1.9a6.056,6.056,0,0,1-2.411-2.667c-.392-1.153.241-2.722,1.457-2.808a7.894,7.894,0,0,1-1.678-3.959,3.162,3.162,0,0,1,2.22-3.322,3.137,3.137,0,0,1-1.06-3.757,7.157,7.157,0,0,1,2.757-3.137c-.669-1.068.138-2.422.914-3.414,1.551-1.982,3.26-3.594,4.81-5.577-.108,0,.961,8.032.945,8.826a63.937,63.937,0,0,1,14.626,3.831,25.567,25.567,0,0,1,6.471,3c.928.677,2.317,2.03,2.2,3.335a2.111,2.111,0,0,1-2.737,1.558c1.568.661,4.273,1.791,4.189,3.884a2.61,2.61,0,0,1-2.049,2.207,7.638,7.638,0,0,1-3.2-.076c1.789.34,2.6,2.829,1.578,4.338a3.855,3.855,0,0,1-4.889.981c.137,2.256-1.185,3.448-3.216,3.833-4.933.935-9.584.187-14.579-.318" transform="translate(906.105 1304.306)" fill="#e2a996"/>
        <g id="Grupo_145530" data-name="Grupo 145530" transform="translate(927.415 1554.795)" opacity="0.45" style="mix-blend-mode: multiply;isolation: isolate">
          <g id="Grupo_145529" data-name="Grupo 145529" transform="translate(0)">
            <g id="Grupo_145528" data-name="Grupo 145528" clip-path="url(#clip-path-28)">
              <path id="Trazado_199785" data-name="Trazado 199785" d="M29.8,280.014a61.728,61.728,0,0,0-6.5-.649,50.12,50.12,0,0,1,23.565,2,12.393,12.393,0,0,0,2.977.763.722.722,0,0,0,.552-.122.712.712,0,0,0,.059-.75,5.8,5.8,0,0,0-2.263-2.7,18.711,18.711,0,0,0-5.805-2.442A76.187,76.187,0,0,0,22.2,273.331c4.564-1.68,9.612-1.6,14.4-.726S46,275.093,50.67,276.438a1.073,1.073,0,0,0,.739.03c.617-.289.182-1.229-.335-1.674a23.767,23.767,0,0,0-9.669-4.61c-6.444-1.673-13.158-1.941-19.734-2.977-.086-.842,1.01-1.232,1.854-1.309,9.506-.863,19.132,1.066,27.984,4.636.441-.772-.351-1.66-1.094-2.147-3.67-2.411-8.065-3.4-12.354-4.344-5.514-1.214-11.216-2.432-16.758-1.352.748-2.107,2.059-2.653,4.036-3.544,1.412-.635,2.022-2.294,2.324-3.813a10.481,10.481,0,0,1,1.884-4.847c-.108,0,.961,8.032.945,8.826a64,64,0,0,1,14.626,3.831,25.561,25.561,0,0,1,6.47,3c.929.677,2.318,2.031,2.2,3.335a2.111,2.111,0,0,1-2.737,1.558c1.568.661,4.273,1.791,4.189,3.884a2.611,2.611,0,0,1-2.049,2.207,7.655,7.655,0,0,1-3.2-.075c1.789.34,2.6,2.828,1.577,4.337-1,1.66-3.293,1.654-4.858,1.036-.021,1.546-1.327,3.988-3.091,4.066a7.942,7.942,0,0,1,.9-1.45c-1.293-1.54-3.588-2.272-5.448-2.86a61.975,61.975,0,0,0-9.281-2.165" transform="translate(-21.303 -250.489)" fill="#e2a996"/>
            </g>
          </g>
        </g>
        <g id="Grupo_145533" data-name="Grupo 145533" transform="translate(932.753 1570.195)" opacity="0.47" style="mix-blend-mode: multiply;isolation: isolate">
          <g id="Grupo_145532" data-name="Grupo 145532" transform="translate(0)">
            <g id="Grupo_145531" data-name="Grupo 145531" clip-path="url(#clip-path-29)">
              <path id="Trazado_199786" data-name="Trazado 199786" d="M26.613,266.018c9.149-.838,18.857.779,26.6,5.922-.91-.389-2.238-.97-3.178-1.328-7.453-2.979-15.456-4.065-23.425-4.594" transform="translate(-26.613 -265.809)" fill="#ad7166"/>
            </g>
          </g>
        </g>
        <g id="Grupo_145536" data-name="Grupo 145536" transform="translate(932.152 1576.258)" opacity="0.47" style="mix-blend-mode: multiply;isolation: isolate">
          <g id="Grupo_145535" data-name="Grupo 145535" transform="translate(0)">
            <g id="Grupo_145534" data-name="Grupo 145534" clip-path="url(#clip-path-30)">
              <path id="Trazado_199787" data-name="Trazado 199787" d="M51.246,277.214c-8.336-1.917-16.551-5.25-25.231-4.9,8.675-1.742,17.317,1.669,25.231,4.9" transform="translate(-26.015 -271.84)" fill="#ad7166"/>
            </g>
          </g>
        </g>
        <g id="Grupo_145539" data-name="Grupo 145539" transform="translate(933.941 1583.251)" opacity="0.47" style="mix-blend-mode: multiply;isolation: isolate">
          <g id="Grupo_145538" data-name="Grupo 145538" transform="translate(0)">
            <g id="Grupo_145537" data-name="Grupo 145537" clip-path="url(#clip-path-31)">
              <path id="Trazado_199788" data-name="Trazado 199788" d="M27.794,278.937a44.67,44.67,0,0,1,15.15,1.465c1.16.35,2.759.549,3.44,1.755a1.781,1.781,0,0,1,.1,1.294,1.889,1.889,0,0,0-.323-1.154c-.843-.937-2.192-.861-3.385-1.13-4.984-.91-9.936-1.538-14.979-2.23" transform="translate(-27.794 -278.796)" fill="#ad7166"/>
            </g>
          </g>
        </g>
        <g id="Grupo_145542" data-name="Grupo 145542" transform="translate(930.63 1562.955)" opacity="0.47" style="mix-blend-mode: multiply;isolation: isolate">
          <g id="Grupo_145541" data-name="Grupo 145541" transform="translate(0 0)">
            <g id="Grupo_145540" data-name="Grupo 145540" clip-path="url(#clip-path-32)">
              <path id="Trazado_199789" data-name="Trazado 199789" d="M24.5,259.453a10.047,10.047,0,0,1,8.976.473c-3.107-.11-5.866-.446-8.976-.473" transform="translate(-24.501 -258.607)" fill="#ad7166"/>
            </g>
          </g>
        </g>
      </g>
    </g>
  </g>
</svg>
