<svg xmlns="http://www.w3.org/2000/svg" width="120.274" height="313.435" viewBox="0 0 120.274 313.435">
  <g id="Grupo_145720" data-name="Grupo 145720" transform="translate(9537.67 -857.933)">
    <path id="Trazado_204697" data-name="Trazado 204697" d="M323.922,736.658l-.038,0v27.46h27.673v-9.96H323.922Z" transform="translate(-9834.357 375.765)" fill="#ea7523"/>
    <path id="Trazado_204698" data-name="Trazado 204698" d="M389.576,754.156H361.941V736.669h-.018v27.447h27.671V736.669h-.018Z" transform="translate(-9834.357 375.765)" fill="#ea7523"/>
    <path id="Trazado_204699" data-name="Trazado 204699" d="M323.922,736.658v17.5h27.635V736.669H324.122c-.068,0-.133-.01-.2-.011" transform="translate(-9834.357 375.765)" fill="#a84d17"/>
    <rect id="Rectángulo_44786" data-name="Rectángulo 44786" width="27.635" height="17.487" transform="translate(-9472.416 1112.433)" fill="#a84d17"/>
    <path id="Trazado_204700" data-name="Trazado 204700" d="M335.87,535.7a.486.486,0,0,1,.972,0c0,.087.012.17.013.257q2.4-.711,4.985-1.248c0-.109-.013-.214-.013-.322a.486.486,0,0,1,.971,0c0,.046.005.091.005.137q2-.389,4.088-.666v-8.822a22.367,22.367,0,0,1-3.327-5.659,2.571,2.571,0,0,1-.917.6,3.481,3.481,0,0,1-3.249-.855,34.843,34.843,0,0,1-7.2,11.138,37.017,37.017,0,0,0-6.913,10.778,45.213,45.213,0,0,1,10.616-4.772c-.006-.188-.029-.372-.029-.562" transform="translate(-9834.357 375.765)" fill="#29120b"/>
    <path id="Trazado_204701" data-name="Trazado 204701" d="M370.974,519.969a2.57,2.57,0,0,1-.916-.595,21.855,21.855,0,0,1-3.805,6.2v8.164c1.57.19,3.1.432,4.6.713,0-.022,0-.043,0-.064a.485.485,0,1,1,.971,0c0,.084-.01.165-.01.249,1.634.332,3.236.7,4.761,1.132,0-.023,0-.045,0-.068a.485.485,0,1,1,.97,0c0,.125-.016.246-.019.37a46.149,46.149,0,0,1,10.825,4.736,37.188,37.188,0,0,0-6.825-10.551,34.751,34.751,0,0,1-7.224-11.194,3.531,3.531,0,0,1-3.33.912" transform="translate(-9834.357 375.765)" fill="#29120b"/>
    <path id="Trazado_204702" data-name="Trazado 204702" d="M398.13,599.617h-4.373v1.44a18.229,18.229,0,0,1-3.045,10.106l6.485,23.871h.933a.971.971,0,1,1,0,1.942h-.4l9.329,34.334-5.513-72.665H399.1a.972.972,0,0,1-.972.972" transform="translate(-9834.357 375.765)" fill="#2a3362"/>
    <path id="Trazado_204703" data-name="Trazado 204703" d="M398.077,555.313l1.808,21.506-1.756-23.141h-.1c.034.363.1.721.1,1.087,0,.185-.044.364-.052.548" transform="translate(-9834.357 375.765)" fill="#2a3362"/>
    <path id="Trazado_204704" data-name="Trazado 204704" d="M315.9,636.976a.971.971,0,1,1,0-1.943h.552l6.093-22.425a18.243,18.243,0,0,1-4.106-11.551v-1.44H315.9a.973.973,0,0,1-.972-.973h-2.616l-5.952,73.528h0l9.563-35.2Z" transform="translate(-9834.357 375.765)" fill="#2a3362"/>
    <path id="Trazado_204705" data-name="Trazado 204705" d="M348.223,607.677h15.748l7.348-8.06H340.875Z" transform="translate(-9834.357 375.765)" fill="#f3e5ce"/>
    <path id="Trazado_204706" data-name="Trazado 204706" d="M356.708,555.562a19.888,19.888,0,0,0,19.865-19.8c-1.526-.434-3.128-.8-4.762-1.132-.11,10.141-6.786,18.351-14.986,18.351-8.183,0-14.845-8.171-14.985-18.278q-2.583.539-4.985,1.248a19.882,19.882,0,0,0,19.853,19.609" transform="translate(-9834.357 375.765)" fill="#4856a0"/>
    <path id="Trazado_204707" data-name="Trazado 204707" d="M356.825,552.013c7.716,0,13.995-7.873,14.023-17.566-1.5-.281-3.025-.523-4.6-.713v4.119a9.681,9.681,0,0,1-19.361,0v-4q-2.09.277-4.088.666c.059,9.658,6.325,17.493,14.022,17.493" transform="translate(-9834.357 375.765)" fill="#4856a0"/>
    <path id="Trazado_204708" data-name="Trazado 204708" d="M313.725,720.569a.965.965,0,0,1-.2-.04l-.377,4.112a11.012,11.012,0,0,0,10.738,12.014l.037,0c.068,0,.133.011.2.011h67.257a11.052,11.052,0,0,0,10.987-12.255l-.426-3.892a.941.941,0,0,1-.237.048Z" transform="translate(-9834.357 375.765)" fill="#29120b"/>
    <path id="Trazado_204709" data-name="Trazado 204709" d="M351.557,607.677h-3.335l7.874,8.637,7.874-8.637H351.557Z" transform="translate(-9834.357 375.765)" fill="#29120b"/>
    <path id="Trazado_204710" data-name="Trazado 204710" d="M313.725,718.626H401.7a.972.972,0,0,1,.972.972H407.2c6.5,0,11.18-6.622,9.376-13.257L408.9,678.1a.939.939,0,0,1-.25.05H305.863a.957.957,0,0,1-.925-.736l-7.861,28.93c-1.8,6.635,2.882,13.257,9.378,13.257h6.3a.971.971,0,0,1,.972-.972" transform="translate(-9834.357 375.765)" fill="#29120b"/>
    <path id="Trazado_204711" data-name="Trazado 204711" d="M408.384,676.205l-1.33-4.9-9.329-34.334H384c.234.318.323.572.234.741-.26.5-1.964.17-4.456-.741h-2.339c4.437,3.093,7.322,5.707,6.892,6.395-.509.819-5.529-1.369-11.573-4.979,4.752,3.2,7.962,6.091,7.488,6.855s-4.629-.909-9.723-3.859c3.482,2.6,5.67,4.919,5.253,5.587-.559.9-5.6-1.233-11.261-4.76a57.858,57.858,0,0,1-6.845-4.905l-.493-.334H355.02l-.5.339a57.921,57.921,0,0,1-6.84,4.9c-5.66,3.527-10.7,5.658-11.261,4.76-.417-.668,1.773-2.989,5.256-5.588-5.1,2.951-9.241,4.636-9.726,3.86s2.736-3.65,7.487-6.854c-6.043,3.609-11.061,5.8-11.572,4.978-.429-.688,2.456-3.3,6.892-6.395h-2.337c-2.492.911-4.2,1.237-4.456.741-.089-.169,0-.423.234-.741H315.925l-9.564,35.2-1.17,4.306a.967.967,0,0,1,.672-.274Z" transform="translate(-9834.357 375.765)" fill="#29120b"/>
    <path id="Trazado_204712" data-name="Trazado 204712" d="M338.7,629.922c1.6-.838,3.15-1.633,4.585-2.339l-16.553-11.2q-.221-.145-.435-.295l-.306-.207.007-.016a18.449,18.449,0,0,1-3.458-3.258l-6.093,22.426h13.885a64.713,64.713,0,0,1,8.368-5.112" transform="translate(-9834.357 375.765)" fill="#29120b"/>
    <path id="Trazado_204713" data-name="Trazado 204713" d="M339.168,634.071c.266-.166.529-.325.792-.486-1.006.519-1.992,1.007-2.936,1.449h.63c.495-.32,1-.641,1.514-.963" transform="translate(-9834.357 375.765)" fill="#29120b"/>
    <path id="Trazado_204714" data-name="Trazado 204714" d="M344.867,630.767l0-.018-.174.11.172-.092" transform="translate(-9834.357 375.765)" fill="#29120b"/>
    <path id="Trazado_204715" data-name="Trazado 204715" d="M386.191,615.866l.006.016-.3.2c-.148.1-.3.2-.447.3L368.9,627.582c1.436.707,2.986,1.5,4.585,2.34a64.924,64.924,0,0,1,8.369,5.111H397.2l-6.486-23.87a18.394,18.394,0,0,1-4.52,4.7" transform="translate(-9834.357 375.765)" fill="#29120b"/>
    <path id="Trazado_204716" data-name="Trazado 204716" d="M372.223,633.578c.267.163.533.325.8.493.517.321,1.02.642,1.515.962h.631c-.947-.443-1.937-.933-2.948-1.455" transform="translate(-9834.357 375.765)" fill="#29120b"/>
    <path id="Trazado_204717" data-name="Trazado 204717" d="M367.327,630.768l.185.1-.187-.118,0,.019" transform="translate(-9834.357 375.765)" fill="#29120b"/>
    <path id="Trazado_204718" data-name="Trazado 204718" d="M399.1,636.006a.971.971,0,0,0-.972-.972H381.858A11.144,11.144,0,0,1,384,636.976H398.13a.971.971,0,0,0,.972-.97" transform="translate(-9834.357 375.765)" fill="#e5007e"/>
    <path id="Trazado_204719" data-name="Trazado 204719" d="M355.02,636.976h2.155l-1.077-.729Z" transform="translate(-9834.357 375.765)" fill="#e5007e"/>
    <path id="Trazado_204720" data-name="Trazado 204720" d="M330.336,635.034H315.9a.971.971,0,1,0,0,1.943h12.3a11.117,11.117,0,0,1,2.139-1.943" transform="translate(-9834.357 375.765)" fill="#e5007e"/>
    <path id="Trazado_204721" data-name="Trazado 204721" d="M337.024,635.034c-1.7.8-3.265,1.453-4.6,1.943h2.337c.906-.632,1.876-1.283,2.9-1.943Z" transform="translate(-9834.357 375.765)" fill="#e5007e"/>
    <path id="Trazado_204722" data-name="Trazado 204722" d="M374.54,635.034c1.021.66,1.991,1.311,2.9,1.943h2.338c-1.34-.49-2.9-1.146-4.605-1.943Z" transform="translate(-9834.357 375.765)" fill="#e5007e"/>
    <path id="Trazado_204723" data-name="Trazado 204723" d="M305.862,678.148H408.648a.942.942,0,0,0,.249-.05.957.957,0,0,0,.723-.92.973.973,0,0,0-.972-.973H305.862a.981.981,0,0,0-.972.973.916.916,0,0,0,.047.234.957.957,0,0,0,.925.736" transform="translate(-9834.357 375.765)" fill="#e5007e"/>
    <path id="Trazado_204724" data-name="Trazado 204724" d="M402.675,719.6a.971.971,0,0,0-.972-.972H313.725a.971.971,0,0,0-.973.972.958.958,0,0,0,.772.93.906.906,0,0,0,.2.04H401.7a.939.939,0,0,0,.237-.047.958.958,0,0,0,.735-.923" transform="translate(-9834.357 375.765)" fill="#e5007e"/>
    <path id="Trazado_204725" data-name="Trazado 204725" d="M326,615.866l-.007.017.306.206c.143.1.288.2.435.295l16.553,11.2q1.323-.651,2.492-1.187c-4.388-1.108-7.656-2.681-7.436-3.645.236-1.032,4.363-.966,9.218.145.714.163,1.394.343,2.051.529l6.482-7.11-7.874-8.637-7.348-8.061H318.438v1.44A18.222,18.222,0,0,0,326,615.866" transform="translate(-9834.357 375.765)" fill="#a84d17"/>
    <path id="Trazado_204726" data-name="Trazado 204726" d="M381.859,635.034a64.9,64.9,0,0,0-8.37-5.112c-1.6-.838-3.149-1.633-4.584-2.34L356.1,636.247l1.077.729.494.334a57.746,57.746,0,0,0,6.845,4.905c5.66,3.527,10.7,5.658,11.261,4.761.417-.669-1.772-2.989-5.254-5.587,5.1,2.95,9.239,4.634,9.723,3.858s-2.736-3.65-7.487-6.854c6.044,3.609,11.063,5.8,11.573,4.978.43-.688-2.456-3.3-6.892-6.395-.907-.632-1.876-1.282-2.9-1.942-.495-.32-1-.641-1.514-.963-.27-.168-.536-.329-.8-.493,1.011.522,2,1.012,2.948,1.456,1.7.8,3.265,1.452,4.606,1.942,2.492.911,4.2,1.237,4.456.741.089-.168,0-.422-.234-.741a11.2,11.2,0,0,0-2.14-1.942m-14.532-4.266,0-.019.187.118-.185-.1" transform="translate(-9834.357 375.765)" fill="#a84d17"/>
    <path id="Trazado_204727" data-name="Trazado 204727" d="M368.9,627.582l16.547-11.2c.151-.1.3-.2.447-.3l.3-.2-.006-.016a18.414,18.414,0,0,0,4.52-4.7,18.224,18.224,0,0,0,3.046-10.106v-1.439H371.319l-7.348,8.06-7.874,8.637-6.482,7.11c-.658-.186-1.338-.366-2.052-.529-4.854-1.111-8.982-1.177-9.217-.145-.221.964,3.047,2.537,7.435,3.645q-1.168.535-2.492,1.187c-1.435.707-2.986,1.5-4.585,2.34a64.9,64.9,0,0,0-8.368,5.111,11.193,11.193,0,0,0-2.14,1.943c-.233.318-.322.572-.234.74.26.5,1.964.171,4.457-.74,1.34-.49,2.9-1.146,4.6-1.943.943-.442,1.929-.929,2.936-1.449-.264.161-.526.321-.792.486-.517.322-1.02.643-1.515.963-1.021.66-1.991,1.311-2.9,1.943-4.436,3.093-7.321,5.706-6.893,6.395.512.819,5.53-1.37,11.573-4.979-4.751,3.2-7.962,6.09-7.487,6.854s4.63-.908,9.726-3.86c-3.483,2.6-5.674,4.921-5.256,5.589.558.9,5.6-1.234,11.261-4.761a57.921,57.921,0,0,0,6.84-4.9l.5-.339,1.078-.729Zm-24.038,3.185-.172.092.174-.11,0,.018" transform="translate(-9834.357 375.765)" fill="#ea7523"/>
    <path id="Trazado_204728" data-name="Trazado 204728" d="M315.9,597.674h82.23a.972.972,0,0,1,.973.97h2.618l-1.835-21.825-1.808-21.506c.009-.184.052-.363.052-.547,0-.367-.07-.725-.1-1.088-.466-4.9-4.005-9.368-9.673-12.876a46.141,46.141,0,0,0-10.824-4.736,20.82,20.82,0,0,1-41.63.192,45.2,45.2,0,0,0-10.615,4.772c-5.45,3.471-8.824,7.857-9.28,12.648h-.053l-3.907,44.966h2.884a.971.971,0,0,1,.972-.97" transform="translate(-9834.357 375.765)" fill="#4856a0"/>
    <path id="Trazado_204729" data-name="Trazado 204729" d="M356.572,547.533a9.68,9.68,0,0,0,9.681-9.681v-3.438c-14.594,7.964-19.361-6.87-19.361-6.87v10.308a9.68,9.68,0,0,0,9.68,9.681" transform="translate(-9834.357 375.765)" fill="#ea7523"/>
    <path id="Trazado_204730" data-name="Trazado 204730" d="M366.252,534.414v-8.845a12.736,12.736,0,0,1-9.441,4.682c-3.778,0-7.235-1.965-9.92-5.22v2.513s4.767,14.834,19.361,6.87" transform="translate(-9834.357 375.765)" fill="#a84d17"/>
    <path id="Trazado_204731" data-name="Trazado 204731" d="M342.647,519.97a2.565,2.565,0,0,0,.917-.6,22.352,22.352,0,0,0,3.328,5.659c2.685,3.255,6.142,5.22,9.92,5.22a12.738,12.738,0,0,0,9.441-4.682,21.841,21.841,0,0,0,3.805-6.2,2.572,2.572,0,0,0,.916.6,3.534,3.534,0,0,0,3.33-.912,9.993,9.993,0,0,0,2.94-4.461c1.289-3.722.572-7.348-1.6-8.1a3.564,3.564,0,0,0-3.387.954c0-.1-.006-.188-.007-.284-.033.08-.057.159-.092.24,0,0-8.174-7.768-10.041-15.924q-2.572.054-5.293.056c-1.872,0-3.7-.021-5.467-.059-1.806,7.9-9.5,15.4-9.989,15.875,0,.034,0,.063,0,.1a3.561,3.561,0,0,0-3.387-.955c-2.173.755-2.888,4.381-1.6,8.1a9.894,9.894,0,0,0,3.019,4.517,3.483,3.483,0,0,0,3.249.856m29.524-9.613c.858-1.279,1.9-2,2.718-1.716,1.2.416,1.466,2.793.592,5.31s-2.552,4.22-3.75,3.8a1.435,1.435,0,0,1-.79-.817,30.27,30.27,0,0,0,1.23-6.581m-4.847,3.006c0,.847-1.2,1.535-2.68,1.535s-2.681-.688-2.681-1.535,1.2-1.535,2.681-1.535,2.68.687,2.68,1.535m-4-9c.424,0,.767.681.767,1.521s-.343,1.523-.767,1.523-.764-.682-.764-1.523.343-1.521.764-1.521m-1.709,3.79a.361.361,0,0,1,.456.236,3.128,3.128,0,0,0,2.881,1.933.365.365,0,0,1-.027.729l-.028,0a3.833,3.833,0,0,1-3.521-2.44.364.364,0,0,1,.239-.456m-5.927-.647a1.214,1.214,0,0,1,2.295-.2c.867,2.267-.23,7.446-2.02,7.595-1.957.164-.848-5.1-.275-7.391m-3.133,10.306a13.811,13.811,0,0,0,2.141.532l.3.032.474.036c.368.022.737.026,1.105.016s.737-.044,1.105-.081c.05-.005.046,0,.069-.005a.585.585,0,0,1,.072-.017c.208-.042.416-.073.621-.119a12.832,12.832,0,0,0,2.11-.657,1.842,1.842,0,0,1,2.242,1.273,1.871,1.871,0,0,1-1.272,2.24,14.512,14.512,0,0,1-9.94.263,1.864,1.864,0,0,1-1.273-2.24,1.836,1.836,0,0,1,2.242-1.273m-2.814-13.449c.423,0,.766.681.766,1.521s-.343,1.523-.766,1.523-.765-.682-.765-1.523.343-1.521.765-1.521m-1.629,5.959A3.129,3.129,0,0,0,351,508.386a.364.364,0,0,1,.695.22,3.836,3.836,0,0,1-3.521,2.44l-.028,0a.365.365,0,0,1-.028-.729m.864,1.509c1.479,0,2.68.687,2.68,1.535s-1.2,1.535-2.68,1.535-2.682-.688-2.682-1.535,1.2-1.535,2.682-1.535m-10.839,2.123c-.871-2.517-.606-4.894.592-5.31.821-.284,1.862.437,2.721,1.718a30.261,30.261,0,0,0,1.229,6.58,1.434,1.434,0,0,1-.789.816c-1.2.416-2.88-1.287-3.753-3.8" transform="translate(-9834.357 375.765)" fill="#ea7523"/>
    <path id="Trazado_204732" data-name="Trazado 204732" d="M342.682,516.939a30.262,30.262,0,0,1-1.23-6.58c-.858-1.281-1.9-2-2.72-1.718-1.2.416-1.464,2.793-.592,5.31s2.553,4.22,3.753,3.8a1.437,1.437,0,0,0,.789-.816" transform="translate(-9834.357 375.765)" fill="#29120b"/>
    <path id="Trazado_204733" data-name="Trazado 204733" d="M371.73,517.755c1.2.416,2.88-1.287,3.751-3.8s.608-4.894-.592-5.31c-.821-.284-1.861.436-2.719,1.716a30.223,30.223,0,0,1-1.229,6.581,1.436,1.436,0,0,0,.789.817" transform="translate(-9834.357 375.765)" fill="#29120b"/>
    <path id="Trazado_204734" data-name="Trazado 204734" d="M355.966,514.893c1.79-.148,2.887-5.327,2.02-7.6a1.214,1.214,0,0,0-2.295.2c-.573,2.289-1.682,7.555.275,7.391" transform="translate(-9834.357 375.765)" fill="#a84d17"/>
    <path id="Trazado_204735" data-name="Trazado 204735" d="M348.979,514.9c1.479,0,2.68-.687,2.68-1.535s-1.2-1.535-2.68-1.535-2.682.688-2.682,1.535,1.2,1.535,2.682,1.535" transform="translate(-9834.357 375.765)" fill="#f1a876"/>
    <path id="Trazado_204736" data-name="Trazado 204736" d="M361.963,513.362c0,.847,1.2,1.535,2.682,1.535s2.679-.688,2.679-1.535-1.2-1.535-2.679-1.535-2.682.687-2.682,1.535" transform="translate(-9834.357 375.765)" fill="#f1a876"/>
    <path id="Trazado_204737" data-name="Trazado 204737" d="M349.743,507.4c.424,0,.766-.681.766-1.523s-.342-1.521-.766-1.521-.765.681-.765,1.521.343,1.523.765,1.523" transform="translate(-9834.357 375.765)" fill="#29120b"/>
    <path id="Trazado_204738" data-name="Trazado 204738" d="M363.327,507.4c.424,0,.766-.681.766-1.523s-.342-1.521-.766-1.521-.765.681-.765,1.521.343,1.523.765,1.523" transform="translate(-9834.357 375.765)" fill="#29120b"/>
    <path id="Trazado_204739" data-name="Trazado 204739" d="M350.316,519.082a1.864,1.864,0,0,0,1.273,2.24,14.518,14.518,0,0,0,9.94-.263,1.869,1.869,0,0,0,1.272-2.24,1.842,1.842,0,0,0-2.242-1.273,12.885,12.885,0,0,1-2.109.657c-.206.045-.414.077-.622.119a.585.585,0,0,0-.072.017c-.023,0-.019,0-.069.005-.368.037-.735.069-1.105.081s-.737.006-1.105-.016l-.473-.036-.3-.032a13.811,13.811,0,0,1-2.141-.532,1.837,1.837,0,0,0-2.242,1.273m1.519.325c.052.012,5.084,1.25,9.078-.549a.365.365,0,0,1,.3.666,13.384,13.384,0,0,1-5.446,1.05,18.167,18.167,0,0,1-4.109-.46.365.365,0,0,1,.178-.707" transform="translate(-9834.357 375.765)" fill="#a84d17"/>
    <path id="Trazado_204740" data-name="Trazado 204740" d="M351.656,520.114a18.213,18.213,0,0,0,4.11.459,13.385,13.385,0,0,0,5.446-1.049.365.365,0,0,0-.3-.666c-3.995,1.8-9.027.561-9.079.549a.365.365,0,0,0-.178.707" transform="translate(-9834.357 375.765)" fill="#29120b"/>
    <path id="Trazado_204741" data-name="Trazado 204741" d="M348.143,511.047l.028,0a3.836,3.836,0,0,0,3.521-2.44.364.364,0,0,0-.695-.22,3.129,3.129,0,0,1-2.882,1.933.365.365,0,0,0,.028.729" transform="translate(-9834.357 375.765)" fill="#29120b"/>
    <path id="Trazado_204742" data-name="Trazado 204742" d="M364.9,511.045l.028,0a.365.365,0,0,0,.027-.729,3.128,3.128,0,0,1-2.881-1.933.365.365,0,0,0-.7.22,3.834,3.834,0,0,0,3.521,2.44" transform="translate(-9834.357 375.765)" fill="#29120b"/>
    <path id="Trazado_204743" data-name="Trazado 204743" d="M371.319,599.617H398.13a.971.971,0,1,0,0-1.943H315.9a.971.971,0,1,0,0,1.943h55.42Z" transform="translate(-9834.357 375.765)" fill="#e5007e"/>
    <path id="Trazado_204744" data-name="Trazado 204744" d="M351.356,491.477c-4.2-.091-8.039-.286-11.321-.556a26.232,26.232,0,0,0,1.279,16.482l.053-.051c.493-.473,8.183-7.979,9.989-15.875" transform="translate(-9834.357 375.765)" fill="#29120b"/>
    <path id="Trazado_204745" data-name="Trazado 204745" d="M372.158,507.4c.035-.081.058-.16.092-.24a26.287,26.287,0,0,0,1.192-16.228c-3.29.266-7.131.457-11.325.545,1.866,8.155,10.041,15.923,10.041,15.923" transform="translate(-9834.357 375.765)" fill="#29120b"/>
    <path id="Trazado_204746" data-name="Trazado 204746" d="M356.823,491.536q2.718,0,5.293-.056c4.194-.088,8.036-.278,11.326-.545,6.741-.547,11.121-1.414,11.121-2.4,0-.94-4.021-1.777-10.3-2.326a.968.968,0,0,1-.755.79,80.178,80.178,0,0,1-16.364,1.669,70.246,70.246,0,0,1-16.032-1.677.964.964,0,0,1-.717-.864c-6.85.545-11.312,1.419-11.312,2.408,0,.974,4.307,1.835,10.952,2.382,3.282.27,7.121.465,11.321.556,1.768.038,3.6.059,5.467.059" transform="translate(-9834.357 375.765)" fill="#caba9f"/>
    <path id="Trazado_204747" data-name="Trazado 204747" d="M373.111,485.1a.942.942,0,0,1,.572.073c-.473-1.675-7.507-3.006-16.14-3.006-8.511,0-15.472,1.293-16.124,2.934a.859.859,0,0,1,.175.009,77.477,77.477,0,0,0,31.517-.01" transform="translate(-9834.357 375.765)" fill="#caba9f"/>
    <path id="Trazado_204748" data-name="Trazado 204748" d="M341.112,486.995a70.21,70.21,0,0,0,16.032,1.678A80.114,80.114,0,0,0,373.508,487a.988.988,0,0,0,.753-1.149.956.956,0,0,0-.579-.679.935.935,0,0,0-.572-.073,77.518,77.518,0,0,1-31.517.01.857.857,0,0,0-.175-.01.962.962,0,0,0-1.007.711.924.924,0,0,0-.016.318.963.963,0,0,0,.717.864" transform="translate(-9834.357 375.765)" fill="#e5007e"/>
    <path id="Trazado_204749" data-name="Trazado 204749" d="M377.062,535.211a.483.483,0,0,0-.485.485c0,.023,0,.045,0,.068a19.859,19.859,0,0,1-39.717.189c0-.087-.013-.17-.013-.257a.486.486,0,0,0-.973,0c0,.19.024.374.029.563a20.82,20.82,0,0,0,41.629-.192c0-.125.019-.246.019-.371a.484.484,0,0,0-.485-.485" transform="translate(-9834.357 375.765)" fill="#f8b133"/>
    <path id="Trazado_204750" data-name="Trazado 204750" d="M356.825,552.983c8.2,0,14.877-8.21,14.986-18.351,0-.084.01-.165.01-.249a.485.485,0,1,0-.97,0c0,.021,0,.042,0,.064-.028,9.692-6.307,17.566-14.023,17.566-7.7,0-13.963-7.835-14.022-17.494,0-.046-.005-.09-.005-.136a.486.486,0,1,0-.971,0c0,.108.012.213.013.321.141,10.108,6.8,18.279,14.985,18.279" transform="translate(-9834.357 375.765)" fill="#f8b133"/>
    <path id="Trazado_204751" data-name="Trazado 204751" d="M320.853,764.115v15.411l-16.427,6.212a10.548,10.548,0,0,0-6.815,9.864h45.716a8.232,8.232,0,0,0,8.23-8.233V764.115h-30.7Z" transform="translate(-9834.357 375.765)" fill="#29120b"/>
    <path id="Trazado_204752" data-name="Trazado 204752" d="M361.923,767.914V787.37a8.231,8.231,0,0,0,8.231,8.233h45.715a10.547,10.547,0,0,0-6.817-9.865l-16.424-6.211V764.115h-30.7Z" transform="translate(-9834.357 375.765)" fill="#29120b"/>
  </g>
</svg>
