<svg xmlns="http://www.w3.org/2000/svg" width="135.972" height="334.192" viewBox="0 0 135.972 334.192">
  <g id="Grupo_145707" data-name="Grupo 145707" transform="translate(5736.161 353.693)">
    <path id="Trazado_201792" data-name="Trazado 201792" d="M413.757,666.626c0,.07-.006.144-.008.215.007-.068.015-.136.022-.2l-.014-.012" transform="translate(-6025 -815.104)" fill="#f9be6e"/>
    <path id="Trazado_201793" data-name="Trazado 201793" d="M299.891,666.626l-.013.011c.006.064.014.128.021.192,0-.067-.006-.136-.008-.2" transform="translate(-6025 -815.104)" fill="#f9be6e"/>
    <path id="Trazado_201794" data-name="Trazado 201794" d="M351.764,744.715h-26.94V723.71H324.8v41.2h26.976v-41.2h-.01Z" transform="translate(-6025 -815.104)" fill="#ea7523"/>
    <path id="Trazado_201795" data-name="Trazado 201795" d="M388.826,744.715h-26.94V723.71h-.01v41.2h26.976v-41.2h-.026Z" transform="translate(-6025 -815.104)" fill="#ea7523"/>
    <path id="Trazado_201796" data-name="Trazado 201796" d="M347.164,520.529q-1.719.063-3.394.147l4.943,4.942a9.379,9.379,0,0,1-1.549-5.089" transform="translate(-6025 -815.104)" fill="#2d2e82"/>
    <path id="Trazado_201797" data-name="Trazado 201797" d="M356.592,529.877a9.384,9.384,0,0,1-5.178-1.558l5.67,5.67L370.372,520.7q-2.139-.111-4.35-.188a9.433,9.433,0,0,1-9.43,9.363" transform="translate(-6025 -815.104)" fill="#2d2e82"/>
    <path id="Trazado_201798" data-name="Trazado 201798" d="M289.279,662.505a56.54,56.54,0,0,0-.143,8.219c.307,6.493,1.392,11.718,2.422,11.67.766-.037,1.414-3.068,1.57-7.292.456,5.714,1.4,9.96,2.292,9.918.874-.042,1.411-4.214,1.35-9.8.453,6.845,1.477,12.081,2.416,12.036,1.03-.047,1.567-6.414,1.2-14.219-.015-.3-.032-.6-.049-.9.869,6.745,2.337,12.031,3.332,11.91,1.024-.125,1.159-5.916.3-12.936-.344-2.82-.711-5.467-1.092-7.628,3.321,2.9,6.392,4.654,7.043,3.944.7-.76-1.641-4.034-5.22-7.314-.557-.51-1.106-.977-1.648-1.421l6.387-29.6h-2.763V613.312a.948.948,0,0,1,0-1.9v-43.97a.947.947,0,0,1,0-1.894V530.637a24.6,24.6,0,0,0-17.837,23.642v63.2h.007Zm10.612,4.121c0,.067.006.136.008.2-.007-.064-.015-.128-.021-.192l.013-.011" transform="translate(-6025 -815.104)" fill="#ea7523"/>
    <path id="Trazado_201799" data-name="Trazado 201799" d="M407.919,566.5a.947.947,0,0,1-.946.947v43.97a.948.948,0,0,1,0,1.9v15.776h-2.764l6.387,29.606c-.541.444-1.09.91-1.647,1.42-3.581,3.28-5.918,6.553-5.22,7.314.649.71,3.721-1.038,7.041-3.943-.381,2.16-.748,4.807-1.092,7.627-.856,7.02-.721,12.811.3,12.936,1,.121,2.465-5.179,3.333-11.937-.017.308-.035.614-.05.927-.368,7.8.167,14.173,1.2,14.22.94.045,1.964-5.2,2.416-12.053-.064,5.592.475,9.773,1.351,9.815s1.835-4.206,2.29-9.922c.156,4.226.805,7.259,1.571,7.3,1.03.048,2.114-5.177,2.42-11.671a56.391,56.391,0,0,0-.141-8.216l.433-45.03h.008v-63.2a24.6,24.6,0,0,0-17.838-23.641v34.916a.947.947,0,0,1,.946.947m5.838,100.126.014.012c-.007.067-.015.135-.022.2,0-.071.006-.145.008-.215" transform="translate(-6025 -815.104)" fill="#ea7523"/>
    <rect id="Rectángulo_44583" data-name="Rectángulo 44583" width="100.296" height="43.97" transform="translate(-5718.323 -247.657)" fill="#2d2e82"/>
    <path id="Trazado_201800" data-name="Trazado 201800" d="M406.973,565.553V529.671c0-2.482-5.236-4.736-13.755-6.406L357.083,559.4l-12.7-12.705h0l-23.514-23.513c-8.776,1.678-14.189,3.966-14.189,6.49v35.882Z" transform="translate(-6025 -815.104)" fill="#2d2e82"/>
    <path id="Trazado_201801" data-name="Trazado 201801" d="M406.973,613.312h-100.3v15.776h100.3Z" transform="translate(-6025 -815.104)" fill="#2d2e82"/>
    <path id="Trazado_201802" data-name="Trazado 201802" d="M311.745,723.71H401.9V629.088h-90.16Z" transform="translate(-6025 -815.104)" fill="#4856a0"/>
    <path id="Trazado_201803" data-name="Trazado 201803" d="M407.92,566.5a.947.947,0,0,0-.947-.947h-100.3a.947.947,0,0,0,0,1.894h100.3a.947.947,0,0,0,.947-.947" transform="translate(-6025 -815.104)" fill="#e5007e"/>
    <path id="Trazado_201804" data-name="Trazado 201804" d="M407.92,612.365a.947.947,0,0,0-.947-.949h-100.3a.948.948,0,0,0,0,1.9h100.3a.947.947,0,0,0,.947-.947" transform="translate(-6025 -815.104)" fill="#e5007e"/>
    <path id="Trazado_201805" data-name="Trazado 201805" d="M369.748,546.654l-12.7,12.705-12.665-12.664h0l12.705,12.7,36.134-36.134.6-.6-19.4-6.007-4.046,4.046L357.084,533.99Z" transform="translate(-6025 -815.104)" fill="#8d1816"/>
    <path id="Trazado_201806" data-name="Trazado 201806" d="M357.044,559.358l12.7-12.7-12.663-12.664-5.671-5.67a9.473,9.473,0,0,1-2.7-2.7l-4.943-4.943-4.286-4.286-19.656,5.753,1.038,1.038,23.513,23.513Z" transform="translate(-6025 -815.104)" fill="#e20613"/>
    <path id="Trazado_201807" data-name="Trazado 201807" d="M351.414,528.319a9.419,9.419,0,0,0,14.608-7.8c0-.025.007-.049.007-.074v-3.351c-14.227,7.762-18.873-6.7-18.873-6.7V520.44c0,.031.009.059.009.089a9.427,9.427,0,0,0,4.249,7.79" transform="translate(-6025 -815.104)" fill="#ea7523"/>
    <path id="Trazado_201808" data-name="Trazado 201808" d="M366.029,517.09v-8.625a12.418,12.418,0,0,1-9.2,4.565c-3.682,0-7.052-1.915-9.669-5.087v2.449s4.646,14.459,18.874,6.7" transform="translate(-6025 -815.104)" fill="#a84d17"/>
    <path id="Trazado_201809" data-name="Trazado 201809" d="M339.2,491.963c-1.17.406-1.428,2.723-.578,5.177s2.487,4.115,3.658,3.709a1.408,1.408,0,0,0,.77-.8,29.552,29.552,0,0,1-1.2-6.416c-.835-1.248-1.85-1.951-2.65-1.673" transform="translate(-6025 -815.104)" fill="#29120b"/>
    <path id="Trazado_201810" data-name="Trazado 201810" d="M371.368,500.85c1.169.406,2.806-1.256,3.658-3.709s.592-4.771-.578-5.177c-.8-.278-1.815.425-2.651,1.673a29.492,29.492,0,0,1-1.2,6.416,1.405,1.405,0,0,0,.77.8" transform="translate(-6025 -815.104)" fill="#29120b"/>
    <path id="Trazado_201811" data-name="Trazado 201811" d="M356.824,513.03a12.418,12.418,0,0,0,9.2-4.565,21.285,21.285,0,0,0,3.709-6.039,2.49,2.49,0,0,0,.894.58c2.117.735,4.854-1.61,6.111-5.238s.559-7.161-1.558-7.9a3.474,3.474,0,0,0-3.3.929v-.046c-3.07-.491-3.915-3.976-3.915-3.976a62.5,62.5,0,0,1-9.3-2.473l-.972.262c-.063.017-.127.018-.19.032a3.187,3.187,0,0,1-.365.059,3.236,3.236,0,0,1-.326.013c-.109,0-.217,0-.327-.012a3.247,3.247,0,0,1-.366-.061c-.062-.013-.125-.014-.188-.031l-.5-.133a18.851,18.851,0,0,0,2.388,3.764c-6.19-1.626-9.014-4.173-10.275-5.891L346.414,482c-.948,6.97-4.206,8.552-4.645,8.735,0,.022,0,.041,0,.063a3.471,3.471,0,0,0-3.3-.929c-2.117.735-2.816,4.27-1.558,7.9s3.992,5.973,6.111,5.238a2.487,2.487,0,0,0,.893-.58,21.8,21.8,0,0,0,3.244,5.517c2.617,3.172,5.987,5.087,9.669,5.087M371.8,493.637c.836-1.248,1.851-1.951,2.651-1.674,1.17.406,1.428,2.724.578,5.177s-2.489,4.116-3.658,3.71a1.4,1.4,0,0,1-.769-.8,29.552,29.552,0,0,0,1.2-6.416m-29.515,7.213c-1.171.406-2.807-1.256-3.658-3.71s-.593-4.771.578-5.177c.8-.277,1.814.426,2.65,1.674a29.624,29.624,0,0,0,1.2,6.416,1.4,1.4,0,0,1-.769.8m24.791-4.284c0,.828-1.171,1.5-2.612,1.5s-2.613-.669-2.613-1.5,1.169-1.5,2.613-1.5,2.612.671,2.612,1.5m-3.9-8.777c.412,0,.747.665.747,1.485s-.335,1.483-.747,1.483-.746-.665-.746-1.483.334-1.485.746-1.485m-1.667,3.7a.353.353,0,0,1,.445.23,3.044,3.044,0,0,0,2.809,1.885.355.355,0,0,1-.026.709h-.028a3.737,3.737,0,0,1-3.432-2.38.354.354,0,0,1,.232-.444m-5.777-.631a1.185,1.185,0,0,1,2.238-.2c.843,2.211-.224,7.261-1.971,7.4-1.907.159-.826-4.973-.267-7.206M352.679,500.9a13.329,13.329,0,0,0,2.088.518l.294.033.462.033c.358.022.719.026,1.079.015s.717-.04,1.076-.078c.048-.005.043,0,.066-.005a.652.652,0,0,1,.072-.017c.2-.039.4-.071.606-.114a12.59,12.59,0,0,0,2.056-.642,1.8,1.8,0,0,1,2.186,1.242,1.824,1.824,0,0,1-1.242,2.184,14.142,14.142,0,0,1-9.688.255,1.818,1.818,0,0,1-1.24-2.184,1.79,1.79,0,0,1,2.185-1.24m-2.743-13.112c.412,0,.745.665.745,1.485s-.333,1.483-.745,1.483-.747-.665-.747-1.483.335-1.485.747-1.485m-1.588,5.81a3.04,3.04,0,0,0,2.808-1.885.356.356,0,0,1,.679.214,3.737,3.737,0,0,1-3.432,2.38h-.028a.355.355,0,0,1-.027-.709m-1.771,2.967c0-.826,1.169-1.5,2.612-1.5s2.612.671,2.612,1.5-1.168,1.5-2.612,1.5-2.612-.669-2.612-1.5" transform="translate(-6025 -815.104)" fill="#ea7523"/>
    <path id="Trazado_201812" data-name="Trazado 201812" d="M356,498.059c1.747-.145,2.814-5.195,1.971-7.4a1.185,1.185,0,0,0-2.238.2c-.559,2.234-1.64,7.365.267,7.207" transform="translate(-6025 -815.104)" fill="#a84d17"/>
    <path id="Trazado_201813" data-name="Trazado 201813" d="M351.8,496.566c0-.826-1.168-1.5-2.612-1.5s-2.612.671-2.612,1.5,1.168,1.5,2.612,1.5,2.612-.669,2.612-1.5" transform="translate(-6025 -815.104)" fill="#f1a876"/>
    <path id="Trazado_201814" data-name="Trazado 201814" d="M361.848,496.566c0,.828,1.169,1.5,2.612,1.5s2.612-.669,2.612-1.5-1.17-1.5-2.612-1.5-2.612.671-2.612,1.5" transform="translate(-6025 -815.104)" fill="#f1a876"/>
    <path id="Trazado_201815" data-name="Trazado 201815" d="M349.936,490.757c.412,0,.745-.665.745-1.483s-.333-1.486-.745-1.486-.747.666-.747,1.486.335,1.483.747,1.483" transform="translate(-6025 -815.104)" fill="#29120b"/>
    <path id="Trazado_201816" data-name="Trazado 201816" d="M363.177,490.757c.412,0,.747-.665.747-1.483s-.335-1.486-.747-1.486-.747.666-.747,1.486.335,1.483.747,1.483" transform="translate(-6025 -815.104)" fill="#29120b"/>
    <path id="Trazado_201817" data-name="Trazado 201817" d="M350.495,502.141a1.818,1.818,0,0,0,1.239,2.185,14.151,14.151,0,0,0,9.689-.256,1.824,1.824,0,0,0,1.241-2.184,1.8,1.8,0,0,0-2.186-1.242,12.56,12.56,0,0,1-2.056.642c-.2.043-.4.075-.606.114-.055.011-.053.013-.072.017s-.018,0-.066.005c-.359.038-.715.068-1.076.078s-.721.007-1.079-.014l-.462-.034-.294-.033a13.329,13.329,0,0,1-2.088-.518,1.789,1.789,0,0,0-2.184,1.24m1.479.319c.049.01,4.955,1.216,8.848-.535l.472.178-.178.47a13.04,13.04,0,0,1-5.308,1.022,17.809,17.809,0,0,1-4.008-.448.354.354,0,0,1,.174-.687" transform="translate(-6025 -815.104)" fill="#a84d17"/>
    <path id="Trazado_201818" data-name="Trazado 201818" d="M351.8,503.147a17.822,17.822,0,0,0,4.009.448,13.02,13.02,0,0,0,5.307-1.023l.178-.469-.471-.178c-3.894,1.751-8.8.545-8.849.535a.354.354,0,0,0-.174.687" transform="translate(-6025 -815.104)" fill="#29120b"/>
    <path id="Trazado_201819" data-name="Trazado 201819" d="M348.375,494.308h.028a3.736,3.736,0,0,0,3.432-2.381.356.356,0,0,0-.68-.213,3.04,3.04,0,0,1-2.808,1.885.355.355,0,0,0,.028.709" transform="translate(-6025 -815.104)" fill="#29120b"/>
    <path id="Trazado_201820" data-name="Trazado 201820" d="M364.71,494.308h.028a.355.355,0,0,0,.026-.709,3.045,3.045,0,0,1-2.809-1.885.355.355,0,0,0-.677.213,3.736,3.736,0,0,0,3.432,2.381" transform="translate(-6025 -815.104)" fill="#29120b"/>
    <path id="Trazado_201821" data-name="Trazado 201821" d="M358.663,484.306a62.607,62.607,0,0,0,9.3,2.472s.844,3.486,3.915,3.977l.008,0a23.393,23.393,0,0,0,0-7.53l1.014,2.739s.8-2.048-.329-5.672a3.378,3.378,0,0,1-1.158.573Z" transform="translate(-6025 -815.104)" fill="#29120b"/>
    <path id="Trazado_201822" data-name="Trazado 201822" d="M357.82,488.2a18.851,18.851,0,0,1-2.388-3.764l-7.887-2.127c1.261,1.719,4.085,4.266,10.275,5.891" transform="translate(-6025 -815.104)" fill="#29120b"/>
    <path id="Trazado_201823" data-name="Trazado 201823" d="M346.414,482l-4.214-1.136a3.381,3.381,0,0,1-1.219-.615c-.767,2.4-1.563,6.695.738,10.5l.05-.019c.439-.183,3.7-1.765,4.645-8.735" transform="translate(-6025 -815.104)" fill="#29120b"/>
    <path id="Trazado_201824" data-name="Trazado 201824" d="M343.965,474.32l12.845,3.463,12.844-3.463a3.362,3.362,0,0,1,1.606-.024,14.529,14.529,0,0,0-28.871-.007,3.353,3.353,0,0,1,1.576.031" transform="translate(-6025 -815.104)" fill="#29120b"/>
    <path id="Trazado_201825" data-name="Trazado 201825" d="M346.414,482l1.131.305,7.887,2.126.5.134c.063.017.126.018.189.031a3.208,3.208,0,0,0,.366.06,4.106,4.106,0,0,0,.653,0,3.366,3.366,0,0,0,.364-.059c.064-.014.127-.015.191-.032l.972-.262,12.756-3.439a3.391,3.391,0,0,0-1.766-6.548l-12.843,3.464-12.846-3.464a3.43,3.43,0,0,0-4.155,2.391,3.4,3.4,0,0,0,2.391,4.157Z" transform="translate(-6025 -815.104)" fill="#552e26"/>
    <rect id="Rectángulo_44584" data-name="Rectángulo 44584" width="26.94" height="21.005" transform="translate(-5700.176 -91.393)" fill="#a84d17"/>
    <rect id="Rectángulo_44585" data-name="Rectángulo 44585" width="26.94" height="21.005" transform="translate(-5663.114 -91.393)" fill="#a84d17"/>
    <path id="Trazado_201826" data-name="Trazado 201826" d="M321.841,764.908v15.024l-16.012,6.056a10.277,10.277,0,0,0-6.644,9.615h44.564a8.024,8.024,0,0,0,8.024-8.025v-22.67H321.841Z" transform="translate(-6025 -815.104)" fill="#29120b"/>
    <path id="Trazado_201827" data-name="Trazado 201827" d="M361.876,768.611v18.967A8.025,8.025,0,0,0,369.9,795.6h44.562a10.276,10.276,0,0,0-6.642-9.615l-16.013-6.056V764.908H361.876Z" transform="translate(-6025 -815.104)" fill="#29120b"/>
  </g>
</svg>
