<svg xmlns="http://www.w3.org/2000/svg" width="257.729" height="334.773" viewBox="0 0 257.729 334.773">
  <g id="Grupo_145722" data-name="Grupo 145722" transform="translate(9245.39 -1505.004)">
    <path id="Trazado_204846" data-name="Trazado 204846" d="M381.813,583.591l.04.067a.346.346,0,0,1-.122.472l1.085,1.836.779-4.055Z" transform="translate(-9467 1051)" fill="#fff"/>
    <path id="Trazado_204847" data-name="Trazado 204847" d="M335.556,683.682v10.392c.6-.424,1.435-.986,2.489-1.65v-8.742Z" transform="translate(-9467 1051)" fill="#fff"/>
    <path id="Trazado_204848" data-name="Trazado 204848" d="M333.067,683.682h-2.489v10.484H329.2v3.9c3.318-1.891,5.156-3.115,5.156-3.115s.361-.288,1.065-.787h-2.359Z" transform="translate(-9467 1051)" fill="#fff"/>
    <path id="Trazado_204849" data-name="Trazado 204849" d="M338.028,620.8l0-.016-.184.066.179-.05" transform="translate(-9467 1051)" fill="#fff"/>
    <path id="Trazado_204850" data-name="Trazado 204850" d="M457.963,555.38q-.65.568-1.342,1.129l1.026,1.025c.11-.764.215-1.48.316-2.154" transform="translate(-9467 1051)" fill="#063"/>
    <path id="Trazado_204851" data-name="Trazado 204851" d="M455.374,673.324c0-.011-.015-.016-.019-.027.007.2.013.4.021.6a1,1,0,0,0,0-.569" transform="translate(-9467 1051)" fill="#07381e"/>
    <path id="Trazado_204852" data-name="Trazado 204852" d="M254.823,694.452l.07.02a.606.606,0,0,0,.1.31v-.615h-.55a.694.694,0,0,0,.377.285" transform="translate(-9467 1051)" fill="#07381e"/>
    <path id="Trazado_204853" data-name="Trazado 204853" d="M381.813,583.591l1.782-1.68,1.616-8.414-8.7-8.7-3.774,3.56a.322.322,0,0,1,.137.1Z" transform="translate(-9467 1051)" fill="#a84d17"/>
    <path id="Trazado_204854" data-name="Trazado 204854" d="M248.384,565.595H224.978a3.37,3.37,0,0,0,0,6.74h24.288Z" transform="translate(-9467 1051)" fill="#f3e5ce"/>
    <path id="Trazado_204855" data-name="Trazado 204855" d="M329.206,694.166h-.026v4.753H318.013v3.653h-2.489v-3.653h-2.49v3.653h-2.489v-3.653h-2.489v3.653h-2.489v-3.653h-2.49v3.653h-.015v56.179h26.143V694.166Z" transform="translate(-9467 1051)" fill="#a84d17"/>
    <path id="Trazado_204856" data-name="Trazado 204856" d="M227.807,639.689l.028,3.58.009,1.173.017,2.227.008,1.032.043,5.618v.079l.02,2.643.009,1.235.049,6.322c-.005.048-.009.1-.014.147-.021.205-.041.412-.059.63-.059.732-.1,1.541-.123,2.4-.005.2-.01.4-.013.609q-.009.543-.007,1.112c0,.406.007.823.016,1.246.013.574.03,1.159.058,1.758l0,.072q.028.6.066,1.186c.028.438.06.866.1,1.287.041.493.087.971.136,1.437.014.13.027.263.041.39q.06.53.126,1.029c.474,3.586,1.19,6.012,1.882,5.981.164-.008.321-.17.47-.441a5.239,5.239,0,0,0,.428-1.217,18.492,18.492,0,0,0,.375-2.146c.047-.386.09-.792.126-1.223.055-.639.1-1.321.123-2.041.06.747.127,1.47.2,2.159.035.317.071.625.109.928.489,3.911,1.217,6.559,1.909,6.526.188-.009.36-.214.513-.586a6.688,6.688,0,0,0,.319-1.164,40.633,40.633,0,0,0,.48-7.382c0-.125,0-.25,0-.376.008.121.016.242.025.363.141,2.031.334,3.907.56,5.524.055.394.113.769.171,1.131.094.577.192,1.119.294,1.6.079.379.161.716.243,1.032.339,1.291.7,2.041,1.051,2.024.268-.013.5-.481.693-1.29.082-.345.156-.749.222-1.216.03-.214.06-.434.086-.671.034-.307.065-.636.093-.98.111-1.351.172-2.976.177-4.775q0-.6-.006-1.219c-.011-1.064-.042-2.177-.093-3.326,0-.1-.007-.2-.012-.3-.014-.3-.031-.591-.048-.884q.076.585.157,1.154c.267,1.872.578,3.6.909,5.095.09.4.181.785.273,1.152a22.6,22.6,0,0,0,.8,2.628,6.367,6.367,0,0,0,.5,1.049c.21.329.409.5.592.475.022,0,.04-.021.06-.029.293-.108.505-.717.633-1.714.067-.526.111-1.156.132-1.878.009-.318.014-.65.014-1,0-.076,0-.158,0-.235,0-.314-.007-.639-.017-.976-.016-.6-.043-1.237-.083-1.9-.023-.385-.051-.781-.082-1.185,0-.053-.009-.109-.014-.162-.038-.489-.084-.99-.134-1.5-.016-.157-.031-.313-.047-.472q-.064-.611-.139-1.237c-.009-.081-.018-.161-.028-.242-.017-.144-.035-.285-.053-.429-.04-.32-.079-.639-.119-.954q-.121-.946-.245-1.85c-.064-.462-.128-.916-.192-1.357-.147-1-.3-1.94-.448-2.8.1.091.207.184.31.272q.633.543,1.242,1.019c.313.244.614.468.912.683.349.253.683.483,1.006.692.269.174.533.342.78.484l.3-2.285.146-1.117c-.254-.3-.519-.6-.808-.907-.158-.17-.325-.342-.492-.514-.509-.524-1.044-1.056-1.63-1.592-.621-.569-1.232-1.083-1.831-1.566l.4-2.292.1-.579.629-3.617.215-1.235.055-.313.205-1.18.119-.68.182-1.048,1.364-7.838,1.556-8.938L248.715,616l1.344-7.719a3.313,3.313,0,0,1,.125-4.1l.33-22.3,2.755,21.056h.146l-5.987-47.64s5.7,15.261,18.832,19.391l3.8,28.249h44.319l3.8-28.249C331.3,570.558,337,555.3,337,555.3l17.573,29.752a.336.336,0,0,1,.437.069l22.518,28.349,5.284-27.5-1.084-1.835h0l-.175.047a.345.345,0,0,1-.3-.169l-8.978-15.2a.344.344,0,0,1,.122-.471l-18.538-31.385a23.769,23.769,0,0,0-14.681-10.986c-3.428-1.3-13.167-2.374-26.119-2.943q-.015,2.049-.169,4.037a2.271,2.271,0,0,1,1.763,2.21,7,7,0,0,1-3.049,6.2c-.349,1.484-.755,2.92-1.216,4.3a2.262,2.262,0,0,1,1.249,2.017c0,5.686-4.541,6.933-4.541,6.933v-1.56a30.45,30.45,0,0,1-2.374,3.529,2.256,2.256,0,0,1,.351,1.2c0,5.686-4.541,6.934-4.541,6.934v-3.975a14.383,14.383,0,0,1-8.18,3.055v6.083s-4.425-1.226-4.532-6.74a16.006,16.006,0,0,1-4.835-2.654v4.231s-4.541-1.248-4.541-6.934a2.256,2.256,0,0,1,.518-1.428,31.173,31.173,0,0,1-2.541-3.9v2.155s-4.541-1.247-4.541-6.933a2.263,2.263,0,0,1,1.545-2.141c-.418-1.264-.79-2.577-1.115-3.929a6.949,6.949,0,0,1-3.446-6.445,2.264,2.264,0,0,1,2.1-2.254q-.148-1.967-.165-3.993c-8.34.366-15.346.943-20.2,1.654a23.831,23.831,0,0,0-23.093,23.81v17.107h20.87l.882,6.74H227.514v37.4l.063,0,.063,8.215.161,20.841ZM238.275,667.6c0,.065.005.132.007.2-.006-.062-.013-.125-.02-.186l.013-.011" transform="translate(-9467 1051)" fill="#a84d17"/>
    <path id="Trazado_204857" data-name="Trazado 204857" d="M331.017,602.937h.041l5.941-47.6Z" transform="translate(-9467 1051)" fill="#a84d17"/>
    <path id="Trazado_204858" data-name="Trazado 204858" d="M273.412,529.271v6.934s-.12-.036-.307-.109c.295,1.178.632,2.318,1,3.425.018,0,.034-.005.052-.005a2.27,2.27,0,0,1,2.27,2.27v3.347a31.465,31.465,0,0,0,3.028,4.872,2.27,2.27,0,0,1,3.536,1.885v1.847a15.669,15.669,0,0,0,4.887,2.81,2.268,2.268,0,0,1,4.48.505v.163a13.935,13.935,0,0,0,8.181-3.209V551.89a2.259,2.259,0,0,1,3.746-1.713A30.667,30.667,0,0,0,307.1,545.8v-4.01a2.238,2.238,0,0,1,2.65-2.232c.389-1.168.742-2.375,1.051-3.622a4.756,4.756,0,0,1-.686.273v-6.934a2.263,2.263,0,0,1,2.092-2.253c.1-1.32.158-2.661.167-4.022-2.914-.123-5.985-.22-9.179-.289v-5.154C285.877,527,280.22,509.4,280.22,509.4v13.317c-3.033.068-5.95.163-8.728.28q.014,2.066.17,4.069a2.27,2.27,0,0,1,1.75,2.206" transform="translate(-9467 1051)" fill="#a84d17"/>
    <path id="Trazado_204859" data-name="Trazado 204859" d="M303.2,517.553V505.071c-2.678,4.689-6.73,7.678-11.264,7.678-4.59,0-8.681-3.069-11.358-7.859h-.357V509.4s5.658,17.6,22.979,8.154" transform="translate(-9467 1051)" fill="#8d3914"/>
    <path id="Trazado_204860" data-name="Trazado 204860" d="M277.841,500.943c-1.133.394-2.721-1.215-3.545-3.594s-.573-4.624.56-5.017c.776-.269,1.759.412,2.569,1.622-.058-.764-.093-1.538-.093-2.325,0-.146.005-.283.006-.427a3.359,3.359,0,0,0-3.2-.9c-2.053.711-2.729,4.137-1.511,7.652s3.87,5.788,5.923,5.076a2.428,2.428,0,0,0,.865-.563c-.307-.741-.589-1.5-.833-2.3a1.36,1.36,0,0,1-.746.772" transform="translate(-9467 1051)" fill="#8d3914"/>
    <path id="Trazado_204861" data-name="Trazado 204861" d="M274.856,492.332c-1.133.393-1.384,2.639-.56,5.017s2.412,3.988,3.545,3.594a1.363,1.363,0,0,0,.746-.772,28.594,28.594,0,0,1-1.162-6.217c-.81-1.209-1.794-1.891-2.569-1.622" transform="translate(-9467 1051)" fill="#29120b"/>
    <path id="Trazado_204862" data-name="Trazado 204862" d="M306.445,493.954c.81-1.21,1.793-1.891,2.568-1.622,1.134.393,1.385,2.639.561,5.017s-2.412,3.987-3.545,3.594a1.36,1.36,0,0,1-.746-.772c-.244.8-.526,1.56-.833,2.3a2.427,2.427,0,0,0,.865.563c2.053.712,4.7-1.561,5.923-5.076s.542-6.941-1.51-7.652a3.365,3.365,0,0,0-3.2.9c0,.146.011.277.011.424,0,.787-.035,1.561-.093,2.325" transform="translate(-9467 1051)" fill="#8d3914"/>
    <path id="Trazado_204863" data-name="Trazado 204863" d="M306.028,500.943c1.134.394,2.721-1.215,3.545-3.594s.574-4.624-.56-5.017c-.775-.269-1.758.412-2.569,1.622a28.591,28.591,0,0,1-1.161,6.217,1.358,1.358,0,0,0,.745.772" transform="translate(-9467 1051)" fill="#29120b"/>
    <path id="Trazado_204864" data-name="Trazado 204864" d="M289.465,475.809h.007l0-.023,0,.023" transform="translate(-9467 1051)" fill="#a84d17"/>
    <path id="Trazado_204865" data-name="Trazado 204865" d="M282.274,477.02l.012,0c0-.013-.009-.024-.013-.036,0,.013,0,.026,0,.039" transform="translate(-9467 1051)" fill="#a84d17"/>
    <path id="Trazado_204866" data-name="Trazado 204866" d="M291.935,512.748c4.534,0,8.585-2.989,11.263-7.678a22.957,22.957,0,0,0,1.251-2.6c.308-.74.59-1.5.834-2.3a28.6,28.6,0,0,0,1.161-6.217c.058-.764.093-1.538.093-2.325,0-.147-.01-.278-.011-.424a44.328,44.328,0,0,0-.538-6.838,2.7,2.7,0,0,1-.985-.237,30.731,30.731,0,0,0-25.983-.067,2.73,2.73,0,0,1-1.2.308,48.543,48.543,0,0,0-.48,6.831c0,.144-.005.281-.005.427,0,.787.035,1.561.093,2.325a28.606,28.606,0,0,0,1.161,6.217c.244.8.526,1.559.834,2.3q.37.894.8,1.728v.69h.357c2.676,4.79,6.767,7.859,11.358,7.859m6.156-24.461c.4,0,.722.644.722,1.437s-.323,1.438-.722,1.438-.723-.643-.723-1.438.323-1.437.723-1.437m-1.616,3.58a.343.343,0,0,1,.431.224,2.955,2.955,0,0,0,2.722,1.826.344.344,0,0,1-.025.687h-.026a3.621,3.621,0,0,1-3.327-2.3.344.344,0,0,1,.225-.431m-5.6-.611a1.148,1.148,0,0,1,2.169-.192c.818,2.142-.216,7.035-1.909,7.175-1.848.155-.8-4.82-.26-6.983m-2.96,11.643a13.079,13.079,0,0,0,2.027.5l.032.005.251.026c.149.014.3.025.447.034.348.018.7.023,1.045.013s.7-.039,1.043-.076l.059-.005.075-.016c.2-.038.392-.069.587-.112a12.209,12.209,0,0,0,1.994-.62,1.739,1.739,0,0,1,2.117,1.2,1.766,1.766,0,0,1-1.2,2.117,13.712,13.712,0,0,1-9.39.249,1.762,1.762,0,0,1-1.2-2.117,1.733,1.733,0,0,1,2.117-1.2m-2.658-14.612c.4,0,.723.644.723,1.437s-.324,1.438-.723,1.438-.724-.643-.724-1.438.324-1.437.724-1.437m-1.538,5.63a2.969,2.969,0,0,0,2.721-1.824.344.344,0,1,1,.657.205,3.619,3.619,0,0,1-3.326,2.3h-.026a.344.344,0,0,1-.026-.687" transform="translate(-9467 1051)" fill="#a84d17"/>
    <path id="Trazado_204867" data-name="Trazado 204867" d="M291.137,498.24c1.692-.141,2.727-5.033,1.909-7.175a1.148,1.148,0,0,0-2.169.192c-.541,2.163-1.589,7.137.26,6.983" transform="translate(-9467 1051)" fill="#8d3914"/>
    <path id="Trazado_204868" data-name="Trazado 204868" d="M285.258,491.163c.4,0,.723-.644.723-1.438s-.324-1.437-.723-1.437-.724.643-.724,1.437.324,1.438.724,1.438" transform="translate(-9467 1051)" fill="#29120b"/>
    <path id="Trazado_204869" data-name="Trazado 204869" d="M298.091,491.163c.4,0,.723-.644.723-1.438s-.324-1.437-.723-1.437-.723.643-.723,1.437.324,1.438.723,1.438" transform="translate(-9467 1051)" fill="#29120b"/>
    <path id="Trazado_204870" data-name="Trazado 204870" d="M285.8,504.1a1.763,1.763,0,0,0,1.2,2.117,13.7,13.7,0,0,0,9.389-.249,1.766,1.766,0,0,0,1.2-2.117,1.738,1.738,0,0,0-2.116-1.2,12.292,12.292,0,0,1-1.995.621c-.2.042-.391.073-.586.112l-.076.016-.058.005c-.348.036-.694.066-1.043.076s-.7,0-1.046-.014c-.148-.009-.3-.02-.447-.034l-.251-.026-.032-.005a12.88,12.88,0,0,1-2.027-.5,1.735,1.735,0,0,0-2.117,1.2m1.435.309c.048.011,4.8,1.179,8.576-.518a.343.343,0,1,1,.282.626,12.649,12.649,0,0,1-5.145.992,17.175,17.175,0,0,1-3.881-.434.343.343,0,1,1,.168-.666" transform="translate(-9467 1051)" fill="#8d3914"/>
    <path id="Trazado_204871" data-name="Trazado 204871" d="M287.066,505.076a17.208,17.208,0,0,0,3.881.433,12.647,12.647,0,0,0,5.145-.991.343.343,0,1,0-.282-.626c-3.774,1.7-8.528.529-8.576.518a.343.343,0,1,0-.168.666" transform="translate(-9467 1051)" fill="#29120b"/>
    <path id="Trazado_204872" data-name="Trazado 204872" d="M283.746,494.605h.026a3.618,3.618,0,0,0,3.326-2.3.344.344,0,0,0-.657-.206,2.969,2.969,0,0,1-2.721,1.825.344.344,0,0,0,.026.687" transform="translate(-9467 1051)" fill="#29120b"/>
    <path id="Trazado_204873" data-name="Trazado 204873" d="M299.577,494.6h.026a.344.344,0,0,0,.026-.687,2.952,2.952,0,0,1-2.722-1.826.344.344,0,0,0-.657.207,3.621,3.621,0,0,0,3.327,2.3" transform="translate(-9467 1051)" fill="#29120b"/>
    <path id="Trazado_204874" data-name="Trazado 204874" d="M337,555.336,337,555.3s-5.7,15.261-18.832,19.391l-3.8,28.249h16.641Z" transform="translate(-9467 1051)" fill="#8d3914"/>
    <path id="Trazado_204875" data-name="Trazado 204875" d="M266.26,574.688c-13.128-4.131-18.832-19.391-18.832-19.391l5.987,47.64h16.641Z" transform="translate(-9467 1051)" fill="#8d3914"/>
    <rect id="Rectángulo_44794" data-name="Rectángulo 44794" width="2.489" height="6.833" transform="translate(-9193.793 1743.087)" fill="#8d3914"/>
    <rect id="Rectángulo_44795" data-name="Rectángulo 44795" width="2.489" height="6.833" transform="translate(-9198.772 1743.087)" fill="#8d3914"/>
    <rect id="Rectángulo_44796" data-name="Rectángulo 44796" width="2.489" height="6.833" transform="translate(-9188.815 1743.087)" fill="#8d3914"/>
    <path id="Trazado_204876" data-name="Trazado 204876" d="M263.249,694.166V683.682H260.76v10.484h-2.49V683.682h-2.489v10.484h-.759v4.753h10.716v-4.753Z" transform="translate(-9467 1051)" fill="#8d3914"/>
    <rect id="Rectángulo_44797" data-name="Rectángulo 44797" width="2.489" height="6.833" transform="translate(-9163.922 1743.087)" fill="#8d3914"/>
    <rect id="Rectángulo_44798" data-name="Rectángulo 44798" width="2.489" height="6.833" transform="translate(-9158.944 1743.087)" fill="#8d3914"/>
    <rect id="Rectángulo_44799" data-name="Rectángulo 44799" width="2.489" height="6.833" transform="translate(-9153.965 1743.087)" fill="#8d3914"/>
    <path id="Trazado_204877" data-name="Trazado 204877" d="M328.088,683.682H325.6v10.484h-2.49V683.682H320.62v10.484h-2.489v-2.08h-.118v6.833h11.166v-4.753h-1.091Z" transform="translate(-9467 1051)" fill="#8d3914"/>
    <path id="Trazado_204878" data-name="Trazado 204878" d="M244.884,671.811l-.016.125-.164,1.252-.874,6.7-.105.8-.39,2.989h22.4V660.038l-6.392,6.393-6.311-6.312-6.311,6.312-1.007-1.006-.3,2.284-.2,1.5Z" transform="translate(-9467 1051)" fill="#eec893"/>
    <path id="Trazado_204879" data-name="Trazado 204879" d="M268.228,692.087h49.9V660.039l-8.806,8.806-8.7-8.7-8.695,8.7-8.7-8.7-8.7,8.7-8.806-8.806v32.048Z" transform="translate(-9467 1051)" fill="#f3e5ce"/>
    <path id="Trazado_204880" data-name="Trazado 204880" d="M283.24,659.927l8.695-8.7,8.7,8.7,8.7-8.7,8.806,8.806V609.677H265.739v50.361l8.806-8.806Z" transform="translate(-9467 1051)" fill="#f3e5ce"/>
    <path id="Trazado_204881" data-name="Trazado 204881" d="M252.777,609.677h.217l-1.049,8.036-2.561,19.621-.129.987-.833,6.386-.159,1.215-.648,4.971L246.243,661.4l.951-7.285,5.841,5.84,6.311-6.311,6.393,6.392V609.677h52.392v50.361l6.392-6.392,6.312,6.311,6.245-6.245,1.322,11.463-1.256,1.257-6.311-6.313-6.312,6.313-6.392-6.394v23.645h22.5L334.8,633.039c-4.349,1.264-7.653,1.7-7.916.947-.245-.7,2.246-2.383,5.986-4.054-5.3,1.661-9.462,2.35-9.746,1.534s3.278-2.8,8.323-4.765c-6.32,2.074-11.4,3.051-11.7,2.189-.33-.942,5.2-3.73,12.348-6.227.283-.1.56-.192.839-.287-6.383,1.666-11.673,2.263-11.925,1.324-.258-.966,4.9-3.185,11.519-4.957l.606-.161L332.1,609.66a3.363,3.363,0,0,0-.167-6.723H252.777a3.37,3.37,0,0,0,0,6.74" transform="translate(-9467 1051)" fill="#eec893"/>
    <path id="Trazado_204882" data-name="Trazado 204882" d="M345.607,628.817l15.565-6.181-13.531-9.57c-.038-.027-.046-.072-.069-.11l-3.4,2.191c-.638-.352-1.315-.7-2.029-1.045-4.245-2.031-8.035-2.945-8.466-2.043-.4.842,2.269,2.971,6.082,4.9-1.918.407-4.2.975-6.631,1.619l-.606.161c-6.621,1.772-11.777,3.991-11.519,4.958.252.939,5.541.342,11.924-1.324-.278.094-.556.188-.838.286-7.15,2.5-12.678,5.285-12.348,6.228.3.861,5.381-.116,11.7-2.19-5.045,1.969-8.6,3.964-8.323,4.765s4.446.128,9.747-1.533c-3.741,1.67-6.232,3.352-5.987,4.054.263.754,3.567.316,7.916-.947,1.1-.319,2.254-.687,3.451-1.1a54.786,54.786,0,0,0,7.36-3.118m-7.579-8.018-.179.05.184-.066,0,.016" transform="translate(-9467 1051)" fill="#a84d17"/>
    <path id="Trazado_204883" data-name="Trazado 204883" d="M245.824,688.907v-5.224h-2.489v10.484h2.489v-5.26Z" transform="translate(-9467 1051)" fill="#f29100"/>
    <path id="Trazado_204884" data-name="Trazado 204884" d="M250.361,694.166h.441V683.682h-2.489v10.484h2.048Z" transform="translate(-9467 1051)" fill="#f29100"/>
    <path id="Trazado_204885" data-name="Trazado 204885" d="M255.781,683.682h-2.489v10.484h2.489Z" transform="translate(-9467 1051)" fill="#f29100"/>
    <rect id="Rectángulo_44800" data-name="Rectángulo 44800" width="2.489" height="10.484" transform="translate(-9208.729 1734.682)" fill="#f29100"/>
    <path id="Trazado_204886" data-name="Trazado 204886" d="M265.739,694.166V683.682H263.25v10.484Z" transform="translate(-9467 1051)" fill="#f29100"/>
    <path id="Trazado_204887" data-name="Trazado 204887" d="M265.739,692.087v10.485h2.489V692.087Z" transform="translate(-9467 1051)" fill="#f8b133"/>
    <path id="Trazado_204888" data-name="Trazado 204888" d="M270.717,692.087v10.485h2.489V692.087Z" transform="translate(-9467 1051)" fill="#f8b133"/>
    <path id="Trazado_204889" data-name="Trazado 204889" d="M275.7,692.087v10.485h2.49V692.087Z" transform="translate(-9467 1051)" fill="#f8b133"/>
    <path id="Trazado_204890" data-name="Trazado 204890" d="M283.163,692.087h-2.489v10.485h2.489Z" transform="translate(-9467 1051)" fill="#f8b133"/>
    <rect id="Rectángulo_44801" data-name="Rectángulo 44801" width="2.489" height="10.485" transform="translate(-9181.347 1743.087)" fill="#f8b133"/>
    <rect id="Rectángulo_44802" data-name="Rectángulo 44802" width="2.489" height="10.485" transform="translate(-9210.134 1809.752)" fill="#f8b133"/>
    <rect id="Rectángulo_44803" data-name="Rectángulo 44803" width="2.49" height="10.485" transform="translate(-9205.156 1809.752)" fill="#f8b133"/>
    <rect id="Rectángulo_44804" data-name="Rectángulo 44804" width="2.489" height="10.485" transform="translate(-9200.177 1809.752)" fill="#f8b133"/>
    <rect id="Rectángulo_44805" data-name="Rectángulo 44805" width="2.489" height="10.485" transform="translate(-9195.199 1809.752)" fill="#f8b133"/>
    <rect id="Rectángulo_44806" data-name="Rectángulo 44806" width="2.489" height="10.485" transform="translate(-9190.22 1809.752)" fill="#f8b133"/>
    <rect id="Rectángulo_44807" data-name="Rectángulo 44807" width="2.489" height="10.485" transform="translate(-9162.068 1809.752)" fill="#f8b133"/>
    <rect id="Rectángulo_44808" data-name="Rectángulo 44808" width="2.489" height="10.485" transform="translate(-9157.089 1809.752)" fill="#f8b133"/>
    <rect id="Rectángulo_44809" data-name="Rectángulo 44809" width="2.489" height="10.485" transform="translate(-9152.11 1809.752)" fill="#f8b133"/>
    <rect id="Rectángulo_44810" data-name="Rectángulo 44810" width="2.489" height="10.485" transform="translate(-9147.132 1809.752)" fill="#f8b133"/>
    <rect id="Rectángulo_44811" data-name="Rectángulo 44811" width="2.489" height="10.485" transform="translate(-9142.153 1809.752)" fill="#f8b133"/>
    <rect id="Rectángulo_44812" data-name="Rectángulo 44812" width="2.489" height="10.485" transform="translate(-9176.369 1743.087)" fill="#f8b133"/>
    <rect id="Rectángulo_44813" data-name="Rectángulo 44813" width="2.489" height="10.485" transform="translate(-9171.39 1743.087)" fill="#f8b133"/>
    <path id="Trazado_204891" data-name="Trazado 204891" d="M300.588,692.087v10.485h2.489V692.087Z" transform="translate(-9467 1051)" fill="#f8b133"/>
    <path id="Trazado_204892" data-name="Trazado 204892" d="M305.567,692.087v10.485h2.489V692.087Z" transform="translate(-9467 1051)" fill="#f8b133"/>
    <path id="Trazado_204893" data-name="Trazado 204893" d="M310.546,692.087v10.485h2.489V692.087Z" transform="translate(-9467 1051)" fill="#f8b133"/>
    <path id="Trazado_204894" data-name="Trazado 204894" d="M315.524,692.087v10.485h2.489V692.087Z" transform="translate(-9467 1051)" fill="#f8b133"/>
    <path id="Trazado_204895" data-name="Trazado 204895" d="M318.131,694.166h2.489V683.682h-2.489v10.484Z" transform="translate(-9467 1051)" fill="#f29100"/>
    <rect id="Rectángulo_44814" data-name="Rectángulo 44814" width="2.489" height="10.484" transform="translate(-9143.89 1734.682)" fill="#f29100"/>
    <path id="Trazado_204896" data-name="Trazado 204896" d="M330.578,683.682h-2.489v10.484h2.489Z" transform="translate(-9467 1051)" fill="#f29100"/>
    <path id="Trazado_204897" data-name="Trazado 204897" d="M333.067,683.682v10.484h2.489V683.682Z" transform="translate(-9467 1051)" fill="#f29100"/>
    <path id="Trazado_204898" data-name="Trazado 204898" d="M338.046,683.682v10.484h2.489V683.682Z" transform="translate(-9467 1051)" fill="#f29100"/>
    <path id="Trazado_204899" data-name="Trazado 204899" d="M283.24,660.15l8.695,8.7,8.7-8.7,8.7,8.7,8.806-8.806-8.806-8.807-8.7,8.7-8.7-8.7-8.695,8.7-8.7-8.7-8.806,8.807,8.806,8.806Z" transform="translate(-9467 1051)" fill="#eec893"/>
    <path id="Trazado_204900" data-name="Trazado 204900" d="M330.835,660.119l6.311,6.312,1.256-1.256-1.321-11.463-6.246,6.245-6.312-6.311-6.392,6.392,6.392,6.393Z" transform="translate(-9467 1051)" fill="#c89a61"/>
    <path id="Trazado_204901" data-name="Trazado 204901" d="M253.035,660.119l6.311,6.312,6.393-6.393-6.393-6.392-6.311,6.311-5.841-5.84-.951,7.284-.337,2.579-.042.328-.146,1.117,1.006,1.006Z" transform="translate(-9467 1051)" fill="#c89a61"/>
    <path id="Trazado_204902" data-name="Trazado 204902" d="M287.878,556.546a15.666,15.666,0,0,1-4.887-2.809v.855a16,16,0,0,0,4.836,2.654c0-.067-.01-.126-.01-.195a2.274,2.274,0,0,1,.061-.505" transform="translate(-9467 1051)" fill="#29120b"/>
    <path id="Trazado_204903" data-name="Trazado 204903" d="M292.358,557.215v.689a14.386,14.386,0,0,0,8.181-3.055v-.843a13.943,13.943,0,0,1-8.181,3.209" transform="translate(-9467 1051)" fill="#29120b"/>
    <path id="Trazado_204904" data-name="Trazado 204904" d="M276.427,545.133v1.431a31.492,31.492,0,0,0,2.541,3.9,2.275,2.275,0,0,1,.487-.458,31.515,31.515,0,0,1-3.028-4.872" transform="translate(-9467 1051)" fill="#29120b"/>
    <path id="Trazado_204905" data-name="Trazado 204905" d="M273.105,536.1a6.082,6.082,0,0,1-.788-.38q.488,2.029,1.115,3.929a2.271,2.271,0,0,1,.673-.124c-.368-1.107-.705-2.247-1-3.425" transform="translate(-9467 1051)" fill="#29120b"/>
    <path id="Trazado_204906" data-name="Trazado 204906" d="M304.285,550.177a2.28,2.28,0,0,1,.444.511,30.578,30.578,0,0,0,2.374-3.529V545.8a30.722,30.722,0,0,1-2.818,4.381" transform="translate(-9467 1051)" fill="#29120b"/>
    <path id="Trazado_204907" data-name="Trazado 204907" d="M309.753,539.554a2.271,2.271,0,0,1,.642.215c.461-1.378.866-2.814,1.215-4.3a6.881,6.881,0,0,1-.806.461c-.309,1.247-.662,2.454-1.051,3.622" transform="translate(-9467 1051)" fill="#29120b"/>
    <path id="Trazado_204908" data-name="Trazado 204908" d="M271.142,527a2.225,2.225,0,0,1,.52.066q-.153-2-.17-4.07c0-.137-.006-.273-.006-.411a.344.344,0,0,0-.688,0c0,.148.005.293.006.44q.015,2.025.166,3.992c.058,0,.113-.017.172-.017" transform="translate(-9467 1051)" fill="#29120b"/>
    <path id="Trazado_204909" data-name="Trazado 204909" d="M312.389,527a2.245,2.245,0,0,1,.508.062q.151-1.987.169-4.037c0-.147.007-.292.007-.44a.345.345,0,0,0-.689,0c0,.138-.005.274-.006.411q-.015,2.042-.167,4.022c.06-.005.117-.018.178-.018" transform="translate(-9467 1051)" fill="#29120b"/>
    <path id="Trazado_204910" data-name="Trazado 204910" d="M292.358,557.051a2.271,2.271,0,0,0-4.541,0c0,.068.008.128.01.195.106,5.514,4.531,6.74,4.531,6.74v-6.935Z" transform="translate(-9467 1051)" fill="#f3e5ce"/>
    <path id="Trazado_204911" data-name="Trazado 204911" d="M282.991,551.89a2.27,2.27,0,0,0-3.536-1.885,2.3,2.3,0,0,0-.487.457,2.257,2.257,0,0,0-.517,1.428c0,5.686,4.54,6.934,4.54,6.934V551.89Z" transform="translate(-9467 1051)" fill="#f3e5ce"/>
    <path id="Trazado_204912" data-name="Trazado 204912" d="M276.427,541.786a2.27,2.27,0,0,0-2.27-2.27c-.018,0-.035.005-.053.005a2.292,2.292,0,0,0-2.218,2.265c0,5.686,4.541,6.934,4.541,6.934v-6.934Z" transform="translate(-9467 1051)" fill="#f3e5ce"/>
    <path id="Trazado_204913" data-name="Trazado 204913" d="M273.412,536.2V529.27a2.268,2.268,0,0,0-1.75-2.205,2.232,2.232,0,0,0-.52-.066c-.059,0-.114.013-.172.017a2.265,2.265,0,0,0-2.1,2.254,6.948,6.948,0,0,0,3.446,6.446,6.051,6.051,0,0,0,.788.379c.187.074.307.109.307.109" transform="translate(-9467 1051)" fill="#f3e5ce"/>
    <path id="Trazado_204914" data-name="Trazado 204914" d="M302.809,549.618a2.27,2.27,0,0,0-2.27,2.271v6.934s4.54-1.248,4.54-6.934a2.3,2.3,0,0,0-2.27-2.271" transform="translate(-9467 1051)" fill="#f3e5ce"/>
    <path id="Trazado_204915" data-name="Trazado 204915" d="M309.373,539.516a2.27,2.27,0,0,0-2.27,2.27v6.934s4.54-1.248,4.54-6.934a2.31,2.31,0,0,0-2.27-2.27" transform="translate(-9467 1051)" fill="#f3e5ce"/>
    <path id="Trazado_204916" data-name="Trazado 204916" d="M312.211,527.017a2.264,2.264,0,0,0-2.093,2.253V536.2a4.772,4.772,0,0,0,.685-.273,6.541,6.541,0,0,0,.808-.461,7,7,0,0,0,3.048-6.2,2.269,2.269,0,0,0-1.763-2.209,2.238,2.238,0,0,0-.508-.062c-.061,0-.117.013-.177.018" transform="translate(-9467 1051)" fill="#f3e5ce"/>
    <path id="Trazado_204917" data-name="Trazado 204917" d="M278.7,478.191a52.035,52.035,0,0,1-2.438-8.82c-.365-1.882-.63-3.68-.8-5.319-1.562-3.91-3.165-6.428-4.105-6.159-1.347.386-.82,6.35,1.177,13.319a52.085,52.085,0,0,0,3.189,8.548,2.708,2.708,0,0,1,.7-.553,22.383,22.383,0,0,1,2.279-1.016" transform="translate(-9467 1051)" fill="#93c01f"/>
    <path id="Trazado_204918" data-name="Trazado 204918" d="M278.7,478.191a34.935,34.935,0,0,1,3.571-1.171c0-.013,0-.026,0-.039a50.8,50.8,0,0,1-1.957-9.248c-.225-1.768-.371-3.462-.443-5.015-1.229-4.155-2.637-6.907-3.614-6.718-1.012.2-1.275,3.492-.8,8.052.172,1.639.437,3.437.8,5.319a52.035,52.035,0,0,0,2.438,8.82" transform="translate(-9467 1051)" fill="#39a935"/>
    <path id="Trazado_204919" data-name="Trazado 204919" d="M282.273,476.981a.379.379,0,0,0,.013.036c.955-.258,2.013-.5,3.156-.706A47.879,47.879,0,0,1,284,467.338a52.205,52.205,0,0,1-.05-7.62c-.885-3.319-1.922-5.437-2.778-5.328-1.049.133-1.524,3.565-1.3,8.328.072,1.553.218,3.247.444,5.015a50.731,50.731,0,0,0,1.956,9.248" transform="translate(-9467 1051)" fill="#93c01f"/>
    <path id="Trazado_204920" data-name="Trazado 204920" d="M284,467.338a47.962,47.962,0,0,0,1.438,8.973,37.359,37.359,0,0,1,4.024-.5l0-.023a49.214,49.214,0,0,1-.691-8.653c0-1.768.075-3.452.208-4.992-.765-4.823-2.019-8.188-3.188-8.1-.931.069-1.589,2.31-1.843,5.678a52.348,52.348,0,0,0,.05,7.62" transform="translate(-9467 1051)" fill="#39a935"/>
    <path id="Trazado_204921" data-name="Trazado 204921" d="M304.486,477.96c.936.345,1.881.732,2.835,1.174a2.814,2.814,0,0,1,.31.184,55.6,55.6,0,0,0,2.756-7.64c2-6.97,2.525-12.933,1.177-13.319-.939-.269-2.542,2.249-4.1,6.16-.172,1.638-.437,3.436-.8,5.318a54.711,54.711,0,0,1-2.171,8.123" transform="translate(-9467 1051)" fill="#93c01f"/>
    <path id="Trazado_204922" data-name="Trazado 204922" d="M300.846,476.832a36.586,36.586,0,0,1,3.64,1.128,54.588,54.588,0,0,0,2.171-8.123c.365-1.882.63-3.679.8-5.318.479-4.56.216-7.856-.8-8.052-.977-.19-2.385,2.562-3.614,6.716-.072,1.554-.218,3.248-.444,5.017a53.148,53.148,0,0,1-1.76,8.632" transform="translate(-9467 1051)" fill="#39a935"/>
    <path id="Trazado_204923" data-name="Trazado 204923" d="M298.919,467.8a49.857,49.857,0,0,1-1.275,8.367q1.569.249,3.2.66a53.148,53.148,0,0,0,1.76-8.632c.226-1.769.371-3.463.444-5.017.221-4.762-.255-8.193-1.3-8.326-.856-.109-1.893,2.009-2.778,5.327a52.366,52.366,0,0,1-.05,7.621" transform="translate(-9467 1051)" fill="#93c01f"/>
    <path id="Trazado_204924" data-name="Trazado 204924" d="M293.638,475.763a36.008,36.008,0,0,1,4.007.409,49.863,49.863,0,0,0,1.274-8.367,52.223,52.223,0,0,0,.05-7.621c-.254-3.368-.913-5.608-1.843-5.677-1.1-.082-2.273,2.891-3.045,7.255.155,1.64.243,3.455.243,5.371a49.338,49.338,0,0,1-.686,8.63" transform="translate(-9467 1051)" fill="#39a935"/>
    <path id="Trazado_204925" data-name="Trazado 204925" d="M289.468,475.786l0,.023a36.5,36.5,0,0,1,4.165-.046,49.22,49.22,0,0,0,.688-8.63c0-1.916-.089-3.73-.245-5.371-.434-4.571-1.4-7.758-2.529-7.758-1.159,0-2.151,3.363-2.566,8.137-.134,1.54-.209,3.224-.209,4.992a49.2,49.2,0,0,0,.692,8.653" transform="translate(-9467 1051)" fill="#93c01f"/>
    <path id="Trazado_204926" data-name="Trazado 204926" d="M305,484.131a2.712,2.712,0,0,0,.984.237c.059,0,.115.018.172.018a2.745,2.745,0,0,0,1.472-5.067,3.009,3.009,0,0,0-.31-.184c-.955-.442-1.9-.829-2.836-1.174a36.35,36.35,0,0,0-3.641-1.129q-1.631-.414-3.2-.66a36.025,36.025,0,0,0-4.008-.409,36.712,36.712,0,0,0-4.164.046h-.008a37.045,37.045,0,0,0-4.022.5c-1.144.2-2.2.448-3.158.706l-.012,0a34.989,34.989,0,0,0-3.57,1.171,22.853,22.853,0,0,0-2.28,1.016,2.7,2.7,0,0,0-.7.553,2.753,2.753,0,0,0,3.3,4.3,30.726,30.726,0,0,1,25.983.067" transform="translate(-9467 1051)" fill="#c89a61"/>
    <path id="Trazado_204927" data-name="Trazado 204927" d="M406.682,496.388l.014,0-.015-.04c0,.015,0,.029,0,.044" transform="translate(-9467 1051)"/>
    <path id="Trazado_204928" data-name="Trazado 204928" d="M414.685,495.041h.009l-.006-.028,0,.028" transform="translate(-9467 1051)"/>
    <path id="Trazado_204929" data-name="Trazado 204929" d="M431.978,504.3c-1.039-.482-2.068-.895-3.083-1.256,1.49,3.144,2.368,7.457,2.411,13.229a3.362,3.362,0,0,1,3.2-.9c2.053.711,2.73,4.137,1.51,7.652s-3.869,5.788-5.922,5.077a2.419,2.419,0,0,1-.866-.563,20.643,20.643,0,0,1-3.6,5.854v10.361a63.474,63.474,0,0,1,12.1,2.39c0-.113.005-.225.005-.338a.343.343,0,1,1,.687,0c0,.183-.006.364-.008.546a48.162,48.162,0,0,1,4.942,1.884l2.47-2.524,10.8,10.795q.691-.559,1.342-1.128a44.874,44.874,0,0,0,4.006-3.98c.474-.534.922-1.066,1.349-1.595a43.586,43.586,0,0,0,4.4-6.594,12.555,12.555,0,0,0-2.564-15.459,7.157,7.157,0,0,0-5.06-1.981c-6.592.355-11.6-2.481-12.832-8.624s-3.515-10.986-9.4-11.694a8.093,8.093,0,0,1-3.313-1.181,2.911,2.911,0,0,1-2.572.029" transform="translate(-9467 1051)"/>
    <path id="Trazado_204930" data-name="Trazado 204930" d="M386.05,549.16a.344.344,0,0,1,.487,0l1.826-1.826,2.119,2.167a44.428,44.428,0,0,1,6.717-2.874c0-.273-.012-.545-.012-.819a.344.344,0,1,1,.688,0c0,.2.007.392.009.588a60.584,60.584,0,0,1,9.459-2.2V532.886a21.1,21.1,0,0,1-3.143-5.345,2.437,2.437,0,0,1-.866.563c-2.053.711-4.7-1.562-5.922-5.077s-.543-6.942,1.51-7.653a3.363,3.363,0,0,1,3.2.9c.035-5.407.735-9.477,1.934-12.511-.565.248-.91.425-.989.466a3.058,3.058,0,0,1-2.735.056,8.066,8.066,0,0,1-3.3,1.172c-5.887.709-8.172,5.552-9.4,11.7s-6.24,8.978-12.83,8.623a7.164,7.164,0,0,0-5.062,1.981,12.557,12.557,0,0,0-2.564,15.459,44.369,44.369,0,0,0,11.615,13.7l7.266-7.265a.343.343,0,0,1,0-.487" transform="translate(-9467 1051)"/>
    <path id="Trazado_204931" data-name="Trazado 204931" d="M413.775,765.675v-43.4H387.667V701.916h-.035v63.763c.014,0,.027,0,.041,0Z" transform="translate(-9467 1051)" fill="#a84d17"/>
    <path id="Trazado_204932" data-name="Trazado 204932" d="M422.357,703.951v58.4l-.027-.01v3.508a3.319,3.319,0,0,1,1.021-.175h23.921a3.34,3.34,0,0,1,1.228.239v-64h-.017v20.355H422.374V701.916h-.017v2.035Z" transform="translate(-9467 1051)" fill="#a84d17"/>
    <path id="Trazado_204933" data-name="Trazado 204933" d="M413.775,722.271V701.916H387.667v20.355Z" transform="translate(-9467 1051)" fill="#8d3914"/>
    <rect id="Rectángulo_44815" data-name="Rectángulo 44815" width="26.108" height="20.355" transform="translate(-9044.625 1752.916)" fill="#8d3914"/>
    <path id="Trazado_204934" data-name="Trazado 204934" d="M472,786.612a9.952,9.952,0,0,0-4.858-6.785c-.063-.036-.134-.058-.2-.092a9.651,9.651,0,0,0-1.181-.554l-1.935-.751-3.45-1.337-3.223-1.25-.508-.2-1.076-.417-1.964-.761-5.107-1.98v-.313a3.34,3.34,0,0,1-1.228.239H423.35a3.324,3.324,0,0,1-1.021-.175v8.483c-.134,3.109.971,5.513,2.984,6.781h46.812c-.015-.141-.013-.285-.033-.424-.023-.159-.062-.311-.092-.467" transform="translate(-9467 1051)" fill="#a84d17"/>
    <path id="Trazado_204935" data-name="Trazado 204935" d="M413.775,780.624v-8.21h-26.1a3.371,3.371,0,0,1-.624-.063l-17.8,6.731a9.943,9.943,0,0,0-6.369,8.421h46.74a7.772,7.772,0,0,0,4.155-6.879" transform="translate(-9467 1051)" fill="#a84d17"/>
    <path id="Trazado_204936" data-name="Trazado 204936" d="M379.651,662.486l.292,1.473-.183-.923Z" transform="translate(-9467 1051)" fill="#eec893"/>
    <path id="Trazado_204937" data-name="Trazado 204937" d="M457.09,660.11l.8-4.417.887-4.919.225-1.25.364-2.019.019-.1a3.346,3.346,0,0,1,.438-6.175l-.527-1.981H427.3a.325.325,0,0,1-.216.327l-.1.016a.343.343,0,0,1-.327-.24l-.033-.1H407.576l-.03.1a.345.345,0,0,1-.33.244l-.1-.013a.329.329,0,0,1-.22-.33h-1.455c1.937,1.542,3.007,2.708,2.752,3.134-.4.666-3.926-.677-8.526-3.134h-.44c3.382,2.37,5.5,4.359,5.137,4.972-.444.741-4.378-.776-9.233-3.475,3.324,2.393,5.422,4.544,5.04,5.181-.513.857-5.311-1.072-10.715-4.311-1.329-.8-2.57-1.6-3.68-2.367H375.04l3.879,19.549-.2-.992,4.869-4.868,8.777,8.777,8.776-8.777,8.695,8.7,8.694-8.7,8.7,8.7,8.7-8.7,8.806,8.807-8.806,8.806-8.7-8.7-8.7,8.7-8.694-8.7-8.695,8.7-8.776-8.776-8.777,8.776-2.92-2.92,1.9,9.575,4.9,24.715h62.077l.049-.271.551-3.061.425-2.356.777-4.308.236-1.3.069-.387.418-2.318.11-.61.343-1.9-.276,1.53-7.508-7.509,8.807-8.806,1.392,1.393-.122.676.427-2.367.1-.579.225-1.247.006-.032.244-1.353.562-3.118.349-1.936Zm-21.166,28.117-8.7-8.7-8.7,8.7-8.694-8.7-8.695,8.7-8.776-8.777-7.8,7.8-.609-3.071-.73-3.679-.359-1.808-.609-3.069-.609-3.07,1.942-1.942,8.777,8.776,8.776-8.776,8.695,8.7,8.694-8.7,8.7,8.7,8.7-8.7,8.806,8.806Zm20.457-24.191-.809,4.489-2.02,2.021-8.807-8.806,8.807-8.807,4.093,4.093-.562,3.117Z" transform="translate(-9467 1051)" fill="#eec893"/>
    <path id="Trazado_204938" data-name="Trazado 204938" d="M453.377,680.694l-.191,1.057.952-5.274-.319,1.764Z" transform="translate(-9467 1051)" fill="#eec893"/>
    <path id="Trazado_204939" data-name="Trazado 204939" d="M427.229,679.309l-8.7-8.7-8.695,8.7-8.694-8.7-8.777,8.776-8.777-8.776-1.941,1.942.609,3.07,1.332-1.333,5.127,5.127-4.762,4.762.609,3.071,7.8-7.8,8.777,8.777,8.694-8.7,8.695,8.7,8.7-8.7,8.694,8.7,8.807-8.807-8.807-8.806Zm-26.087,5.238-5.126-5.127,5.126-5.127,5.129,5.127Zm17.391,0-5.127-5.127,5.127-5.127,5.128,5.127Zm17.39,0L430.8,679.42l5.128-5.127,5.127,5.127Z" transform="translate(-9467 1051)" fill="#c89a61"/>
    <path id="Trazado_204940" data-name="Trazado 204940" d="M396.015,679.42l5.127,5.126,5.128-5.126-5.128-5.127Zm5.127,1.448L399.7,679.42l1.447-1.449,1.448,1.449Z" transform="translate(-9467 1051)" fill="#063"/>
    <rect id="Rectángulo_44816" data-name="Rectángulo 44816" width="2.047" height="2.047" transform="translate(-9067.305 1730.419) rotate(-44.979)" fill="#e20613"/>
    <path id="Trazado_204941" data-name="Trazado 204941" d="M383.591,674.293l-1.332,1.332.608,3.07.724-.723,1.448,1.448-1.448,1.448-.365-.365.73,3.679,4.762-4.762Z" transform="translate(-9467 1051)" fill="#063"/>
    <path id="Trazado_204942" data-name="Trazado 204942" d="M385.039,679.42l-1.448-1.448-.724.723.359,1.808.365.365Z" transform="translate(-9467 1051)" fill="#e20613"/>
    <path id="Trazado_204943" data-name="Trazado 204943" d="M413.406,679.42l5.127,5.126,5.128-5.126-5.128-5.127Zm5.127,1.448-1.448-1.448,1.448-1.449,1.448,1.449Z" transform="translate(-9467 1051)" fill="#063"/>
    <rect id="Rectángulo_44817" data-name="Rectángulo 44817" width="2.048" height="2.048" transform="matrix(0.707, -0.707, 0.707, 0.707, -9049.915, 1730.42)" fill="#e20613"/>
    <path id="Trazado_204944" data-name="Trazado 204944" d="M430.8,679.42l5.128,5.126,5.127-5.126-5.127-5.127Zm5.128,1.448-1.448-1.448,1.448-1.449,1.448,1.449Z" transform="translate(-9467 1051)" fill="#063"/>
    <rect id="Rectángulo_44818" data-name="Rectángulo 44818" width="2.048" height="2.048" transform="matrix(0.707, -0.707, 0.707, 0.707, -9032.525, 1730.42)" fill="#e20613"/>
    <path id="Trazado_204945" data-name="Trazado 204945" d="M452.815,683.811l-4.392-4.391,5.128-5.127.831.831.439-2.441.122-.676-1.392-1.393-8.807,8.806,7.508,7.509.276-1.53.035-.193Z" transform="translate(-9467 1051)" fill="#c89a61"/>
    <path id="Trazado_204946" data-name="Trazado 204946" d="M448.423,679.42l4.392,4.391.371-2.059.191-1.058L452.1,679.42l1.448-1.448.268.269.318-1.764.245-1.353-.831-.831Z" transform="translate(-9467 1051)" fill="#063"/>
    <path id="Trazado_204947" data-name="Trazado 204947" d="M453.551,677.972,452.1,679.42l1.274,1.274.442-2.453Z" transform="translate(-9467 1051)" fill="#e20613"/>
    <path id="Trazado_204948" data-name="Trazado 204948" d="M406.27,661.738l-5.128-5.127-5.127,5.127,5.127,5.128Zm-5.128-1.447,1.448,1.447-1.448,1.448-1.447-1.448Z" transform="translate(-9467 1051)" fill="#063"/>
    <rect id="Rectángulo_44819" data-name="Rectángulo 44819" width="2.047" height="2.047" transform="translate(-9067.305 1712.739) rotate(-45.021)" fill="#e20613"/>
    <path id="Trazado_204949" data-name="Trazado 204949" d="M383.59,656.611l5.127,5.127-5.127,5.128-3.831-3.831.183.924.728,3.666h0l2.92,2.92,8.777-8.777,8.776,8.777,8.7-8.7,8.694,8.7,8.7-8.7,8.7,8.7,8.806-8.807-8.806-8.807-8.7,8.7-8.7-8.7-8.694,8.7-8.7-8.7-8.776,8.777-8.777-8.777-4.869,4.868.2.992.412,2.079Zm52.333,0,5.126,5.127-5.126,5.128-5.129-5.128Zm-17.391,0,5.128,5.127-5.128,5.128-5.127-5.128Zm-17.39,0,5.128,5.127-5.128,5.128-5.127-5.128Z" transform="translate(-9467 1051)" fill="#c89a61"/>
    <path id="Trazado_204950" data-name="Trazado 204950" d="M383.591,666.866l5.126-5.128-5.126-5.127-4.26,4.26.32,1.615.109.55Zm0-6.575,1.448,1.447-1.448,1.448-1.449-1.448Z" transform="translate(-9467 1051)" fill="#063"/>
    <rect id="Rectángulo_44820" data-name="Rectángulo 44820" width="2.048" height="2.048" transform="translate(-9084.857 1712.739) rotate(-45.021)" fill="#e20613"/>
    <path id="Trazado_204951" data-name="Trazado 204951" d="M423.661,661.738l-5.128-5.127-5.127,5.127,5.127,5.128Zm-5.128-1.447,1.448,1.447-1.448,1.448-1.448-1.448Z" transform="translate(-9467 1051)" fill="#063"/>
    <rect id="Rectángulo_44821" data-name="Rectángulo 44821" width="2.048" height="2.048" transform="translate(-9049.915 1712.739) rotate(-45.021)" fill="#e20613"/>
    <path id="Trazado_204952" data-name="Trazado 204952" d="M441.05,661.738l-5.127-5.127-5.128,5.127,5.128,5.128Zm-5.127-1.447,1.448,1.447-1.448,1.448-1.448-1.448Z" transform="translate(-9467 1051)" fill="#063"/>
    <rect id="Rectángulo_44822" data-name="Rectángulo 44822" width="2.048" height="2.048" transform="translate(-9032.524 1712.739) rotate(-45.021)" fill="#e20613"/>
    <path id="Trazado_204953" data-name="Trazado 204953" d="M448.423,661.738l5.128-5.127,3.532,3.532.561-3.117-4.093-4.093-8.807,8.806,8.807,8.807,2.02-2.021.809-4.489-2.829,2.83Z" transform="translate(-9467 1051)" fill="#c89a61"/>
    <path id="Trazado_204954" data-name="Trazado 204954" d="M453.551,656.611l-5.128,5.127,5.128,5.128,2.829-2.831.7-3.893Zm0,6.575-1.448-1.448,1.448-1.447L455,661.738Z" transform="translate(-9467 1051)" fill="#063"/>
    <rect id="Rectángulo_44823" data-name="Rectángulo 44823" width="2.047" height="2.047" transform="matrix(0.707, -0.707, 0.707, 0.707, -9014.896, 1712.738)" fill="#e20613"/>
    <path id="Trazado_204955" data-name="Trazado 204955" d="M443.355,548.237a48.064,48.064,0,0,0-4.943-1.884,56.456,56.456,0,0,1-.566,7.514Z" transform="translate(-9467 1051)" fill="#a84d17"/>
    <path id="Trazado_204956" data-name="Trazado 204956" d="M397.2,546.627a44.428,44.428,0,0,0-6.717,2.874l7.954,8.128a55.21,55.21,0,0,1-1.237-11" transform="translate(-9467 1051)" fill="#a84d17"/>
    <path id="Trazado_204957" data-name="Trazado 204957" d="M405.294,564.637h22.014l9.719-9.932a55.808,55.808,0,0,0,.7-8.559,63.479,63.479,0,0,0-12.1-2.39V541.75c-13.787,7.524-18.291-6.489-18.291-6.489V544.2a60.591,60.591,0,0,0-9.459,2.2,54.35,54.35,0,0,0,1.473,12.174Z" transform="translate(-9467 1051)" fill="#a84d17"/>
    <path id="Trazado_204958" data-name="Trazado 204958" d="M375.04,639.244h10.737c-1.136-.786-2.133-1.538-2.943-2.215l-8.7-5.857-1.551,8.072Z" transform="translate(-9467 1051)" fill="#f3e5ce"/>
    <path id="Trazado_204959" data-name="Trazado 204959" d="M392.094,630.837c-.056-.035-.115-.069-.17-.1l0,.017.168.087" transform="translate(-9467 1051)" fill="#f3e5ce"/>
    <path id="Trazado_204960" data-name="Trazado 204960" d="M416.893,614.431v-.048l.007.024.007-.024v.048l7.054,24.812h2.66l-9.707-30.873-9.338,30.873h2.263Z" transform="translate(-9467 1051)" fill="#f3e5ce"/>
    <path id="Trazado_204961" data-name="Trazado 204961" d="M406.886,639.144l.57-1.885c-1.52.085-5.881-1.472-10.86-3.934.255.15.509.3.767.453a77.684,77.684,0,0,1,8.078,5.466H406.9c0-.035-.02-.065-.01-.1" transform="translate(-9467 1051)" fill="#f3e5ce"/>
    <path id="Trazado_204962" data-name="Trazado 204962" d="M397.179,637.863c.723.47,1.408.931,2.048,1.38h.44c-.8-.428-1.633-.889-2.488-1.38" transform="translate(-9467 1051)" fill="#f3e5ce"/>
    <path id="Trazado_204963" data-name="Trazado 204963" d="M405.294,564.637l-5.937-6.066a46.1,46.1,0,0,0,1.457,4.867l3.466,3.465h24.035l7.81-7.81c.359-1.415.659-2.882.9-4.388l-9.719,9.932Z" transform="translate(-9467 1051)" fill="#f3e5ce"/>
    <path id="Trazado_204964" data-name="Trazado 204964" d="M435.769,560.422l-7.069,7.069-.244.1h-11.2v11.964c.184.009.368.024.553.024,7.9,0,14.744-7.833,17.965-19.158" transform="translate(-9467 1051)" fill="#f3e5ce"/>
    <path id="Trazado_204965" data-name="Trazado 204965" d="M416.563,567.592H404.136l-.244-.1-2.46-2.461c3.38,8.243,8.868,13.822,15.131,14.478Z" transform="translate(-9467 1051)" fill="#f3e5ce"/>
    <path id="Trazado_204966" data-name="Trazado 204966" d="M443.121,577.732l8.772,33.659-.014,0,.763,2.866,3.136,12.032c.021-.005.04-.014.061-.019l3.453,12.97.527,1.981a3.342,3.342,0,0,1,1.072-.19h13.16l-.193-1.189-.261-1.612-1.024-6.314-.247-1.525-.718-4.426-.128-.794-.327-2.015-.274-1.688L470.7,620.4l-.2-1.213-.276-1.705-.361-2.223-.152-.939-.267-1.645-.755-4.656-.175-1.08c0-.014,0-.029-.007-.043l-.022-.136h-.006c-.086-.525-.189-1.05-.326-1.575l-.147-.563L463.4,586.912l-.426-1.634-3.712-14.246-1.952-7.488Z" transform="translate(-9467 1051)" fill="#a84d17"/>
    <path id="Trazado_204967" data-name="Trazado 204967" d="M461.957,649.259l.635,2.386.191.716.4,1.51c-.107.1-.211.184-.319.284-.264.244-.532.51-.8.772-.138.135-.274.259-.412.4-.258.26-.494.517-.737.775-.676.719-1.285,1.419-1.819,2.088a.63.63,0,0,0-.145.184c-1.292,1.646-2.09,3.039-2.133,3.795a.619.619,0,0,0,.119.479.714.714,0,0,0,.6.092,1.812,1.812,0,0,0,.287-.055,6.727,6.727,0,0,0,1.5-.741,20.827,20.827,0,0,0,2.154-1.569c.143-.118.284-.23.43-.355.539-.458,1.1-.972,1.662-1.515-.251,1.975-.47,4.366-.663,6.919-.013.171-.027.341-.039.514-.027.357-.049.708-.071,1.057-.026.435-.05.863-.069,1.284-.037.8-.06,1.582-.071,2.325q-.015,1.026,0,1.953c.007.353.016.7.03,1.023.009.231.02.452.033.67.024.431.053.842.091,1.216.005.055.011.108.016.162a12.731,12.731,0,0,0,.288,1.748c.02.078.041.143.062.212.161.531.354.842.579.859a.477.477,0,0,0,.367-.211,11.767,11.767,0,0,0,1.381-4.318c.093-.484.183-1,.269-1.542.025-.156.05-.313.074-.473.064-.424.125-.865.183-1.316.156-1.2.291-2.486.4-3.834,0,.294-.006.586-.005.885s0,.612.006.916q0,.5.014.991v0q.014.668.034,1.314c.013.392.028.778.045,1.155q.039.882.1,1.7.03.453.064.885c.084,1.066.186,2.041.3,2.9a11.272,11.272,0,0,0,.863,3.506c.127.214.259.337.395.337a.411.411,0,0,0,.281-.182,1.23,1.23,0,0,0,.135-.2,4.461,4.461,0,0,0,.355-.945,20.128,20.128,0,0,0,.5-2.651c.039-.3.076-.608.112-.93.026-.237.05-.487.074-.737.049-.517.1-1.054.135-1.621.02-.279.037-.567.054-.856q.05-.841.083-1.736l0-.079q.025-.687.041-1.4l.009-.431c.005.14.01.28.016.418.022.521.048,1.031.079,1.521.012.195.026.381.04.57.036.493.075.973.12,1.425.036.365.075.714.116,1.05.009.074.019.141.028.213.016.118.031.234.047.348.08.578.168,1.1.263,1.566q.117.568.246,1.007c.243.829.516,1.307.806,1.307.256,0,.5-.371.719-1.029a13.032,13.032,0,0,0,.434-1.835c.09-.515.173-1.09.246-1.715q.054-.449.1-.93c.1-1.04.179-2.193.23-3.423.011-.256.021-.514.029-.777.023.268.048.529.074.786a31.915,31.915,0,0,0,.549,3.589c.362,1.627.8,2.613,1.236,2.613.246,0,.479-.312.692-.871a9.988,9.988,0,0,0,.406-1.494c.127-.618.241-1.339.337-2.145.061-.5.115-1.027.162-1.587.084-1.009.143-2.107.176-3.266.01-.356.017-.716.022-1.082,0-.319.007-.639.007-.965v-.02c0-.39,0-.776-.01-1.155-.007-.415-.018-.82-.032-1.22-.015-.431-.035-.85-.057-1.261-.022-.391-.046-.771-.074-1.142-.044-.593-.1-1.161-.154-1.694a23.943,23.943,0,0,0-.541-3.21l-.547-3.37-.156-.962-.5-3.066H461.562Zm4.667,12.156-.012.19c0-.066,0-.135,0-.2l.014.011" transform="translate(-9467 1051)" fill="#a84d17"/>
    <path id="Trazado_204968" data-name="Trazado 204968" d="M377.446,614.255l-.27-.129-22.682-28.558-4.61,4.348a17.3,17.3,0,0,0-2.219,22.6.325.325,0,0,1,.373-.015l13.714,9.7a.346.346,0,0,1,.084.48l-.182.094,12.476,8.4,8.7,5.856c.81.677,1.807,1.429,2.942,2.215,1.111.769,2.351,1.57,3.681,2.367,5.4,3.239,10.2,5.168,10.715,4.312.382-.638-1.716-2.789-5.04-5.182,4.855,2.7,8.789,4.216,9.232,3.476.368-.613-1.754-2.6-5.136-4.973q-.961-.673-2.048-1.38c.855.491,1.687.952,2.488,1.38,4.6,2.457,8.127,3.8,8.526,3.134.255-.426-.816-1.592-2.752-3.134a78.077,78.077,0,0,0-8.078-5.465c-.258-.155-.513-.3-.768-.453,4.979,2.462,9.34,4.019,10.86,3.934l.29-.959c-1.081-1.365-5.045-3.954-10.013-6.45-2.454-1.233-4.782-2.356-6.727-3.208,4.126-1.12,7.173-2.664,6.949-3.57-.239-.971-4.137-.842-8.7.286-.713.176-1.4.367-2.045.566l-9.529-9.775c-.009.009-.007.024-.017.032Zm14.648,16.582-.168-.087,0-.017c.055.035.114.069.17.1" transform="translate(-9467 1051)" fill="#a84d17"/>
    <path id="Trazado_204969" data-name="Trazado 204969" d="M398.436,557.629l-7.954-8.128-2.12-2.166-1.826,1.825,13.185,13.185a48.2,48.2,0,0,1-1.285-4.716" transform="translate(-9467 1051)" fill="#f3e5ce"/>
    <path id="Trazado_204970" data-name="Trazado 204970" d="M383.6,581.91l-.779,4.055-5.284,27.5.183.232a.336.336,0,0,1-.037.451l9.529,9.775c.65-.2,1.332-.39,2.045-.566,4.566-1.128,8.464-1.257,8.7-.286.224.906-2.823,2.45-6.949,3.57,1.945.852,4.273,1.975,6.727,3.208,4.967,2.5,8.932,5.085,10.013,6.45l8.817-29.152V580.2c-6.9-.689-12.889-7.065-16.318-16.358l-14.2-14.2-7.266,7.264-5.078,5.079,2.807,2.808,8.7,8.7Z" transform="translate(-9467 1051)" fill="#f3e5ce"/>
    <path id="Trazado_204971" data-name="Trazado 204971" d="M437.043,558.174l10.233-10.234a.345.345,0,0,1,.489.487L436.73,559.461c-3.17,12.228-10.458,20.807-18.925,20.807-.186,0-.369-.015-.553-.023V607.15l10.058,31.99c.011.036-.009.068-.009.1h31.991l-3.453-12.971-.061.02-3.136-12.032-.763-2.867.015,0-8.773-33.658,14.188-14.189,3.174-3.173-2.836-2.836-1.026-1.025-10.8-10.8-2.47,2.524-5.51,5.63q-.318,2.212-.8,4.307" transform="translate(-9467 1051)" fill="#f3e5ce"/>
    <path id="Trazado_204972" data-name="Trazado 204972" d="M459.819,641.225a3.346,3.346,0,0,0-.438,6.175,3.31,3.31,0,0,0,1.006.322,3.346,3.346,0,0,0,.5.051h15.078a3.36,3.36,0,0,0,.3-6.709c-.1-.008-.195-.03-.3-.03H460.891a3.347,3.347,0,0,0-1.072.191" transform="translate(-9467 1051)" fill="#f3e5ce"/>
    <path id="Trazado_204973" data-name="Trazado 204973" d="M450.4,770.295a3.318,3.318,0,0,0-.276-3.036,3.388,3.388,0,0,0-.7-.788,3.324,3.324,0,0,0-2.15-.795H423.35a3.6,3.6,0,0,0-1.965.642,3.394,3.394,0,0,0-1.1,1.336,3.4,3.4,0,0,0,3.062,4.76h23.922a3.336,3.336,0,0,0,1.228-.239,3.372,3.372,0,0,0,1.9-1.88" transform="translate(-9467 1051)" fill="#f3e5ce"/>
    <path id="Trazado_204974" data-name="Trazado 204974" d="M417.443,769.045a3.331,3.331,0,0,0-.159-.972c-.015-.049-.029-.1-.046-.145a3.432,3.432,0,0,0-3.165-2.253h-26.4c-.014,0-.027,0-.041,0a3.367,3.367,0,0,0,.041,6.734h26.4a3.366,3.366,0,0,0,2.789-1.478,3.439,3.439,0,0,0,.581-1.89" transform="translate(-9467 1051)" fill="#f3e5ce"/>
    <path id="Trazado_204975" data-name="Trazado 204975" d="M425.634,541.749v-8.355a12.034,12.034,0,0,1-8.919,4.423c-3.569,0-6.836-1.857-9.373-4.932v2.375s4.506,14.013,18.292,6.489" transform="translate(-9467 1051)" fill="#8d3914"/>
    <path id="Trazado_204976" data-name="Trazado 204976" d="M399.636,517.4c-1.134.393-1.385,2.64-.56,5.017s2.411,3.988,3.545,3.594a1.357,1.357,0,0,0,.745-.771,28.665,28.665,0,0,1-1.162-6.217c-.81-1.21-1.793-1.891-2.568-1.623" transform="translate(-9467 1051)" fill="#29120b"/>
    <path id="Trazado_204977" data-name="Trazado 204977" d="M430.808,526.012c1.134.394,2.721-1.215,3.545-3.594s.574-4.624-.56-5.017c-.775-.268-1.758.413-2.568,1.623a28.642,28.642,0,0,1-1.162,6.216,1.356,1.356,0,0,0,.745.772" transform="translate(-9467 1051)" fill="#29120b"/>
    <path id="Trazado_204978" data-name="Trazado 204978" d="M416.715,537.818a12.032,12.032,0,0,0,8.919-4.423,20.666,20.666,0,0,0,3.6-5.854,2.415,2.415,0,0,0,.865.563c2.054.711,4.705-1.561,5.923-5.077s.543-6.941-1.511-7.652a3.362,3.362,0,0,0-3.2.9c-.043-5.772-.921-10.085-2.411-13.229a34.439,34.439,0,0,0-24.844.714c-1.2,3.033-1.9,7.1-1.934,12.511a3.359,3.359,0,0,0-3.194-.9c-2.054.711-2.73,4.137-1.511,7.652s3.869,5.788,5.923,5.077a2.415,2.415,0,0,0,.865-.563,21.1,21.1,0,0,0,3.143,5.345c2.537,3.075,5.8,4.932,9.372,4.932m14.509-18.794c.811-1.21,1.794-1.891,2.569-1.623,1.134.394,1.385,2.64.56,5.017s-2.411,3.988-3.545,3.594a1.354,1.354,0,0,1-.745-.771,28.6,28.6,0,0,0,1.161-6.217m-28.6,6.988c-1.134.394-2.721-1.215-3.545-3.594s-.574-4.623.56-5.017c.775-.268,1.758.413,2.568,1.623a28.665,28.665,0,0,0,1.162,6.217,1.357,1.357,0,0,1-.745.771m23.566-6.134c0,.748-1.059,1.356-2.366,1.356s-2.366-.608-2.366-1.356,1.059-1.355,2.366-1.355,2.366.607,2.366,1.355m-3.528-7.947c.373,0,.676.6.676,1.343s-.3,1.344-.676,1.344-.675-.6-.675-1.344.3-1.343.675-1.343m-1.516,3.325a.341.341,0,0,1,.431.224,2.738,2.738,0,0,0,2.523,1.688.344.344,0,0,1-.026.688h-.026a3.4,3.4,0,0,1-3.127-2.17.342.342,0,0,1,.225-.43m-5.225-.551a1.072,1.072,0,0,1,2.026-.179c.765,2-.2,6.572-1.783,6.7-1.727.144-.748-4.5-.243-6.525m4.6,10.005a.344.344,0,1,1,.284.627,11.831,11.831,0,0,1-4.817.928,16.165,16.165,0,0,1-3.633-.406.344.344,0,1,1,.169-.666c.045.01,4.479,1.1,8-.483m-9.85-12.779c.374,0,.676.6.676,1.343s-.3,1.344-.676,1.344-.675-.6-.675-1.344.3-1.343.675-1.343m-1.438,5.237a2.755,2.755,0,0,0,2.524-1.688.344.344,0,0,1,.656.206,3.407,3.407,0,0,1-3.128,2.17h-.026a.344.344,0,0,1-.026-.688m-1.6,2.71c0-.748,1.06-1.355,2.366-1.355s2.366.607,2.366,1.355-1.06,1.356-2.366,1.356-2.366-.608-2.366-1.356" transform="translate(-9467 1051)" fill="#a84d17"/>
    <path id="Trazado_204979" data-name="Trazado 204979" d="M416.161,521.23c1.581-.132,2.548-4.7,1.783-6.7a1.072,1.072,0,0,0-2.026.18c-.505,2.021-1.484,6.668.243,6.525" transform="translate(-9467 1051)" fill="#8d3914"/>
    <path id="Trazado_204980" data-name="Trazado 204980" d="M412.359,519.878c0-.748-1.06-1.355-2.366-1.355s-2.366.607-2.366,1.355,1.06,1.356,2.366,1.356,2.366-.608,2.366-1.356" transform="translate(-9467 1051)" fill="#f1a876"/>
    <path id="Trazado_204981" data-name="Trazado 204981" d="M421.454,519.878c0,.748,1.06,1.356,2.366,1.356s2.366-.608,2.366-1.356-1.058-1.355-2.366-1.355-2.366.607-2.366,1.355" transform="translate(-9467 1051)" fill="#f1a876"/>
    <path id="Trazado_204982" data-name="Trazado 204982" d="M410.668,514.617c.374,0,.676-.6.676-1.344s-.3-1.343-.676-1.343-.675.6-.675,1.343.3,1.344.675,1.344" transform="translate(-9467 1051)" fill="#29120b"/>
    <path id="Trazado_204983" data-name="Trazado 204983" d="M422.659,514.617c.374,0,.676-.6.676-1.344s-.3-1.343-.676-1.343-.676.6-.676,1.343.3,1.344.676,1.344" transform="translate(-9467 1051)" fill="#29120b"/>
    <path id="Trazado_204984" data-name="Trazado 204984" d="M412.1,525.441a.344.344,0,0,0,.249.417,16.109,16.109,0,0,0,3.634.406,11.827,11.827,0,0,0,4.816-.928.344.344,0,0,0-.283-.627c-3.518,1.584-7.953.493-8,.483a.343.343,0,0,0-.418.249" transform="translate(-9467 1051)" fill="#29120b"/>
    <path id="Trazado_204985" data-name="Trazado 204985" d="M409.255,517.855h.026a3.407,3.407,0,0,0,3.128-2.169.344.344,0,0,0-.656-.207,2.755,2.755,0,0,1-2.524,1.689.344.344,0,0,0,.026.687" transform="translate(-9467 1051)" fill="#29120b"/>
    <path id="Trazado_204986" data-name="Trazado 204986" d="M424.044,517.855h.026a.344.344,0,0,0,.026-.687,2.741,2.741,0,0,1-2.523-1.689.344.344,0,0,0-.656.207,3.4,3.4,0,0,0,3.127,2.169" transform="translate(-9467 1051)" fill="#29120b"/>
    <path id="Trazado_204987" data-name="Trazado 204987" d="M402.708,497.691A57.776,57.776,0,0,1,400,487.875c-.406-2.094-.7-4.094-.894-5.918-1.738-4.352-3.522-7.155-4.568-6.856-1.5.43-.913,7.067,1.31,14.823a57.831,57.831,0,0,0,3.549,9.513,3.029,3.029,0,0,1,.778-.616,25.482,25.482,0,0,1,2.537-1.13" transform="translate(-9467 1051)" fill="#35a8e0"/>
    <path id="Trazado_204988" data-name="Trazado 204988" d="M402.708,497.691a39.08,39.08,0,0,1,3.974-1.3c0-.015,0-.029,0-.044a56.5,56.5,0,0,1-2.177-10.29c-.251-1.969-.413-3.854-.494-5.582-1.367-4.625-2.934-7.688-4.022-7.476-1.127.218-1.419,3.886-.886,8.961.192,1.824.488,3.824.894,5.918a57.776,57.776,0,0,0,2.712,9.816" transform="translate(-9467 1051)" fill="#1d70b7"/>
    <path id="Trazado_204989" data-name="Trazado 204989" d="M406.681,496.344c.005.014.01.027.014.041,1.064-.288,2.241-.557,3.513-.786a53.251,53.251,0,0,1-1.6-9.985,58.036,58.036,0,0,1-.056-8.483c-.984-3.692-2.138-6.048-3.091-5.927-1.167.148-1.7,3.967-1.449,9.268.08,1.729.242,3.613.493,5.582a56.589,56.589,0,0,0,2.177,10.29" transform="translate(-9467 1051)" fill="#35a8e0"/>
    <path id="Trazado_204990" data-name="Trazado 204990" d="M408.607,485.614a53.251,53.251,0,0,0,1.6,9.985,41.567,41.567,0,0,1,4.478-.558l0-.028a54.679,54.679,0,0,1-.77-9.628c0-1.966.084-3.839.233-5.552-.853-5.369-2.248-9.115-3.55-9.018-1.035.077-1.768,2.569-2.05,6.316a58.162,58.162,0,0,0,.055,8.483" transform="translate(-9467 1051)" fill="#1d70b7"/>
    <path id="Trazado_204991" data-name="Trazado 204991" d="M431.4,497.435c1.041.384,2.093.814,3.154,1.307a2.84,2.84,0,0,1,.346.2,61.6,61.6,0,0,0,3.067-8.5c2.223-7.756,2.81-14.392,1.31-14.823-1.045-.3-2.83,2.5-4.568,6.855-.191,1.824-.487,3.824-.892,5.919a61,61,0,0,1-2.417,9.04" transform="translate(-9467 1051)" fill="#35a8e0"/>
    <path id="Trazado_204992" data-name="Trazado 204992" d="M427.35,496.179a40.521,40.521,0,0,1,4.052,1.256,60.866,60.866,0,0,0,2.416-9.041c.406-2.094.7-4.1.893-5.919.533-5.074.24-8.742-.886-8.96-1.088-.211-2.655,2.851-4.022,7.474-.081,1.729-.243,3.614-.494,5.584a59.184,59.184,0,0,1-1.959,9.606" transform="translate(-9467 1051)" fill="#1d70b7"/>
    <path id="Trazado_204993" data-name="Trazado 204993" d="M425.206,486.133a55.453,55.453,0,0,1-1.419,9.311q1.746.277,3.563.735a59.184,59.184,0,0,0,1.959-9.606c.251-1.97.413-3.855.494-5.584.247-5.3-.283-9.118-1.45-9.266-.952-.121-2.106,2.236-3.091,5.929a58.146,58.146,0,0,1-.056,8.481" transform="translate(-9467 1051)" fill="#35a8e0"/>
    <path id="Trazado_204994" data-name="Trazado 204994" d="M419.328,494.989a39.843,39.843,0,0,1,4.459.455,55.486,55.486,0,0,0,1.419-9.311,58.147,58.147,0,0,0,.056-8.481c-.283-3.748-1.016-6.242-2.051-6.318-1.224-.092-2.53,3.217-3.39,8.074.173,1.826.272,3.845.272,5.976a54.8,54.8,0,0,1-.765,9.605" transform="translate(-9467 1051)" fill="#1d70b7"/>
    <path id="Trazado_204995" data-name="Trazado 204995" d="M414.689,495.013l.005.027a40.776,40.776,0,0,1,4.635-.051,54.805,54.805,0,0,0,.765-9.605c0-2.131-.1-4.15-.272-5.976-.483-5.086-1.561-8.634-2.815-8.634-1.29,0-2.394,3.744-2.855,9.059-.149,1.712-.232,3.585-.232,5.551a54.7,54.7,0,0,0,.769,9.629" transform="translate(-9467 1051)" fill="#35a8e0"/>
    <path id="Trazado_204996" data-name="Trazado 204996" d="M403.062,504.226c.079-.042.424-.219.99-.466a34.439,34.439,0,0,1,24.844-.714c1.015.361,2.043.774,3.083,1.256a2.911,2.911,0,0,0,2.572-.029,3.025,3.025,0,0,0,1.5-1.462,3.056,3.056,0,0,0-1.145-3.864,2.985,2.985,0,0,0-.347-.2c-1.061-.492-2.112-.923-3.154-1.307a40.69,40.69,0,0,0-4.051-1.256c-1.21-.307-2.4-.549-3.563-.734a39.843,39.843,0,0,0-4.459-.455,40.558,40.558,0,0,0-4.635.051h-.008a41.567,41.567,0,0,0-4.478.558c-1.272.229-2.449.5-3.512.786l-.014,0a39.049,39.049,0,0,0-3.973,1.3,25.23,25.23,0,0,0-2.537,1.13,3.065,3.065,0,0,0,2.89,5.4" transform="translate(-9467 1051)" fill="#c89a61"/>
    <path id="Trazado_204997" data-name="Trazado 204997" d="M416.906,614.383l-.007.024-.007-.024v.048l-7.054,24.813h14.123l-7.055-24.813Z" transform="translate(-9467 1051)" fill="#a84d17"/>
    <path id="Trazado_204998" data-name="Trazado 204998" d="M406.886,639.144c-.01.034.01.065.01.1a.333.333,0,0,0,.22.33l.1.013a.346.346,0,0,0,.33-.244l.03-.1,9.338-30.874,9.707,30.874.033.1a.342.342,0,0,0,.327.24l.1-.016a.326.326,0,0,0,.217-.327c0-.036.02-.068.009-.1l-10.058-31.99V580.245c.184.008.367.023.553.023,8.467,0,15.755-8.579,18.925-20.807l11.035-11.034a.345.345,0,0,0-.488-.487l-10.234,10.234q.483-2.093.8-4.307a56.426,56.426,0,0,0,.567-7.513c0-.183.008-.363.008-.546a.343.343,0,1,0-.687,0c0,.113,0,.224-.005.337a55.8,55.8,0,0,1-.7,8.559c-.243,1.507-.543,2.973-.9,4.388l-7.81,7.811H404.28l-3.466-3.465a46.121,46.121,0,0,1-1.457-4.868,54.343,54.343,0,0,1-1.473-12.174c0-.2-.009-.391-.009-.588a.344.344,0,1,0-.688,0c0,.275.008.546.012.819a55.135,55.135,0,0,0,1.238,11,47.93,47.93,0,0,0,1.285,4.716L386.537,549.16a.344.344,0,1,0-.487.487l14.2,14.2c3.429,9.292,9.421,15.669,16.318,16.357v26.948L407.746,636.3l-.29.959Zm10.366-71.552h11.2l.244-.1,7.069-7.069c-3.222,11.324-10.064,19.158-17.965,19.158-.186,0-.369-.015-.553-.024Zm-15.82-2.562,2.46,2.461.244.1h12.427v11.916c-6.263-.656-11.751-6.235-15.131-14.478" transform="translate(-9467 1051)" fill="#29120b"/>
    <path id="Trazado_204999" data-name="Trazado 204999" d="M354.475,585.546l.018.023,22.683,28.557.27.13.214-.075c.01-.008.009-.022.018-.031a.338.338,0,0,0,.037-.452l-.184-.231-22.517-28.349a.336.336,0,0,0-.437-.069c-.015.009-.033,0-.047.014a.344.344,0,0,0-.055.483" transform="translate(-9467 1051)" fill="#29120b"/>
    <path id="Trazado_205000" data-name="Trazado 205000" d="M361.171,622.636l.184.13.2.062.1-.051.182-.093a.347.347,0,0,0-.083-.481l-13.715-9.7a.325.325,0,0,0-.373.014c-.036.024-.08.03-.106.068a.324.324,0,0,0,.013.37c.023.038.031.083.069.11Z" transform="translate(-9467 1051)" fill="#29120b"/>
    <path id="Trazado_205001" data-name="Trazado 205001" d="M372.282,568.809l8.977,15.2a.348.348,0,0,0,.3.169l.175-.047h0a.344.344,0,0,0,.122-.471l-.04-.068-8.937-15.131a.445.445,0,0,0-.472-.122.346.346,0,0,0-.122.472" transform="translate(-9467 1051)" fill="#29120b"/>
    <path id="Trazado_205002" data-name="Trazado 205002" d="M281.139,755.073v-52.5h-.465v-3.653h-2.489v3.653H275.7v-3.653h-2.488v3.653h-2.49v-3.653h-2.489v3.653h-2.489v-3.653H255.022v-4.753H255V752.5h0v6.252h26.143v-3.678Z" transform="translate(-9467 1051)" fill="#a84d17"/>
    <path id="Trazado_205003" data-name="Trazado 205003" d="M476.156,787.5H353.95a9.942,9.942,0,0,0-6.361-8.322l-18.383-6.952V758.751h-1.87v10.485h-2.489V758.751h-2.489v10.485h-2.489V758.751H317.38v10.485h-2.49V758.751H312.4v10.485h-2.49V758.751h-2.489v10.485h-2.489V758.751h-1.87v21.97a7.769,7.769,0,0,0,3.975,6.781H277.164a7.769,7.769,0,0,0,3.975-6.781v-21.97H279.27v10.485h-2.49V758.751h-2.489v10.485H271.8V758.751h-2.49v10.485h-2.489V758.751h-2.488v10.485h-2.49V758.751h-2.489v10.485h-2.489V758.751H255v13.477l-.041.015-1.694.641-.689.261-3.518,1.33-.316.119-1.118.423-.78.295-1.326.5-.371.14-.792.3-.564.213-1.154.436-2.53.957-1.638.62-.843.319-1.008.381a9.5,9.5,0,0,0-.951.446c-.06.03-.125.054-.184.086a9.893,9.893,0,0,0-2.994,2.449c-.08.1-.16.194-.237.293-.168.22-.33.442-.479.675q-.2.316-.379.647a9.806,9.806,0,0,0-.456.98c-.063.154-.131.307-.186.465a9.9,9.9,0,0,0-.463,1.846c-.021.143-.019.291-.034.435h-6.413v1.275H476.156Z" transform="translate(-9467 1051)" fill="#29120b"/>
  </g>
</svg>
