<svg xmlns="http://www.w3.org/2000/svg" xmlns:xlink="http://www.w3.org/1999/xlink" width="295" height="341.922" viewBox="0 0 295 341.922">
  <defs>
    <clipPath id="clip-path">
      <rect id="Rectángulo_44447" data-name="Rectángulo 44447" width="261.827" height="330" fill="none"/>
    </clipPath>
  </defs>
  <g id="Grupo_145692" data-name="Grupo 145692" transform="translate(-180 -5763.578)">
    <g id="Grupo_145596" data-name="Grupo 145596" transform="translate(180.001 6105.5) rotate(-90)">
      <path id="Unión_2" data-name="Unión 2" d="M87.632,339.692a109.165,109.165,0,0,1-39.244-16.514A110.061,110.061,0,0,1,8.626,274.892a109.236,109.236,0,0,1-6.394-20.6A110.557,110.557,0,0,1,0,232.173V217.11H0V0H219.5V213.963h0v18.21a110.556,110.556,0,0,1-2.229,22.118,109.164,109.164,0,0,1-16.514,39.244A110.078,110.078,0,0,1,152.47,333.3a109.182,109.182,0,0,1-20.6,6.4,110.836,110.836,0,0,1-44.236,0Z" transform="translate(0 219.499) rotate(-90)" fill="#f8ddd5"/>
    </g>
    <g id="Grupo_145597" data-name="Grupo 145597" transform="translate(301.225 5877.903)">
      <path id="Trazado_197614" data-name="Trazado 197614" d="M347.842,126.731c9.771,6.7,16.647,17.591,15.758,29.754-.87,11.894-7.424,22.684-15.329,31.565-5.9-6.005-11.309-13.071-17.208-19.075l9.1,27.648a115.2,115.2,0,0,1-43.115,42.4c-8.129-2.048-16.632-4.928-23.612-9.6l11.52,15.279c1.184,1.608-30.571,18.621-32.776,19.736-8.534,4.316-16.718,9.891-25.876,12.769-31.741,9.973-27.176-24.819-18.569-43.62A219.447,219.447,0,0,1,240.9,181.835a61.1,61.1,0,0,0,2.05,20.739c1.756-12.766,6.653-22.656,9.1-35.308a326.993,326.993,0,0,0,31.19-28.083,182.159,182.159,0,0,0,25.9,9.043,80.109,80.109,0,0,0-20.776-12.982c9.166-8.816,23.732-14.744,36.349-15.417a38.011,38.011,0,0,1,23.125,6.907" transform="translate(-189.902 -119.806)" fill="#ff744b"/>
      <path id="Trazado_197615" data-name="Trazado 197615" d="M341.184,144.855s-106.866,74.8-152.816,159.863" transform="translate(-188.368 -122.752)" fill="#ef4918" stroke="#211d1d" stroke-linecap="round" stroke-linejoin="round" stroke-width="0.665"/>
      <line id="Línea_1906" data-name="Línea 1906" x1="6.215" y2="56.349" transform="translate(69.541 36.259)" fill="none" stroke="#211d1d" stroke-linecap="round" stroke-linejoin="round" stroke-width="0.665"/>
      <path id="Trazado_197616" data-name="Trazado 197616" d="M342.074,213.661,276.7,208.7l6.323-55.084" transform="translate(-198.757 -123.782)" fill="#ef4918" stroke="#211d1d" stroke-linecap="round" stroke-linejoin="round" stroke-width="0.665"/>
    </g>
    <g id="Grupo_145598" data-name="Grupo 145598" transform="translate(200 5775.5)">
      <g id="Grupo_145594" data-name="Grupo 145594" clip-path="url(#clip-path)">
        <path id="Trazado_199935" data-name="Trazado 199935" d="M74.092,230.019c-2.864,31.675,15.874,56.748,34.424,59.41,20.994,3.013,49.636-21.554,48.7-59.41q-.839-21.191-1.68-42.38c2.131-4.055,4.194-8.311,6.157-12.773A218.181,218.181,0,0,0,179.6,94.75,146.939,146.939,0,0,0,57.026,96a258.913,258.913,0,0,0,12.308,67.839c2.425,7.454,5.074,14.422,7.837,20.9q-1.54,22.643-3.079,45.284" transform="translate(15.988 22.982)" fill="#a84d17"/>
        <path id="Trazado_199936" data-name="Trazado 199936" d="M88.206,109.517h40.673Q126.5,84.94,124.121,60.363H91.937q-1.865,24.577-3.731,49.154" transform="translate(24.73 16.924)" fill="#a84d17"/>
        <path id="Trazado_199937" data-name="Trazado 199937" d="M110.071,88.718c7.715,0,14.588-5.162,19.086-13.215l.6-1.157q.72-1.4,1.344-2.906c.516-1.245.99-2.529,1.4-3.867a48.066,48.066,0,0,0,1.949-10.45c.1-1.284.155-2.584.155-3.905,0-.25-.008-.484-.009-.73a81.83,81.83,0,0,0-.81-11.472,4.6,4.6,0,0,1-2.023-.516,51.64,51.64,0,0,0-43.672.127,4.553,4.553,0,0,1-1.656.4,74.638,74.638,0,0,0-.9,11.485c0,.248-.018.471-.018.722,0,1.321.059,2.622.156,3.905a48.144,48.144,0,0,0,1.956,10.45c.411,1.338.886,2.621,1.4,3.865a38.787,38.787,0,0,0,2.1,4.367c4.5,7.879,11.315,12.9,18.937,12.9M121.279,47.6c.671,0,1.215,1.082,1.216,2.417s-.544,2.417-1.215,2.417-1.216-1.082-1.216-2.417.543-2.417,1.215-2.417m-2.713,6.019a.579.579,0,0,1,.725.376,4.963,4.963,0,0,0,4.576,3.066.578.578,0,0,1-.044,1.155h-.044a6.077,6.077,0,0,1-5.591-3.873.575.575,0,0,1,.378-.723m-10.375-1.347a1.93,1.93,0,0,1,3.646.321c.91,3.636,2.673,12-.434,11.738-2.844-.237-4.586-8.461-3.212-12.06m-4.079,19.474a20.471,20.471,0,0,0,3.351,1.042c.329.07.658.123.987.188.063.013.1.019.129.027l.1.009c.583.059,1.165.109,1.752.125s1.172.01,1.758-.024c.25-.014.5-.032.75-.055l.467-.05.009,0a21.778,21.778,0,0,0,3.406-.846,2.915,2.915,0,0,1,3.559,2.019,2.96,2.96,0,0,1-2.019,3.558,23.036,23.036,0,0,1-15.783-.411,2.969,2.969,0,0,1-2.02-3.558c.435-1.35,2.055-2.629,3.557-2.022m-4.4-24.14c.671,0,1.215,1.081,1.216,2.417s-.544,2.417-1.216,2.417S98.5,51.36,98.5,50.025s.544-2.417,1.215-2.417m-2.582,9.466A4.957,4.957,0,0,0,101.7,54a.588.588,0,0,1,.726-.374.575.575,0,0,1,.376.723,6.078,6.078,0,0,1-5.589,3.876l-.044,0a.578.578,0,0,1-.044-1.155" transform="translate(23.975 10.016)" fill="#a84d17"/>
        <path id="Trazado_199938" data-name="Trazado 199938" d="M125.479,75.968l-.114-.89-.091-.937-.32-3.128c-2.406,3.324-10.229,8.129-15.894,8.563-6.607.506-14.326-4.64-18.243-11.491l-1.3,17.182L92.6,86.6C117.9,100.4,125.47,76,125.479,75.968" transform="translate(25.097 19.089)" fill="#8d3914"/>
        <path id="Trazado_199939" data-name="Trazado 199939" d="M124.466,53.828c1.361-2.033,3.013-3.179,4.316-2.727,1.906.659,2.329,4.434.944,8.432s-4.05,6.7-5.955,6.042a2.283,2.283,0,0,1-1.253-1.3c-.41,1.338-.883,2.621-1.4,3.865a4.1,4.1,0,0,0,1.456.945c3.449,1.195,7.9-2.626,9.951-8.534s.908-11.667-2.543-12.861c-1.682-.583-3.6.035-5.369,1.5,0,.246.009.48.009.73,0,1.32-.058,2.621-.155,3.9" transform="translate(33.957 13.311)" fill="#8d3914"/>
        <path id="Trazado_199940" data-name="Trazado 199940" d="M123.464,64.8c1.905.659,4.572-2.046,5.956-6.043s.962-7.772-.945-8.432c-1.3-.451-2.955.694-4.316,2.728a48.066,48.066,0,0,1-1.949,10.45,2.282,2.282,0,0,0,1.253,1.3" transform="translate(34.264 14.083)" fill="#29120b"/>
        <path id="Trazado_199941" data-name="Trazado 199941" d="M88.328,65.588c-1.905.662-4.573-2.043-5.96-6.039s-.967-7.772.939-8.432c1.3-.452,2.955.691,4.317,2.725-.1-1.283-.156-2.584-.156-3.905,0-.252.017-.474.018-.722-1.768-1.47-3.694-2.088-5.379-1.5-3.451,1.2-4.585,6.957-2.535,12.864s6.507,9.727,9.957,8.53a4.1,4.1,0,0,0,1.454-.946c-.517-1.245-.992-2.529-1.4-3.865a2.288,2.288,0,0,1-1.252,1.3" transform="translate(22.023 13.315)" fill="#8d3914"/>
        <path id="Trazado_199942" data-name="Trazado 199942" d="M82.65,50.344c-1.905.659-2.325,4.436-.94,8.432s4.056,6.7,5.961,6.039a2.29,2.29,0,0,0,1.252-1.3,48.056,48.056,0,0,1-1.956-10.449c-1.362-2.033-3.015-3.178-4.317-2.725" transform="translate(22.68 14.087)" fill="#29120b"/>
        <path id="Trazado_199943" data-name="Trazado 199943" d="M107.909,28.632h.013l-.005-.042-.008.041" transform="translate(30.254 8.016)" fill="#a84d17"/>
        <path id="Trazado_199944" data-name="Trazado 199944" d="M117.345,30.218l.019.005c0-.022,0-.044,0-.065-.006.02-.013.04-.02.06" transform="translate(32.899 8.455)" fill="#a84d17"/>
        <path id="Trazado_199945" data-name="Trazado 199945" d="M106.543,60.965c3.107.259,1.344-8.1.433-11.738a1.929,1.929,0,0,0-3.645-.321c-1.374,3.6.367,11.823,3.212,12.06" transform="translate(28.836 13.385)" fill="#8d3914"/>
        <path id="Trazado_199946" data-name="Trazado 199946" d="M113.714,49.836c.672,0,1.215-1.083,1.215-2.417S114.384,45,113.713,45s-1.215,1.082-1.214,2.417.544,2.417,1.215,2.417" transform="translate(31.541 12.617)" fill="#29120b"/>
        <path id="Trazado_199947" data-name="Trazado 199947" d="M96.868,49.841c.672,0,1.215-1.082,1.215-2.417s-.545-2.417-1.216-2.417-1.215,1.083-1.214,2.417.544,2.417,1.215,2.417" transform="translate(26.818 12.618)" fill="#29120b"/>
        <path id="Trazado_199948" data-name="Trazado 199948" d="M97.29,65.917a2.97,2.97,0,0,0,2.022,3.558,23.04,23.04,0,0,0,15.782.411,2.96,2.96,0,0,0,2.019-3.558,2.914,2.914,0,0,0-3.559-2.019,21.779,21.779,0,0,1-3.406.846h-.009l-.467.05c-.25.024-.5.042-.75.056-.585.033-1.173.041-1.758.023s-1.169-.065-1.752-.124l-.1-.009c-.032-.008-.067-.015-.128-.027-.329-.067-.659-.118-.987-.189a20.48,20.48,0,0,1-3.352-1.041c-1.5-.607-3.12.671-3.557,2.022m2.233.353a.58.58,0,0,1,.766-.291c6.342,2.853,14.334.887,14.413.867a.578.578,0,0,1,.283,1.122,28.988,28.988,0,0,1-6.534.73,21.231,21.231,0,0,1-8.639-1.662.579.579,0,0,1-.289-.766" transform="translate(27.241 17.87)" fill="#8d3914"/>
        <path id="Trazado_199949" data-name="Trazado 199949" d="M107.945,68.217a28.969,28.969,0,0,0,6.532-.73.578.578,0,1,0-.282-1.12c-.081.019-8.071,1.986-14.414-.867a.579.579,0,0,0-.476,1.055,21.24,21.24,0,0,0,8.64,1.662" transform="translate(27.746 18.35)" fill="#29120b"/>
        <path id="Trazado_199950" data-name="Trazado 199950" d="M116.631,54.3l.044,0a.578.578,0,0,0,.044-1.155,4.963,4.963,0,0,1-4.576-3.068.578.578,0,0,0-1.1.348,6.081,6.081,0,0,0,5.591,3.872" transform="translate(31.124 13.929)" fill="#29120b"/>
        <path id="Trazado_199951" data-name="Trazado 199951" d="M94.746,54.314l.044,0a6.078,6.078,0,0,0,5.589-3.876.575.575,0,0,0-.376-.723.588.588,0,0,0-.726.374A4.956,4.956,0,0,1,94.7,53.159a.578.578,0,0,0,.044,1.155" transform="translate(26.401 13.93)" fill="#29120b"/>
        <path id="Trazado_199952" data-name="Trazado 199952" d="M122.048,39.224a37.786,37.786,0,0,1,3.831,1.707,4.579,4.579,0,0,1,1.177.928A87.42,87.42,0,0,0,132.41,27.49c3.355-11.717,4.237-21.739,1.972-22.387-1.58-.452-4.273,3.782-6.895,10.354-.289,2.755-.734,5.777-1.347,8.94a87.3,87.3,0,0,1-4.092,14.827" transform="translate(34.218 1.422)" fill="#93c01f"/>
        <path id="Trazado_199953" data-name="Trazado 199953" d="M117.361,37.885c0,.022,0,.044,0,.065a58.841,58.841,0,0,1,6,1.965,87.252,87.252,0,0,0,4.092-14.825c.612-3.164,1.058-6.185,1.347-8.94.8-7.664.357-13.2-1.343-13.533-1.643-.318-4.009,4.308-6.071,11.293-.12,2.611-.365,5.458-.743,8.43a85.466,85.466,0,0,1-3.283,15.545" transform="translate(32.904 0.73)" fill="#39a935"/>
        <path id="Trazado_199954" data-name="Trazado 199954" d="M115.614,22.268A80.563,80.563,0,0,1,113.2,37.35c1.921.344,3.7.75,5.3,1.184l.022-.059a85.465,85.465,0,0,0,3.283-15.545c.378-2.973.622-5.819.743-8.43.37-8-.431-13.772-2.193-14-1.439-.182-3.18,3.379-4.667,8.956a87.706,87.706,0,0,1-.079,12.809" transform="translate(31.738 0.139)" fill="#93c01f"/>
        <path id="Trazado_199955" data-name="Trazado 199955" d="M107.916,36.595l.005.042a62.447,62.447,0,0,1,6.763.84A80.528,80.528,0,0,0,117.1,22.4a87.706,87.706,0,0,0,.079-12.809c-.428-5.66-1.536-9.425-3.1-9.54C112.109-.1,110,5.559,108.72,13.666c.225,2.586.353,5.416.355,8.386a82.755,82.755,0,0,1-1.159,14.542" transform="translate(30.256 0.012)" fill="#39a935"/>
        <path id="Trazado_199956" data-name="Trazado 199956" d="M91.084,38.673A92,92,0,0,1,87.43,25.022c-.613-3.163-1.061-6.184-1.351-8.938-2.627-6.571-5.324-10.8-6.9-10.35-2.264.65-1.375,10.672,1.986,22.386A93.409,93.409,0,0,0,85.8,40.957a4.574,4.574,0,0,1,.521-.309c1.6-.744,3.192-1.4,4.764-1.976" transform="translate(21.847 1.598)" fill="#93c01f"/>
        <path id="Trazado_199957" data-name="Trazado 199957" d="M89.384,39.367a61.631,61.631,0,0,1,6.118-1.9,89.275,89.275,0,0,1-2.963-14.505c-.38-2.974-.626-5.822-.748-8.434C89.723,7.547,87.354,2.924,85.712,3.242c-1.7.33-2.141,5.87-1.333,13.535.289,2.754.738,5.776,1.351,8.938a92,92,0,0,0,3.654,13.651" transform="translate(23.547 0.905)" fill="#39a935"/>
        <path id="Trazado_199958" data-name="Trazado 199958" d="M93.813,38.059c1.828-.465,3.622-.831,5.38-1.111a83.9,83.9,0,0,1-2.146-14.062,87.832,87.832,0,0,1-.09-12.809C95.469,4.5,93.724.941,92.286,1.125c-1.762.225-2.561,5.991-2.186,13.994.123,2.612.369,5.459.749,8.432a89.294,89.294,0,0,0,2.963,14.507" transform="translate(25.236 0.314)" fill="#93c01f"/>
        <path id="Trazado_199959" data-name="Trazado 199959" d="M95.568,23.013a83.881,83.881,0,0,0,2.146,14.062,60.254,60.254,0,0,1,6.735-.689,82.739,82.739,0,0,1-1.16-14.5c0-3.221.147-6.271.408-9.029C102.395,5.521,100.422.525,98.573.665c-1.563.115-2.67,3.881-3.093,9.541a87.619,87.619,0,0,0,.088,12.807" transform="translate(26.715 0.186)" fill="#39a935"/>
        <path id="Trazado_199960" data-name="Trazado 199960" d="M102.7,36.572a61.378,61.378,0,0,1,7,.076l.008-.042a82.61,82.61,0,0,0,1.159-14.542c0-2.97-.128-5.8-.355-8.386C109.807,5.653,108.139,0,106.191,0c-1.895,0-3.521,5.358-4.247,13.039-.261,2.758-.41,5.808-.408,9.028a82.744,82.744,0,0,0,1.16,14.505" transform="translate(28.467 0)" fill="#93c01f"/>
        <path id="Trazado_199961" data-name="Trazado 199961" d="M132.636,42.521a4.617,4.617,0,0,0,5.538-7.235A4.552,4.552,0,0,0,137,34.358a37.785,37.785,0,0,0-3.831-1.707,59.13,59.13,0,0,0-6-1.967l-.019-.005c-1.607-.434-3.385-.84-5.306-1.186a62.729,62.729,0,0,0-6.763-.84h-.013a61.378,61.378,0,0,0-7-.076,60.254,60.254,0,0,0-6.735.689c-1.757.28-3.552.647-5.38,1.111a61.292,61.292,0,0,0-6.118,1.9c-1.572.58-3.161,1.23-4.764,1.974a4.922,4.922,0,0,0-.522.31,4.616,4.616,0,0,0,2.476,8.518c.1,0,.192-.024.288-.031a4.587,4.587,0,0,0,1.656-.4,51.647,51.647,0,0,1,43.672-.127" transform="translate(23.099 7.994)" fill="#c89a61"/>
        <path id="Trazado_199962" data-name="Trazado 199962" d="M91.684,102.425c-6.767,20.549-11.843,34.754-14.816,43.041-2.031,5.709-4.783,13.089-6.307,17.336-.362,1.045-.725,2.02-1.086,2.995-.942,2.506-1.739,4.664-2.462,6.544-1.594,4.387-2.681,7.31-3.693,9.815-2.1,5.36-5.271,13.014-9.517,22.333l-24.059-5.762c.807-2.928,1.913-7.321,3.031-12.763,1.487-6.906,1.894-11.448,2.437-15.637a128.937,128.937,0,0,1,2.562-14.377c.809-3.138,1.467-5.438,2.058-7.878a53.292,53.292,0,0,0,1.307-9.286c.805-13.77-2.618-14.094-.622-22.6.589-2.3,4.356-17.992,18.133-23.2,10.754-4.061,23.926-.256,33.036,9.443" transform="translate(8.339 25.618)" fill="#a84d17"/>
        <path id="Trazado_199963" data-name="Trazado 199963" d="M216.353,215.8c4.507-2.065,13.852-6.434,15.3-14.318A16.717,16.717,0,0,0,228.7,190.12c-9.567-14.43-90.31,9.409-133.829,23.368q-2.282,27.639-4.562,55.278c6.822-2.723,81.989-32.786,126.044-52.97" transform="translate(25.319 52.047)" fill="#a84d17"/>
        <path id="Trazado_199964" data-name="Trazado 199964" d="M110.182,99.589c-1.463,3.022-4.468,4.229-6.436,3.358a4.573,4.573,0,0,1-2.239-3.079Z" transform="translate(28.459 27.921)" fill="#210b04"/>
        <path id="Trazado_199965" data-name="Trazado 199965" d="M142.452,99.4a26.584,26.584,0,0,1-10.075,4.292,27.182,27.182,0,0,1-16.046-1.865Z" transform="translate(32.615 27.868)" fill="#210b04"/>
        <path id="Trazado_199966" data-name="Trazado 199966" d="M98.881,102.281a26.578,26.578,0,0,1-10.754,2.072,27.19,27.19,0,0,1-15.291-5.207Z" transform="translate(20.421 27.797)" fill="#210b04"/>
        <path id="Trazado_199967" data-name="Trazado 199967" d="M27.817,229.336c-9.055-6.174-27.452-18.965-24.755-29.4,2.036-7.877,16.111-14.76,28.274-14.234a30.037,30.037,0,0,1,4.815.6A353.448,353.448,0,0,1,140.991,209.26a4.676,4.676,0,0,1,2.154,1.828c16.2,14.885,15.7,39.394,13.27,56.083-70.2-4.348-108.93-24.424-128.6-37.835" transform="translate(0.784 52.055)" fill="#a84d17"/>
        <path id="Trazado_199968" data-name="Trazado 199968" d="M67.55,197.569q13.119,25.95,26.24,51.9a30.067,30.067,0,0,0,39.791-6.344q14.16-22.793,28.318-45.585l-8.575-18.422c-5.885,15.375-19.389,26.349-35.026,28.251-18.9,2.3-37.835-9.034-45.571-27.931L67.55,197.569" transform="translate(18.939 50.219)" fill="#5b2f0b"/>
        <path id="Trazado_199969" data-name="Trazado 199969" d="M145.4,252.072q-2.23,8-4.457,15.994c-3.97-1.157-10.156-2.869-17.793-4.589-39.218-8.828-55.289-4.022-78.175-12.124-23.319-8.257-32.843-18.337-36.9-23.842C4.6,222.784-1.953,213.894.561,203.752c1.632-6.587,6.362-10.776,8.988-12.742,4.238,1.757,10.615,4.4,18.371,7.6,18.364,7.591,31.6,12.829,33.022,13.615,15.869,8.782,42.8,21.546,84.457,39.842" transform="translate(0 53.552)" fill="#a84d17"/>
        <path id="Trazado_199970" data-name="Trazado 199970" d="M134.286,223.178a313.158,313.158,0,0,1-31,19.706q.008,8.495.013,16.988a54.9,54.9,0,0,0,9,5.244c6.344,2.931,10.336,4.773,14.058,3.342,6.292-2.419,7.262-12.446,7.33-13.244,22.561-36.58,25.25-45.769,23.35-47.213s-8.344,4.794-22.751,15.177" transform="translate(28.958 58.258)" fill="#a84d17"/>
        <path id="Trazado_199971" data-name="Trazado 199971" d="M50.751,209.164a44.863,44.863,0,0,1-16.7,37.2c-1.709,1.4.732,3.818,2.429,2.428a48.1,48.1,0,0,0,17.7-39.631c-.093-2.2-3.527-2.212-3.434,0" transform="translate(9.384 58.178)" fill="#4acec1"/>
        <path id="Trazado_199972" data-name="Trazado 199972" d="M35.115,239.593a26.113,26.113,0,0,0,4.622,9.849c1.317,1.737,4.3.028,2.965-1.734a23.779,23.779,0,0,1-4.276-9.028c-.508-2.15-3.821-1.239-3.311.913" transform="translate(9.83 66.573)" fill="#4acec1"/>
        <path id="Trazado_199973" data-name="Trazado 199973" d="M36.2,238.509q3.4,5.076,7.239,9.818c1.388,1.72,3.8-.723,2.428-2.428q-3.561-4.41-6.7-9.123c-1.223-1.828-4.2-.11-2.964,1.732" transform="translate(10.066 66.165)" fill="#4acec1"/>
        <path id="Trazado_199974" data-name="Trazado 199974" d="M38.068,237.107l9.461,9.134c1.59,1.535,4.02-.89,2.428-2.428L40.5,234.679c-1.59-1.535-4.022.89-2.428,2.428" transform="translate(10.527 65.658)" fill="#4acec1"/>
        <path id="Trazado_199975" data-name="Trazado 199975" d="M39.351,235.441,49.926,242.3a1.728,1.728,0,0,0,2.582-1.483c-.006-.19-.013-.38-.02-.57-.079-2.2-3.513-2.214-3.433,0,.006.189.013.38.02.57l2.582-1.481-10.573-6.864c-1.859-1.206-3.582,1.766-1.734,2.965" transform="translate(10.811 65.099)" fill="#4acec1"/>
        <path id="Trazado_199976" data-name="Trazado 199976" d="M41.356,233.817,54.122,239.5c2,.891,3.75-2.067,1.734-2.964q-6.384-2.842-12.768-5.685c-2-.891-3.749,2.066-1.732,2.964" transform="translate(11.344 64.677)" fill="#4acec1"/>
        <path id="Trazado_199977" data-name="Trazado 199977" d="M42.379,232.294a121.312,121.312,0,0,0,12.457,2.685c2.161.35,3.092-2.959.913-3.31a121.658,121.658,0,0,1-12.457-2.686,1.718,1.718,0,0,0-.913,3.311" transform="translate(11.541 64.18)" fill="#4acec1"/>
        <path id="Trazado_199978" data-name="Trazado 199978" d="M44.223,229.893l10.883,1.641c2.161.325,3.093-2.982.913-3.311l-10.883-1.641c-2.161-.326-3.093,2.982-.913,3.311" transform="translate(12.05 63.519)" fill="#4acec1"/>
        <path id="Trazado_199979" data-name="Trazado 199979" d="M45.723,227.334l14.48,2.516c2.161.375,3.088-2.933.912-3.311l-14.478-2.516c-2.161-.375-3.09,2.933-.913,3.311" transform="translate(12.471 62.8)" fill="#4acec1"/>
        <path id="Trazado_199980" data-name="Trazado 199980" d="M47.034,224.784l14.361,2.192c2.161.329,3.093-2.978.912-3.311l-14.359-2.192c-2.161-.329-3.093,2.978-.913,3.311" transform="translate(12.838 62.087)" fill="#4acec1"/>
        <path id="Trazado_199981" data-name="Trazado 199981" d="M47.627,222.542l11.708.508c2.209.1,2.2-3.338,0-3.434l-11.708-.508c-2.21-.095-2.2,3.338,0,3.434" transform="translate(12.889 61.43)" fill="#4acec1"/>
        <path id="Trazado_199982" data-name="Trazado 199982" d="M48.778,220.281,57.2,219.7c2.191-.154,2.209-3.588,0-3.434l-8.417.586c-2.192.154-2.209,3.588,0,3.434" transform="translate(13.213 60.63)" fill="#4acec1"/>
        <path id="Trazado_199983" data-name="Trazado 199983" d="M48.694,217.7a70.5,70.5,0,0,1,10.667-.813,1.717,1.717,0,0,0,0-3.433,76.579,76.579,0,0,0-11.58.935c-2.177.338-1.252,3.648.913,3.311" transform="translate(13.048 59.845)" fill="#4acec1"/>
        <path id="Trazado_199984" data-name="Trazado 199984" d="M49.544,215.179a87.186,87.186,0,0,1,12.647-.689c2.21.04,2.211-3.394,0-3.434a87.186,87.186,0,0,0-12.647.689c-2.161.277-2.189,3.713,0,3.434" transform="translate(13.433 59.168)" fill="#4acec1"/>
        <path id="Trazado_199985" data-name="Trazado 199985" d="M49.483,212.823q5.009-.772,10.018-1.545c2.177-.335,1.252-3.644-.912-3.31L48.57,209.512c-2.178.335-1.253,3.645.913,3.311" transform="translate(13.269 58.3)" fill="#4acec1"/>
        <path id="Trazado_199986" data-name="Trazado 199986" d="M49.607,211.2q3.052-1.732,6.2-3.279c1.983-.974.246-3.936-1.732-2.964q-3.15,1.548-6.2,3.279c-1.922,1.091-.193,4.057,1.732,2.964" transform="translate(13.187 57.407)" fill="#4acec1"/>
        <path id="Trazado_199987" data-name="Trazado 199987" d="M92.616,255.58q2.627,7.874,5.257,15.75c3.906-1.356,10-3.376,17.538-5.479,38.723-10.792,55.016-6.8,77.466-16.045,12.29-5.063,25.977-12.343,35.649-25.67,8.11-11.175,7.507-18.262,7.167-20.614-1.309-9.044-8.324-14.612-10.663-16.314-4.074,2.134-10.23,5.321-17.778,9.068-16.843,8.362-29.7,13.653-32.295,15.261-15.407,9.571-41.659,23.674-82.343,44.045" transform="translate(25.966 52.486)" fill="#a84d17"/>
        <path id="Trazado_199988" data-name="Trazado 199988" d="M82.982,225.564a313.241,313.241,0,0,0,31.953,18.12q.421,8.485.842,16.967a54.905,54.905,0,0,1-8.723,5.691c-6.189,3.246-10.083,5.288-13.871,4.046-6.407-2.1-7.882-12.066-7.989-12.859-24.374-35.4-27.521-44.441-25.7-45.978s8.576,4.366,23.487,14.012" transform="translate(16.56 59.244)" fill="#a84d17"/>
        <path id="Trazado_199989" data-name="Trazado 199989" d="M154.939,207.825A48.291,48.291,0,0,0,174.9,246.81c1.778,1.315,3.493-1.663,1.734-2.964a44.6,44.6,0,0,1-18.263-36.02c-.019-2.209-3.453-2.214-3.434,0" transform="translate(43.439 57.802)" fill="#4acec1"/>
        <path id="Trazado_199990" data-name="Trazado 199990" d="M169.289,236.7a23.749,23.749,0,0,1-3.795,9.24c-1.248,1.83,1.726,3.549,2.964,1.732a26.139,26.139,0,0,0,4.142-10.06c.4-2.16-2.912-3.087-3.311-.913" transform="translate(46.314 66.016)" fill="#4acec1"/>
        <path id="Trazado_199991" data-name="Trazado 199991" d="M169.051,234.854q-3.025,5.051-6.485,9.81c-1.3,1.789,1.676,3.5,2.964,1.732q3.465-4.761,6.485-9.809c1.138-1.9-1.83-3.63-2.964-1.734" transform="translate(45.487 65.614)" fill="#4acec1"/>
        <path id="Trazado_199992" data-name="Trazado 199992" d="M168.144,232.841l-8.988,9.6c-1.51,1.612.913,4.045,2.428,2.428l8.988-9.6c1.51-1.612-.914-4.045-2.428-2.428" transform="translate(44.488 65.131)" fill="#4acec1"/>
        <path id="Trazado_199993" data-name="Trazado 199993" d="M167.718,230.687,157.5,238.074l2.582,1.483-.008-.571c-.032-2.207-3.465-2.214-3.434,0,0,.191.006.38.009.571a1.73,1.73,0,0,0,2.582,1.483l10.216-7.388c1.773-1.282.061-4.262-1.734-2.964" transform="translate(43.917 64.587)" fill="#4acec1"/>
        <path id="Trazado_199994" data-name="Trazado 199994" d="M166.152,229.165l-12.464,6.32c-1.972,1-.236,3.963,1.732,2.965l12.466-6.321c1.97-1,.234-3.961-1.734-2.964" transform="translate(42.845 64.193)" fill="#4acec1"/>
        <path id="Trazado_199995" data-name="Trazado 199995" d="M165.8,227.327a121.273,121.273,0,0,1-12.306,3.308c-2.16.462-1.246,3.772.913,3.311a121.282,121.282,0,0,0,12.306-3.308c2.092-.682,1.2-4-.913-3.311" transform="translate(42.688 63.708)" fill="#4acec1"/>
        <path id="Trazado_199996" data-name="Trazado 199996" d="M163.512,225.02l-10.787,2.187c-2.164.439-1.248,3.749.913,3.311l10.787-2.187c2.164-.439,1.248-3.75-.913-3.311" transform="translate(42.472 63.076)" fill="#4acec1"/>
        <path id="Trazado_199997" data-name="Trazado 199997" d="M162.659,222.54l-14.334,3.242c-2.155.488-1.243,3.8.913,3.311l14.334-3.242c2.155-.488,1.242-3.8-.913-3.311" transform="translate(41.24 62.378)" fill="#4acec1"/>
        <path id="Trazado_199998" data-name="Trazado 199998" d="M161.2,220.059l-14.231,2.912c-2.164.443-1.248,3.753.913,3.311l14.231-2.912c2.163-.443,1.247-3.753-.913-3.311" transform="translate(40.859 61.685)" fill="#4acec1"/>
        <path id="Trazado_199999" data-name="Trazado 199999" d="M160.824,217.7l-11.667,1.1c-2.18.2-2.2,3.64,0,3.433l11.667-1.1c2.182-.206,2.2-3.641,0-3.434" transform="translate(41.357 61.033)" fill="#4acec1"/>
        <path id="Trazado_200000" data-name="Trazado 200000" d="M158.847,215.408l-8.435-.163c-2.211-.042-2.211,3.39,0,3.434l8.435.163c2.21.042,2.21-3.392,0-3.434" transform="translate(41.705 60.347)" fill="#4acec1"/>
        <path id="Trazado_200001" data-name="Trazado 200001" d="M159.863,212.854a73.4,73.4,0,0,0-11.153-.312c-2.2.1-2.212,3.539,0,3.433a73.4,73.4,0,0,1,11.153.314c2.2.228,2.179-3.207,0-3.434" transform="translate(41.229 59.565)" fill="#4acec1"/>
        <path id="Trazado_200002" data-name="Trazado 200002" d="M158.745,210.346a87.138,87.138,0,0,0-12.667-.051c-2.192.151-2.209,3.585,0,3.434a86.953,86.953,0,0,1,12.667.051c2.2.169,2.192-3.265,0-3.434" transform="translate(40.492 58.902)" fill="#4acec1"/>
        <path id="Trazado_200003" data-name="Trazado 200003" d="M158.586,208.026,148.5,206.987c-2.2-.227-2.18,3.209,0,3.434l10.084,1.038c2.2.225,2.18-3.209,0-3.434" transform="translate(41.174 58.029)" fill="#4acec1"/>
        <path id="Trazado_200004" data-name="Trazado 200004" d="M158.857,206.816q-3.136-1.577-6.357-2.963c-2.008-.863-3.759,2.093-1.734,2.964q3.225,1.389,6.358,2.963c1.968.991,3.709-1.97,1.732-2.964" transform="translate(42.017 57.109)" fill="#4acec1"/>
        <path id="Trazado_200005" data-name="Trazado 200005" d="M126.351,83.064c.754,8.093-1.467,15.346-4.62,22.733-1.233,2.889-2.583,5.731-3.912,8.576-2.156,4.614-3.9,9.233-9.461,3.64-3.576-3.6-6.249-10.687-8.546-15.175-3.27-6.39-6.174-12.93-8.835-19.6-.485-1.216-2.479-.686-1.987.548a231.2,231.2,0,0,0,12.453,26.5c1.906,3.438,6.233,15.5,11.512,14.737,5.008-.722,7.786-11.988,9.321-15.422,3.84-8.591,7.024-16.983,6.134-26.537-.122-1.309-2.183-1.321-2.06,0" transform="translate(24.928 23.012)" fill="#ed8700"/>
        <path id="Trazado_200006" data-name="Trazado 200006" d="M130.837,83.261c1.166,11.658-3.267,63.692-25.744,44.321-12.522-10.791-17.948-27.3-17.538-43.454a1.031,1.031,0,0,0-2.06,0c-.277,10.907,1.842,21.721,7.216,31.313,4.138,7.386,11.559,17.262,20.249,19.371,7.992,1.94,11.185-5.663,13.952-11.888A77.613,77.613,0,0,0,132.9,83.261c-.131-1.307-2.192-1.32-2.06,0" transform="translate(23.963 23.067)" fill="#ed8700"/>
        <path id="Trazado_200007" data-name="Trazado 200007" d="M125.5,82.048c-1.627,9.918-5.721,26-19.263,21.924C96.8,101.131,91.33,91.979,89.895,82.621c-.2-1.306-2.186-.75-1.986.548C89.471,93.362,96.9,105.7,108.23,106.851c13.357,1.357,17.6-14.148,19.258-24.255.214-1.3-1.772-1.855-1.986-.548" transform="translate(24.643 22.794)" fill="#ed8700"/>
        <path id="Trazado_200008" data-name="Trazado 200008" d="M138.981,85.084c-.028,18.9-.959,60.349-28.325,59.943-29.582-.44-27.2-41.413-25.305-61.25.125-1.319-1.936-1.31-2.06,0-1.995,20.913-3.433,62.67,27.365,63.31,29.1.6,30.356-42.015,30.386-62a1.031,1.031,0,0,0-2.06,0" transform="translate(23.099 23.212)" fill="#ed8700"/>
        <path id="Trazado_200009" data-name="Trazado 200009" d="M91.426,133.424a15.282,15.282,0,1,0,15.282-15.282,15.283,15.283,0,0,0-15.282,15.282" transform="translate(25.633 33.123)" fill="#ed8700"/>
        <path id="Trazado_200010" data-name="Trazado 200010" d="M79.594,123.977a11.635,11.635,0,1,0,11.635-11.635,11.635,11.635,0,0,0-11.635,11.635" transform="translate(22.315 31.497)" fill="#ed8700"/>
        <path id="Trazado_200011" data-name="Trazado 200011" d="M76.506,111.811a8.2,8.2,0,1,0,8.2-8.2,8.2,8.2,0,0,0-8.2,8.2" transform="translate(21.45 29.047)" fill="#ed8700"/>
        <path id="Trazado_200012" data-name="Trazado 200012" d="M123.841,226.312a.345.345,0,0,1-.156-.65l28.107-14.3a.348.348,0,0,1,.461.15.343.343,0,0,1-.147.464L124,226.273a.336.336,0,0,1-.156.038" transform="translate(34.624 59.248)" fill="#632b1c"/>
        <path id="Trazado_200013" data-name="Trazado 200013" d="M157.1,209.041a.343.343,0,0,1-.165-.644,163.183,163.183,0,0,1,19.992-9.39c4.954-1.927,10.06-3.629,15.174-5.056a.349.349,0,0,1,.425.239.345.345,0,0,1-.237.423c-5.1,1.421-10.18,3.115-15.111,5.033A162.892,162.892,0,0,0,157.265,209a.337.337,0,0,1-.165.045" transform="translate(43.949 54.373)" fill="#632b1c"/>
        <path id="Trazado_200014" data-name="Trazado 200014" d="M54.506,211.862c-.161-.042-34.9-18.743-34.9-18.743a.342.342,0,1,1,.321-.6l34.736,18.7a.342.342,0,0,1,.143.465.351.351,0,0,1-.3.182" transform="translate(5.446 53.963)" fill="#632b1c"/>
        <path id="Trazado_200015" data-name="Trazado 200015" d="M81.793,252.357a.351.351,0,0,1-.3-.172L61.188,216.833a.345.345,0,0,1,.6-.342l20.305,35.35a.346.346,0,0,1-.3.516" transform="translate(17.142 60.647)" fill="#632b1c"/>
        <path id="Trazado_200016" data-name="Trazado 200016" d="M89.682,228.645C68.737,212.272,62.626,210.5,61.165,211.888c-.568.531-.863,2.033.942,6.18a.341.341,0,1,1-.626.273c-1.6-3.673-1.859-5.949-.79-6.955,1.572-1.475,6.294-1.371,29.2,16.645a.344.344,0,0,1-.21.615" transform="translate(16.835 59.105)" fill="#632b1c"/>
        <path id="Trazado_200017" data-name="Trazado 200017" d="M111.327,249.82a.344.344,0,0,1-.076-.68l20.2-4.571a.353.353,0,0,1,.411.26.347.347,0,0,1-.26.411l-20.2,4.571a.49.49,0,0,1-.076.009" transform="translate(31.116 68.567)" fill="#632b1c"/>
        <path id="Trazado_200018" data-name="Trazado 200018" d="M107.486,249.959a.348.348,0,0,1-.33-.248.344.344,0,0,1,.232-.425l.734-.214a.333.333,0,0,1,.429.232.343.343,0,0,1-.233.425l-.732.215a.356.356,0,0,1-.1.015" transform="translate(30.039 69.826)" fill="#632b1c"/>
        <path id="Trazado_200019" data-name="Trazado 200019" d="M127.271,105.464c9.667,19.354,16.745,32.676,20.885,40.445,2.835,5.356,6.626,12.259,8.746,16.243.511.981,1.01,1.894,1.51,2.8,1.293,2.346,2.394,4.365,3.381,6.12,2.212,4.11,3.711,6.846,5.073,9.179,2.85,5,7.1,12.114,12.647,20.721l22.972-9.18c-1.221-2.781-2.95-6.968-4.844-12.19-2.47-6.618-3.53-11.053-4.673-15.12a129.031,129.031,0,0,0-4.613-13.856c-1.255-2.987-2.238-5.169-3.175-7.5a53.393,53.393,0,0,1-2.638-9c-2.787-13.509.553-14.325-2.653-22.454-.914-2.192-6.911-17.172-21.3-20.336-11.228-2.463-23.711,3.207-31.323,14.121" transform="translate(35.682 25.449)" fill="#a84d17"/>
        <path id="Trazado_200020" data-name="Trazado 200020" d="M120.123,114.139a8.2,8.2,0,1,0,8.2-8.2,8.2,8.2,0,0,0-8.2,8.2" transform="translate(33.678 29.7)" fill="#ed8700"/>
        <path id="Trazado_200021" data-name="Trazado 200021" d="M110.092,125.666a11.635,11.635,0,1,0,11.635-11.635,11.634,11.634,0,0,0-11.635,11.635" transform="translate(30.866 31.97)" fill="#ed8700"/>
        <path id="Trazado_200022" data-name="Trazado 200022" d="M127.26,136.287c-.291-.078-.384-.273-.326-.453.849-2.542,1.8-5.07,2.808-7.513a116.129,116.129,0,0,1,10.555-19.81.343.343,0,0,1,.571.38,115.357,115.357,0,0,0-10.493,19.693c-1.005,2.428-1.944,4.94-2.789,7.468a.349.349,0,0,1-.327.234" transform="translate(35.583 30.38)" fill="#632b1c"/>
        <path id="Trazado_200023" data-name="Trazado 200023" d="M63.77,137.927a.344.344,0,0,1,0-.689l9.33-.147a.344.344,0,0,1,.009.689l-9.33.147Z" transform="translate(17.782 38.435)" fill="#632b1c"/>
        <path id="Trazado_200024" data-name="Trazado 200024" d="M100.565,196.6c-1.577-.353-1.807-3.445-1.57-6.23a.347.347,0,0,1,.344-.315.354.354,0,0,1,.344.374c-.309,3.567.291,5.351.818,5.479.59.009,1.538-1.055,2.433-2.647a.343.343,0,0,1,.469-.132.34.34,0,0,1,.129.466c-.648,1.154-1.859,3.005-2.968,3.005" transform="translate(27.732 53.283)" fill="#632b1c"/>
        <path id="Trazado_200025" data-name="Trazado 200025" d="M132.611,93.929c.095,0,.184.022.277.028.169-2.275.277-4.571.293-6.9,0-.254.022-.5.022-.757a.594.594,0,1,0-1.188,0c0,.238-.018.47-.02.708-.015,2.374-.129,4.717-.306,7.037a3.913,3.913,0,0,1,.923-.12" transform="translate(36.921 24.03)" fill="#29120b"/>
        <path id="Trazado_200026" data-name="Trazado 200026" d="M83.781,117.484v2.358a52.925,52.925,0,0,0,4.1,6.092,3.941,3.941,0,0,1,.768-.886,53.092,53.092,0,0,1-4.869-7.564" transform="translate(23.489 32.938)" fill="#29120b"/>
        <path id="Trazado_200027" data-name="Trazado 200027" d="M128.283,110.445a3.9,3.9,0,0,1,1.183.219q1.089-3.3,1.93-6.8a10.53,10.53,0,0,1-1.378.667c-.507,2.027-1.1,3.992-1.735,5.915" transform="translate(35.966 29.119)" fill="#29120b"/>
        <path id="Trazado_200028" data-name="Trazado 200028" d="M92.638,128.555v1.46a24.856,24.856,0,0,0,14.13,5.267v-1.189a24.072,24.072,0,0,1-14.13-5.538" transform="translate(25.972 36.042)" fill="#29120b"/>
        <path id="Trazado_200029" data-name="Trazado 200029" d="M109.717,133.043a3.959,3.959,0,0,1,.1.868c0,.125-.017.236-.019.359a27.483,27.483,0,0,0,8.351-4.544v-1.534a26.9,26.9,0,0,1-8.436,4.851" transform="translate(30.761 35.94)" fill="#29120b"/>
        <path id="Trazado_200030" data-name="Trazado 200030" d="M124.4,120.074A51.745,51.745,0,0,1,121.077,125a3.918,3.918,0,0,1,.867.823,52.652,52.652,0,0,0,3.48-5.145c.31-.522.58-1.092.877-1.63v-2.5c-.611,1.2-1.228,2.4-1.9,3.525" transform="translate(33.946 32.676)" fill="#29120b"/>
        <path id="Trazado_200031" data-name="Trazado 200031" d="M79.089,104.354a11.522,11.522,0,0,1-1.394-.8c.6,2.563,1.3,5.043,2.1,7.424a3.865,3.865,0,0,1,1.109-.373c-.672-2.018-1.283-4.1-1.816-6.255" transform="translate(21.783 29.034)" fill="#29120b"/>
        <path id="Trazado_200032" data-name="Trazado 200032" d="M76.9,93.933c.1,0,.2.023.307.031q-.259-3.419-.291-6.947c0-.237-.01-.469-.01-.707a.595.595,0,0,0-1.189,0c0,.254.01.5.013.757q.027,3.54.293,6.973a3.962,3.962,0,0,1,.877-.106" transform="translate(21.229 24.032)" fill="#29120b"/>
        <path id="Trazado_200033" data-name="Trazado 200033" d="M111.412,132.649a3.918,3.918,0,0,0-7.739.871v1.47l0,10.505s7.628-2.116,7.819-11.619c0-.123.019-.233.019-.359a3.959,3.959,0,0,0-.1-.868" transform="translate(29.066 36.335)" fill="#f3e5ce"/>
        <path id="Trazado_200034" data-name="Trazado 200034" d="M120.225,122.629a3.923,3.923,0,0,0-3.92,3.924v4.731l0,7.244s7.841-2.16,7.838-11.98a3.882,3.882,0,0,0-.866-2.428,3.959,3.959,0,0,0-.868-.825,3.9,3.9,0,0,0-2.188-.667" transform="translate(32.608 34.381)" fill="#f3e5ce"/>
        <path id="Trazado_200035" data-name="Trazado 200035" d="M129.074,109a3.921,3.921,0,0,0-3.919,3.923V124.9s7.841-2.16,7.837-11.98a3.958,3.958,0,0,0-3.837-3.91c-.028,0-.055-.009-.084-.009" transform="translate(35.089 30.559)" fill="#f3e5ce"/>
        <path id="Trazado_200036" data-name="Trazado 200036" d="M132.214,92.237a3.915,3.915,0,0,0-3,3.8l0,11.975s.209-.063.535-.189a10.617,10.617,0,0,0,1.376-.667c2.321-1.328,5.928-4.457,5.927-11.121a3.91,3.91,0,0,0-3.645-3.892c-.093-.006-.182-.027-.277-.027a3.913,3.913,0,0,0-.923.12" transform="translate(36.228 25.826)" fill="#f3e5ce"/>
        <path id="Trazado_200037" data-name="Trazado 200037" d="M94.354,126.558a3.922,3.922,0,0,0-7.237-2.069,3.879,3.879,0,0,0-.6,2.073c0,9.82,7.845,11.974,7.845,11.974l0-6.863v-5.115Z" transform="translate(24.255 34.384)" fill="#f3e5ce"/>
        <path id="Trazado_200038" data-name="Trazado 200038" d="M85.5,112.933a3.922,3.922,0,0,0-3.923-3.919,3.964,3.964,0,0,0-.657.065,3.954,3.954,0,0,0-3.262,3.855c0,9.822,7.846,11.974,7.846,11.974V119.86Z" transform="translate(21.771 30.564)" fill="#f3e5ce"/>
        <path id="Trazado_200039" data-name="Trazado 200039" d="M81.427,108.028l-.005-11.975a3.907,3.907,0,0,0-3.614-3.888c-.1-.009-.2-.031-.306-.031a3.955,3.955,0,0,0-3.922,3.92c0,6.055,2.983,9.189,5.27,10.708a11.372,11.372,0,0,0,1.393.8,8.113,8.113,0,0,0,1.184.471" transform="translate(20.629 25.831)" fill="#f3e5ce"/>
        <path id="Trazado_200040" data-name="Trazado 200040" d="M133.728,237.071l-36.26,1.218a7.422,7.422,0,0,1-6.924-4.045A71.568,71.568,0,0,1,83,202.384c.014-23.609,11.923-39.871,15.909-44.875-1.216-2.41-3.727-8.065-1.425-10.923,1.574-1.95,4.2-1.127,14.96-.475,10.525.639,13.321.173,14.722,2.375.444.7,1.818,3.348-1.663,9.5A81.468,81.468,0,0,1,140.743,231.5a7.559,7.559,0,0,1-7.015,5.571" transform="translate(23.269 40.756)" fill="#f2c291"/>
        <path id="Trazado_200041" data-name="Trazado 200041" d="M136.605,192.247q-1.029,5.942-2.058,11.886c-11.267-.058-20.506-.439-26.971-.787-12.751-.686-12.147-1.1-40.567-3.3-4.832-.374-6.413-.489-9.124-.889a89.971,89.971,0,0,1-26.155-8.139c-1.288-1.6-3.958-5.426-3.6-10.231.536-7.226,7.708-13.933,17.752-15.151a88.067,88.067,0,0,1,11.019-.954,63.714,63.714,0,0,1,10.138.886c18.622,3.073,41.817,13.1,41.817,13.1,7.182,3.1,16.738,7.543,27.749,13.585" transform="translate(7.878 46.17)" fill="#a84d17"/>
        <path id="Trazado_200042" data-name="Trazado 200042" d="M114.813,184.806q-4.652,8.5-9.3,16.994c6.262,8.16,10.851,14.183,13.107,17.556a13.618,13.618,0,0,0,4.815,4.658,12.308,12.308,0,0,0,3.485,1.269,15.944,15.944,0,0,0,3.316.3c2.693-.067,9.9-4.975,17.325-13.875.773.364,11.594-4.516,1.755-12.009-2.644-2.014-6.366-4.718-11.034-7.692,2.863,5.168,7.288,7.74,10.884,6.936,1.124-.252,3.087-1.133,3.292-2.529.269-1.842-2.511-4.832-15.7-9.881l-8,.5-13.944-2.234" transform="translate(29.581 51.813)" fill="#a84d17"/>
        <path id="Trazado_200043" data-name="Trazado 200043" d="M129.559,190.88c.12.106,12.717,6.815,12.717,6.815a.342.342,0,0,0,.465-.143.35.35,0,0,0-.141-.464L130,190.381a.345.345,0,0,0-.446.5" transform="translate(36.307 53.365)" fill="#632b1c"/>
        <path id="Trazado_200044" data-name="Trazado 200044" d="M129.776,191.039a.343.343,0,0,0,.615-.28l-.574-2.3a.356.356,0,0,0-.419-.248.342.342,0,0,0-.248.417l.576,2.294a.319.319,0,0,0,.05.113" transform="translate(36.206 52.766)" fill="#632b1c"/>
        <path id="Trazado_200045" data-name="Trazado 200045" d="M133.881,204.65c.159.123,5.184,2.027,5.184,2.027a.345.345,0,0,0,.443-.2.338.338,0,0,0-.2-.44l-5.025-1.9a.344.344,0,0,0-.406.516" transform="translate(37.519 57.225)" fill="#632b1c"/>
        <path id="Trazado_200046" data-name="Trazado 200046" d="M130.9,209.142c.149.12,3.335,1.466,3.335,1.466a.343.343,0,1,0,.268-.633l-3.187-1.346a.339.339,0,0,0-.449.182.346.346,0,0,0,.033.33" transform="translate(36.682 58.484)" fill="#632b1c"/>
        <path id="Trazado_200047" data-name="Trazado 200047" d="M126.857,213.032a.319.319,0,0,0,.193.132l3.5.944a.341.341,0,1,0,.179-.658l-3.5-.944a.342.342,0,0,0-.373.526" transform="translate(35.549 59.575)" fill="#632b1c"/>
        <path id="Trazado_200048" data-name="Trazado 200048" d="M65.272,165.963c12.594,4.646,25.11,9.553,37.361,14.7,8.646,3.638,17.354,7.484,25.884,11.426a.339.339,0,0,0,.255.014l17.14-5.913,13.094,10.037a.34.34,0,0,0,.481-.063.347.347,0,0,0-.063-.478L146.182,185.54a.337.337,0,0,0-.32-.055l-17.185,5.927c-8.493-3.924-17.166-7.751-25.776-11.376-12.265-5.159-24.789-10.065-37.229-14.59a.342.342,0,0,0-.4.517" transform="translate(18.282 46.379)" fill="#632b1c"/>
        <path id="Trazado_200049" data-name="Trazado 200049" d="M107.723,207.193q-1.911-8.823-3.823-17.647c10.274-4.627,18.837-8.118,24.862-10.486,11.884-4.671,11.508-4.04,38.274-13.845,4.552-1.667,6.037-2.218,8.669-2.981a89.952,89.952,0,0,1,27.173-3.458c1.836.922,5.853,3.292,7.525,7.812,2.513,6.8-1.225,15.875-9.856,21.154-5.321,3.255-9.722,6.279-19.218,8.849-15.834,4.285-28,5.375-43.685,7.078-6.927.752-17.241,1.915-29.921,3.525" transform="translate(29.13 44.508)" fill="#a84d17"/>
        <path id="Trazado_200050" data-name="Trazado 200050" d="M112.355,182.8q4.652,8.5,9.3,16.994c-6.262,8.16-10.851,14.183-13.107,17.556a13.618,13.618,0,0,1-4.815,4.658,12.309,12.309,0,0,1-3.485,1.269,15.943,15.943,0,0,1-3.316.3c-2.693-.067-9.9-4.975-17.325-13.875-.773.364-11.594-4.516-1.755-12.009,2.644-2.014,6.366-4.718,11.034-7.692-2.863,5.168-7.288,7.74-10.884,6.936-1.124-.252-3.087-1.133-3.292-2.529-.269-1.842,2.511-4.832,15.7-9.881l8,.5,13.944-2.234" transform="translate(20.675 51.251)" fill="#a84d17"/>
        <path id="Trazado_200051" data-name="Trazado 200051" d="M90.025,188.877c-.12.106-12.717,6.815-12.717,6.815a.342.342,0,0,1-.465-.143.35.35,0,0,1,.141-.464l12.595-6.708a.345.345,0,0,1,.446.5" transform="translate(21.533 52.803)" fill="#632b1c"/>
        <path id="Trazado_200052" data-name="Trazado 200052" d="M87.176,189.036a.344.344,0,0,1-.616-.28l.575-2.3a.355.355,0,0,1,.417-.248.342.342,0,0,1,.248.417l-.575,2.294a.373.373,0,0,1-.05.113" transform="translate(24.265 52.204)" fill="#632b1c"/>
        <path id="Trazado_200053" data-name="Trazado 200053" d="M84.044,202.647c-.159.123-5.184,2.027-5.184,2.027a.345.345,0,0,1-.443-.2.338.338,0,0,1,.2-.44l5.025-1.9a.344.344,0,0,1,.406.516" transform="translate(21.979 56.664)" fill="#632b1c"/>
        <path id="Trazado_200054" data-name="Trazado 200054" d="M86.625,207.139c-.149.12-3.335,1.466-3.335,1.466a.343.343,0,1,1-.268-.633l3.187-1.346a.339.339,0,0,1,.449.182.346.346,0,0,1-.033.33" transform="translate(23.217 57.923)" fill="#632b1c"/>
        <path id="Trazado_200055" data-name="Trazado 200055" d="M90.737,211.029a.319.319,0,0,1-.193.132l-3.5.944a.341.341,0,1,1-.179-.658l3.5-.944a.342.342,0,0,1,.373.526" transform="translate(24.282 59.014)" fill="#632b1c"/>
        <path id="Trazado_200056" data-name="Trazado 200056" d="M202.341,178.529a177.275,177.275,0,0,1-34.375,15.81,179.527,179.527,0,0,1-58.563,9.3.343.343,0,0,1-.342-.346.337.337,0,0,1,.343-.338,179.051,179.051,0,0,0,58.345-9.263,178.364,178.364,0,0,0,34.133-15.651.345.345,0,0,1,.458.493" transform="translate(30.577 49.902)" fill="#632b1c"/>
        <path id="Trazado_200057" data-name="Trazado 200057" d="M172.063,163.96c-12.594,4.646-25.111,9.553-37.361,14.7-8.646,3.638-17.354,7.484-25.884,11.426a.339.339,0,0,1-.255.014l-17.14-5.913L78.329,194.229a.34.34,0,0,1-.481-.063.347.347,0,0,1,.063-.478l13.243-10.152a.337.337,0,0,1,.32-.055l17.185,5.927c8.493-3.924,17.166-7.751,25.776-11.376,12.265-5.159,24.789-10.065,37.229-14.59a.342.342,0,0,1,.4.517" transform="translate(21.807 45.817)" fill="#632b1c"/>
      </g>
    </g>
  </g>
</svg>
