<svg xmlns="http://www.w3.org/2000/svg" width="214.853" height="337.232" viewBox="0 0 214.853 337.232">
  <g id="Grupo_145725" data-name="Grupo 145725" transform="translate(9101.049 -2182.836)">
    <path id="Trazado_205101" data-name="Trazado 205101" d="M371.12,569.68c3.91-4,10.207-7.23,17.91-9.2,0-.047,0-.093,0-.141a.349.349,0,0,1,.35-.35.345.345,0,0,1,.338.317c.7-.17,1.4-.332,2.125-.481,0-.115-.005-.226-.005-.342a.35.35,0,0,1,.7,0c0,.07,0,.138,0,.208.412-.081.821-.165,1.24-.239,0-.315-.016-.621-.016-.939a.35.35,0,0,1,.7,0c0,.272.012.535.014.806.57-.094,1.164-.159,1.745-.24,0-.238-.011-.469-.011-.709a.351.351,0,0,1,.35-.35V547.684a20.471,20.471,0,0,1-2.32-3.554c5.717-3.985-5.064-16.018.981-18.547,6.459-2.706.751-8.716,5.625-10.069,3.523-.977,4.8-4.147,5.239-5.831h.022c8.141,0,14.744,4.885,14.863,21.08a3.43,3.43,0,0,1,3.261-.917c2.09.723,2.78,4.213,1.539,7.8s-3.944,5.895-6.034,5.171a2.465,2.465,0,0,1-.881-.573A21.058,21.058,0,0,1,415.2,548.2v10.717l.2.028c0-.194.009-.382.009-.576a.35.35,0,0,1,.7,0c0,.227-.009.445-.011.67.557.075,1.121.139,1.668.226,0-.253.012-.5.012-.753a.351.351,0,0,1,.7,0c0,.294-.012.577-.015.87.421.071.826.159,1.24.238,0-.047,0-.092,0-.138a.35.35,0,0,1,.7,0c0,.092-.005.18-.005.272.73.147,1.452.3,2.161.468a.333.333,0,0,1,.3-.234.349.349,0,0,1,.35.35v.049c12.48,3.109,21.358,9.532,22.5,17.116l.053.009,3.99,15.313c4.122-2.637,9.114-8.149,9.5-12.445.735-8.231-11.772-5.2-11.267-23.2.6-21.436-21.035-4.606-15.625-20.857s-5.01-11.2-8.251-22.216c-2.936-9.979-15.821-8.133-18.234-7.694-2.412-.439-15.3-2.285-18.233,7.694-3.242,11.019-13.659,5.965-8.251,22.216s-16.227-.579-15.625,20.857c.546,19.5-15.628,16.793-9.216,27.747l15.865-15.865Zm16.865-39.835a2.7,2.7,0,0,1,1.8.063c.055.767.133,1.522.22,2.267a1.5,1.5,0,0,0-1.292-.265c-1.155.4-1.409,2.688-.571,5.11.808,2.327,2.327,3.91,3.469,3.678.212.83.413,1.554.59,2.159-2.047.444-4.566-1.792-5.754-5.217-1.239-3.582-.551-7.072,1.539-7.8" transform="translate(-9348 1712)" fill="#29120b"/>
    <path id="Trazado_205102" data-name="Trazado 205102" d="M374.459,732.287h-.035v59.106L355.7,798.476a10.146,10.146,0,0,0-6.558,9.492h43.992a7.922,7.922,0,0,0,7.923-7.922V753.023h-26.6Z" transform="translate(-9348 1712)" fill="#c46e32"/>
    <path id="Trazado_205103" data-name="Trazado 205103" d="M437.643,753.023h-26.6V732.287h-.017v49.147l-.028-.011v18.723c-.2,4.766,2.435,7.922,6.81,7.922H461.8a10.15,10.15,0,0,0-6.559-9.492l-17.584-6.817V733.765h-.018Z" transform="translate(-9348 1712)" fill="#c46e32"/>
    <rect id="Rectángulo_44833" data-name="Rectángulo 44833" width="26.596" height="20.736" transform="translate(-8973.541 2444.287)" fill="#a84d17"/>
    <path id="Trazado_205104" data-name="Trazado 205104" d="M396.136,580.025a89.963,89.963,0,0,1-2.354-20.573c-.419.074-.828.158-1.24.239a109.833,109.833,0,0,0,1.84,20.334Z" transform="translate(-9348 1712)" fill="#c46e32"/>
    <path id="Trazado_205105" data-name="Trazado 205105" d="M371.12,569.68l11.8,10.345h7.639a123.1,123.1,0,0,1-1.53-19.545c-7.7,1.97-14,5.2-17.91,9.2" transform="translate(-9348 1712)" fill="#c46e32"/>
    <path id="Trazado_205106" data-name="Trazado 205106" d="M391.245,580.025H393.7a108.509,108.509,0,0,1-1.86-20.2c-.721.149-1.425.311-2.125.481,0,.013.013.02.013.033a124.187,124.187,0,0,0,1.515,19.686" transform="translate(-9348 1712)" fill="#c46e32"/>
    <path id="Trazado_205107" data-name="Trazado 205107" d="M398.789,580.025a81.58,81.58,0,0,1-2.564-20.946c-.581.08-1.175.145-1.745.239a89.634,89.634,0,0,0,2.391,20.707Z" transform="translate(-9348 1712)" fill="#c46e32"/>
    <path id="Trazado_205108" data-name="Trazado 205108" d="M417.865,580.025a109.858,109.858,0,0,0,1.841-20.4c-.414-.079-.819-.167-1.239-.239a90.147,90.147,0,0,1-2.356,20.643Z" transform="translate(-9348 1712)" fill="#c46e32"/>
    <path id="Trazado_205109" data-name="Trazado 205109" d="M415.375,580.025a89.73,89.73,0,0,0,2.392-20.76c-.547-.087-1.111-.151-1.668-.225a81.642,81.642,0,0,1-2.564,20.985Z" transform="translate(-9348 1712)" fill="#c46e32"/>
    <path id="Trazado_205110" data-name="Trazado 205110" d="M421,580.025a124.311,124.311,0,0,0,1.514-19.686c0-.046.033-.077.048-.116-.708-.169-1.43-.322-2.161-.468a108.548,108.548,0,0,1-1.861,20.27Z" transform="translate(-9348 1712)" fill="#c46e32"/>
    <path id="Trazado_205111" data-name="Trazado 205111" d="M396.914,558.37a81.881,81.881,0,0,0,2.644,21.655h13.208a81.374,81.374,0,0,0,2.635-21.079c-.069-.009-.136-.02-.2-.028v-2.206c-14.046,7.664-18.633-6.61-18.633-6.61v7.918a.35.35,0,0,1,.35.35" transform="translate(-9348 1712)" fill="#c46e32"/>
    <path id="Trazado_205112" data-name="Trazado 205112" d="M415.2,556.713V548.2a12.254,12.254,0,0,1-9.086,4.5c-3.635,0-6.963-1.891-9.547-5.022V550.1s4.587,14.274,18.633,6.61" transform="translate(-9348 1712)" fill="#a84d17"/>
    <path id="Trazado_205113" data-name="Trazado 205113" d="M392.2,542.858c-.177-.606-.377-1.33-.59-2.159-1.141.232-2.661-1.351-3.468-3.678-.839-2.422-.585-4.712.57-5.111a1.507,1.507,0,0,1,1.292.266c-.087-.746-.165-1.5-.22-2.267a2.7,2.7,0,0,0-1.8-.063c-2.09.723-2.778,4.213-1.538,7.795,1.187,3.425,3.707,5.66,5.753,5.217" transform="translate(-9348 1712)" fill="#c46e32"/>
    <path id="Trazado_205114" data-name="Trazado 205114" d="M420.467,540.681c1.153.4,2.77-1.238,3.611-3.66s.585-4.712-.571-5.111c-.79-.274-1.791.419-2.616,1.65a29.141,29.141,0,0,1-1.184,6.335,1.387,1.387,0,0,0,.76.786" transform="translate(-9348 1712)" fill="#29120b"/>
    <path id="Trazado_205115" data-name="Trazado 205115" d="M404.407,538.909h0c.185.027.179.027,0,0" transform="translate(-9348 1712)" fill="#c46e32"/>
    <path id="Trazado_205116" data-name="Trazado 205116" d="M406.111,552.707a12.257,12.257,0,0,0,9.085-4.5,21,21,0,0,0,3.662-5.964,2.486,2.486,0,0,0,.882.574c2.09.723,4.792-1.592,6.033-5.172s.552-7.071-1.538-7.8a3.429,3.429,0,0,0-3.261.917c-.119-16.2-6.723-21.08-14.863-21.08h-.023c-.439,1.685-1.716,4.854-5.239,5.831-4.874,1.353.835,7.363-5.624,10.069-6.045,2.53,4.736,14.562-.981,18.547a20.458,20.458,0,0,0,2.32,3.555c2.583,3.131,5.911,5.022,9.547,5.022m14.78-19.147c.825-1.231,1.827-1.924,2.616-1.65,1.156.4,1.41,2.688.571,5.111s-2.457,4.06-3.611,3.66a1.383,1.383,0,0,1-.759-.786,29.155,29.155,0,0,0,1.183-6.335m-5.132.872c0,.762-1.079,1.38-2.41,1.38s-2.409-.618-2.409-1.38,1.077-1.38,2.409-1.38,2.41.617,2.41,1.38m-3.593-8.1c.379,0,.688.614.688,1.368s-.309,1.369-.688,1.369-.689-.612-.689-1.369.307-1.368.689-1.368m-1.545,3.386a.352.352,0,0,1,.44.229,2.784,2.784,0,0,0,2.569,1.72.351.351,0,0,1-.025.7l-.028,0a3.467,3.467,0,0,1-3.185-2.209.351.351,0,0,1,.229-.44m-5.324-.559a1.094,1.094,0,0,1,2.067-.184c.778,2.039-.207,6.7-1.819,6.829-1.759.147-.762-4.586-.248-6.645m-2.815,9.267a12.4,12.4,0,0,0,1.923.478l.274.031.427.031c.33.019.663.023,1,.013s.661-.039.991-.072a.573.573,0,0,1,.067,0,.345.345,0,0,1,.062-.015c.186-.037.372-.067.557-.108a11.6,11.6,0,0,0,1.9-.59,1.654,1.654,0,0,1,2.014,1.143,1.68,1.68,0,0,1-1.144,2.016,13.053,13.053,0,0,1-8.937.237,1.679,1.679,0,0,1-1.144-2.016,1.651,1.651,0,0,1,2.016-1.144m-2.532-12.094c.381,0,.688.614.688,1.368s-.307,1.369-.688,1.369-.688-.612-.688-1.369.309-1.368.688-1.368m-1.464,5.335a2.8,2.8,0,0,0,2.569-1.718.347.347,0,0,1,.44-.231.353.353,0,0,1,.23.44,3.472,3.472,0,0,1-3.187,2.209l-.027,0a.351.351,0,0,1-.025-.7m-1.633,2.761c0-.763,1.079-1.38,2.409-1.38s2.411.617,2.411,1.38-1.08,1.38-2.411,1.38-2.409-.618-2.409-1.38" transform="translate(-9348 1712)" fill="#c46e32"/>
    <path id="Trazado_205117" data-name="Trazado 205117" d="M405.546,535.808c1.611-.133,2.6-4.79,1.818-6.829a1.093,1.093,0,0,0-2.066.184c-.514,2.058-1.512,6.792.248,6.645" transform="translate(-9348 1712)" fill="#a84d17"/>
    <path id="Trazado_205118" data-name="Trazado 205118" d="M401.673,534.432c0-.763-1.079-1.38-2.411-1.38s-2.409.617-2.409,1.38,1.08,1.38,2.409,1.38,2.411-.618,2.411-1.38" transform="translate(-9348 1712)" fill="#f1a876"/>
    <path id="Trazado_205119" data-name="Trazado 205119" d="M410.94,534.432c0,.762,1.077,1.38,2.409,1.38s2.41-.618,2.41-1.38-1.079-1.38-2.41-1.38-2.409.617-2.409,1.38" transform="translate(-9348 1712)" fill="#f1a876"/>
    <path id="Trazado_205120" data-name="Trazado 205120" d="M399.95,529.073c.381,0,.688-.612.688-1.369s-.307-1.368-.688-1.368-.688.614-.688,1.368.309,1.369.688,1.369" transform="translate(-9348 1712)" fill="#29120b"/>
    <path id="Trazado_205121" data-name="Trazado 205121" d="M412.166,529.073c.379,0,.688-.612.688-1.369s-.309-1.368-.688-1.368-.688.614-.688,1.368.307,1.369.688,1.369" transform="translate(-9348 1712)" fill="#29120b"/>
    <path id="Trazado_205122" data-name="Trazado 205122" d="M400.466,539.574a1.678,1.678,0,0,0,1.144,2.016,13.053,13.053,0,0,0,8.937-.237,1.68,1.68,0,0,0,1.144-2.015,1.653,1.653,0,0,0-2.014-1.144,11.489,11.489,0,0,1-1.9.59c-.186.041-.372.071-.557.108a.467.467,0,0,0-.063.015c-.022,0-.019,0-.067,0-.33.034-.658.063-.991.073s-.665.006-1-.014l-.426-.031-.275-.031a12.543,12.543,0,0,1-1.923-.477,1.651,1.651,0,0,0-2.016,1.143m3.944-.665h0c.182.027.189.027,0,0m-2.573.937c.047.012,4.563,1.122,8.147-.491l.465.174-.176.464a12.037,12.037,0,0,1-4.9.946,16.261,16.261,0,0,1-3.7-.415.35.35,0,0,1,.172-.678" transform="translate(-9348 1712)" fill="#a84d17"/>
    <path id="Trazado_205123" data-name="Trazado 205123" d="M401.665,540.524a16.363,16.363,0,0,0,3.7.414,12.038,12.038,0,0,0,4.9-.946l.176-.463-.465-.174c-3.584,1.613-8.1.5-8.147.491a.35.35,0,0,0-.172.678" transform="translate(-9348 1712)" fill="#29120b"/>
    <path id="Trazado_205124" data-name="Trazado 205124" d="M398.511,532.373l.027,0a3.475,3.475,0,0,0,3.187-2.209.352.352,0,0,0-.231-.44.347.347,0,0,0-.439.23,2.8,2.8,0,0,1-2.569,1.719.351.351,0,0,0,.025.7" transform="translate(-9348 1712)" fill="#29120b"/>
    <path id="Trazado_205125" data-name="Trazado 205125" d="M413.578,532.371l.027,0a.351.351,0,0,0,.026-.7,2.783,2.783,0,0,1-2.569-1.721.351.351,0,0,0-.669.212,3.467,3.467,0,0,0,3.185,2.209" transform="translate(-9348 1712)" fill="#29120b"/>
    <path id="Trazado_205126" data-name="Trazado 205126" d="M407.049,675.7c.146.188.258.35.389.526q.8-1.009,1.819-2.166c-.08-.021-.153-.036-.243-.066q-1.021.915-1.965,1.706" transform="translate(-9348 1712)" fill="#f3e5ce"/>
    <path id="Trazado_205127" data-name="Trazado 205127" d="M404.164,672.3c.3.331.568.641.846.958.278-.317.545-.627.846-.958-.277-.178-.551-.355-.846-.556-.3.2-.57.377-.846.556" transform="translate(-9348 1712)" fill="#f3e5ce"/>
    <path id="Trazado_205128" data-name="Trazado 205128" d="M409.956,673.287c.333-.365.675-.733,1.034-1.111-.364.345-.724.685-1.079,1.012q.024.051.045.1" transform="translate(-9348 1712)" fill="#f3e5ce"/>
    <path id="Trazado_205129" data-name="Trazado 205129" d="M407.441,669.987c.1.1.2.21.29.311.638-.661,1.306-1.337,2-2.02.252-.246.495-.47.744-.71-1.045.874-2.062,1.681-3.036,2.419" transform="translate(-9348 1712)" fill="#f3e5ce"/>
    <path id="Trazado_205130" data-name="Trazado 205130" d="M395.619,663.993l.243.206c-.077-.077-.164-.157-.24-.233l0,.027" transform="translate(-9348 1712)" fill="#f3e5ce"/>
    <path id="Trazado_205131" data-name="Trazado 205131" d="M402.578,669.987c-.978-.741-2-1.551-3.048-2.429.254.243.5.47.754.721q1.044,1.023,2.005,2.019c.09-.1.193-.207.289-.311" transform="translate(-9348 1712)" fill="#f3e5ce"/>
    <path id="Trazado_205132" data-name="Trazado 205132" d="M400.761,674.064q1.025,1.156,1.82,2.167c.131-.177.243-.339.389-.526q-.942-.789-1.965-1.707c-.091.031-.164.045-.244.066" transform="translate(-9348 1712)" fill="#f3e5ce"/>
    <path id="Trazado_205133" data-name="Trazado 205133" d="M400.063,673.287q.02-.048.045-.1c-.36-.33-.723-.674-1.091-1.023.363.381.708.754,1.046,1.122" transform="translate(-9348 1712)" fill="#f3e5ce"/>
    <path id="Trazado_205134" data-name="Trazado 205134" d="M414.158,664.2c.082-.071.16-.135.241-.2l0-.027c-.075.076-.162.155-.238.232" transform="translate(-9348 1712)" fill="#f3e5ce"/>
    <path id="Trazado_205135" data-name="Trazado 205135" d="M419.429,674.153c-4.581,4.495-8.872,7.549-9.586,6.821-.532-.542,1.041-3.177,3.77-6.343a57.853,57.853,0,0,1-4.726,3.953c.141.366.2.662.078.789-.148.151-.521.066-1.009-.147-1.385.924-2.377,1.358-2.672,1.056-.261-.267.049-1.056.78-2.181-.336-.233-.675-.47-1.055-.758-.379.288-.718.525-1.054.758.731,1.125,1.041,1.914.779,2.181-.3.3-1.286-.132-2.671-1.056-.488.213-.86.3-1.008.147-.125-.127-.064-.423.077-.789a57.494,57.494,0,0,1-4.725-3.953c2.728,3.166,4.3,5.8,3.768,6.343-.712.728-5-2.326-9.586-6.821a55.389,55.389,0,0,1-5.469-6.115l-17.327-18.877-7.972,83.126H429.1l8.561-58.124v58.124h16.063L444.673,646.5l-19.765,21.531a55.25,55.25,0,0,1-5.479,6.126" transform="translate(-9348 1712)" fill="#f3e5ce"/>
    <path id="Trazado_205136" data-name="Trazado 205136" d="M406.122,594.722c-4.154,0-7.758-5.742-9.986-14.7h-1.754c2.354,12.227,6.729,20.486,11.74,20.486s9.388-8.259,11.742-20.486H416.11c-2.228,8.955-5.833,14.7-9.988,14.7" transform="translate(-9348 1712)" fill="#f3e5ce"/>
    <path id="Trazado_205137" data-name="Trazado 205137" d="M406.122,601.211c-5.32,0-9.961-8.555-12.42-21.186h-2.458c2.6,16.1,8.291,27.3,14.878,27.3s12.277-11.2,14.88-27.3h-2.459c-2.459,12.631-7.1,21.186-12.421,21.186" transform="translate(-9348 1712)" fill="#f3e5ce"/>
    <path id="Trazado_205138" data-name="Trazado 205138" d="M406.162,590.394c-2.957,0-5.566-3.978-7.373-10.368h-1.918c2.132,8.487,5.481,13.995,9.252,13.995s7.12-5.508,9.252-13.995h-1.84c-1.807,6.39-4.416,10.368-7.373,10.368" transform="translate(-9348 1712)" fill="#f3e5ce"/>
    <path id="Trazado_205139" data-name="Trazado 205139" d="M406.162,589.692c2.559,0,4.91-3.75,6.6-9.666H399.558c1.694,5.916,4.045,9.666,6.6,9.666" transform="translate(-9348 1712)" fill="#f3e5ce"/>
    <path id="Trazado_205140" data-name="Trazado 205140" d="M445.715,577.5c-1.14-7.583-10.017-14.007-22.5-17.116a123.169,123.169,0,0,1-1.531,19.638H428.2l10.512,40.332-21.27,35.748c-.693-.043-1.408-.074-2.157-.079-4.792-.031-8.683.771-8.689,1.787-.007.952,3.394,1.748,7.748,1.875-1.729,1.31-3.766,2.972-5.914,4.787-1.241,1.048-2.386,2.08-3.424,3.063-1.037-.983-2.182-2.015-3.422-3.063-2.149-1.815-4.186-3.477-5.916-4.787,4.356-.127,7.755-.923,7.749-1.875-.007-1.016-3.9-1.818-8.69-1.787-.749.005-1.464.036-2.157.079L371.3,620.357l1.189-4.562L358.04,601.343l-5.208,19.985a17.631,17.631,0,0,0,6.353,18.456l8.608,9.378,17.327,18.877a55.389,55.389,0,0,0,5.469,6.115c4.581,4.494,8.874,7.548,9.586,6.821.531-.542-1.04-3.177-3.768-6.343a57.717,57.717,0,0,0,4.725,3.953c-.141.365-.2.662-.077.789.148.151.52.066,1.008-.147,1.385.924,2.376,1.357,2.671,1.056.262-.267-.048-1.056-.779-2.181.336-.234.675-.471,1.054-.758.38.287.719.524,1.055.758-.731,1.125-1.041,1.914-.78,2.181.3.3,1.287-.132,2.672-1.056.488.213.861.3,1.009.147.125-.127.063-.424-.078-.789a57.878,57.878,0,0,0,4.726-3.953c-2.729,3.166-4.3,5.8-3.77,6.343.714.727,5.005-2.327,9.586-6.821a55.25,55.25,0,0,0,5.479-6.126L444.673,646.5l6.162-6.712a17.637,17.637,0,0,0,6.352-18.456l-7.428-28.5-3.99-15.313Zm-50.1,86.49a.263.263,0,0,1,0-.028c.075.077.163.156.239.234-.082-.072-.16-.136-.242-.206m4.443,9.293c-.336-.368-.681-.741-1.044-1.121.367.348.731.692,1.09,1.022-.016.034-.032.067-.046.1m-.531-5.729c1.048.878,2.069,1.688,3.046,2.429-.1.1-.2.21-.289.31q-.957-.992-2-2.019c-.254-.25-.5-.477-.753-.72m3.05,8.673q-.8-1.01-1.82-2.167c.08-.021.153-.035.244-.066q1.021.915,1.965,1.707c-.146.187-.258.349-.389.526m2.428-2.972c-.277-.317-.545-.627-.845-.958.276-.178.55-.355.845-.556.295.2.57.378.846.557-.3.33-.568.64-.846.957m2.429,2.971c-.131-.176-.243-.338-.389-.526q.942-.789,1.965-1.7c.09.03.164.044.243.065q-1.024,1.156-1.819,2.166m.293-5.932c-.092-.1-.194-.208-.29-.311.974-.738,1.992-1.545,3.036-2.419-.249.24-.492.464-.743.71-.7.683-1.365,1.359-2,2.02m2.225,2.989c-.014-.031-.03-.065-.046-.1.356-.327.716-.667,1.08-1.012-.359.377-.7.746-1.034,1.11m4.2-9.088c.076-.077.163-.156.238-.232l0,.027c-.081.07-.159.134-.241.2" transform="translate(-9348 1712)" fill="#c46e32"/>
    <path id="Trazado_205141" data-name="Trazado 205141" d="M358.041,601.343l14.452,14.452-1.188,4.562,21.268,35.749c.694-.042,1.408-.073,2.157-.078,4.794-.032,8.683.77,8.691,1.787.005.951-3.394,1.747-7.749,1.874,1.729,1.31,3.766,2.972,5.915,4.787,1.241,1.048,2.386,2.08,3.423,3.063,1.037-.983,2.183-2.015,3.424-3.063,2.148-1.815,4.184-3.477,5.914-4.787-4.354-.126-7.755-.923-7.748-1.874.006-1.017,3.9-1.819,8.689-1.787.749.005,1.464.036,2.157.078l21.27-35.748L428.2,580.026h-6.516c-2.693,16.5-8.654,28-15.565,28s-12.871-11.5-15.563-28h-7.639l-11.8-10.345-.7-.614-15.865,15.865-6.462,6.463Z" transform="translate(-9348 1712)" fill="#f3e5ce"/>
    <path id="Trazado_205142" data-name="Trazado 205142" d="M429.1,732.287H411.045v20.736h26.6V733.765h.018v-59.6Z" transform="translate(-9348 1712)" fill="#a84d17"/>
    <path id="Trazado_205143" data-name="Trazado 205143" d="M406.162,590.394c2.957,0,5.566-3.978,7.373-10.368a81.641,81.641,0,0,0,2.564-20.985c0-.225.011-.443.011-.67a.35.35,0,0,0-.7,0c0,.194-.008.382-.009.576a81.373,81.373,0,0,1-2.635,21.079c-1.694,5.916-4.045,9.666-6.6,9.666s-4.91-3.75-6.6-9.666a81.927,81.927,0,0,1-2.644-21.655.35.35,0,0,0-.7,0c0,.24.009.471.011.709a81.579,81.579,0,0,0,2.564,20.946c1.807,6.39,4.416,10.368,7.373,10.368" transform="translate(-9348 1712)" fill="#96191d"/>
    <path id="Trazado_205144" data-name="Trazado 205144" d="M406.122,594.722c4.155,0,7.76-5.742,9.988-14.7a90.08,90.08,0,0,0,2.356-20.642c0-.293.014-.576.014-.87a.351.351,0,0,0-.7,0c0,.254-.011.5-.013.753a89.672,89.672,0,0,1-2.392,20.759c-2.131,8.488-5.48,13.995-9.252,13.995s-7.119-5.507-9.252-13.995a89.687,89.687,0,0,1-2.391-20.706c0-.271-.013-.534-.013-.806a.35.35,0,0,0-.7,0c0,.318.013.624.015.939a90.015,90.015,0,0,0,2.355,20.573c2.228,8.955,5.832,14.7,9.986,14.7" transform="translate(-9348 1712)" fill="#96191d"/>
    <path id="Trazado_205145" data-name="Trazado 205145" d="M406.122,601.211c5.321,0,9.962-8.555,12.421-21.186a108.64,108.64,0,0,0,1.86-20.27c0-.092,0-.181,0-.272a.35.35,0,0,0-.7,0c0,.046,0,.091,0,.138a109.856,109.856,0,0,1-1.842,20.4c-2.354,12.227-6.73,20.486-11.742,20.486s-9.386-8.259-11.74-20.486a109.915,109.915,0,0,1-1.841-20.334c0-.071,0-.138,0-.208a.351.351,0,0,0-.7,0c0,.115.006.227.006.342a108.509,108.509,0,0,0,1.86,20.2c2.459,12.631,7.1,21.186,12.42,21.186" transform="translate(-9348 1712)" fill="#96191d"/>
    <path id="Trazado_205146" data-name="Trazado 205146" d="M423.218,560.339a.349.349,0,0,0-.35-.35.333.333,0,0,0-.3.234c-.016.039-.049.071-.049.116A124.311,124.311,0,0,1,421,580.025c-2.6,16.1-8.291,27.3-14.88,27.3s-12.275-11.2-14.878-27.3a124.311,124.311,0,0,1-1.514-19.686c0-.013-.012-.02-.013-.033a.345.345,0,0,0-.688.033c0,.047,0,.094,0,.141a123.1,123.1,0,0,0,1.529,19.545c2.693,16.5,8.653,28,15.563,28s12.873-11.5,15.565-28a123.047,123.047,0,0,0,1.53-19.637v-.049" transform="translate(-9348 1712)" fill="#96191d"/>
    <path id="Trazado_205147" data-name="Trazado 205147" d="M353.744,598.318v.213c.989-.385,1.914-.718,2.752-.99-.072-.207-.139-.405-.212-.613q-1.179.675-2.54,1.39" transform="translate(-9348 1712)" fill="#f9be6e"/>
    <path id="Trazado_205148" data-name="Trazado 205148" d="M315.085,529.722a9.165,9.165,0,0,1-.475-6.824,18.425,18.425,0,0,1-1.289,1.6v10.255q1.206.117,2.388.265a7.724,7.724,0,0,0-.624-5.3" transform="translate(-9348 1712)" fill="#f9be6e"/>
    <path id="Trazado_205149" data-name="Trazado 205149" d="M294.692,523.988c-.375-.454-.733-.937-1.076-1.442.573,2.234.957,4.5-.386,7.176a7.734,7.734,0,0,0-.621,5.32c.689-.087,1.382-.169,2.083-.241V523.988Z" transform="translate(-9348 1712)" fill="#f9be6e"/>
    <path id="Trazado_205150" data-name="Trazado 205150" d="M353.744,590.177v.092l.032-.011c-.011-.027-.022-.054-.032-.081" transform="translate(-9348 1712)" fill="#f9be6e"/>
    <path id="Trazado_205151" data-name="Trazado 205151" d="M354.675,592.575c-.291.229-.6.464-.931.709v1.262c.505-.2,1-.388,1.467-.562-.173-.462-.356-.938-.536-1.409" transform="translate(-9348 1712)" fill="#f9be6e"/>
    <path id="Trazado_205152" data-name="Trazado 205152" d="M353.744,602.321v.135a28.884,28.884,0,0,1,4.03-1.134c-.117-.359-.237-.723-.359-1.089-1.054.657-2.3,1.364-3.671,2.088" transform="translate(-9348 1712)" fill="#f9be6e"/>
    <path id="Trazado_205153" data-name="Trazado 205153" d="M359.559,635.686c3.047-4.2,4.741-13.175-1.112-32.228a38.273,38.273,0,0,1-4.7,2.908V639.3a8.708,8.708,0,0,0,5.815-3.611" transform="translate(-9348 1712)" fill="#f9be6e"/>
    <rect id="Rectángulo_44834" data-name="Rectángulo 44834" width="0.027" height="5.054" transform="translate(-9075.381 2462.456)" fill="#c46e32"/>
    <path id="Trazado_205154" data-name="Trazado 205154" d="M299.241,750.456v5.054h.008V679.728h-.008Z" transform="translate(-9348 1712)" fill="#c46e32"/>
    <rect id="Rectángulo_44835" data-name="Rectángulo 44835" width="0.027" height="5.054" transform="translate(-9012.172 2462.456)" fill="#c46e32"/>
    <path id="Trazado_205155" data-name="Trazado 205155" d="M309.232,750.456V679.728h-.008V755.51h.008Z" transform="translate(-9348 1712)" fill="#c46e32"/>
    <path id="Trazado_205156" data-name="Trazado 205156" d="M308.524,604.567l.09-.016-.031-.078,17.68-41.65.46-.186.186.459-17.681,41.651,4.952,2.1,21.974,9.327.458-.185,4.115,1.746,3.384-7.111h0l6.216-14.641c1.194-.53,2.34-1.012,3.419-1.439v-1.262c-.918.673-2,1.4-3.189,2.159l2-4.715c.42-.172.814-.324,1.187-.459v-.092c-.153-.386-.3-.77-.46-1.162l1.03-2.426.274-.647a34.667,34.667,0,0,0-1.832-30.78c-1.807-4.7-6.015-8.933-11.921-12.343a34.85,34.85,0,0,0-4.658-2.453l-.035.083a71.267,71.267,0,0,0-17.83-5.062,53.687,53.687,0,0,0-3.4,7.959c-1.587-2.684.167-5.28.794-8.322q-1.184-.148-2.388-.266v1.567a9.315,9.315,0,1,1-18.63,0V534.8c-.7.072-1.394.154-2.083.241.63,3.035,2.374,5.626.791,8.3a53.551,53.551,0,0,0-3.385-7.937c-1.01.159-2.009.332-2.991.524,0,.015.013.028.016.044.092.631,5.9,38.81,21.484,68.59" transform="translate(-9348 1712)" fill="#fde3bd"/>
    <path id="Trazado_205157" data-name="Trazado 205157" d="M294.692,526.4v9.92a9.315,9.315,0,1,0,18.63,0v-3.308c-14.043,7.662-18.63-6.612-18.63-6.612" transform="translate(-9348 1712)" fill="#c46e32"/>
    <path id="Trazado_205158" data-name="Trazado 205158" d="M304.237,529.008c-3.634,0-6.962-1.89-9.546-5.021V526.4s4.588,14.274,18.631,6.612V524.5a12.256,12.256,0,0,1-9.085,4.505" transform="translate(-9348 1712)" fill="#a84d17"/>
    <path id="Trazado_205159" data-name="Trazado 205159" d="M286.269,513.322c-.841-2.422-.584-4.71.569-5.111.623-.216,1.379.175,2.076.95a22.191,22.191,0,0,1,.2-2.284,3.275,3.275,0,0,0-3-.73c-2.092.725-2.78,4.215-1.539,7.8,1.079,3.113,3.26,5.264,5.186,5.3-.138-.712-.26-1.451-.368-2.208-1.088-.107-2.4-1.613-3.123-3.71" transform="translate(-9348 1712)" fill="#c46e32"/>
    <path id="Trazado_205160" data-name="Trazado 205160" d="M321.633,508.212c1.156.4,1.412,2.688.571,5.111-.762,2.2-2.162,3.738-3.279,3.7-.108.754-.23,1.492-.366,2.2,1.963.084,4.231-2.088,5.34-5.286,1.242-3.579.553-7.069-1.539-7.8a3.359,3.359,0,0,0-3.139.831,23.092,23.092,0,0,1,.184,2.363c.738-.894,1.559-1.361,2.228-1.129" transform="translate(-9348 1712)" fill="#c46e32"/>
    <path id="Trazado_205161" data-name="Trazado 205161" d="M304.237,529.009a12.253,12.253,0,0,0,9.085-4.5,18.445,18.445,0,0,0,1.289-1.606c.63-2.574,1.618-5.08.629-8.1a16.612,16.612,0,0,1,.071-9.761c-3.961-2.619-9.794-8.213-11.091-18.949-1.308,10.832-7.233,16.428-11.2,19.018a16.554,16.554,0,0,1,.05,9.692c-.943,2.883-.087,5.3.541,7.75.343.505.7.987,1.076,1.441,2.584,3.131,5.911,5.021,9.545,5.021m6.272-24.918c.4,0,.735.657.735,1.466s-.33,1.465-.735,1.465-.737-.656-.737-1.465.328-1.466.737-1.466m-1.646,3.648a.349.349,0,0,1,.44.229,3,3,0,0,0,2.772,1.859.351.351,0,0,1-.027.7h-.026a3.684,3.684,0,0,1-3.388-2.35.348.348,0,0,1,.229-.438m-5.705-.622a1.17,1.17,0,0,1,2.211-.2c.833,2.182-.221,7.167-1.945,7.31-1.883.156-.816-4.909-.266-7.113m-3.015,9.919a13.439,13.439,0,0,0,2.061.511l.293.032.455.033c.354.022.71.026,1.064.016s.71-.041,1.064-.078c.048-.005.043,0,.066-.005a.556.556,0,0,1,.07-.017c.2-.039.4-.07.6-.113a12.41,12.41,0,0,0,2.031-.633A1.771,1.771,0,0,1,310,518.007a1.8,1.8,0,0,1-1.224,2.157,13.963,13.963,0,0,1-9.567.252,1.8,1.8,0,0,1-1.224-2.156,1.768,1.768,0,0,1,2.157-1.224m-2.708-12.945c.407,0,.737.657.737,1.466s-.33,1.465-.737,1.465-.737-.656-.737-1.465.33-1.466.737-1.466m-1.566,5.736a3,3,0,0,0,2.772-1.861.351.351,0,0,1,.44-.227.348.348,0,0,1,.229.438,3.689,3.689,0,0,1-3.388,2.35h-.028a.351.351,0,0,1-.025-.7" transform="translate(-9348 1712)" fill="#c46e32"/>
    <path id="Trazado_205162" data-name="Trazado 205162" d="M303.423,514.23c1.724-.143,2.778-5.128,1.945-7.31a1.17,1.17,0,0,0-2.211.2c-.549,2.2-1.617,7.269.266,7.113" transform="translate(-9348 1712)" fill="#a84d17"/>
    <path id="Trazado_205163" data-name="Trazado 205163" d="M297.435,507.021c.406,0,.737-.655.737-1.465s-.331-1.466-.737-1.466-.738.657-.738,1.466.33,1.465.738,1.465" transform="translate(-9348 1712)" fill="#29120b"/>
    <path id="Trazado_205164" data-name="Trazado 205164" d="M310.509,507.021c.4,0,.735-.655.735-1.465s-.33-1.466-.735-1.466-.737.657-.737,1.466.328,1.465.737,1.465" transform="translate(-9348 1712)" fill="#29120b"/>
    <path id="Trazado_205165" data-name="Trazado 205165" d="M297.986,518.259a1.794,1.794,0,0,0,1.223,2.157,13.957,13.957,0,0,0,9.567-.253A1.8,1.8,0,0,0,310,518.007a1.772,1.772,0,0,0-2.157-1.226,12.32,12.32,0,0,1-2.031.634c-.2.043-.4.074-.6.113a.546.546,0,0,0-.071.017.65.65,0,0,0-.066.005c-.354.037-.708.066-1.064.078s-.71.006-1.063-.016l-.456-.033-.293-.032a13.464,13.464,0,0,1-2.061-.512,1.768,1.768,0,0,0-2.156,1.224m1.462.315c.049.01,4.892,1.2,8.735-.528l.464.176-.176.463a12.852,12.852,0,0,1-5.24,1.009,17.434,17.434,0,0,1-3.955-.442.35.35,0,1,1,.172-.678" transform="translate(-9348 1712)" fill="#a84d17"/>
    <path id="Trazado_205166" data-name="Trazado 205166" d="M299.276,519.252a17.5,17.5,0,0,0,3.955.442,12.869,12.869,0,0,0,5.24-1.009l.176-.463-.463-.176c-3.844,1.728-8.687.537-8.736.528a.35.35,0,1,0-.172.678" transform="translate(-9348 1712)" fill="#29120b"/>
    <path id="Trazado_205167" data-name="Trazado 205167" d="M295.894,510.527h.027a3.69,3.69,0,0,0,3.389-2.35.351.351,0,0,0-.669-.211,3,3,0,0,1-2.772,1.861.351.351,0,0,0,.025.7" transform="translate(-9348 1712)" fill="#29120b"/>
    <path id="Trazado_205168" data-name="Trazado 205168" d="M312.022,510.527h.025a.351.351,0,0,0,.028-.7,3.007,3.007,0,0,1-2.773-1.859.35.35,0,0,0-.668.209,3.684,3.684,0,0,0,3.388,2.35" transform="translate(-9348 1712)" fill="#29120b"/>
    <rect id="Rectángulo_44836" data-name="Rectángulo 44836" width="26.595" height="5.054" transform="translate(-9075.354 2462.456)" fill="#a84d17"/>
    <rect id="Rectángulo_44837" data-name="Rectángulo 44837" width="26.596" height="5.054" transform="translate(-9038.768 2462.456)" fill="#a84d17"/>
    <path id="Trazado_205169" data-name="Trazado 205169" d="M272.646,755.51H269.7V792.5l-15.808,5.978a10.148,10.148,0,0,0-6.556,9.492h43.992a7.922,7.922,0,0,0,7.922-7.922V755.51h-26.6Z" transform="translate(-9348 1712)" fill="#29120b"/>
    <path id="Trazado_205170" data-name="Trazado 205170" d="M309.232,755.51h-.008v44.536a7.922,7.922,0,0,0,7.922,7.922h43.993a10.146,10.146,0,0,0-6.56-9.492L338.772,792.5V755.51h-29.54Z" transform="translate(-9348 1712)" fill="#29120b"/>
    <path id="Trazado_205171" data-name="Trazado 205171" d="M304.25,485.986c7.49,0,13.708,6.31,15.01,14.63l.007.037c2.372-2.747,4.523-6.77,2.039-9.462-10.8-11.706-7.808-20.355-17.3-20.355s-6.572,9.551-17.071,20.355c-2.718,2.8-.568,6.976,2.212,9.852l.033.035c1.138-8.546,7.443-15.092,15.07-15.092" transform="translate(-9348 1712)" fill="#fde3bd"/>
    <path id="Trazado_205172" data-name="Trazado 205172" d="M299.241,750.456V679.728c-12.557-.259-23.73-1.488-31.742-3.317l-4.876,74.045h36.618Z" transform="translate(-9348 1712)" fill="#eec893"/>
    <path id="Trazado_205173" data-name="Trazado 205173" d="M309.232,750.456H345.85l-4.878-74.045c-8.011,1.829-19.183,3.058-31.74,3.317Z" transform="translate(-9348 1712)" fill="#eec893"/>
    <path id="Trazado_205174" data-name="Trazado 205174" d="M254.729,598.22v.239c.744.287,1.523.6,2.33.948-.809-.4-1.588-.8-2.33-1.187" transform="translate(-9348 1712)" fill="#fde3bd"/>
    <path id="Trazado_205175" data-name="Trazado 205175" d="M352.077,639.377l.094,0a7.132,7.132,0,0,0,1.574-.085v-32.93c-1.045.562-2.158,1.133-3.355,1.7-2.011.945-3.915,1.725-5.585,2.32l.085.239-3.674,7.719-.316.2-.137-.029-4.425-1.877-.017-.042a24.165,24.165,0,0,1-11.462,10.841c7.568,7.3,16.468,11.945,26.884,11.945Z" transform="translate(-9348 1712)" fill="#fde3bd"/>
    <path id="Trazado_205176" data-name="Trazado 205176" d="M352.876,602.77c.294-.11.585-.215.869-.314v-.135c-.283.149-.575.3-.869.449" transform="translate(-9348 1712)" fill="#fde3bd"/>
    <path id="Trazado_205177" data-name="Trazado 205177" d="M351.6,599.408c.741-.317,1.458-.61,2.146-.878v-.212c-.687.36-1.4.724-2.146,1.09" transform="translate(-9348 1712)" fill="#fde3bd"/>
    <path id="Trazado_205178" data-name="Trazado 205178" d="M254.729,602.222v.172c.344.117.694.242,1.054.376q-.539-.275-1.054-.548" transform="translate(-9348 1712)" fill="#fde3bd"/>
    <path id="Trazado_205179" data-name="Trazado 205179" d="M353.744,669.563V641.176a10.407,10.407,0,0,1-1.22.088c-.231,0-.4-.009-.483-.015h-.293a35.477,35.477,0,0,1-7.57-.82c-2.185,3.578-11.832,17.713-27.434,17.33l-.013.011c-.132,0-.272-.026-.406-.031-.614-.026-1.236-.071-1.869-.142-.24-.028-.482-.063-.725-.1q-.912-.129-1.848-.328c-.151-.032-.295-.044-.446-.079l.018-.014a34.393,34.393,0,0,1-8.912-3.474l-.014.008c-.6-.33-1.212-.676-1.828-1.054-.639-.391-1.249-.815-1.845-1.255l.036-.02c-7.021-5.159-11.086-13.466-13.209-23.087a24.2,24.2,0,0,1-13.426-11.773l-.034.085-4.724,2-.137.029-.322-.215-3.277-7.719.091-.225c-1.671-.6-3.575-1.375-5.587-2.321-1.266-.6-2.445-1.2-3.539-1.794v63.295c0,2.635,4.835,5.036,12.771,6.848,8.012,1.83,19.184,3.058,31.742,3.318h.008q2.46.051,4.987.052t4.988-.052h.008c12.556-.26,23.729-1.488,31.74-3.317,7.936-1.813,12.772-4.214,12.772-6.849" transform="translate(-9348 1712)" fill="#fde3bd"/>
    <path id="Trazado_205180" data-name="Trazado 205180" d="M356.5,597.541q.979-.318,1.785-.522-.183-.523-.372-1.055c-.5.31-1.046.632-1.626.964.074.208.141.407.213.613" transform="translate(-9348 1712)" fill="#eec893"/>
    <path id="Trazado_205181" data-name="Trazado 205181" d="M355.211,593.983c.62-.23,1.2-.434,1.756-.617q-.383-1.029-.789-2.087a18.6,18.6,0,0,1-1.5,1.295c.18.471.364.948.536,1.409" transform="translate(-9348 1712)" fill="#eec893"/>
    <path id="Trazado_205182" data-name="Trazado 205182" d="M358.447,603.458c5.852,19.053,4.159,28.024,1.112,32.228a8.709,8.709,0,0,1-5.815,3.611,7.134,7.134,0,0,1-1.574.085l-.094,0-.334,0c-10.416,0-19.316-4.643-26.883-11.946-.129.059-.254.125-.384.181.632.571,1.267,1.157,1.885,1.676-8.569,13.951-18,21-23.817,24.314a34.393,34.393,0,0,0,8.912,3.474c5.812-4.3,13.381-11.692,20.077-23.858,1.1.753,2.166,1.423,3.173,2.018a78.557,78.557,0,0,1-17.961,22.52c15.6.383,25.249-13.752,27.434-17.33a35.477,35.477,0,0,0,7.57.82h.293c.086.006.252.015.483.015a10.7,10.7,0,0,0,8.52-4.44c3.355-4.589,5.289-14.3-1.1-34.779a6.752,6.752,0,0,1-1.5,1.413" transform="translate(-9348 1712)" fill="#eec893"/>
    <path id="Trazado_205183" data-name="Trazado 205183" d="M357.774,601.322a5.679,5.679,0,0,1,1.9-.123c-.212-.667-.427-1.337-.657-2.027-.468.333-1.006.689-1.6,1.061.121.366.242.73.358,1.089" transform="translate(-9348 1712)" fill="#eec893"/>
    <path id="Trazado_205184" data-name="Trazado 205184" d="M353.744,590.177c.01.027.021.054.032.081a15.3,15.3,0,0,1,1.79-.546q-.6-1.53-1.252-3.123l-1.03,2.426c.157.392.308.776.46,1.162" transform="translate(-9348 1712)" fill="#eec893"/>
    <path id="Trazado_205185" data-name="Trazado 205185" d="M286.952,574.49l3.957,9.322c1.893-.613,3.866-1.335,5.914-2.189q.6,1.836,1.224,3.593c-1.957.816-3.831,1.491-5.653,2.093l2.783,6.557c1.719-.671,3.475-1.4,5.3-2.27q.725,1.781,1.474,3.474c-1.813.863-3.573,1.622-5.287,2.3l3.015,7.1,0,.01,4.654.846,4.195-.762c-15.579-29.781-21.392-67.96-21.485-68.591,0-.016-.012-.028-.015-.044a.925.925,0,0,0-1.046-.746.937.937,0,0,0-.788,1.062c0,.005.005.038.009.063.113.749,1.592,10.347,4.9,23.408-.72,2.873-1.948,8.12-3.146,14.771" transform="translate(-9348 1712)" fill="#eec893"/>
    <path id="Trazado_205186" data-name="Trazado 205186" d="M322.467,628.379a24.163,24.163,0,0,1-14.893.152l-.086.209-3.159-1.342-3.158,1.342-.087-.209a24.159,24.159,0,0,1-15.4-.334c2.122,9.621,6.188,17.928,13.209,23.087,4.822-2.477,14.61-8.865,23.574-22.9" transform="translate(-9348 1712)" fill="#eec893"/>
    <path id="Trazado_205187" data-name="Trazado 205187" d="M326.361,629.291c-.618-.519-1.254-1.105-1.885-1.677-.658.286-1.328.538-2.009.765-8.964,14.04-18.751,20.428-23.574,22.9l-.037.02c.6.44,1.207.864,1.846,1.255.616.377,1.224.723,1.828,1.054l.014-.008c5.813-3.311,15.248-10.363,23.817-24.314" transform="translate(-9348 1712)" fill="#29120b"/>
    <path id="Trazado_205188" data-name="Trazado 205188" d="M334.7,635.238c-1.007-.594-2.068-1.265-3.173-2.018-6.7,12.167-14.265,19.553-20.077,23.858l-.018.015c.152.034.295.047.446.079.624.131,1.24.242,1.848.328.243.034.485.069.725.1.633.072,1.255.117,1.869.142.134.006.274.027.407.031l.012-.011a78.542,78.542,0,0,0,17.961-22.52" transform="translate(-9348 1712)" fill="#29120b"/>
    <path id="Trazado_205189" data-name="Trazado 205189" d="M301.084,628.531l.087.209,3.158-1.342-29.313-12.456-2.609,1.107h0l-.152.375a24.319,24.319,0,0,0,28.827,12.107" transform="translate(-9348 1712)" fill="#a84d17"/>
    <path id="Trazado_205190" data-name="Trazado 205190" d="M308.905,604.959l-.137-.027-.154-.382-.091.016-4.194.763,9.746,1.77.105-.251-4.952-2.1Z" transform="translate(-9348 1712)" fill="#a84d17"/>
    <path id="Trazado_205191" data-name="Trazado 205191" d="M353.744,590.268c-.373.135-.766.287-1.187.459l-2,4.715c1.191-.755,2.271-1.486,3.189-2.159.334-.245.64-.48.931-.709a18.571,18.571,0,0,0,1.5-1.3c.709-.7,1.039-1.226.884-1.5-.14-.248-.689-.245-1.5-.066a15.286,15.286,0,0,0-1.79.546l-.032.011" transform="translate(-9348 1712)" fill="#a84d17"/>
    <path id="Trazado_205192" data-name="Trazado 205192" d="M353.744,594.546c-1.078.427-2.225.909-3.419,1.439l-6.215,14.64h0l.145-.3.467-.166.081.228c1.671-.6,3.575-1.375,5.585-2.32,1.2-.563,2.31-1.133,3.355-1.7a38.309,38.309,0,0,0,4.7-2.908,6.728,6.728,0,0,0,1.5-1.414c.157-.238.246-.449.178-.594a.581.581,0,0,0-.445-.251,5.653,5.653,0,0,0-1.9.123,28.884,28.884,0,0,0-4.03,1.134c-.283.1-.574.2-.869.314.294-.151.586-.3.869-.449,1.376-.724,2.617-1.431,3.671-2.088.6-.373,1.136-.728,1.6-1.061,1.448-1.03,2.228-1.841,2.041-2.237-.176-.376-1.2-.315-2.779.084q-.8.2-1.785.522c-.838.272-1.763.6-2.752.99q-1.032.4-2.147.877c.742-.366,1.461-.73,2.147-1.09q1.359-.712,2.54-1.39c.579-.332,1.124-.654,1.626-.965,2.524-1.56,4.008-2.806,3.772-3.309s-2.037-.174-4.716.712q-.826.274-1.756.617c-.471.175-.961.363-1.466.563" transform="translate(-9348 1712)" fill="#a84d17"/>
    <path id="Trazado_205193" data-name="Trazado 205193" d="M261.23,597.324a67.407,67.407,0,0,1-6.5-4.18v1.329c1.739.683,3.661,1.509,5.672,2.455.28.132.554.264.829.4" transform="translate(-9348 1712)" fill="#fde3bd"/>
    <path id="Trazado_205194" data-name="Trazado 205194" d="M270.058,598.258c-1.4-4.124-1.834-7.588-.94-7.913.957-.348,3.06,3.021,4.7,7.523.255.7.474,1.378.675,2.04l24.366,4.427L281.354,563.1l.185-.459.46.186,4.953,11.667c1.2-6.651,2.426-11.9,3.146-14.771-3.307-13.061-4.787-22.659-4.9-23.408a67.2,67.2,0,0,0-13.044,4.218l-.068-.163a34.712,34.712,0,0,0-7.4,4.325,25.348,25.348,0,0,0-8.186,8.758,34.72,34.72,0,0,0-2.83,32.493l1.056,2.487V590.2a60.04,60.04,0,0,1,8.782,4.181c2.443,1.379,4.719,2.711,6.547,3.874" transform="translate(-9348 1712)" fill="#fde3bd"/>
    <path id="Trazado_205195" data-name="Trazado 205195" d="M271.949,615.863l.458.185,2.609-1.107-9.212-3.914c-.4-.118-.829-.257-1.275-.407l3.019,7.11Z" transform="translate(-9348 1712)" fill="#fde3bd"/>
    <path id="Trazado_205196" data-name="Trazado 205196" d="M266.065,599.8l-.189-.087.173.095.016-.008" transform="translate(-9348 1712)" fill="#fde3bd"/>
    <path id="Trazado_205197" data-name="Trazado 205197" d="M263.854,610.382l.1-.234.459.186.121.285c.446.151.876.29,1.276.408l9.211,3.914L304.329,627.4l3.158,1.342.087-.209a24.163,24.163,0,0,0,14.893-.152c.68-.227,1.351-.478,2.008-.764.13-.056.255-.122.384-.18a24.173,24.173,0,0,0,11.461-10.841l-.168-.417h0l-21.973-9.327-.1.251-9.746-1.771-4.655-.845-.181.449-.137.027-.323-.213-.174-.412-24.366-4.427c-.2-.661-.42-1.339-.675-2.039-1.64-4.5-3.744-7.872-4.7-7.524-.9.325-.456,3.789.939,7.913-1.827-1.162-4.1-2.495-6.546-3.873a59.84,59.84,0,0,0-8.783-4.181c-1.73-.611-2.913-.814-3.132-.426-.274.485.965,1.756,3.132,3.367a67.436,67.436,0,0,0,6.5,4.18c-.276-.132-.549-.265-.83-.4-2.01-.945-3.933-1.772-5.672-2.455-4.3-1.689-7.443-2.474-7.752-1.819-.342.729,2.918,3.018,7.752,5.567.742.391,1.521.788,2.33,1.187-.807-.345-1.586-.662-2.33-.949-3.929-1.516-6.821-2.181-7.13-1.523-.349.739,2.661,2.92,7.13,5.286q.515.273,1.055.548c-.361-.133-.711-.258-1.055-.376-3.388-1.165-5.9-1.566-6.192-.944-.339.72,2.27,2.689,6.192,4.819,1.094.593,2.273,1.2,3.539,1.794,2.011.945,3.916,1.725,5.587,2.32m2.211-10.585-.016.008-.173-.095.189.087" transform="translate(-9348 1712)" fill="#c46e32"/>
    <path id="Trazado_205198" data-name="Trazado 205198" d="M308.905,604.959l.323-.213,17.68-41.65-.186-.46-.459.186-17.681,41.65.032.078.154.382Z" transform="translate(-9348 1712)" fill="#29120b"/>
    <path id="Trazado_205199" data-name="Trazado 205199" d="M296.664,597.37c1.713-.678,3.474-1.437,5.287-2.3q-.748-1.7-1.474-3.475c-1.826.866-3.582,1.6-5.3,2.27l-2.782-6.556c1.822-.6,3.695-1.277,5.653-2.093q-.623-1.759-1.224-3.594c-2.048.854-4.021,1.576-5.914,2.189l-3.957-9.322L282,562.823l-.46-.186-.185.459,17.505,41.239.175.412.323.213.136-.028.182-.449,0-.01Z" transform="translate(-9348 1712)" fill="#29120b"/>
    <path id="Trazado_205200" data-name="Trazado 205200" d="M272.408,616.048l-.458-.185-4.4,1.867-3.019-7.111-.121-.285-.459-.186-.1.235-.091.224,3.277,7.719.322.215.137-.029,4.724-2,.034-.084.151-.375Z" transform="translate(-9348 1712)" fill="#29120b"/>
    <path id="Trazado_205201" data-name="Trazado 205201" d="M340.762,618.512l.137.029.317-.2,3.673-7.719-.085-.239-.081-.228-.467.166-.145.305-3.384,7.111-4.116-1.746-.458.185h0l.168.417.017.042Z" transform="translate(-9348 1712)" fill="#29120b"/>
    <path id="Trazado_205202" data-name="Trazado 205202" d="M292.608,535.042a7.734,7.734,0,0,1,.621-5.32c1.344-2.679.959-4.943.386-7.176-.628-2.452-1.484-4.866-.541-7.75a16.554,16.554,0,0,0-.05-9.692c3.962-2.59,9.887-8.185,11.2-19.017,1.3,10.736,7.129,16.329,11.09,18.948a16.606,16.606,0,0,0-.07,9.761c.988,3.021,0,5.528-.63,8.1a9.165,9.165,0,0,0,.475,6.824,7.723,7.723,0,0,1,.624,5.3c-.626,3.042-2.38,5.639-.794,8.322a53.7,53.7,0,0,1,3.4-7.958c.291-.533.594-1.057.91-1.557,2.528-4.008-2.479-7.051-1.077-12.691.149-.6.286-1.247.414-1.912.136-.71.258-1.447.365-2.2,1.117.034,2.518-1.5,3.28-3.7.84-2.422.584-4.71-.571-5.111-.669-.232-1.49.236-2.229,1.13a23.1,23.1,0,0,0-.183-2.363c-.026-.191-.059-.367-.09-.545a32.936,32.936,0,0,0,.129-5.818c-1.3-8.319-7.52-14.629-15.01-14.629-7.627,0-13.933,6.545-15.07,15.091-.012-.011-.022-.024-.033-.035a32.953,32.953,0,0,0,.119,4.947q-.09.418-.157.888a22.191,22.191,0,0,0-.2,2.284c-.7-.775-1.452-1.166-2.076-.95-1.153.4-1.409,2.689-.569,5.111.726,2.1,2.035,3.6,3.123,3.71.108.757.231,1.5.368,2.208.127.66.263,1.3.412,1.9,1.4,5.64-3.607,8.683-1.079,12.691.32.506.628,1.038.922,1.579a53.516,53.516,0,0,1,3.385,7.936c1.583-2.678-.161-5.269-.791-8.3" transform="translate(-9348 1712)" fill="#29120b"/>
  </g>
</svg>
