<svg id="Grupo_145667" data-name="Grupo 145667" xmlns="http://www.w3.org/2000/svg" xmlns:xlink="http://www.w3.org/1999/xlink" width="90.132" height="82.628" viewBox="0 0 90.132 82.628">
  <defs>
    <clipPath id="clip-path">
      <rect id="Rectángulo_44513" data-name="Rectángulo 44513" width="90.132" height="82.628" fill="none"/>
    </clipPath>
  </defs>
  <g id="Grupo_145666" data-name="Grupo 145666" transform="translate(0 0)" clip-path="url(#clip-path)">
    <path id="Trazado_200329" data-name="Trazado 200329" d="M14.183,0H39.029a7.56,7.56,0,0,1,7.56,7.561V32.54a7.56,7.56,0,0,1-7.56,7.561H14.183A7.562,7.562,0,0,1,6.621,32.54V7.561A7.562,7.562,0,0,1,14.183,0" transform="translate(36.922 0)" fill="#a66c4b"/>
    <path id="Trazado_200330" data-name="Trazado 200330" d="M8.353,18.928s-2.66-6.6.338-11.434c0,0,10.208,14.542,5.324,17.65,0,0-4.01,1.749-7.994-2.276,0,0-4.163,3.219-5.772-.943s4.995-6.549,8.1-3" transform="translate(74.794 0)" fill="#f1ad73"/>
    <path id="Trazado_200331" data-name="Trazado 200331" d="M18.774,29.639l-10.4-.261,9.7,1.26s1.281,2.562-7.211,1.614a5.73,5.73,0,0,1-3.133-1.3,5.449,5.449,0,0,1-1.854-3.808s14.155-3.079,12.906,2.5" transform="translate(65.412 0)" fill="#81513e"/>
    <path id="Trazado_200332" data-name="Trazado 200332" d="M22.166,13.146,11.46,11.027s11.352-8.715,10.706,2.119" transform="translate(56.478 0)" fill="#f1ad73"/>
    <path id="Trazado_200333" data-name="Trazado 200333" d="M22.079,13.146c-1.411,5.764-10.706-2.119-10.706-2.119S23.49,7.382,22.079,13.146" transform="translate(56.566 0)" fill="#81513e"/>
    <path id="Trazado_200334" data-name="Trazado 200334" d="M28.906,6.713H36.26a6.176,6.176,0,0,1,5.951,6.376v7.594a6.176,6.176,0,0,1-5.951,6.378H28.906a6.175,6.175,0,0,1-5.951-6.378V13.089a6.175,6.175,0,0,1,5.951-6.376" transform="translate(24.966 0)" fill="#f1ad73"/>
    <path id="Trazado_200335" data-name="Trazado 200335" d="M24.385,28.535h16.4a1.428,1.428,0,0,1,1.429,1.428v1.189a1.428,1.428,0,0,1-1.429,1.428h-16.4a1.428,1.428,0,0,1-1.429-1.428V29.963a1.428,1.428,0,0,1,1.429-1.428" transform="translate(24.965 0)" fill="#f1ad73"/>
    <path id="Trazado_200336" data-name="Trazado 200336" d="M24.272,1.642h3A1.376,1.376,0,0,1,28.585,3.07V4.259A1.375,1.375,0,0,1,27.27,5.687h-3a1.375,1.375,0,0,1-1.316-1.428V3.07a1.376,1.376,0,0,1,1.316-1.428" transform="translate(38.591 0)" fill="#f1ad73"/>
    <path id="Trazado_200337" data-name="Trazado 200337" d="M31.087,1.642h3A1.375,1.375,0,0,1,35.4,3.07V4.259a1.375,1.375,0,0,1-1.313,1.428h-3a1.375,1.375,0,0,1-1.316-1.428V3.07a1.376,1.376,0,0,1,1.316-1.428" transform="translate(24.963 0)" fill="#f1ad73"/>
    <path id="Trazado_200338" data-name="Trazado 200338" d="M37.9,1.642h3A1.376,1.376,0,0,1,42.211,3.07V4.259A1.375,1.375,0,0,1,40.9,5.687h-3a1.375,1.375,0,0,1-1.316-1.428V3.07A1.376,1.376,0,0,1,37.9,1.642" transform="translate(11.337 0)" fill="#f1ad73"/>
    <path id="Trazado_200339" data-name="Trazado 200339" d="M24.385,33.94h16.4a1.428,1.428,0,0,1,1.429,1.428v1.189a1.427,1.427,0,0,1-1.429,1.427h-16.4a1.427,1.427,0,0,1-1.429-1.427V35.368a1.428,1.428,0,0,1,1.429-1.428" transform="translate(24.965 0)" fill="#f1ad73"/>
    <path id="Trazado_200340" data-name="Trazado 200340" d="M28.062,10.14h5.915a1.412,1.412,0,0,1,1.5,1.3v.026a1.412,1.412,0,0,1-1.5,1.3H28.062a1.413,1.413,0,0,1-1.5-1.3V11.44a1.414,1.414,0,0,1,1.5-1.3" transform="translate(28.095 0)" fill="#81513e"/>
    <path id="Trazado_200341" data-name="Trazado 200341" d="M28.062,13.252h5.915a1.413,1.413,0,0,1,1.5,1.3v.027a1.412,1.412,0,0,1-1.5,1.3H28.062a1.414,1.414,0,0,1-1.5-1.3v-.027a1.414,1.414,0,0,1,1.5-1.3" transform="translate(28.095 0)" fill="#81513e"/>
    <path id="Trazado_200342" data-name="Trazado 200342" d="M28.062,16.365h5.915a1.412,1.412,0,0,1,1.5,1.3v.026a1.412,1.412,0,0,1-1.5,1.3H28.062a1.413,1.413,0,0,1-1.5-1.3v-.026a1.414,1.414,0,0,1,1.5-1.3" transform="translate(28.095 0)" fill="#81513e"/>
    <path id="Trazado_200343" data-name="Trazado 200343" d="M37.533,13.491a1.075,1.075,0,1,1-1.075,1.075,1.075,1.075,0,0,1,1.075-1.075" transform="translate(15.066 0)" fill="#81513e"/>
    <path id="Trazado_200344" data-name="Trazado 200344" d="M37.533,16.6a1.076,1.076,0,1,1-1.075,1.076A1.076,1.076,0,0,1,37.533,16.6" transform="translate(15.066 0)" fill="#81513e"/>
    <path id="Trazado_200345" data-name="Trazado 200345" d="M14.183,42.528H39.029a7.559,7.559,0,0,1,7.56,7.56V75.067a7.56,7.56,0,0,1-7.56,7.561H14.183a7.562,7.562,0,0,1-7.562-7.561V50.088a7.561,7.561,0,0,1,7.562-7.56" transform="translate(36.922 0)" fill="#a66c4b"/>
    <path id="Trazado_200346" data-name="Trazado 200346" d="M8.353,61.455s-2.66-6.6.338-11.433c0,0,10.208,14.541,5.324,17.649,0,0-4.01,1.75-7.994-2.275,0,0-4.163,3.219-5.772-.943s4.995-6.55,8.1-3" transform="translate(74.794 0)" fill="#f1ad73"/>
    <path id="Trazado_200347" data-name="Trazado 200347" d="M18.774,72.167,8.369,71.9l9.7,1.261s1.281,2.56-7.211,1.613a5.722,5.722,0,0,1-3.133-1.3,5.451,5.451,0,0,1-1.854-3.808s14.155-3.08,12.906,2.5" transform="translate(65.412 0)" fill="#81513e"/>
    <path id="Trazado_200348" data-name="Trazado 200348" d="M22.166,55.674,11.46,53.555s11.352-8.716,10.706,2.119" transform="translate(56.478 0)" fill="#f1ad73"/>
    <path id="Trazado_200349" data-name="Trazado 200349" d="M22.079,55.674c-1.411,5.764-10.706-2.119-10.706-2.119S23.49,49.91,22.079,55.674" transform="translate(56.566 0)" fill="#81513e"/>
    <path id="Trazado_200350" data-name="Trazado 200350" d="M28.906,49.24H36.26a6.176,6.176,0,0,1,5.951,6.377v7.594a6.177,6.177,0,0,1-5.951,6.377H28.906a6.175,6.175,0,0,1-5.951-6.377V55.617a6.175,6.175,0,0,1,5.951-6.377" transform="translate(24.966 0)" fill="#f1ad73"/>
    <path id="Trazado_200351" data-name="Trazado 200351" d="M24.385,71.063h16.4a1.428,1.428,0,0,1,1.429,1.427v1.19a1.427,1.427,0,0,1-1.429,1.427h-16.4a1.427,1.427,0,0,1-1.429-1.427V72.49a1.428,1.428,0,0,1,1.429-1.427" transform="translate(24.965 0)" fill="#f1ad73"/>
    <path id="Trazado_200352" data-name="Trazado 200352" d="M24.272,44.17h3A1.375,1.375,0,0,1,28.585,45.6v1.19a1.374,1.374,0,0,1-1.315,1.427h-3a1.374,1.374,0,0,1-1.316-1.427V45.6a1.375,1.375,0,0,1,1.316-1.427" transform="translate(38.591 0)" fill="#f1ad73"/>
    <path id="Trazado_200353" data-name="Trazado 200353" d="M31.087,44.17h3A1.374,1.374,0,0,1,35.4,45.6v1.19a1.374,1.374,0,0,1-1.313,1.427h-3a1.374,1.374,0,0,1-1.316-1.427V45.6a1.375,1.375,0,0,1,1.316-1.427" transform="translate(24.963 0)" fill="#f1ad73"/>
    <path id="Trazado_200354" data-name="Trazado 200354" d="M37.9,44.17h3A1.375,1.375,0,0,1,42.211,45.6v1.19A1.374,1.374,0,0,1,40.9,48.214h-3a1.374,1.374,0,0,1-1.316-1.427V45.6A1.375,1.375,0,0,1,37.9,44.17" transform="translate(11.337 0)" fill="#f1ad73"/>
    <path id="Trazado_200355" data-name="Trazado 200355" d="M24.385,76.468h16.4a1.428,1.428,0,0,1,1.429,1.427v1.189a1.428,1.428,0,0,1-1.429,1.428h-16.4a1.428,1.428,0,0,1-1.429-1.428V77.895a1.428,1.428,0,0,1,1.429-1.427" transform="translate(24.965 0)" fill="#f1ad73"/>
    <path id="Trazado_200356" data-name="Trazado 200356" d="M28.062,52.667h5.915a1.412,1.412,0,0,1,1.5,1.3v.027a1.412,1.412,0,0,1-1.5,1.3H28.062a1.414,1.414,0,0,1-1.5-1.3v-.027a1.414,1.414,0,0,1,1.5-1.3" transform="translate(28.095 0)" fill="#81513e"/>
    <path id="Trazado_200357" data-name="Trazado 200357" d="M28.062,55.78h5.915a1.412,1.412,0,0,1,1.5,1.3v.027a1.412,1.412,0,0,1-1.5,1.3H28.062a1.414,1.414,0,0,1-1.5-1.3V57.08a1.414,1.414,0,0,1,1.5-1.3" transform="translate(28.095 0)" fill="#81513e"/>
    <path id="Trazado_200358" data-name="Trazado 200358" d="M28.062,58.893h5.915a1.412,1.412,0,0,1,1.5,1.3v.027a1.412,1.412,0,0,1-1.5,1.3H28.062a1.414,1.414,0,0,1-1.5-1.3v-.027a1.414,1.414,0,0,1,1.5-1.3" transform="translate(28.095 0)" fill="#81513e"/>
    <path id="Trazado_200359" data-name="Trazado 200359" d="M37.533,56.018a1.075,1.075,0,1,1-1.075,1.076,1.076,1.076,0,0,1,1.075-1.076" transform="translate(15.066 0)" fill="#81513e"/>
    <path id="Trazado_200360" data-name="Trazado 200360" d="M37.533,59.131a1.076,1.076,0,1,1-1.075,1.076,1.076,1.076,0,0,1,1.075-1.076" transform="translate(15.066 0)" fill="#81513e"/>
    <path id="Trazado_200361" data-name="Trazado 200361" d="M57.724,0H82.57a7.562,7.562,0,0,1,7.562,7.561V32.54A7.562,7.562,0,0,1,82.57,40.1H57.724a7.56,7.56,0,0,1-7.56-7.561V7.561A7.56,7.56,0,0,1,57.724,0" transform="translate(-50.164 0)" fill="#a66c4b"/>
    <path id="Trazado_200362" data-name="Trazado 200362" d="M73.283,6.713h7.354a6.175,6.175,0,0,1,5.951,6.376v7.594a6.175,6.175,0,0,1-5.951,6.378H73.283a6.175,6.175,0,0,1-5.949-6.378V13.089a6.174,6.174,0,0,1,5.949-6.376" transform="translate(-63.79 0)" fill="#f1ad73"/>
    <path id="Trazado_200363" data-name="Trazado 200363" d="M68.761,28.535h16.4a1.429,1.429,0,0,1,1.429,1.428v1.189a1.428,1.428,0,0,1-1.429,1.428h-16.4a1.427,1.427,0,0,1-1.427-1.428V29.963a1.427,1.427,0,0,1,1.427-1.428" transform="translate(-63.79 0)" fill="#f1ad73"/>
    <path id="Trazado_200364" data-name="Trazado 200364" d="M68.651,1.642h3A1.376,1.376,0,0,1,72.962,3.07V4.259a1.375,1.375,0,0,1-1.315,1.428h-3a1.375,1.375,0,0,1-1.316-1.428V3.07a1.376,1.376,0,0,1,1.316-1.428" transform="translate(-50.165 0)" fill="#f1ad73"/>
    <path id="Trazado_200365" data-name="Trazado 200365" d="M75.464,1.642h3A1.376,1.376,0,0,1,79.775,3.07V4.259A1.375,1.375,0,0,1,78.46,5.687h-3a1.375,1.375,0,0,1-1.316-1.428V3.07a1.376,1.376,0,0,1,1.316-1.428" transform="translate(-63.791 0)" fill="#f1ad73"/>
    <path id="Trazado_200366" data-name="Trazado 200366" d="M82.274,1.642h3A1.376,1.376,0,0,1,86.588,3.07V4.259a1.376,1.376,0,0,1-1.316,1.428h-3A1.375,1.375,0,0,1,80.96,4.259V3.07a1.375,1.375,0,0,1,1.314-1.428" transform="translate(-77.416 0)" fill="#f1ad73"/>
    <path id="Trazado_200367" data-name="Trazado 200367" d="M68.761,33.94h16.4a1.428,1.428,0,0,1,1.429,1.428v1.189a1.428,1.428,0,0,1-1.429,1.427h-16.4a1.426,1.426,0,0,1-1.427-1.427V35.368a1.427,1.427,0,0,1,1.427-1.428" transform="translate(-63.79 0)" fill="#f1ad73"/>
    <path id="Trazado_200368" data-name="Trazado 200368" d="M72.438,10.14h5.914a1.414,1.414,0,0,1,1.5,1.3v.026a1.413,1.413,0,0,1-1.5,1.3H72.438a1.411,1.411,0,0,1-1.5-1.3V11.44a1.412,1.412,0,0,1,1.5-1.3" transform="translate(-60.66 0)" fill="#81513e"/>
    <path id="Trazado_200369" data-name="Trazado 200369" d="M72.438,13.252h5.914a1.414,1.414,0,0,1,1.5,1.3v.027a1.414,1.414,0,0,1-1.5,1.3H72.438a1.412,1.412,0,0,1-1.5-1.3v-.027a1.412,1.412,0,0,1,1.5-1.3" transform="translate(-60.66 0)" fill="#81513e"/>
    <path id="Trazado_200370" data-name="Trazado 200370" d="M72.438,16.365h5.914a1.414,1.414,0,0,1,1.5,1.3v.026a1.413,1.413,0,0,1-1.5,1.3H72.438a1.411,1.411,0,0,1-1.5-1.3v-.026a1.412,1.412,0,0,1,1.5-1.3" transform="translate(-60.66 0)" fill="#81513e"/>
    <path id="Trazado_200371" data-name="Trazado 200371" d="M81.91,13.491a1.075,1.075,0,1,1-1.075,1.075,1.076,1.076,0,0,1,1.075-1.075" transform="translate(-73.69 0)" fill="#81513e"/>
    <path id="Trazado_200372" data-name="Trazado 200372" d="M81.91,16.6a1.076,1.076,0,1,1-1.075,1.076A1.077,1.077,0,0,1,81.91,16.6" transform="translate(-73.69 0)" fill="#81513e"/>
    <path id="Trazado_200373" data-name="Trazado 200373" d="M55.281,28.643h5.263A1.256,1.256,0,0,1,61.879,29.8v.023a1.256,1.256,0,0,1-1.335,1.157H55.281a1.257,1.257,0,0,1-1.338-1.157V29.8a1.257,1.257,0,0,1,1.338-1.157" transform="translate(-25.69 0)" fill="#f1ad73"/>
    <path id="Trazado_200374" data-name="Trazado 200374" d="M55.281,31.411h5.263a1.257,1.257,0,0,1,1.335,1.158v.022a1.256,1.256,0,0,1-1.335,1.158H55.281a1.257,1.257,0,0,1-1.338-1.158v-.022a1.258,1.258,0,0,1,1.338-1.158" transform="translate(-25.69 0)" fill="#f1ad73"/>
    <path id="Trazado_200375" data-name="Trazado 200375" d="M55.281,34.181h5.263a1.256,1.256,0,0,1,1.335,1.157v.023a1.256,1.256,0,0,1-1.335,1.157H55.281a1.257,1.257,0,0,1-1.338-1.157v-.023a1.257,1.257,0,0,1,1.338-1.157" transform="translate(-25.69 0)" fill="#f1ad73"/>
    <path id="Trazado_200376" data-name="Trazado 200376" d="M63.707,31.623a.957.957,0,1,1-.957.957.958.958,0,0,1,.957-.957" transform="translate(-37.282 0)" fill="#f1ad73"/>
    <path id="Trazado_200377" data-name="Trazado 200377" d="M63.707,34.393a.957.957,0,1,1-.957.957.957.957,0,0,1,.957-.957" transform="translate(-37.282 0)" fill="#f1ad73"/>
    <path id="Trazado_200378" data-name="Trazado 200378" d="M59.207,10.511a1.337,1.337,0,1,1-1.336,1.337,1.338,1.338,0,0,1,1.336-1.337" transform="translate(-28.284 0)" fill="#f1ad73"/>
    <path id="Trazado_200379" data-name="Trazado 200379" d="M55.281,10.511a1.337,1.337,0,1,1-1.338,1.337,1.337,1.337,0,0,1,1.338-1.337" transform="translate(-20.428 0)" fill="#f1ad73"/>
    <path id="Trazado_200380" data-name="Trazado 200380" d="M62.786,10.511a1.337,1.337,0,1,1-1.338,1.337,1.337,1.337,0,0,1,1.338-1.337" transform="translate(-35.438 0)" fill="#f1ad73"/>
    <path id="Trazado_200381" data-name="Trazado 200381" d="M55.281,6.584a1.337,1.337,0,1,1-1.338,1.337,1.337,1.337,0,0,1,1.338-1.337" transform="translate(-20.428 0)" fill="#f1ad73"/>
    <path id="Trazado_200382" data-name="Trazado 200382" d="M55.281,2.822a1.337,1.337,0,1,1-1.338,1.337,1.337,1.337,0,0,1,1.338-1.337" transform="translate(-20.428 0)" fill="#f1ad73"/>
    <path id="Trazado_200383" data-name="Trazado 200383" d="M59.09,2.3h4.17a1.406,1.406,0,0,1,1.4,1.406V8.055a1.406,1.406,0,0,1-1.4,1.406H59.09a1.406,1.406,0,0,1-1.4-1.406V3.7A1.406,1.406,0,0,1,59.09,2.3" transform="translate(-32.218 0)" fill="#f1ad73"/>
    <path id="Trazado_200384" data-name="Trazado 200384" d="M59.207,23.46A1.338,1.338,0,1,1,57.871,24.8a1.338,1.338,0,0,1,1.336-1.338" transform="translate(-28.284 0)" fill="#f1ad73"/>
    <path id="Trazado_200385" data-name="Trazado 200385" d="M55.281,23.46A1.337,1.337,0,1,1,53.943,24.8a1.338,1.338,0,0,1,1.338-1.338" transform="translate(-20.428 0)" fill="#f1ad73"/>
    <path id="Trazado_200386" data-name="Trazado 200386" d="M62.786,23.46A1.337,1.337,0,1,1,61.448,24.8a1.338,1.338,0,0,1,1.338-1.338" transform="translate(-35.438 0)" fill="#f1ad73"/>
    <path id="Trazado_200387" data-name="Trazado 200387" d="M55.281,19.532a1.337,1.337,0,1,1-1.338,1.338,1.338,1.338,0,0,1,1.338-1.338" transform="translate(-20.428 0)" fill="#f1ad73"/>
    <path id="Trazado_200388" data-name="Trazado 200388" d="M55.281,15.771a1.337,1.337,0,1,1-1.338,1.337,1.337,1.337,0,0,1,1.338-1.337" transform="translate(-20.428 0)" fill="#f1ad73"/>
    <path id="Trazado_200389" data-name="Trazado 200389" d="M59.09,15.246h4.17a1.4,1.4,0,0,1,1.4,1.4V21a1.405,1.405,0,0,1-1.4,1.4H59.09a1.405,1.405,0,0,1-1.4-1.4V16.651a1.4,1.4,0,0,1,1.4-1.4" transform="translate(-32.218 0)" fill="#f1ad73"/>
    <path id="Trazado_200390" data-name="Trazado 200390" d="M57.724,42.528H82.57a7.561,7.561,0,0,1,7.562,7.56V75.067a7.562,7.562,0,0,1-7.562,7.561H57.724a7.56,7.56,0,0,1-7.56-7.561V50.088a7.559,7.559,0,0,1,7.56-7.56" transform="translate(-50.164 0)" fill="#a66c4b"/>
    <path id="Trazado_200391" data-name="Trazado 200391" d="M73.283,49.24h7.354a6.175,6.175,0,0,1,5.951,6.377v7.594a6.175,6.175,0,0,1-5.951,6.377H73.283a6.175,6.175,0,0,1-5.949-6.377V55.617a6.174,6.174,0,0,1,5.949-6.377" transform="translate(-63.79 0)" fill="#f1ad73"/>
    <path id="Trazado_200392" data-name="Trazado 200392" d="M68.761,71.063h16.4a1.428,1.428,0,0,1,1.429,1.427v1.19a1.428,1.428,0,0,1-1.429,1.427h-16.4a1.426,1.426,0,0,1-1.427-1.427V72.49a1.426,1.426,0,0,1,1.427-1.427" transform="translate(-63.79 0)" fill="#f1ad73"/>
    <path id="Trazado_200393" data-name="Trazado 200393" d="M68.651,44.17h3A1.375,1.375,0,0,1,72.962,45.6v1.19a1.374,1.374,0,0,1-1.315,1.427h-3a1.374,1.374,0,0,1-1.316-1.427V45.6a1.375,1.375,0,0,1,1.316-1.427" transform="translate(-50.165 0)" fill="#f1ad73"/>
    <path id="Trazado_200394" data-name="Trazado 200394" d="M75.464,44.17h3A1.375,1.375,0,0,1,79.775,45.6v1.19a1.374,1.374,0,0,1-1.315,1.427h-3a1.374,1.374,0,0,1-1.316-1.427V45.6a1.375,1.375,0,0,1,1.316-1.427" transform="translate(-63.791 0)" fill="#f1ad73"/>
    <path id="Trazado_200395" data-name="Trazado 200395" d="M82.274,44.17h3A1.375,1.375,0,0,1,86.588,45.6v1.19a1.375,1.375,0,0,1-1.316,1.427h-3a1.374,1.374,0,0,1-1.314-1.427V45.6a1.375,1.375,0,0,1,1.314-1.427" transform="translate(-77.416 0)" fill="#f1ad73"/>
    <path id="Trazado_200396" data-name="Trazado 200396" d="M68.761,76.468h16.4a1.428,1.428,0,0,1,1.429,1.427v1.189a1.428,1.428,0,0,1-1.429,1.428h-16.4a1.427,1.427,0,0,1-1.427-1.428V77.895a1.426,1.426,0,0,1,1.427-1.427" transform="translate(-63.79 0)" fill="#f1ad73"/>
    <path id="Trazado_200397" data-name="Trazado 200397" d="M72.438,52.667h5.914a1.414,1.414,0,0,1,1.5,1.3v.027a1.414,1.414,0,0,1-1.5,1.3H72.438a1.412,1.412,0,0,1-1.5-1.3v-.027a1.412,1.412,0,0,1,1.5-1.3" transform="translate(-60.66 0)" fill="#81513e"/>
    <path id="Trazado_200398" data-name="Trazado 200398" d="M72.438,55.78h5.914a1.414,1.414,0,0,1,1.5,1.3v.027a1.414,1.414,0,0,1-1.5,1.3H72.438a1.412,1.412,0,0,1-1.5-1.3V57.08a1.412,1.412,0,0,1,1.5-1.3" transform="translate(-60.66 0)" fill="#81513e"/>
    <path id="Trazado_200399" data-name="Trazado 200399" d="M72.438,58.893h5.914a1.414,1.414,0,0,1,1.5,1.3v.027a1.414,1.414,0,0,1-1.5,1.3H72.438a1.412,1.412,0,0,1-1.5-1.3v-.027a1.412,1.412,0,0,1,1.5-1.3" transform="translate(-60.66 0)" fill="#81513e"/>
    <path id="Trazado_200400" data-name="Trazado 200400" d="M81.91,56.018a1.075,1.075,0,1,1-1.075,1.076,1.077,1.077,0,0,1,1.075-1.076" transform="translate(-73.69 0)" fill="#81513e"/>
    <path id="Trazado_200401" data-name="Trazado 200401" d="M81.91,59.131a1.076,1.076,0,1,1-1.075,1.076,1.077,1.077,0,0,1,1.075-1.076" transform="translate(-73.69 0)" fill="#81513e"/>
    <path id="Trazado_200402" data-name="Trazado 200402" d="M55.281,71.169h5.263a1.256,1.256,0,0,1,1.335,1.157v.023a1.256,1.256,0,0,1-1.335,1.157H55.281a1.257,1.257,0,0,1-1.338-1.157v-.023a1.257,1.257,0,0,1,1.338-1.157" transform="translate(-25.69 0)" fill="#f1ad73"/>
    <path id="Trazado_200403" data-name="Trazado 200403" d="M55.281,73.939h5.263A1.256,1.256,0,0,1,61.879,75.1v.023a1.256,1.256,0,0,1-1.335,1.157H55.281a1.257,1.257,0,0,1-1.338-1.157V75.1a1.257,1.257,0,0,1,1.338-1.157" transform="translate(-25.69 0)" fill="#f1ad73"/>
    <path id="Trazado_200404" data-name="Trazado 200404" d="M55.281,76.709h5.263a1.256,1.256,0,0,1,1.335,1.157v.023a1.256,1.256,0,0,1-1.335,1.157H55.281a1.257,1.257,0,0,1-1.338-1.157v-.023a1.257,1.257,0,0,1,1.338-1.157" transform="translate(-25.69 0)" fill="#f1ad73"/>
    <path id="Trazado_200405" data-name="Trazado 200405" d="M63.707,74.151a.957.957,0,1,1-.957.957.957.957,0,0,1,.957-.957" transform="translate(-37.282 0)" fill="#f1ad73"/>
    <path id="Trazado_200406" data-name="Trazado 200406" d="M63.707,76.92a.957.957,0,1,1-.957.957.958.958,0,0,1,.957-.957" transform="translate(-37.282 0)" fill="#f1ad73"/>
    <path id="Trazado_200407" data-name="Trazado 200407" d="M59.207,53.039a1.337,1.337,0,1,1-1.336,1.337,1.337,1.337,0,0,1,1.336-1.337" transform="translate(-28.284 0)" fill="#f1ad73"/>
    <path id="Trazado_200408" data-name="Trazado 200408" d="M55.281,53.039a1.337,1.337,0,1,1-1.338,1.337,1.337,1.337,0,0,1,1.338-1.337" transform="translate(-20.428 0)" fill="#f1ad73"/>
    <path id="Trazado_200409" data-name="Trazado 200409" d="M62.786,53.039a1.337,1.337,0,1,1-1.338,1.337,1.337,1.337,0,0,1,1.338-1.337" transform="translate(-35.438 0)" fill="#f1ad73"/>
    <path id="Trazado_200410" data-name="Trazado 200410" d="M55.281,49.112a1.337,1.337,0,1,1-1.338,1.337,1.337,1.337,0,0,1,1.338-1.337" transform="translate(-20.428 0)" fill="#f1ad73"/>
    <path id="Trazado_200411" data-name="Trazado 200411" d="M55.281,45.35a1.337,1.337,0,1,1-1.338,1.337,1.337,1.337,0,0,1,1.338-1.337" transform="translate(-20.428 0)" fill="#f1ad73"/>
    <path id="Trazado_200412" data-name="Trazado 200412" d="M59.09,44.824h4.17a1.406,1.406,0,0,1,1.4,1.4v4.354a1.4,1.4,0,0,1-1.4,1.4H59.09a1.4,1.4,0,0,1-1.4-1.4V46.229a1.406,1.406,0,0,1,1.4-1.4" transform="translate(-32.218 0)" fill="#f1ad73"/>
    <path id="Trazado_200413" data-name="Trazado 200413" d="M59.207,65.988a1.337,1.337,0,1,1-1.336,1.337,1.338,1.338,0,0,1,1.336-1.337" transform="translate(-28.284 0)" fill="#f1ad73"/>
    <path id="Trazado_200414" data-name="Trazado 200414" d="M55.281,65.988a1.337,1.337,0,1,1-1.338,1.337,1.337,1.337,0,0,1,1.338-1.337" transform="translate(-20.428 0)" fill="#f1ad73"/>
    <path id="Trazado_200415" data-name="Trazado 200415" d="M62.786,65.988a1.337,1.337,0,1,1-1.338,1.337,1.337,1.337,0,0,1,1.338-1.337" transform="translate(-35.438 0)" fill="#f1ad73"/>
    <path id="Trazado_200416" data-name="Trazado 200416" d="M55.281,62.06A1.337,1.337,0,1,1,53.943,63.4a1.337,1.337,0,0,1,1.338-1.337" transform="translate(-20.428 0)" fill="#f1ad73"/>
    <path id="Trazado_200417" data-name="Trazado 200417" d="M55.281,58.3a1.337,1.337,0,1,1-1.338,1.337A1.337,1.337,0,0,1,55.281,58.3" transform="translate(-20.428 0)" fill="#f1ad73"/>
    <path id="Trazado_200418" data-name="Trazado 200418" d="M59.09,57.773h4.17a1.406,1.406,0,0,1,1.4,1.406v4.353a1.406,1.406,0,0,1-1.4,1.4H59.09a1.406,1.406,0,0,1-1.4-1.4V59.179a1.406,1.406,0,0,1,1.4-1.406" transform="translate(-32.218 0)" fill="#f1ad73"/>
  </g>
</svg>
