<svg id="Grupo_145413" data-name="Grupo 145413" xmlns="http://www.w3.org/2000/svg" xmlns:xlink="http://www.w3.org/1999/xlink" width="399.004" height="300.699" viewBox="0 0 399.004 300.699">
  <defs>
    <clipPath id="clip-path">
      <rect id="Rectángulo_44285" data-name="Rectángulo 44285" width="399.004" height="300.699" fill="none"/>
    </clipPath>
  </defs>
  <g id="Grupo_145412" data-name="Grupo 145412" clip-path="url(#clip-path)">
    <path id="Trazado_198320" data-name="Trazado 198320" d="M399,56.7H122a122.794,122.794,0,0,0-24.59,2.478A121.97,121.97,0,0,0,2.481,154.113a123.071,123.071,0,0,0,0,49.174A122.031,122.031,0,0,0,122,300.7H399Z" fill="#c0c3b0"/>
    <path id="Trazado_198321" data-name="Trazado 198321" d="M129.95,136.48l-.145-.052,0,.013.141.039" fill="#f9be6e"/>
    <path id="Trazado_198322" data-name="Trazado 198322" d="M211.415,174.7c0,.051,0,.1-.006.155.006-.048.011-.1.016-.146l-.01-.009" fill="#f9be6e"/>
    <path id="Trazado_198323" data-name="Trazado 198323" d="M201.654,122.645l-.274-18.061-2.247,17.224h.674a2.468,2.468,0,0,1,1.847.837" fill="#f9be6e"/>
    <path id="Trazado_198324" data-name="Trazado 198324" d="M199.809,127.32h-.45l5.847,44.685a28.748,28.748,0,0,1,2.4-2.467c.507-.465,1.007-.885,1.5-1.28l-7.314-41.933a2.47,2.47,0,0,1-1.977,1" fill="#f9be6e"/>
    <path id="Trazado_198325" data-name="Trazado 198325" d="M202.4,96.776l17.792,0h2.345a2.486,2.486,0,0,0,2.485-2.485v-.544a2.485,2.485,0,0,0-2.486-2.483H220.19l-17.071,0Z" fill="#f3e5ce"/>
    <path id="Trazado_198326" data-name="Trazado 198326" d="M197.725,200.317l-8.766,0v2.987h-2.036v-2.986h-2.036v2.987h-2.037v-2.987h-2.036v2.988H178.78v-2.987h-2.037v2.987h-.379l.015,45.952h5.757l1.88,0H194.2v0h3.565l-.017-52.827h-.021Z" fill="#a84d17"/>
    <path id="Trazado_198327" data-name="Trazado 198327" d="M137.064,187.873h0Z" fill="#a84d17"/>
    <path id="Trazado_198328" data-name="Trazado 198328" d="M158.418,200.329h-2.037v2.988h-2.036v-2.987H152.31v2.988h-2.037v-2.987h-2.036v2.986l-2.036,0v-2.987l-9.133,0v-3.888h-.022l.017,52.827h17.819v0h3.565v2.936l-.016-48.889h-.012Z" fill="#a84d17"/>
    <path id="Trazado_198329" data-name="Trazado 198329" d="M152.614,61.568l0,5.671a3.963,3.963,0,0,1-.56-.223c.256,1.032.553,2.025.876,2.991a1.72,1.72,0,0,1,.294-.059,1.856,1.856,0,0,1,1.857,1.856l0,3.235a25.066,25.066,0,0,0,2.331,3.626,1.829,1.829,0,0,1,1.182-.455,1.857,1.857,0,0,1,1.857,1.856v1.705a11.412,11.412,0,0,0,6.694,2.635v-.119a1.857,1.857,0,0,1,1.856-1.858,1.831,1.831,0,0,1,1.776,1.457,12.813,12.813,0,0,0,4.028-2.336V80.062a1.856,1.856,0,0,1,1.857-1.857,1.8,1.8,0,0,1,1,.335,24.231,24.231,0,0,0,1.609-2.353c.317-.535.609-1.1.9-1.669V71.8a1.857,1.857,0,0,1,1.856-1.858c.014,0,.025.008.039.008.3-.913.584-1.847.824-2.81-.147.058-.254.094-.254.094V61.557a1.83,1.83,0,0,1,1.416-1.767c.085-1.11.14-2.23.147-3.365-2.271-.095-4.655-.171-7.133-.226l0-15.146q.35-.683.653-1.413c.252-.606.482-1.23.681-1.881a23.358,23.358,0,0,0,.949-5.086c.047-.625.076-1.258.075-1.9,0-.121-.007-.227-.008-.348a39.34,39.34,0,0,0-.406-5.589,2.232,2.232,0,0,1-.969-.252,25.132,25.132,0,0,0-21.253.062,2.233,2.233,0,0,1-.805.194,36.2,36.2,0,0,0-.438,5.594c0,.119-.009.225-.009.346,0,.643.029,1.277.077,1.9a23.388,23.388,0,0,0,.951,5.084c.2.651.431,1.276.683,1.882a18.953,18.953,0,0,0,1.023,2.124l.005,14.426c-2.61.057-5.12.138-7.5.239.009,1.121.062,2.221.146,3.308a1.842,1.842,0,0,1,1.7,1.824m20.324-33.529c.325,0,.592.526.592,1.176s-.265,1.177-.592,1.177-.592-.526-.592-1.177.265-1.176.592-1.176m-1.321,2.93a.282.282,0,0,1,.353.182,2.414,2.414,0,0,0,2.228,1.493.282.282,0,0,1-.022.563l-.022,0a2.958,2.958,0,0,1-2.721-1.884.28.28,0,0,1,.184-.352m-5.049-.656a.94.94,0,0,1,1.775.156c.443,1.769,1.3,5.839-.212,5.713-1.384-.116-2.232-4.117-1.563-5.869m-1.985,9.477a10.035,10.035,0,0,0,1.631.508c.159.034.321.059.48.09.048.01.049.012.062.015s.013,0,.048,0c.284.028.567.053.852.061s.572,0,.855-.011l.366-.028.235-.026a10.471,10.471,0,0,0,1.654-.412,1.419,1.419,0,0,1,1.732.983,1.441,1.441,0,0,1-.982,1.732,11.211,11.211,0,0,1-7.68-.2,1.442,1.442,0,0,1-.984-1.73,1.422,1.422,0,0,1,1.731-.985M162.44,28.042c.327,0,.592.527.592,1.176s-.265,1.178-.59,1.178-.592-.527-.592-1.176.263-1.178.59-1.178m-1.256,4.607a2.411,2.411,0,0,0,2.225-1.495.286.286,0,0,1,.354-.182.28.28,0,0,1,.183.352,2.956,2.956,0,0,1-2.719,1.886h-.022a.281.281,0,0,1-.021-.562m-2.913,19.333,0-10.21c2.192,3.835,5.506,6.278,9.214,6.276,3.755,0,7.1-2.512,9.288-6.429h.292v3.688s-4.622,14.4-18.792,6.675" fill="#a84d17"/>
    <path id="Trazado_198330" data-name="Trazado 198330" d="M177.064,45.307l0-3.688h-.291c-2.188,3.918-5.534,6.428-9.289,6.429-3.708,0-7.022-2.441-9.214-6.275l0,10.209c14.169,7.725,18.792-6.675,18.792-6.675" fill="#8d3914"/>
    <path id="Trazado_198331" data-name="Trazado 198331" d="M179.347,32.673c.663-.989,1.466-1.547,2.1-1.327.928.321,1.134,2.157.459,4.1s-1.97,3.262-2.9,2.941a1.111,1.111,0,0,1-.61-.631c-.2.651-.43,1.275-.681,1.881a1.986,1.986,0,0,0,.708.46c1.679.581,3.847-1.279,4.842-4.154s.443-5.677-1.236-6.259a2.755,2.755,0,0,0-2.618.737c0,.121.009.227.009.348,0,.643-.028,1.276-.075,1.9" fill="#8d3914"/>
    <path id="Trazado_198332" data-name="Trazado 198332" d="M179.007,38.39c.928.321,2.226-.995,2.9-2.941s.469-3.783-.459-4.1c-.634-.22-1.437.337-2.1,1.327a23.358,23.358,0,0,1-.949,5.086,1.111,1.111,0,0,0,.61.631" fill="#29120b"/>
    <path id="Trazado_198333" data-name="Trazado 198333" d="M155.952,38.4c-.928.321-2.226-.995-2.9-2.939s-.47-3.783.458-4.1c.634-.22,1.438.336,2.1,1.326-.048-.625-.077-1.259-.077-1.9,0-.121.008-.227.009-.346a2.753,2.753,0,0,0-2.619-.737c-1.678.583-2.231,3.386-1.234,6.261s3.168,4.734,4.847,4.151a2,2,0,0,0,.708-.461c-.252-.606-.483-1.231-.683-1.882a1.111,1.111,0,0,1-.609.633" fill="#8d3914"/>
    <path id="Trazado_198334" data-name="Trazado 198334" d="M153.509,31.355c-.928.321-1.132,2.159-.458,4.1s1.973,3.26,2.9,2.939a1.114,1.114,0,0,0,.609-.633,23.437,23.437,0,0,1-.952-5.084c-.663-.989-1.467-1.546-2.1-1.326" fill="#29120b"/>
    <path id="Trazado_198335" data-name="Trazado 198335" d="M175.365,18.821l.01,0c0-.012,0-.022,0-.033l-.011.03" fill="#a84d17"/>
    <path id="Trazado_198336" data-name="Trazado 198336" d="M169.484,17.848h.01l0-.033-.006.032" fill="#a84d17"/>
    <path id="Trazado_198337" data-name="Trazado 198337" d="M168.132,36.181c1.512.126.654-3.943.212-5.713a.94.94,0,0,0-1.776-.156c-.668,1.753.179,5.754,1.564,5.869" fill="#8d3914"/>
    <path id="Trazado_198338" data-name="Trazado 198338" d="M172.938,30.392c.327,0,.592-.528.592-1.177s-.266-1.176-.592-1.176-.592.526-.592,1.176.265,1.177.592,1.177" fill="#29120b"/>
    <path id="Trazado_198339" data-name="Trazado 198339" d="M162.442,30.4c.326,0,.59-.528.59-1.177s-.264-1.176-.592-1.176-.591.526-.59,1.177.265,1.176.592,1.176" fill="#29120b"/>
    <path id="Trazado_198340" data-name="Trazado 198340" d="M162.852,40.774a1.441,1.441,0,0,0,.984,1.73,11.205,11.205,0,0,0,7.68.2,1.441,1.441,0,0,0,.983-1.732,1.418,1.418,0,0,0-1.732-.982,10.618,10.618,0,0,1-1.655.411l-.234.026-.366.028c-.284.016-.57.019-.855.011s-.569-.033-.852-.061l-.049,0a.334.334,0,0,0-.062-.015c-.159-.031-.321-.056-.48-.091a9.923,9.923,0,0,1-1.63-.507,1.423,1.423,0,0,0-1.732.984m1.459.031c3.087,1.388,6.976.43,7.015.421a.281.281,0,0,1,.137.546,14.124,14.124,0,0,1-3.179.355,10.324,10.324,0,0,1-4.205-.81l-.14-.372Z" fill="#8d3914"/>
    <path id="Trazado_198341" data-name="Trazado 198341" d="M168.284,42.128a14.191,14.191,0,0,0,3.179-.355.282.282,0,0,0-.137-.547c-.039.01-3.928.967-7.015-.42l-.372.14.14.372a10.324,10.324,0,0,0,4.205.81" fill="#29120b"/>
    <path id="Trazado_198342" data-name="Trazado 198342" d="M174.154,33.205l.022,0a.282.282,0,0,0,.022-.563,2.414,2.414,0,0,1-2.228-1.493.282.282,0,0,0-.537.17,2.958,2.958,0,0,0,2.721,1.884" fill="#29120b"/>
    <path id="Trazado_198343" data-name="Trazado 198343" d="M161.206,33.211l.021,0a2.958,2.958,0,0,0,2.72-1.886.282.282,0,0,0-.185-.352.285.285,0,0,0-.352.183,2.414,2.414,0,0,1-2.226,1.495.281.281,0,0,0,.022.562" fill="#29120b"/>
    <path id="Trazado_198344" data-name="Trazado 198344" d="M196.235,257.833l-2.036,0,0-8.576h-2.035l0,8.576h-2.037l0-8.576h-2.037l0,8.575h-2.036l0-8.575h-2.035l0,8.577h-2.037l0-8.576h-2.035l0,8.576h-2.036l0-8.575h-1.529l0,13.634h0v4.336a6.359,6.359,0,0,0,6.362,6.359l35.325-.011a8.149,8.149,0,0,0-5.269-7.621l-15.038-5.681,0-11.022h-1.53Z" fill="#29120b"/>
    <path id="Trazado_198345" data-name="Trazado 198345" d="M158.446,249.27h-1.53l0,8.575-2.035,0,0-8.576h-2.036l0,8.576h-2.036l0-8.576h-2.036l0,8.575-2.037,0v-8.577l-6.109,0,0,8.576h-2.037l0-8.575h-1.529l0,11.024-15.034,5.691a8.15,8.15,0,0,0-5.264,7.624l35.325-.013a6.359,6.359,0,0,0,6.359-6.362l0-15.034Zm-15.779,8.58,0-8.576H144.7l0,8.576Z" fill="#29120b"/>
    <path id="Trazado_198346" data-name="Trazado 198346" d="M146.039,98.72c-10.739-3.375-15.408-15.857-15.408-15.857l4.909,38.966,13.612,0Z" fill="#8d3914"/>
    <path id="Trazado_198347" data-name="Trazado 198347" d="M203.9,82.84s-4.662,12.483-15.4,15.866l-3.1,23.107,13.612-.005Z" fill="#8d3914"/>
    <path id="Trazado_198348" data-name="Trazado 198348" d="M188.958,196.432v3.887l8.766,0,0-3.887H197.1l0-8.576h-2.036l0,8.576H193.03l0-8.575h-2.035v8.575Z" fill="#8d3914"/>
    <path id="Trazado_198349" data-name="Trazado 198349" d="M184.2,194.733h.689l0,5.588h2.035l0-5.588Z" fill="#8d3914"/>
    <rect id="Rectángulo_44277" data-name="Rectángulo 44277" width="2.036" height="5.589" transform="translate(180.814 194.734)" fill="#8d3914"/>
    <rect id="Rectángulo_44278" data-name="Rectángulo 44278" width="2.036" height="5.589" transform="translate(176.742 194.736)" fill="#8d3914"/>
    <rect id="Rectángulo_44279" data-name="Rectángulo 44279" width="2.036" height="5.588" transform="translate(152.308 194.743)" fill="#8d3914"/>
    <rect id="Rectángulo_44280" data-name="Rectángulo 44280" width="2.036" height="5.588" transform="translate(156.38 194.742)" fill="#8d3914"/>
    <rect id="Rectángulo_44281" data-name="Rectángulo 44281" width="2.037" height="5.588" transform="translate(148.236 194.745)" fill="#8d3914"/>
    <path id="Trazado_198350" data-name="Trazado 198350" d="M137.929,187.872h0Z" fill="#8d3914"/>
    <path id="Trazado_198351" data-name="Trazado 198351" d="M137.067,196.449v3.888l9.134,0,0-5.588h-.1v1.7h-2.038l0-8.576h-2.035l0,8.576H140l0-8.575h-2.035v8.575Z" fill="#8d3914"/>
    <path id="Trazado_198352" data-name="Trazado 198352" d="M199.359,127.32h.45a2.507,2.507,0,0,0,2.484-2.484l0-.544a2.507,2.507,0,0,0-2.484-2.484h-.793l-13.612.005-36.251.012-13.611,0h-1.023a2.483,2.483,0,0,0-2.483,2.485v.543a2.486,2.486,0,0,0,2.486,2.484h.133l-.837,7.284.5.131c5.415,1.448,9.635,3.263,9.424,4.052-.206.769-4.533.281-9.755-1.08.229.078.456.154.688.235,5.846,2.04,10.369,4.319,10.1,5.091-.246.7-4.4-.095-9.574-1.789,4.128,1.608,7.041,3.24,6.812,3.9s-3.633.1-7.967-1.25c3.057,1.365,5.093,2.738,4.893,3.312-.215.618-2.918.26-6.476-.773l-4.761,41.425H146.1l-.007-19.338-5.226,5.23L135.7,168.6l-5.161,5.164-1.027-1.026,1.077-9.378,5.111,5.108,5.161-5.164,5.229,5.227-.012-41.194,42.854-.015.013,41.194,5.226-5.229,5.164,5.161,4.776-4.779,1.21,9.248-.822.824-5.164-5.161-5.161,5.164-5.229-5.226.007,19.337h8.459l1.721,0h8.144l-1.71-13.064L205.206,172Z" fill="#eec893"/>
    <path id="Trazado_198353" data-name="Trazado 198353" d="M174.727,194.736l2.014,0h12.216l0-6.876-.006-19.337h0l-7.2,7.2-7.115-7.109-7.109,7.114-7.115-7.108-7.11,7.113-7.2-7.2h0l.006,19.337h0l0,6.876h4.169l2.035,0h22.42Z" fill="#f3e5ce"/>
    <path id="Trazado_198354" data-name="Trazado 198354" d="M153.3,161.326l7.114,7.11,7.11-7.115,7.114,7.111,7.111-7.115,7.2,7.2h0l-.013-41.194-42.854.014.012,41.194h0Z" fill="#f3e5ce"/>
    <path id="Trazado_198355" data-name="Trazado 198355" d="M99,133.235,123.618,143a44.607,44.607,0,0,0,6.016,2.545c.979.341,1.926.642,2.822.9,3.558,1.033,6.26,1.39,6.476.773.2-.575-1.836-1.948-4.893-3.313,4.334,1.355,7.734,1.917,7.968,1.251s-2.685-2.288-6.813-3.9c5.17,1.7,9.328,2.493,9.574,1.789.269-.772-4.254-3.051-10.1-5.091-.231-.081-.458-.157-.687-.234,5.222,1.361,9.549,1.848,9.755,1.08.21-.79-4.009-2.6-9.424-4.053l-.5-.131c-1.989-.527-3.864-.992-5.435-1.324,3.118-1.583,5.314-3.322,4.985-4.011-.353-.737-3.454.012-6.924,1.674-.586.28-1.132.569-1.654.859l-16.7-10.762,22.546-38.2,4.877,38.966h.033l-4.91-38.966s4.67,12.481,15.409,15.857l3.112,23.1,36.251-.012,3.1-23.107c10.737-3.382,15.4-15.865,15.4-15.865l-4.885,38.968h.12l2.247-17.224.274,18.06a2.468,2.468,0,0,1,.637,1.648l0,.543a2.457,2.457,0,0,1-.507,1.489l7.313,41.933c-.49.395-.989.815-1.5,1.281a28.875,28.875,0,0,0-2.4,2.466l.364,2.782a22.963,22.963,0,0,0,3.476-2.577c-.3,1.713-.591,3.811-.863,6.046-.677,5.565-.57,10.156.242,10.254.789.1,1.951-4.1,2.639-9.447-.013.239-.027.476-.039.719-.291,6.188.136,11.234.954,11.271.745.036,1.557-4.125,1.913-9.561-.05,4.437.377,7.754,1.072,7.786s1.454-3.332,1.814-7.859c.125,3.346.64,5.748,1.247,5.777.816.039,1.674-4.1,1.915-9.252a44.68,44.68,0,0,0-.115-6.52l.324-44.068.051,0-.009-30.59-17.792.005.719-5.512,17.071,0,0-13.994A19.491,19.491,0,0,0,201.29,57.8c-3.97-.581-9.7-1.051-16.526-1.348-.008,1.1-.06,2.2-.14,3.279a1.845,1.845,0,0,1,1.728,1.83,5.64,5.64,0,0,1-2.805,5.254q-.4,1.671-.921,3.246a1.839,1.839,0,0,1,1.262,1.737,5.568,5.568,0,0,1-3.711,5.672V75.7c-.142.255-.27.525-.417.773a24.712,24.712,0,0,1-1.67,2.44,1.825,1.825,0,0,1,.432,1.148,5.568,5.568,0,0,1-3.711,5.672V82.269a13.063,13.063,0,0,1-3.965,2.186,5.571,5.571,0,0,1-3.694,5.5v-4.99a11.762,11.762,0,0,1-6.693-2.5l0,3.265a5.573,5.573,0,0,1-3.717-5.671,1.808,1.808,0,0,1,.316-.977,24.938,24.938,0,0,1-1.972-2.9v1.291a5.573,5.573,0,0,1-3.716-5.671,1.841,1.841,0,0,1,1.028-1.641c-.378-1.128-.7-2.305-.99-3.518a5.716,5.716,0,0,1-2.508-5.077,1.831,1.831,0,0,1,1.454-1.777c-.084-1.1-.139-2.2-.148-3.333-10.59.468-18.555,1.35-21.364,2.413a19.44,19.44,0,0,0-12.009,8.991L91.675,110.488l-.064-.041A15.544,15.544,0,0,0,99,133.235m30.956,3.244-.142-.039,0-.013c.047.018.1.035.146.052m81.464,38.22.01.009c-.005.048-.01.1-.016.146,0-.051.005-.1.006-.155" fill="#a84d17"/>
    <path id="Trazado_198356" data-name="Trazado 198356" d="M205.245,187.851l0,8.575h2.037l0-8.576h-2.036Z" fill="#f29100"/>
    <path id="Trazado_198357" data-name="Trazado 198357" d="M201.172,187.853l0,8.575h2.036l0-8.575h-2.036Z" fill="#f29100"/>
    <path id="Trazado_198358" data-name="Trazado 198358" d="M197.415,187.854H197.1l0,8.575h2.037l0-8.576Z" fill="#f29100"/>
    <path id="Trazado_198359" data-name="Trazado 198359" d="M193.031,196.431h2.036l0-8.577h-2.036Z" fill="#f29100"/>
    <path id="Trazado_198360" data-name="Trazado 198360" d="M188.958,194.732h0v1.7l2.035,0v-8.575h-2.038Z" fill="#f29100"/>
    <path id="Trazado_198361" data-name="Trazado 198361" d="M188.958,194.732h-2.037l0,5.588v2.986h2.036v-8.575Z" fill="#f8b133"/>
    <path id="Trazado_198362" data-name="Trazado 198362" d="M184.2,194.733H182.85v8.575h2.037v-2.987l0-5.588Z" fill="#f8b133"/>
    <path id="Trazado_198363" data-name="Trazado 198363" d="M180.813,194.733h-2.036l0,5.588,0,2.987h2.035v-2.987l0-5.589Z" fill="#f8b133"/>
    <path id="Trazado_198364" data-name="Trazado 198364" d="M176.742,200.325v-5.589h0l-2.014,0H174.7l0,8.575h2.035Z" fill="#f8b133"/>
    <path id="Trazado_198365" data-name="Trazado 198365" d="M171.172,194.737h-.539l0,8.576,2.036,0,0-8.574h-1.5Z" fill="#f8b133"/>
    <path id="Trazado_198366" data-name="Trazado 198366" d="M196.235,257.833l0-8.575H194.2l0,8.576Z" fill="#f8b133"/>
    <path id="Trazado_198367" data-name="Trazado 198367" d="M192.163,257.834l0-8.576h-2.036l0,8.577Z" fill="#f8b133"/>
    <path id="Trazado_198368" data-name="Trazado 198368" d="M188.091,257.836l0-8.576h-2.036l0,8.575Z" fill="#f8b133"/>
    <path id="Trazado_198369" data-name="Trazado 198369" d="M184.019,257.837l0-8.576h0l-1.88,0h-.157l0,8.575Z" fill="#f8b133"/>
    <path id="Trazado_198370" data-name="Trazado 198370" d="M177.911,257.839h2.036l0-8.577h-2.036Z" fill="#f8b133"/>
    <path id="Trazado_198371" data-name="Trazado 198371" d="M156.919,257.845l0-8.575H154.88l0,8.576Z" fill="#f8b133"/>
    <rect id="Rectángulo_44282" data-name="Rectángulo 44282" width="2.036" height="8.576" transform="translate(150.809 249.271)" fill="#f8b133"/>
    <path id="Trazado_198372" data-name="Trazado 198372" d="M148.775,257.848l0-8.575h-2.036l0,8.577Z" fill="#f8b133"/>
    <rect id="Rectángulo_44283" data-name="Rectángulo 44283" width="2.036" height="8.576" transform="translate(142.665 249.274)" fill="#f8b133"/>
    <path id="Trazado_198373" data-name="Trazado 198373" d="M138.594,257.851h2.037l0-8.577h-2.037Z" fill="#f8b133"/>
    <path id="Trazado_198374" data-name="Trazado 198374" d="M166.56,194.738h0l0,8.576,2.036,0,0-8.575Z" fill="#f8b133"/>
    <path id="Trazado_198375" data-name="Trazado 198375" d="M162.489,194.74h0l0,8.574h2.037l0-8.575Z" fill="#f8b133"/>
    <path id="Trazado_198376" data-name="Trazado 198376" d="M158.416,194.742l0,5.587v2.988h2.036l0-8.576h-2.036Z" fill="#f8b133"/>
    <path id="Trazado_198377" data-name="Trazado 198377" d="M154.346,203.318h2.036v-8.576h-2.037l0,5.588Z" fill="#f8b133"/>
    <path id="Trazado_198378" data-name="Trazado 198378" d="M150.274,203.32h2.037v-2.988l0-5.588h0l-2.035,0v8.575Z" fill="#f8b133"/>
    <path id="Trazado_198379" data-name="Trazado 198379" d="M146.2,203.321l2.036,0,0-2.986,0-5.588h0l-1.963,0H146.2l0,5.588Z" fill="#f8b133"/>
    <path id="Trazado_198380" data-name="Trazado 198380" d="M144.067,196.447H146.1v-1.7l0-6.876h-2.037Z" fill="#f29100"/>
    <path id="Trazado_198381" data-name="Trazado 198381" d="M140,196.448h2.036l0-8.577h-2.035Z" fill="#f29100"/>
    <path id="Trazado_198382" data-name="Trazado 198382" d="M137.959,196.448l0-8.576H135.92l0,8.575h2.036Z" fill="#f29100"/>
    <path id="Trazado_198383" data-name="Trazado 198383" d="M131.849,187.875l0,8.577,2.037,0,0-8.575h-2.036Z" fill="#f29100"/>
    <rect id="Rectángulo_44284" data-name="Rectángulo 44284" width="2.036" height="8.576" transform="translate(127.777 187.876)" fill="#f29100"/>
    <path id="Trazado_198384" data-name="Trazado 198384" d="M174.633,168.432l-7.114-7.111-7.11,7.115-7.114-7.11-7.2,7.206,7.205,7.2,7.109-7.113,7.115,7.108,7.109-7.114,7.115,7.109,7.2-7.2-7.2-7.2Z" fill="#eec893"/>
    <path id="Trazado_198385" data-name="Trazado 198385" d="M146.095,168.532l-5.23-5.226-5.16,5.163-5.111-5.107-1.078,9.377,1.028,1.026L135.7,168.6l5.164,5.16,5.226-5.229Z" fill="#c89a61"/>
    <path id="Trazado_198386" data-name="Trazado 198386" d="M188.949,168.519l5.229,5.226,5.161-5.164,5.164,5.161.822-.824-1.21-9.248-4.776,4.779-5.164-5.161-5.226,5.23h0Z" fill="#c89a61"/>
    <path id="Trazado_198387" data-name="Trazado 198387" d="M182.07,69.946a1.839,1.839,0,0,1,.557.112q.521-1.576.921-3.246a5.516,5.516,0,0,1-.654.325c-.241.962-.521,1.9-.824,2.809" fill="#29120b"/>
    <path id="Trazado_198388" data-name="Trazado 198388" d="M152.057,67.016a5.353,5.353,0,0,1-.649-.37c.286,1.214.613,2.391.991,3.518a1.8,1.8,0,0,1,.534-.157c-.323-.966-.62-1.959-.876-2.991" fill="#29120b"/>
    <path id="Trazado_198389" data-name="Trazado 198389" d="M170.781,83.886a1.786,1.786,0,0,1,.081.4c0,.062-.016.108-.018.17a13.084,13.084,0,0,0,3.965-2.186v-.72a12.813,12.813,0,0,1-4.028,2.336" fill="#29120b"/>
    <path id="Trazado_198390" data-name="Trazado 198390" d="M160.456,81.77v.7a11.765,11.765,0,0,0,6.693,2.5V84.4a11.4,11.4,0,0,1-6.693-2.635" fill="#29120b"/>
    <path id="Trazado_198391" data-name="Trazado 198391" d="M155.085,75.038v1.148a24.721,24.721,0,0,0,1.973,2.9,1.809,1.809,0,0,1,.359-.425,25.025,25.025,0,0,1-2.332-3.627" fill="#29120b"/>
    <path id="Trazado_198392" data-name="Trazado 198392" d="M179.277,76.187a24.283,24.283,0,0,1-1.608,2.353,1.807,1.807,0,0,1,.42.374,24.889,24.889,0,0,0,1.671-2.44c.147-.248.275-.518.416-.773V74.518c-.289.569-.581,1.134-.9,1.669" fill="#29120b"/>
    <path id="Trazado_198393" data-name="Trazado 198393" d="M184.494,59.7c.046,0,.085.023.13.026.081-1.082.132-2.173.14-3.279,0-.12.01-.237.01-.357a.282.282,0,1,0-.564,0c0,.112-.008.222-.009.334-.007,1.135-.062,2.255-.147,3.365a1.745,1.745,0,0,1,.44-.089" fill="#29120b"/>
    <path id="Trazado_198394" data-name="Trazado 198394" d="M150.757,59.712c.056,0,.1.027.157.032-.083-1.086-.137-2.187-.145-3.308,0-.112-.01-.221-.01-.334a.282.282,0,1,0-.564,0c0,.12.01.237.011.358.009,1.129.064,2.238.148,3.333a1.789,1.789,0,0,1,.4-.081" fill="#29120b"/>
    <path id="Trazado_198395" data-name="Trazado 198395" d="M170.781,83.886a1.831,1.831,0,0,0-1.776-1.457,1.857,1.857,0,0,0-1.856,1.858v5.672a5.569,5.569,0,0,0,3.694-5.5c0-.062.018-.108.018-.17a1.786,1.786,0,0,0-.081-.4" fill="#f3e5ce"/>
    <path id="Trazado_198396" data-name="Trazado 198396" d="M176.665,78.205a1.857,1.857,0,0,0-1.857,1.857v5.672a5.571,5.571,0,0,0,3.712-5.672,1.874,1.874,0,0,0-.853-1.522,1.8,1.8,0,0,0-1-.335" fill="#f3e5ce"/>
    <path id="Trazado_198397" data-name="Trazado 198397" d="M182.03,69.938a1.857,1.857,0,0,0-1.856,1.858v5.671a5.57,5.57,0,0,0,3.711-5.672,1.838,1.838,0,0,0-1.262-1.737,1.81,1.81,0,0,0-.557-.112c-.014,0-.025-.008-.039-.008" fill="#f3e5ce"/>
    <path id="Trazado_198398" data-name="Trazado 198398" d="M184.054,59.79a1.83,1.83,0,0,0-1.416,1.768l0,5.672s.106-.036.254-.093a5.364,5.364,0,0,0,.653-.325,5.637,5.637,0,0,0,2.805-5.254,1.844,1.844,0,0,0-1.728-1.83c-.045,0-.083-.027-.13-.027a1.8,1.8,0,0,0-.44.089" fill="#f3e5ce"/>
    <path id="Trazado_198399" data-name="Trazado 198399" d="M160.455,80.066A1.857,1.857,0,0,0,158.6,78.21a1.824,1.824,0,0,0-1.182.455,2.053,2.053,0,0,0-.675,1.4,5.572,5.572,0,0,0,3.716,5.67l0-3.265V80.066Z" fill="#f3e5ce"/>
    <path id="Trazado_198400" data-name="Trazado 198400" d="M155.083,71.8a1.857,1.857,0,0,0-1.857-1.857,1.691,1.691,0,0,0-.293.06,1.794,1.794,0,0,0-.534.157,1.843,1.843,0,0,0-1.029,1.641,5.571,5.571,0,0,0,3.716,5.671V75.039Z" fill="#f3e5ce"/>
    <path id="Trazado_198401" data-name="Trazado 198401" d="M152.616,67.239l0-5.671a1.841,1.841,0,0,0-1.7-1.824c-.055-.005-.1-.032-.159-.032a1.759,1.759,0,0,0-.4.081A1.83,1.83,0,0,0,148.9,61.57a5.72,5.72,0,0,0,2.508,5.077,5.391,5.391,0,0,0,.649.369,3.929,3.929,0,0,0,.559.223" fill="#f3e5ce"/>
    <path id="Trazado_198402" data-name="Trazado 198402" d="M178.295,19.783a19.924,19.924,0,0,1,1.867.827,2.207,2.207,0,0,1,.571.451,42.7,42.7,0,0,0,2.606-6.993c1.632-5.7,2.062-10.578.959-10.894-.768-.22-2.079,1.841-3.355,5.041-.141,1.34-.358,2.81-.655,4.349a42.6,42.6,0,0,1-1.993,7.219" fill="#93c01f"/>
    <path id="Trazado_198403" data-name="Trazado 198403" d="M175.376,18.791c0,.011,0,.022,0,.033a27.929,27.929,0,0,1,2.92.959,42.6,42.6,0,0,0,1.993-7.219c.3-1.539.514-3.009.654-4.349.391-3.731.176-6.427-.653-6.588-.8-.155-1.95,2.1-2.954,5.5-.059,1.271-.178,2.657-.362,4.1a41.473,41.473,0,0,1-1.6,7.565" fill="#39a935"/>
    <path id="Trazado_198404" data-name="Trazado 198404" d="M173.958,10.9a39.043,39.043,0,0,1-1.176,7.345c.933.168,1.8.362,2.583.573l.011-.03a41.486,41.486,0,0,0,1.6-7.566c.184-1.447.3-2.832.362-4.1.18-3.9-.21-6.7-1.067-6.81-.7-.089-1.548,1.644-2.271,4.359a42.8,42.8,0,0,1-.039,6.232" fill="#93c01f"/>
    <path id="Trazado_198405" data-name="Trazado 198405" d="M169.491,17.815l0,.033a30.719,30.719,0,0,1,3.288.4,39.079,39.079,0,0,0,1.175-7.346A42.642,42.642,0,0,0,174,4.672c-.208-2.756-.747-4.588-1.509-4.644-.956-.072-1.981,2.681-2.606,6.627.11,1.259.172,2.636.172,4.082a40.075,40.075,0,0,1-.563,7.078" fill="#39a935"/>
    <path id="Trazado_198406" data-name="Trazado 198406" d="M157.208,19.6a44.672,44.672,0,0,1-1.78-6.646c-.3-1.539-.516-3.009-.657-4.349-1.278-3.2-2.59-5.259-3.359-5.039-1.1.317-.668,5.194.967,10.9a45.308,45.308,0,0,0,2.256,6.249,1.943,1.943,0,0,1,.253-.151c.781-.364,1.554-.675,2.32-.959" fill="#93c01f"/>
    <path id="Trazado_198407" data-name="Trazado 198407" d="M157.208,19.6a30.053,30.053,0,0,1,2.979-.918,43.423,43.423,0,0,1-1.444-7.069c-.185-1.445-.3-2.829-.365-4.1-1.006-3.4-2.159-5.652-2.957-5.5-.829.161-1.043,2.858-.65,6.588.141,1.34.359,2.81.657,4.349a44.672,44.672,0,0,0,1.78,6.646" fill="#39a935"/>
    <path id="Trazado_198408" data-name="Trazado 198408" d="M160.188,18.681c.891-.226,1.762-.4,2.619-.536a40.781,40.781,0,0,1-1.048-6.856,42.733,42.733,0,0,1-.043-6.234C160.991,2.341,160.143.61,159.443.7c-.859.109-1.247,2.917-1.064,6.814.06,1.27.18,2.654.365,4.1a43.322,43.322,0,0,0,1.444,7.068" fill="#93c01f"/>
    <path id="Trazado_198409" data-name="Trazado 198409" d="M161.758,11.29a40.919,40.919,0,0,0,1.048,6.856,29.433,29.433,0,0,1,3.276-.339,40.235,40.235,0,0,1-.567-7.068c0-1.569.072-3.054.2-4.4-.634-3.568-1.594-6-2.494-5.929-.76.056-1.3,1.888-1.505,4.642a42.751,42.751,0,0,0,.043,6.235" fill="#39a935"/>
    <path id="Trazado_198410" data-name="Trazado 198410" d="M166.082,17.807a29.613,29.613,0,0,1,3.4.041l.006-.033a40.067,40.067,0,0,0,.563-7.078c0-1.446-.062-2.823-.171-4.082C169.541,2.75,168.729,0,167.781,0c-.922,0-1.713,2.606-2.067,6.342-.127,1.343-.2,2.828-.2,4.4a40.235,40.235,0,0,0,.567,7.068" fill="#93c01f"/>
    <path id="Trazado_198411" data-name="Trazado 198411" d="M178.039,24.583a2.253,2.253,0,0,0,2.123-3.973,19.784,19.784,0,0,0-1.867-.827,28.061,28.061,0,0,0-2.919-.959l-.01,0c-.78-.21-1.651-.4-2.583-.572a30.976,30.976,0,0,0-3.288-.4h-.01a29.086,29.086,0,0,0-6.678.3c-.857.135-1.728.309-2.619.535a29.81,29.81,0,0,0-2.979.92c-.766.282-1.539.595-2.32.957a2.3,2.3,0,0,0-.254.151,2.246,2.246,0,0,0,1.205,4.145c.047,0,.094-.012.14-.015a2.238,2.238,0,0,0,.806-.194,25.132,25.132,0,0,1,21.253-.062" fill="#c89a61"/>
    <path id="Trazado_198412" data-name="Trazado 198412" d="M352.546,248.146c-2.666,5.664-6.48,13.364-10.754,20.757C183.88,249.922,60.5,242.942,15.665,240.848A289.252,289.252,0,0,1,1.582,205.533c34.365,2.636,172.162,14.214,350.964,42.613" fill="#754c24"/>
    <path id="Trazado_198413" data-name="Trazado 198413" d="M324.246,291.045c-13.8,8.281-230.956,13.8-269.6-3.681-16.322-7.383-29.361-26.683-38.979-46.516,44.833,2.094,168.214,9.074,326.127,28.055-5.581,9.654-11.942,18.78-17.546,22.142" fill="#754c24"/>
    <path id="Trazado_198414" data-name="Trazado 198414" d="M398.942,273.27l0,0c-15.854,11.632-36.19,8.472-52.043-3.161h0l0,0c-15.852,11.632-50.184,14.792-66.038,3.16l0,0-.01.007c-15.853,11.63-36.187,15.578-52.039,3.947l-.007-.005-.01.006c-15.852,11.631-36.852,3.734-52.705-7.9l-.01-.008h0c-15.852,11.633-48.851,15.583-64.706,3.951l0,0-.018.013c-15.854,11.627-36.85,7.677-52.7-3.952l-.013-.01-.039.029C42.739,280.97,17.755,284.919,1.9,273.3l-.038-.028v27.391H398.942Z" fill="#b5d6ea"/>
  </g>
</svg>
