<svg id="Grupo_145380" data-name="Grupo 145380" xmlns="http://www.w3.org/2000/svg" xmlns:xlink="http://www.w3.org/1999/xlink" width="147.296" height="172" viewBox="0 0 147.296 172">
  <defs>
    <clipPath id="clip-path">
      <rect id="Rectángulo_44261" data-name="Rectángulo 44261" width="147.296" height="172" fill="none"/>
    </clipPath>
  </defs>
  <path id="Trazado_198046" data-name="Trazado 198046" d="M26.546,77.812l10.963,75.742,52.342-.006,4.848-2.561,2.143,2.567h19.945l-9.969-75.742Z" transform="translate(6.293 18.446)" fill="#d97b7b"/>
  <path id="Trazado_198047" data-name="Trazado 198047" d="M11.183,159.642H41.151L31.558,52.133Z" transform="translate(2.651 12.358)" fill="#d16161"/>
  <g id="Grupo_145379" data-name="Grupo 145379">
    <g id="Grupo_145378" data-name="Grupo 145378" clip-path="url(#clip-path)">
      <path id="Trazado_198048" data-name="Trazado 198048" d="M80.622,164.971l6.991.006c3.2-4.139,4.911-10.463,9.746-37.882l10.2,37.882h10.381S96.984,65.513,97.359,57.47c-2.089-13.493-15.7-27.727-21.432-27.842-12.458-.249-10.3,28.484-10.3,51.12,0,26.526,13.9,30.283,15,84.224" transform="translate(15.523 7.023)" fill="#d16161"/>
      <path id="Trazado_198049" data-name="Trazado 198049" d="M63.833,82.191C49.09,82.191,41.4,79.43,41.4,79.43v17.3s7.685,6.222,22.428,6.222a44.971,44.971,0,0,0,14.551-2.287c-2.256-6.859-.993-12.394-2.321-18.825C73.493,82.054,67.107,82.191,63.833,82.191Z" transform="translate(9.815 18.829)" fill="#f8e883"/>
      <path id="Trazado_198050" data-name="Trazado 198050" d="M80.282,79.429S75.63,81.1,66.625,81.842c1.326,6.431,3.524,11.965,5.781,18.824a27.62,27.62,0,0,0,7.876-3.934Z" transform="translate(15.794 18.829)" fill="#eec06b"/>
      <path id="Trazado_198051" data-name="Trazado 198051" d="M44.207,73.455V88.148s4.665,6.222,18.962,6.222a35.971,35.971,0,0,0,11.268-1.616l-.5-20.909Z" transform="translate(10.479 17.031)" fill="#e3a76f"/>
      <path id="Trazado_198052" data-name="Trazado 198052" d="M82.13,90.6V61.5H44.207V75.909c4.948,3.55,10.574,5.653,15.5,5.653a25.056,25.056,0,0,0,11.166-3,68.354,68.354,0,0,0,3.564,16.648C80.053,93.365,82.13,90.6,82.13,90.6Z" transform="translate(10.479 14.578)" fill="#ab7b64"/>
      <path id="Trazado_198053" data-name="Trazado 198053" d="M95.105,78.173a313.575,313.575,0,0,0-2.986-33.019c-.4,8.528-7.283,20.732-18.071,28.195,1.042,23.189,16.762,29.067,18.3,77.6C98.222,138.846,104.452,115.561,95.105,78.173Z" transform="translate(17.553 10.704)" fill="#8c818f"/>
      <path id="Trazado_198054" data-name="Trazado 198054" d="M92.823,50.162c-2.089-13.493-5.57-26.015-11.3-26.13-12.458-.249-10.3,28.484-10.3,51.12,0,26.764,14.144,30.349,15.022,85.681a1.9,1.9,0,0,0,3.488,1.011,52.549,52.549,0,0,0,3.318-5.886c-1.481-46.82-12.942-53.943-14.685-75.205a4.311,4.311,0,0,1,1.618-3.712C89.38,69.518,92.448,58.2,92.823,50.162Z" transform="translate(16.849 5.696)" fill="#655e67"/>
      <path id="Trazado_198055" data-name="Trazado 198055" d="M37.984,58.4s-5.707,13.7-6.441,16.635c-9.347,37.387.344,60.673,6.221,72.777,1.327-41.952,10.666-52.035,13.848-68.973C50.427,78.186,37.984,58.4,37.984,58.4Z" transform="translate(6.555 13.844)" fill="#8c818f"/>
      <path id="Trazado_198056" data-name="Trazado 198056" d="M35.838,83.181c.408-1.633,1.284-4.406,1.981-6.548a1.634,1.634,0,0,1,2.851-.489,45.532,45.532,0,0,0,8.3,8.646,34.649,34.649,0,0,0,3.48,2.195A63.111,63.111,0,0,0,53.5,75.151c0-22.636,2.157-51.369-10.3-51.12s-14.287,59.15-14.287,59.15c-11.2,44.784-.043,69.342,6.084,78.674a1.9,1.9,0,0,0,3.482-1.019q.039-2.509.115-4.879C32.721,143.854,26.491,120.568,35.838,83.181Z" transform="translate(5.72 5.696)" fill="#655e67"/>
      <path id="Trazado_198057" data-name="Trazado 198057" d="M41.123,36.943V55.216c0,15.769,11.709,28.551,22.777,28.551,7.621,0,16.92-5.031,22.789-12.676,3.485-4.54,5.763-17.826,5.763-19.594V21.509L63.895,8.4C63.644,8.563,41.123,21.279,41.123,36.943Z" transform="translate(9.748 1.99)" fill="#e3a76f"/>
      <path id="Trazado_198058" data-name="Trazado 198058" d="M45.69,55.217V36.944C45.69,21.279,64.75,8.562,65,8.4l-.009,0L36.455,21.509V51.5c0,1.768,2.275,15.05,5.758,19.589,5.87,7.647,15.169,12.681,22.793,12.681C56.787,83.768,45.69,70.985,45.69,55.217Z" transform="translate(8.642 1.99)" fill="#ab7b64"/>
      <path id="Trazado_198059" data-name="Trazado 198059" d="M45.494,57.1c-.8-.8-.793-2.242-.793-5a2.576,2.576,0,0,1,.954-.183,5.878,5.878,0,0,1,5.424,4.6,6.98,6.98,0,0,1-2.98,7.911,6.722,6.722,0,0,1-2.054-5.241,1.971,1.971,0,0,0-.458-2.078C45.555,57.108,45.526,57.1,45.494,57.1ZM83.128,41.536a31.132,31.132,0,0,0-7.049,1.357,64.034,64.034,0,0,1-9.585,1.964v-9a2.6,2.6,0,1,0-5.191,0v9a64.1,64.1,0,0,1-9.585-1.964,31.136,31.136,0,0,0-7.047-1.357l-.089,0L41.123,43.9l3.46,2.833.089,0a30.693,30.693,0,0,1,5.736,1.19,65.284,65.284,0,0,0,10.9,2.155v3.905a2.6,2.6,0,1,0,5.191,0V50.072a65.259,65.259,0,0,0,10.9-2.155,30.7,30.7,0,0,1,5.737-1.19c2.4,0,4.3.787,5.348,2.216,1.12,1.523,1.3,3.773.5,6.337-.792,2.537-2.221,4.357-3.919,4.992a2.77,2.77,0,0,1-2.473-.157,1.791,1.791,0,0,1-.946-1.722,1.81,1.81,0,0,1,.576-1.284,2.6,2.6,0,0,0-.067-5.189,5.878,5.878,0,0,0-5.423,4.6,6.988,6.988,0,0,0,3.131,8.012,7.935,7.935,0,0,0,6.836.668,26.177,26.177,0,0,0,5.762-15.874V45.605C90.381,42.98,87.087,41.536,83.128,41.536ZM63.9,72.146a2.6,2.6,0,0,0-2.6,2.6v2.948a18.244,18.244,0,0,0,5.191,0V74.741a2.6,2.6,0,0,0-2.6-2.6" transform="translate(9.748 7.884)" fill="#d16161"/>
      <path id="Trazado_198060" data-name="Trazado 198060" d="M45.69,39.952v5.191a6.349,6.349,0,0,0-5.26,2.213c-1.12,1.523-1.3,3.773-.5,6.337.792,2.538,2.221,4.358,3.92,4.992a2.767,2.767,0,0,0,2.472-.156,1.958,1.958,0,0,0,.828-.929,34.807,34.807,0,0,0,2.054,5.241c-.051.033-.1.069-.152.1a7.709,7.709,0,0,1-4.07,1.146,8.4,8.4,0,0,1-2.769-.484,26.171,26.171,0,0,1-5.76-15.869v-3.72A11.453,11.453,0,0,1,45.69,39.952ZM44.166,52.927A2.594,2.594,0,0,0,46.6,55.515a34.463,34.463,0,0,1-.793-5A2.6,2.6,0,0,0,44.166,52.927Z" transform="translate(8.642 9.471)" fill="#ae3030"/>
      <path id="Trazado_198061" data-name="Trazado 198061" d="M50.431,46.917a2.6,2.6,0,0,1-2.6-2.6V38.805a2.6,2.6,0,0,1,5.191,0v5.516a2.6,2.6,0,0,1-2.6,2.6" transform="translate(11.34 8.584)" fill="#655e67"/>
      <path id="Trazado_198062" data-name="Trazado 198062" d="M70.014,46.917a2.6,2.6,0,0,1-2.6-2.6V38.805a2.6,2.6,0,1,1,5.191,0v5.516a2.6,2.6,0,0,1-2.6,2.6" transform="translate(15.982 8.584)" fill="#655e67"/>
      <path id="Trazado_198063" data-name="Trazado 198063" d="M44.119,33.649c2-1.493,8.153-1.674,10.034.207a2.6,2.6,0,1,0,3.67-3.67c-2.773-2.773-8.636-3.559-13.159-2.355-.349,1.509-1.583,3.058-1.583,4.636,0,.35,1.038.75,1.038,1.183" transform="translate(10.212 6.468)" fill="#8c818f"/>
      <path id="Trazado_198064" data-name="Trazado 198064" d="M40.9,33.751a2.6,2.6,0,0,0,3.67,0,2.291,2.291,0,0,1,.245-.207V32.361a20.556,20.556,0,0,1,.546-4.636A9.869,9.869,0,0,0,40.9,30.08a2.6,2.6,0,0,0,0,3.67" transform="translate(9.515 6.572)" fill="#655e67"/>
      <path id="Trazado_198065" data-name="Trazado 198065" d="M67.888,33.855a2.6,2.6,0,0,1-3.67-3.67c3.869-3.87,13.75-3.87,17.621,0a2.6,2.6,0,0,1-3.672,3.67C76.487,32.174,69.853,31.891,67.888,33.855Z" transform="translate(15.043 6.468)" fill="#8c818f"/>
      <path id="Trazado_198066" data-name="Trazado 198066" d="M61.315,61.882a15.512,15.512,0,0,1-8.16-2.493A2.6,2.6,0,0,1,56.081,55.1a10.6,10.6,0,0,0,5.234,1.59A10.6,10.6,0,0,0,66.55,55.1a2.6,2.6,0,0,1,2.924,4.288A15.512,15.512,0,0,1,61.315,61.882Z" transform="translate(12.333 12.956)" fill="#ab7b64"/>
      <path id="Trazado_198067" data-name="Trazado 198067" d="M45.792,39.114c2.747-10.95,12.555-23.541,26.47-23.541S95.987,28.164,98.734,39.114C100.963,48,128.666,158.407,132.076,172h11.237a2.594,2.594,0,0,0,2.519-3.225c-4.885-19.464-30.33-120.856-33.387-133.04C108.274,19.112,98.232,0,72.262,0A39.713,39.713,0,0,0,53.489,4.274C45.827,13.109,39.044,25.913,36.58,35.735,33.2,49.22,5.845,172,5.845,172h6.6Z" transform="translate(1.386)" fill="#e7afaf"/>
      <path id="Trazado_198068" data-name="Trazado 198068" d="M54.873,3.456C42.364,10.03,36.43,23.1,33.465,34.917,30.408,47.1,4.963,148.492.079,167.957A2.594,2.594,0,0,0,2.6,171.181H7.229S38.042,48.4,41.425,34.917C43.889,25.095,47.211,12.29,54.873,3.456Z" transform="translate(0 0.819)" fill="#d97b7b"/>
    </g>
  </g>
</svg>
