<svg xmlns="http://www.w3.org/2000/svg" width="131.222" height="312.951" viewBox="0 0 131.222 312.951">
  <g id="Grupo_145728" data-name="Grupo 145728" transform="translate(9057.191 -2908.41)">
    <path id="Trazado_205296" data-name="Trazado 205296" d="M345.139,727.569h-26V707.3h-.026v71.86l-18.306,6.923a9.922,9.922,0,0,0-6.411,9.28H337.4a7.746,7.746,0,0,0,7.745-7.745V707.3h-.009Z" transform="translate(-9348.403 2426)" fill="#ea5c31"/>
    <path id="Trazado_205297" data-name="Trazado 205297" d="M394.509,727.569h-26V707.3H368.5v80.318a7.745,7.745,0,0,0,7.744,7.745h43.006a9.922,9.922,0,0,0-6.411-9.28l-18.3-6.923V707.3h-.027Z" transform="translate(-9348.403 2426)" fill="#ea5c31"/>
    <path id="Trazado_205298" data-name="Trazado 205298" d="M319.14,707.3V727.57h26V707.3h-26Z" transform="translate(-9348.403 2426)" fill="#e53212"/>
    <path id="Trazado_205299" data-name="Trazado 205299" d="M394.509,727.569V707.3h-26v20.271Z" transform="translate(-9348.403 2426)" fill="#e53212"/>
    <path id="Trazado_205300" data-name="Trazado 205300" d="M335.81,537.1c.113.271.24.534.363.8.1.215.189.436.295.648.127.251.266.5.4.741h.005c.081.147.162.3.244.442.173.291.349.58.531.864.129.2.259.4.394.6.171.249.348.493.526.736.117.153.236.3.355.457l-.005,0c.149.193.3.388.453.575.142.168.294.325.441.488.169.19.337.379.512.563s.327.341.5.508.327.31.491.463l.085.08q.707.652,1.464,1.246l.008.007q.759.593,1.57,1.122c.194.126.391.249.589.37a22.692,22.692,0,0,0,2.71,1.415c.206.09.419.169.629.253a22.634,22.634,0,0,0,2.236.762l.057.017c.16.045.316.1.477.14.215.055.433.1.649.148a22.482,22.482,0,0,0,2.8.456c.222.022.444.041.668.056.519.036,1.04.065,1.568.065.183,0,.361-.018.543-.023a22.767,22.767,0,0,0,2.615-.212c.212-.028.427-.049.638-.085.549-.092,1.092-.206,1.627-.337.214-.053.422-.118.633-.177a22.584,22.584,0,0,0,2.789-.959c.207-.088.406-.187.609-.28.18-.083.358-.169.535-.256.2-.1.4-.185.6-.287.165-.087.321-.189.484-.28l.114-.066a22.687,22.687,0,0,0,2.068-1.318c.191-.137.38-.275.567-.419a23.021,23.021,0,0,0,2.527-2.245c.165-.17.318-.349.477-.524s.329-.352.486-.536.294-.36.439-.542c.159-.2.316-.4.468-.6.141-.187.284-.374.419-.566.15-.212.287-.433.43-.651.132-.2.272-.4.4-.6.14-.23.264-.471.4-.707l.161-.291c.2-.362.384-.728.561-1.1.025-.053.049-.108.073-.161q.3-.648.568-1.315h0c.087-.222.164-.449.244-.674s.164-.428.234-.648c-3.989-.272-8.292-.472-12.817-.586v-3.012c-13.73,7.492-18.215-6.463-18.215-6.463v9.486c-4.362.116-8.51.312-12.368.575.128.4.279.791.428,1.182.084.222.166.445.257.663" transform="translate(-9348.403 2426)" fill="#ea5c31"/>
    <path id="Trazado_205301" data-name="Trazado 205301" d="M291.638,666.911a54.582,54.582,0,0,0-.137,7.934c.3,6.267,1.342,11.309,2.336,11.262.74-.035,1.365-2.961,1.516-7.037.44,5.514,1.352,9.612,2.212,9.572.844-.04,1.363-4.071,1.3-9.464.437,6.61,1.426,11.667,2.333,11.624.995-.046,1.512-6.191,1.157-13.723-.014-.3-.031-.587-.048-.879.838,6.515,2.255,11.621,3.216,11.5.988-.121,1.119-5.71.291-12.484-.331-2.715-.684-5.265-1.051-7.348,3.2,2.8,6.166,4.478,6.794,3.793.672-.734-1.584-3.894-5.039-7.058-.536-.491-1.068-.949-1.589-1.377l6.465-29.966a3.4,3.4,0,0,1-.069-.681,3.327,3.327,0,0,1,.638-1.955l.92-4.265-1.7-32.555s6.2,9.236,22.354,10.278v25.142h46.52V604.086c16.158-1.042,22.355-10.278,22.355-10.278l-1.883,36.023c.017.012.032.029.05.042l.184-3.512,7.955,36.869c-.521.428-1.054.886-1.59,1.377-3.455,3.164-5.71,6.324-5.038,7.058.628.685,3.589-.989,6.793-3.792-.366,2.082-.719,4.632-1.051,7.347-.827,6.774-.7,12.363.291,12.484.962.117,2.378-4.989,3.216-11.505-.016.293-.033.583-.047.88-.354,7.532.162,13.677,1.156,13.723.907.043,1.9-5.015,2.333-11.626-.06,5.394.459,9.426,1.3,9.466s1.771-4.059,2.211-9.573c.151,4.076.776,7,1.515,7.038.995.047,2.041-4.995,2.336-11.262a54.569,54.569,0,0,0-.137-7.933l.418-43.454h.007v-60.99a23.749,23.749,0,0,0-19.408-23.345c-.1.438-.218.871-.333,1.3l-.023.092c-.051.189-.1.38-.148.568l0,.01h0c-.24.86-.512,1.707-.8,2.547h0c-.076.218-.151.437-.229.653-.3.829-.609,1.649-.948,2.456-.091.213-.19.422-.283.633h0q-.523,1.191-1.108,2.348c-.017.033-.034.066-.05.1-.088.172-.17.346-.261.516v0c-.4.758-.822,1.5-1.261,2.233-.117.2-.237.4-.357.592h0c-.443.718-.9,1.429-1.377,2.121h0l-.009.012c-.074.108-.153.211-.229.318l-.167.231q-.728,1.017-1.505,1.994c-.143.18-.281.364-.427.542-.522.636-1.064,1.255-1.618,1.863q-.21.231-.425.457l-.045.049h0c-.556.593-1.122,1.176-1.707,1.74l-.015.014c-.161.155-.322.309-.486.461l-.013-.011c-.587.548-1.177,1.093-1.79,1.612-.176.148-.351.3-.528.443-.614.505-1.238,1-1.877,1.473l0,0c-.148.11-.3.214-.453.322l-.106.075q-.959.69-1.953,1.331c-.192.125-.382.253-.577.374q-.993.621-2.016,1.2c-.2.112-.4.216-.606.326h0c-.681.368-1.376.712-2.075,1.048l0,.007-.394.19c-.074.037-.148.074-.223.109q-1.047.481-2.121.912c-.213.085-.429.164-.642.246q-1.068.413-2.159.773h0c-.208.068-.414.142-.622.208l-.029.01h0q-1.086.34-2.194.631c-.22.058-.444.107-.666.162q-1.1.271-2.219.49c-.224.044-.447.093-.672.133-.741.134-1.486.254-2.238.353-.225.03-.455.049-.682.075q-1.117.131-2.25.207c-.227.016-.455.033-.684.045-.578.031-1.16.05-1.744.06-.227,0-.455.015-.685.015-.055,0-.111,0-.169,0-.528,0-1.052-.021-1.575-.04v.005c-.225-.007-.452-.011-.677-.021h-.008c-.756-.036-1.506-.092-2.253-.163-.228-.021-.454-.049-.681-.074q-1.129-.125-2.242-.3c-.226-.036-.454-.066-.679-.1q-1.122-.193-2.226-.441h0c-.224-.05-.444-.109-.666-.162h0c-.74-.177-1.473-.376-2.2-.587v.005l-.263-.076c-.133-.037-.266-.074-.4-.115-.732-.224-1.457-.462-2.174-.72-.215-.078-.426-.165-.64-.246q-1.079-.406-2.133-.866h0c-.211-.092-.423-.179-.632-.273h0c-.7-.318-1.4-.651-2.091-1-.2-.1-.4-.217-.605-.325q-1.033-.548-2.036-1.145c-.2-.117-.4-.23-.593-.35h0c-.668-.411-1.327-.841-1.974-1.284-.19-.13-.374-.266-.562-.4-.647-.458-1.275-.942-1.9-1.429l-.008.009c-.179-.141-.362-.278-.539-.421l0,0h0c-.624-.5-1.23-1.027-1.826-1.561-.133-.118-.264-.239-.394-.359l-.116-.1,0,0c-.6-.549-1.183-1.107-1.75-1.685h0l-.008-.008c-.155-.159-.309-.32-.462-.481l-.008-.008c-.565-.593-1.112-1.2-1.646-1.824-.15-.175-.3-.348-.449-.525q-.8-.954-1.546-1.949c-.138-.184-.27-.373-.4-.559-.493-.679-.967-1.373-1.426-2.076h0c-.125-.192-.252-.382-.374-.576l0-.005c-.452-.718-.88-1.453-1.294-2.2-.112-.2-.223-.4-.333-.606h0c-.407-.758-.8-1.526-1.168-2.308-.1-.208-.186-.421-.281-.631q-.538-1.193-1.012-2.417h0l-.012-.031c-.079-.205-.162-.407-.238-.613v0h0c-.306-.827-.58-1.669-.839-2.518h0c-.033-.107-.065-.216-.1-.324s-.069-.225-.1-.339c-.234-.8-.454-1.615-.645-2.436a23.749,23.749,0,0,0-19.409,23.345v60.99h.008Zm120.13,4,.011.009-.018.168c0-.058.005-.119.007-.177m-109.886,0c0,.058,0,.118.006.176-.006-.056-.012-.112-.019-.167l.013-.009" transform="translate(-9348.403 2426)" fill="#ea5c31"/>
    <path id="Trazado_205302" data-name="Trazado 205302" d="M389.487,671.047,388,672.534l-9.4,9.4-9.9-9.9-.991-.991-1.487,1.487-9.4,9.4-9.9-9.9-.991-.991-1.487,1.487-9.4,9.4-9.9-9.9-.992-.991-1.486,1.487-9.356,9.355v14.5l9.356,9.355,1.486,1.487.992-.991,9.9-9.9,9.4,9.4,1.487,1.487.991-.991,9.9-9.9,9.4,9.4,1.487,1.487.991-.991,9.9-9.9,9.4,9.4,1.487,1.487.991-.991,9.851-9.851v-14.5l-9.851-9.851Z" transform="translate(-9348.403 2426)" fill="#4856a0"/>
    <path id="Trazado_205303" data-name="Trazado 205303" d="M365.707,531.659v-8.3a11.978,11.978,0,0,1-8.883,4.384c-3.552,0-6.806-1.844-9.331-4.9V525.2s4.484,13.955,18.214,6.463" transform="translate(-9348.403 2426)" fill="#e53212"/>
    <path id="Trazado_205304" data-name="Trazado 205304" d="M339.817,507.412c-1.129.391-1.379,2.628-.557,5s2.4,3.971,3.53,3.58a1.349,1.349,0,0,0,.738-.76,28.513,28.513,0,0,1-1.156-6.206c-.807-1.2-1.784-1.877-2.555-1.61" transform="translate(-9348.403 2426)" fill="#29120b"/>
    <path id="Trazado_205305" data-name="Trazado 205305" d="M370.86,515.988c1.128.391,2.709-1.211,3.53-3.579s.571-4.605-.558-5c-.771-.267-1.748.409-2.554,1.61a28.5,28.5,0,0,1-1.157,6.206,1.353,1.353,0,0,0,.739.76" transform="translate(-9348.403 2426)" fill="#29120b"/>
    <path id="Trazado_205306" data-name="Trazado 205306" d="M356.825,527.743a11.976,11.976,0,0,0,8.883-4.385,20.531,20.531,0,0,0,3.585-5.819,2.427,2.427,0,0,0,.856.531c2.044.708,4.685-1.555,5.9-5.055s.54-6.913-1.5-7.621a3.346,3.346,0,0,0-3.181.887q-.018-2.346-.216-4.372a12.285,12.285,0,0,1-6.685-2.309,10.08,10.08,0,0,0,.658,2.718,11.89,11.89,0,0,1-7.491-10.577c-1.473,9.049-8.9,10.591-15.145,10.17q-.177,2.023-.194,4.37a3.348,3.348,0,0,0-3.182-.887c-2.044.708-2.717,4.121-1.5,7.621s3.854,5.763,5.9,5.055a2.441,2.441,0,0,0,.856-.531,20.948,20.948,0,0,0,3.137,5.3c2.525,3.06,5.779,4.9,9.331,4.9m14.453-18.721c.807-1.2,1.784-1.877,2.555-1.61,1.129.392,1.378,2.628.557,5s-2.4,3.97-3.53,3.579a1.349,1.349,0,0,1-.738-.76,28.506,28.506,0,0,0,1.156-6.206m-28.488,6.966c-1.129.391-2.709-1.211-3.53-3.579s-.571-4.605.558-5c.771-.267,1.748.409,2.554,1.61a28.553,28.553,0,0,0,1.157,6.206,1.35,1.35,0,0,1-.739.76m20.166-12.6c.4,0,.719.641.719,1.432s-.322,1.432-.719,1.432-.72-.641-.72-1.432.322-1.432.72-1.432m-1.608,3.566a.341.341,0,0,1,.429.224l0,.009.018.046.086.185a2.792,2.792,0,0,0,.416.59,3.158,3.158,0,0,0,2.187.987.343.343,0,1,1-.052.684,3.855,3.855,0,0,1-2.641-1.208,3.151,3.151,0,0,1-.671-1.088.343.343,0,0,1,.225-.429m-5.577-.609a1.143,1.143,0,0,1,2.16-.192c.815,2.134-.216,7.006-1.9,7.146-1.841.154-.8-4.8-.259-6.954m-2.947,9.7a12.973,12.973,0,0,0,2.018.5l.023,0c.086.01.172.02.259.028.148.014.3.024.445.033.347.02.694.024,1.041.014s.693-.04,1.038-.075l.055-.005.079-.017c.194-.038.39-.069.585-.111a12.1,12.1,0,0,0,1.985-.618,1.732,1.732,0,0,1,2.108,1.2,1.759,1.759,0,0,1-1.2,2.108,13.651,13.651,0,0,1-9.35.248,1.753,1.753,0,0,1-1.2-2.108,1.725,1.725,0,0,1,2.108-1.2m-2.648-12.654c.4,0,.72.641.72,1.432s-.322,1.432-.72,1.432-.72-.641-.72-1.432.322-1.432.72-1.432m-1.847,5.975a.343.343,0,0,1,.316-.368,3.193,3.193,0,0,0,2.109-.9,2.627,2.627,0,0,0,.6-.9l0-.009a.343.343,0,0,1,.654.2,3.151,3.151,0,0,1-.671,1.088,3.855,3.855,0,0,1-2.641,1.208.343.343,0,0,1-.368-.316" transform="translate(-9348.403 2426)" fill="#ea5c31"/>
    <path id="Trazado_205307" data-name="Trazado 205307" d="M356.03,513.295c1.685-.141,2.716-5.013,1.9-7.146a1.143,1.143,0,0,0-2.16.191c-.539,2.154-1.582,7.108.259,6.955" transform="translate(-9348.403 2426)" fill="#a84d17"/>
    <path id="Trazado_205308" data-name="Trazado 205308" d="M350.176,506.248c.4,0,.72-.641.72-1.433s-.322-1.432-.72-1.432-.72.642-.72,1.432.322,1.433.72,1.433" transform="translate(-9348.403 2426)" fill="#29120b"/>
    <path id="Trazado_205309" data-name="Trazado 205309" d="M362.956,506.248c.4,0,.719-.641.719-1.433s-.322-1.432-.719-1.432-.72.642-.72,1.432.322,1.433.72,1.433" transform="translate(-9348.403 2426)" fill="#29120b"/>
    <path id="Trazado_205310" data-name="Trazado 205310" d="M350.715,517.235a1.754,1.754,0,0,0,1.2,2.108,13.642,13.642,0,0,0,9.349-.248,1.759,1.759,0,0,0,1.2-2.108,1.732,1.732,0,0,0-2.108-1.2,12.113,12.113,0,0,1-1.986.618c-.2.042-.389.073-.585.112l-.079.016-.055.005c-.345.035-.69.065-1.038.075s-.694.006-1.041-.014c-.147-.008-.3-.019-.444-.033-.088-.008-.173-.017-.259-.027l-.024,0a12.973,12.973,0,0,1-2.018-.5,1.726,1.726,0,0,0-2.108,1.2m1.013.555a.34.34,0,0,1,.415-.248s.094.024.276.061.449.089.782.14a17.69,17.69,0,0,0,2.645.2,11.935,11.935,0,0,0,4.838-.921.343.343,0,1,1,.281.625,12.576,12.576,0,0,1-5.119.981,17.394,17.394,0,0,1-3.871-.426.342.342,0,0,1-.247-.416" transform="translate(-9348.403 2426)" fill="#a84d17"/>
    <path id="Trazado_205311" data-name="Trazado 205311" d="M351.976,518.206h0a17.372,17.372,0,0,0,3.871.426,12.6,12.6,0,0,0,5.118-.981.343.343,0,1,0-.281-.625,11.944,11.944,0,0,1-4.837.921,17.694,17.694,0,0,1-2.646-.2c-.333-.051-.6-.1-.781-.14s-.276-.062-.276-.062a.343.343,0,0,0-.168.665" transform="translate(-9348.403 2426)" fill="#29120b"/>
    <path id="Trazado_205312" data-name="Trazado 205312" d="M351.338,508.467a3.161,3.161,0,0,0,.671-1.088.343.343,0,1,0-.654-.2l0,.008a2.627,2.627,0,0,1-.6.9,3.193,3.193,0,0,1-2.109.9.343.343,0,0,0,.052.684,3.859,3.859,0,0,0,2.641-1.208" transform="translate(-9348.403 2426)" fill="#29120b"/>
    <path id="Trazado_205313" data-name="Trazado 205313" d="M361.123,507.379a3.161,3.161,0,0,0,.671,1.088,3.855,3.855,0,0,0,2.641,1.208.343.343,0,0,0,.052-.684A3.163,3.163,0,0,1,362.3,508a2.806,2.806,0,0,1-.415-.59l-.086-.185-.018-.046,0-.009a.343.343,0,1,0-.654.2Z" transform="translate(-9348.403 2426)" fill="#29120b"/>
    <path id="Trazado_205314" data-name="Trazado 205314" d="M314.682,629.228h18.856V604.086c-16.158-1.042-22.355-10.278-22.355-10.278l1.7,32.555.173,3.3a3.325,3.325,0,0,1,1.624-.436" transform="translate(-9348.403 2426)" fill="#e53212"/>
    <path id="Trazado_205315" data-name="Trazado 205315" d="M400.529,629.831l1.883-36.023s-6.2,9.236-22.355,10.278v25.142h18.559a3.339,3.339,0,0,1,1.913.6" transform="translate(-9348.403 2426)" fill="#e53212"/>
    <path id="Trazado_205316" data-name="Trazado 205316" d="M311.9,538.651c.079-.027.164-.053.245-.08-.081.027-.166.053-.245.08" transform="translate(-9348.403 2426)" fill="#312782"/>
    <path id="Trazado_205317" data-name="Trazado 205317" d="M330.572,535.571q1.037-.091,2.106-.176c-.715.056-1.415.115-2.106.176" transform="translate(-9348.403 2426)" fill="#312782"/>
    <path id="Trazado_205318" data-name="Trazado 205318" d="M313.568,538.151l.347-.093-.347.093" transform="translate(-9348.403 2426)" fill="#312782"/>
    <path id="Trazado_205319" data-name="Trazado 205319" d="M325.152,536.126q.594-.07,1.2-.137-.61.067-1.2.137" transform="translate(-9348.403 2426)" fill="#312782"/>
    <path id="Trazado_205320" data-name="Trazado 205320" d="M323.422,536.34q.572-.075,1.16-.146-.59.072-1.16.146" transform="translate(-9348.403 2426)" fill="#312782"/>
    <path id="Trazado_205321" data-name="Trazado 205321" d="M312.7,538.4l.307-.09-.307.09" transform="translate(-9348.403 2426)" fill="#312782"/>
    <path id="Trazado_205322" data-name="Trazado 205322" d="M335.551,536.434v.005c-.148-.391-.3-.781-.427-1.182-.005-.014-.01-.028-.014-.042.037.123.088.239.129.36l-4.756,0q-1.953.172-3.77.37c.07.375.151.746.235,1.117Z" transform="translate(-9348.403 2426)" fill="#312782"/>
    <path id="Trazado_205323" data-name="Trazado 205323" d="M323.079,536.385a79.984,79.984,0,0,0-8.966,1.623l9.159-.672c-.066-.316-.136-.632-.193-.951" transform="translate(-9348.403 2426)" fill="#312782"/>
    <path id="Trazado_205324" data-name="Trazado 205324" d="M394.784,537.017q1.381.238,2.6.493-1.221-.255-2.6-.493" transform="translate(-9348.403 2426)" fill="#312782"/>
    <path id="Trazado_205325" data-name="Trazado 205325" d="M376.846,539.158c.063-.113.128-.225.188-.34l8.667,1.7q.245-.691.458-1.4l-8.752-1.061c-.177.374-.365.741-.561,1.1" transform="translate(-9348.403 2426)" fill="#312782"/>
    <path id="Trazado_205326" data-name="Trazado 205326" d="M336.468,538.55h0l-8.757,1.286q.229.7.492,1.377l8.668-1.923c-.138-.245-.277-.489-.4-.741" transform="translate(-9348.403 2426)" fill="#312782"/>
    <path id="Trazado_205327" data-name="Trazado 205327" d="M337.121,539.732c.034.061.066.124.1.184l-8.76,1.943q.273.666.574,1.316l8.615-2.578c-.183-.285-.359-.574-.531-.865" transform="translate(-9348.403 2426)" fill="#312782"/>
    <path id="Trazado_205328" data-name="Trazado 205328" d="M335.81,537.1l-8.7.639q.182.723.4,1.433l8.663-1.272c-.123-.266-.25-.529-.363-.8" transform="translate(-9348.403 2426)" fill="#312782"/>
    <path id="Trazado_205329" data-name="Trazado 205329" d="M390.015,538.892l12.679,1.537c.115-.434.231-.867.334-1.306,0-.011,0-.021.008-.032l-.229-.05a31.76,31.76,0,0,0-5.415-1.531l-6.981-.336q-.177.867-.4,1.718" transform="translate(-9348.403 2426)" fill="#312782"/>
    <path id="Trazado_205330" data-name="Trazado 205330" d="M389.322,541.22l12.4,2.425c.287-.84.559-1.687.8-2.547l-12.684-1.537c-.157.559-.33,1.111-.515,1.659" transform="translate(-9348.403 2426)" fill="#312782"/>
    <path id="Trazado_205331" data-name="Trazado 205331" d="M391.793,536.555c-.4-.058-.8-.116-1.221-.172-.007.038-.016.075-.023.112Z" transform="translate(-9348.403 2426)" fill="#312782"/>
    <path id="Trazado_205332" data-name="Trazado 205332" d="M386.859,536.317c.025-.124.055-.245.078-.37-2.6-.281-5.4-.527-8.4-.732-.005.014-.011.028-.015.042-.07.219-.156.432-.234.648Z" transform="translate(-9348.403 2426)" fill="#312782"/>
    <path id="Trazado_205333" data-name="Trazado 205333" d="M377.48,537.894c.076-.164.152-.328.225-.494l8.65,1.049c.133-.48.252-.964.361-1.452l-8.668-.417q-.266.666-.568,1.314" transform="translate(-9348.403 2426)" fill="#312782"/>
    <path id="Trazado_205334" data-name="Trazado 205334" d="M323.858,539.71c-.16-.561-.31-1.126-.442-1.7l-12.231.9c-.113.044-.236.087-.342.131l-.229.05c0,.011.006.021.008.032.192.821.412,1.631.646,2.436Z" transform="translate(-9348.403 2426)" fill="#312782"/>
    <path id="Trazado_205335" data-name="Trazado 205335" d="M339.4,559.827l-6.759,9.322q1,.6,2.036,1.145l6.031-9.73q-.663-.354-1.308-.737" transform="translate(-9348.403 2426)" fill="#312782"/>
    <path id="Trazado_205336" data-name="Trazado 205336" d="M337.548,558.639l-7.472,8.873q.971.666,1.975,1.285l6.766-9.332q-.643-.4-1.269-.826" transform="translate(-9348.403 2426)" fill="#312782"/>
    <path id="Trazado_205337" data-name="Trazado 205337" d="M341.323,560.877l-6.039,9.741c.687.352,1.387.685,2.091,1l5.288-10.1q-.68-.309-1.34-.646" transform="translate(-9348.403 2426)" fill="#312782"/>
    <path id="Trazado_205338" data-name="Trazado 205338" d="M343.289,561.8l-5.283,10.089q1.055.457,2.134.866l4.518-10.4q-.691-.264-1.369-.556" transform="translate(-9348.403 2426)" fill="#312782"/>
    <path id="Trazado_205339" data-name="Trazado 205339" d="M349.431,563.788l-2.949,10.874q1.1.246,2.227.441l2.147-11.031q-.717-.128-1.425-.284" transform="translate(-9348.403 2426)" fill="#312782"/>
    <path id="Trazado_205340" data-name="Trazado 205340" d="M351.534,564.179l-2.147,11.028q1.113.176,2.242.3l1.34-11.135q-.721-.081-1.435-.192" transform="translate(-9348.403 2426)" fill="#312782"/>
    <path id="Trazado_205341" data-name="Trazado 205341" d="M345.3,562.6l-4.522,10.41c.716.258,1.442.5,2.173.72l3.741-10.665q-.7-.217-1.392-.465" transform="translate(-9348.403 2426)" fill="#312782"/>
    <path id="Trazado_205342" data-name="Trazado 205342" d="M335.754,557.333l-8.138,8.353c.624.487,1.251.971,1.9,1.429l7.465-8.865q-.623-.445-1.225-.917" transform="translate(-9348.403 2426)" fill="#312782"/>
    <path id="Trazado_205343" data-name="Trazado 205343" d="M347.352,563.258l-3.737,10.654c.728.211,1.46.411,2.2.588l2.947-10.869q-.711-.172-1.411-.373" transform="translate(-9348.403 2426)" fill="#312782"/>
    <path id="Trazado_205344" data-name="Trazado 205344" d="M329.421,550.878l-10.56,5.885c.5.664,1.014,1.313,1.545,1.949l10.01-6.571q-.513-.619-.995-1.263" transform="translate(-9348.403 2426)" fill="#312782"/>
    <path id="Trazado_205345" data-name="Trazado 205345" d="M324.85,542.66l-12.29,2.727q.473,1.225,1.012,2.416l11.934-3.571q-.347-.777-.656-1.572" transform="translate(-9348.403 2426)" fill="#312782"/>
    <path id="Trazado_205346" data-name="Trazado 205346" d="M325.788,544.863l-11.934,3.572c.367.782.76,1.55,1.168,2.308l11.519-4.379q-.394-.741-.753-1.5" transform="translate(-9348.403 2426)" fill="#312782"/>
    <path id="Trazado_205347" data-name="Trazado 205347" d="M353.651,564.448l-1.34,11.132c.746.071,1.5.127,2.253.163l.53-11.2c-.484-.024-.965-.056-1.443-.1" transform="translate(-9348.403 2426)" fill="#312782"/>
    <path id="Trazado_205348" data-name="Trazado 205348" d="M326.878,546.969l-11.523,4.381c.415.744.842,1.479,1.294,2.2l11.068-5.155q-.437-.7-.839-1.424" transform="translate(-9348.403 2426)" fill="#312782"/>
    <path id="Trazado_205349" data-name="Trazado 205349" d="M328.086,548.978l-11.057,5.149c.459.7.933,1.4,1.427,2.076l10.554-5.881c-.317-.441-.627-.888-.924-1.344" transform="translate(-9348.403 2426)" fill="#312782"/>
    <path id="Trazado_205350" data-name="Trazado 205350" d="M332.4,554.343l-9.424,7.214c.568.579,1.155,1.137,1.751,1.685l8.8-7.806q-.574-.534-1.123-1.093" transform="translate(-9348.403 2426)" fill="#312782"/>
    <path id="Trazado_205351" data-name="Trazado 205351" d="M330.863,552.667l-10.007,6.569c.534.621,1.081,1.231,1.646,1.824l9.425-7.216q-.545-.576-1.064-1.177" transform="translate(-9348.403 2426)" fill="#312782"/>
    <path id="Trazado_205352" data-name="Trazado 205352" d="M334.04,555.9l-8.8,7.813c.6.534,1.2,1.058,1.826,1.561l8.155-8.37q-.6-.489-1.178-1" transform="translate(-9348.403 2426)" fill="#312782"/>
    <path id="Trazado_205353" data-name="Trazado 205353" d="M385.1,549.663l10.745,5.637c.479-.693.934-1.4,1.377-2.122L386,548.29q-.43.7-.894,1.373" transform="translate(-9348.403 2426)" fill="#312782"/>
    <path id="Trazado_205354" data-name="Trazado 205354" d="M373.6,560.193l6.293,9.6q1.025-.573,2.017-1.2l-7.015-9.177q-.638.4-1.3.768" transform="translate(-9348.403 2426)" fill="#312782"/>
    <path id="Trazado_205355" data-name="Trazado 205355" d="M379.031,556.407l8.377,8.174c.613-.519,1.2-1.064,1.79-1.612l-9.008-7.6q-.568.531-1.159,1.036" transform="translate(-9348.403 2426)" fill="#312782"/>
    <path id="Trazado_205356" data-name="Trazado 205356" d="M380.687,554.893l9.025,7.612c.585-.564,1.152-1.147,1.707-1.74l-9.628-6.993q-.538.573-1.1,1.121" transform="translate(-9348.403 2426)" fill="#312782"/>
    <path id="Trazado_205357" data-name="Trazado 205357" d="M375.48,559.06l7.008,9.168q.993-.642,1.953-1.331l-7.706-8.7q-.618.442-1.255.859" transform="translate(-9348.403 2426)" fill="#312782"/>
    <path id="Trazado_205358" data-name="Trazado 205358" d="M377.288,557.792,385,566.5c.64-.474,1.263-.969,1.877-1.473l-8.381-8.179q-.6.486-1.211.946" transform="translate(-9348.403 2426)" fill="#312782"/>
    <path id="Trazado_205359" data-name="Trazado 205359" d="M387.481,545.631l11.672,4.1q.586-1.156,1.11-2.348L388.2,544.106q-.341.772-.719,1.525" transform="translate(-9348.403 2426)" fill="#312782"/>
    <path id="Trazado_205360" data-name="Trazado 205360" d="M382.261,553.266l9.631,6.994c.554-.608,1.1-1.227,1.618-1.863L383.3,552.058c-.338.41-.684.814-1.04,1.208" transform="translate(-9348.403 2426)" fill="#312782"/>
    <path id="Trazado_205361" data-name="Trazado 205361" d="M386.358,547.7l11.224,4.887c.438-.734.862-1.475,1.26-2.233l-11.67-4.1c-.259.491-.532.973-.814,1.45" transform="translate(-9348.403 2426)" fill="#312782"/>
    <path id="Trazado_205362" data-name="Trazado 205362" d="M383.734,551.52l10.2,6.335q.777-.977,1.5-1.994l-10.734-5.631q-.471.657-.973,1.29" transform="translate(-9348.403 2426)" fill="#312782"/>
    <path id="Trazado_205363" data-name="Trazado 205363" d="M356.825,564.595c-.351,0-.7-.013-1.046-.024l-.53,11.189c.524.019,1.047.04,1.576.04.056,0,.112,0,.169,0l-.141-11.2h-.028" transform="translate(-9348.403 2426)" fill="#312782"/>
    <path id="Trazado_205364" data-name="Trazado 205364" d="M363.522,563.931l2.426,10.978q1.119-.219,2.219-.49l-3.224-10.8q-.705.172-1.421.314" transform="translate(-9348.403 2426)" fill="#312782"/>
    <path id="Trazado_205365" data-name="Trazado 205365" d="M361.417,564.288l1.622,11.107c.752-.1,1.5-.219,2.238-.353l-2.427-10.979c-.475.084-.952.16-1.433.225" transform="translate(-9348.403 2426)" fill="#312782"/>
    <path id="Trazado_205366" data-name="Trazado 205366" d="M359.3,564.5l.812,11.178q1.133-.078,2.25-.207l-1.622-11.1q-.715.082-1.44.134" transform="translate(-9348.403 2426)" fill="#312782"/>
    <path id="Trazado_205367" data-name="Trazado 205367" d="M371.672,561.207l5.542,9.964c.7-.336,1.394-.68,2.075-1.048L373,560.529q-.657.352-1.33.678" transform="translate(-9348.403 2426)" fill="#312782"/>
    <path id="Trazado_205368" data-name="Trazado 205368" d="M357.538,564.579l.141,11.2c.584-.01,1.166-.029,1.744-.06l-.811-11.176c-.356.018-.715.027-1.074.034" transform="translate(-9348.403 2426)" fill="#312782"/>
    <path id="Trazado_205369" data-name="Trazado 205369" d="M365.609,563.449l3.225,10.807q1.108-.289,2.194-.631l-4.014-10.582q-.7.217-1.4.406" transform="translate(-9348.403 2426)" fill="#312782"/>
    <path id="Trazado_205370" data-name="Trazado 205370" d="M369.69,562.082l4.789,10.305c.715-.288,1.423-.59,2.12-.912l-5.55-9.98q-.674.308-1.359.587" transform="translate(-9348.403 2426)" fill="#312782"/>
    <path id="Trazado_205371" data-name="Trazado 205371" d="M367.667,562.833l4.011,10.575q1.092-.362,2.159-.774l-4.786-10.3q-.684.263-1.384.5" transform="translate(-9348.403 2426)" fill="#312782"/>
    <path id="Trazado_205372" data-name="Trazado 205372" d="M351.139,550.4c-.161-.042-.317-.1-.476-.14l-3.9,8.976q.567.2,1.143.374l3.23-9.211h0" transform="translate(-9348.403 2426)" fill="#312782"/>
    <path id="Trazado_205373" data-name="Trazado 205373" d="M359.982,550.888a22.749,22.749,0,0,1-2.615.212l.124,9.824c.286-.006.572-.011.855-.025l-.712-9.809c.228-.008.458-.014.684-.029l.712,9.792q.591-.042,1.176-.107l-1.418-9.71c.229-.02.453-.058.681-.084l1.419,9.717c.393-.052.783-.115,1.171-.182l-2.121-9.593.044-.006" transform="translate(-9348.403 2426)" fill="#312782"/>
    <path id="Trazado_205374" data-name="Trazado 205374" d="M356.824,551.123c-.528,0-1.048-.029-1.568-.064h.006l-1.174,9.759c.39.034.783.059,1.178.079l.465-9.819c.228.011.455.025.685.029l-.465,9.813c.285.008.569.019.855.019l-.124-9.822Z" transform="translate(-9348.403 2426)" fill="#312782"/>
    <path id="Trazado_205375" data-name="Trazado 205375" d="M354.589,551a22.421,22.421,0,0,1-2.8-.456l.02.005-3.246,9.253c.383.108.769.206,1.157.3l2.563-9.453c.225.046.446.1.673.14l-2.567,9.464q.58.125,1.166.229l1.874-9.623c.225.034.454.057.682.084l-1.878,9.646c.389.059.78.109,1.173.153L354.579,551h.01" transform="translate(-9348.403 2426)" fill="#312782"/>
    <path id="Trazado_205376" data-name="Trazado 205376" d="M362.248,550.466c-.535.131-1.077.245-1.627.338l2.112,9.557c.391-.077.779-.159,1.164-.25l-2.806-9.405c.225-.042.449-.09.674-.139l2.8,9.377q.581-.153,1.151-.327l-3.47-9.15h0" transform="translate(-9348.403 2426)" fill="#312782"/>
    <path id="Trazado_205377" data-name="Trazado 205377" d="M365.67,549.33a22.584,22.584,0,0,1-2.789.959l.026-.007,3.463,9.132c.383-.126.763-.257,1.138-.4l-4.124-8.875c.22-.066.447-.122.665-.2l4.1,8.817q.565-.227,1.119-.474l-4.74-8.522c.217-.078.432-.163.647-.248l4.721,8.489c.37-.175.735-.359,1.1-.549l-5.326-8.128.005,0" transform="translate(-9348.403 2426)" fill="#312782"/>
    <path id="Trazado_205378" data-name="Trazado 205378" d="M366.814,548.794c-.178.087-.356.173-.536.255l.016-.007,5.3,8.087q.543-.3,1.073-.621l-5.884-7.7.031-.015" transform="translate(-9348.403 2426)" fill="#312782"/>
    <path id="Trazado_205379" data-name="Trazado 205379" d="M367.413,548.507h0l5.841,7.642q.529-.338,1.043-.7l-6.4-7.223c-.162.091-.319.192-.484.279" transform="translate(-9348.403 2426)" fill="#312782"/>
    <path id="Trazado_205380" data-name="Trazado 205380" d="M374.136,543.12c-.157.183-.324.357-.486.535l8.2,4.3q.4-.56.766-1.138l-8.48-3.692,0-.005" transform="translate(-9348.403 2426)" fill="#312782"/>
    <path id="Trazado_205381" data-name="Trazado 205381" d="M368.011,548.162c.165-.093.33-.187.492-.284l6.354,7.17q.513-.375,1.01-.771l-6.862-6.7c.2-.125.384-.265.576-.4l6.824,6.658q.495-.413.972-.846l-7.3-6.155a22.92,22.92,0,0,1-2.069,1.319" transform="translate(-9348.403 2426)" fill="#312782"/>
    <path id="Trazado_205382" data-name="Trazado 205382" d="M350.606,550.242a22.727,22.727,0,0,1-2.237-.762l.014.005-5.128,8.274q.547.272,1.106.521l4.508-8.609c.215.081.426.173.644.247l-4.524,8.641q.558.235,1.126.448L350,550.065c.2.062.4.12.606.177" transform="translate(-9348.403 2426)" fill="#312782"/>
    <path id="Trazado_205383" data-name="Trazado 205383" d="M347.741,549.226a22.782,22.782,0,0,1-2.711-1.415l-6.71,6.887q.5.383,1.022.746l6.187-7.346c.2.116.4.239.6.348l-6.218,7.383c.348.23.7.454,1.055.67l5.659-7.8c.207.1.418.2.629.3l-5.7,7.858c.355.206.716.406,1.082.6l5.1-8.225h0" transform="translate(-9348.403 2426)" fill="#312782"/>
    <path id="Trazado_205384" data-name="Trazado 205384" d="M375.891,540.757c-.142.218-.28.438-.429.651v0l8.542,3q.328-.629.626-1.274l-8.74-2.378" transform="translate(-9348.403 2426)" fill="#312782"/>
    <path id="Trazado_205385" data-name="Trazado 205385" d="M376.289,540.155l8.63,2.348c.192-.441.376-.887.548-1.338l-8.782-1.717c-.132.236-.256.477-.4.707" transform="translate(-9348.403 2426)" fill="#312782"/>
    <path id="Trazado_205386" data-name="Trazado 205386" d="M370.645,546.425h0l7.235,6.1q.474-.45.929-.919l-7.676-5.575c.184-.15.374-.291.552-.446l7.6,5.522q.451-.486.882-.993l-8.005-4.97c.174-.159.347-.322.516-.486l7.925,4.92q.426-.523.827-1.065l-8.262-4.334a22.929,22.929,0,0,1-2.527,2.245" transform="translate(-9348.403 2426)" fill="#312782"/>
    <path id="Trazado_205387" data-name="Trazado 205387" d="M375.043,541.974c-.153.2-.309.4-.468.6l0-.006,8.4,3.656q.363-.594.7-1.207l-8.641-3.038.006-.008" transform="translate(-9348.403 2426)" fill="#312782"/>
    <path id="Trazado_205388" data-name="Trazado 205388" d="M342.864,546.312q-.758-.593-1.464-1.246c.142.136.281.274.428.4l-7.881,5.173q.439.493.9.967l7.484-5.729q.264.219.534.431" transform="translate(-9348.403 2426)" fill="#312782"/>
    <path id="Trazado_205389" data-name="Trazado 205389" d="M344.442,547.441q-.81-.528-1.57-1.122l.007.005-7.55,5.78q.462.456.945.894l7.092-6.295c.19.139.389.266.582.4l-7.155,6.35q.484.42.986.819l6.658-6.834,0,0" transform="translate(-9348.403 2426)" fill="#312782"/>
    <path id="Trazado_205390" data-name="Trazado 205390" d="M339.816,543.452l.04.044-8.417,3.92q.381.566.788,1.113l8.1-4.514c-.175-.184-.343-.373-.512-.563" transform="translate(-9348.403 2426)" fill="#312782"/>
    <path id="Trazado_205391" data-name="Trazado 205391" d="M338.571,541.93c-.178-.243-.355-.487-.525-.736l-8.71,2.607q.312.634.654,1.251l8.5-3.23c.027.036.056.072.084.108" transform="translate(-9348.403 2426)" fill="#312782"/>
    <path id="Trazado_205392" data-name="Trazado 205392" d="M338.922,542.389l-8.593,3.267q.351.6.723,1.183l8.323-3.876c-.156-.186-.3-.381-.453-.574" transform="translate(-9348.403 2426)" fill="#312782"/>
    <path id="Trazado_205393" data-name="Trazado 205393" d="M340.824,544.523h0l-8.184,4.561q.412.53.848,1.04l7.827-5.138c-.164-.153-.331-.3-.491-.463" transform="translate(-9348.403 2426)" fill="#312782"/>
    <path id="Trazado_205394" data-name="Trazado 205394" d="M324.055,540.374l-12.584,1.848c.259.849.532,1.691.838,2.518l12.294-2.727c-.2-.54-.378-1.087-.548-1.639" transform="translate(-9348.403 2426)" fill="#312782"/>
    <path id="Trazado_205395" data-name="Trazado 205395" d="M388.479,543.472l12.066,3.283c.341-.807.653-1.628.949-2.456l-12.4-2.424c-.193.538-.4,1.072-.616,1.6" transform="translate(-9348.403 2426)" fill="#312782"/>
    <path id="Trazado_205396" data-name="Trazado 205396" d="M358.611,564.545l.812,11.176c.228-.012.456-.029.683-.044h0l-.812-11.177c-.227.016-.454.034-.683.046" transform="translate(-9348.403 2426)" fill="#ffec00"/>
    <path id="Trazado_205397" data-name="Trazado 205397" d="M357.634,551.09l.712,9.81c.229-.011.456-.03.684-.046l-.711-9.792c-.227.015-.457.02-.685.028" transform="translate(-9348.403 2426)" fill="#ffec00"/>
    <path id="Trazado_205398" data-name="Trazado 205398" d="M360.735,564.365l1.622,11.1c.227-.026.456-.044.682-.074h0l-1.622-11.106c-.226.03-.455.051-.682.077" transform="translate(-9348.403 2426)" fill="#ffec00"/>
    <path id="Trazado_205399" data-name="Trazado 205399" d="M358.788,551.036l1.418,9.71c.228-.025.456-.047.682-.077l-1.419-9.717c-.228.026-.452.064-.681.084" transform="translate(-9348.403 2426)" fill="#ffec00"/>
    <path id="Trazado_205400" data-name="Trazado 205400" d="M359.982,550.888l-.044.006,2.121,9.593c.226-.039.45-.082.674-.126L360.62,550.8c-.21.035-.425.056-.638.084" transform="translate(-9348.403 2426)" fill="#ffec00"/>
    <path id="Trazado_205401" data-name="Trazado 205401" d="M362.849,564.062l2.427,10.979c.225-.04.448-.089.672-.133l-2.426-10.978c-.224.045-.447.092-.673.132" transform="translate(-9348.403 2426)" fill="#ffec00"/>
    <path id="Trazado_205402" data-name="Trazado 205402" d="M364.943,563.617l3.224,10.8c.222-.055.446-.1.667-.163l-3.226-10.807c-.221.059-.443.114-.665.168" transform="translate(-9348.403 2426)" fill="#ffec00"/>
    <path id="Trazado_205403" data-name="Trazado 205403" d="M361.09,550.706l2.807,9.4c.223-.053.444-.109.665-.167l-2.8-9.377c-.224.05-.448.1-.674.14" transform="translate(-9348.403 2426)" fill="#ffec00"/>
    <path id="Trazado_205404" data-name="Trazado 205404" d="M367.014,563.043l4.014,10.582h0l.029-.009c.208-.067.414-.141.622-.209l-4.011-10.575q-.326.108-.654.21" transform="translate(-9348.403 2426)" fill="#ffec00"/>
    <path id="Trazado_205405" data-name="Trazado 205405" d="M362.881,550.289c-.211.059-.419.124-.633.177h0l3.47,9.15c.219-.067.439-.132.656-.2l-3.463-9.132-.026.007" transform="translate(-9348.403 2426)" fill="#ffec00"/>
    <path id="Trazado_205406" data-name="Trazado 205406" d="M369.052,562.337l4.786,10.3h0c.213-.083.429-.162.642-.247l-4.79-10.3c-.212.086-.424.172-.638.254" transform="translate(-9348.403 2426)" fill="#ffec00"/>
    <path id="Trazado_205407" data-name="Trazado 205407" d="M363.384,550.142l4.124,8.875c.215-.081.426-.169.639-.254l-4.1-8.816c-.218.073-.445.128-.665.2" transform="translate(-9348.403 2426)" fill="#ffec00"/>
    <path id="Trazado_205408" data-name="Trazado 205408" d="M371.049,561.495l5.551,9.981c.075-.035.149-.072.224-.109l.394-.19,0-.007-5.542-9.963c-.206.1-.415.193-.623.288" transform="translate(-9348.403 2426)" fill="#ffec00"/>
    <path id="Trazado_205409" data-name="Trazado 205409" d="M364.526,549.768l4.74,8.522c.209-.093.421-.183.627-.281l-4.721-8.489c-.214.085-.429.169-.646.248" transform="translate(-9348.403 2426)" fill="#ffec00"/>
    <path id="Trazado_205410" data-name="Trazado 205410" d="M373,560.528l6.287,9.594c.2-.109.406-.213.606-.325l-6.294-9.6c-.2.112-.4.227-.6.335" transform="translate(-9348.403 2426)" fill="#ffec00"/>
    <path id="Trazado_205411" data-name="Trazado 205411" d="M366.278,549.05c-.2.094-.4.193-.608.28l-.005,0,5.326,8.128c.2-.107.4-.219.6-.33l-5.3-8.087-.016.007" transform="translate(-9348.403 2426)" fill="#ffec00"/>
    <path id="Trazado_205412" data-name="Trazado 205412" d="M374.9,559.425l7.014,9.177c.195-.121.384-.249.577-.374l-7.008-9.168c-.192.125-.388.244-.583.365" transform="translate(-9348.403 2426)" fill="#ffec00"/>
    <path id="Trazado_205413" data-name="Trazado 205413" d="M367.413,548.507c-.2.1-.4.191-.6.287l-.032.015,5.885,7.7c.2-.119.393-.237.587-.36l-5.841-7.642h0" transform="translate(-9348.403 2426)" fill="#ffec00"/>
    <path id="Trazado_205414" data-name="Trazado 205414" d="M376.736,558.2l7.706,8.7.106-.075c.15-.109.3-.212.452-.322l0,0-7.716-8.706c-.183.137-.365.276-.552.41" transform="translate(-9348.403 2426)" fill="#ffec00"/>
    <path id="Trazado_205415" data-name="Trazado 205415" d="M368.011,548.162l-.114.066,6.4,7.223c.189-.132.373-.268.559-.4l-6.354-7.17c-.162.1-.327.191-.492.284" transform="translate(-9348.403 2426)" fill="#ffec00"/>
    <path id="Trazado_205416" data-name="Trazado 205416" d="M378.5,556.845l8.381,8.179h0c.177-.146.352-.295.527-.443l-8.377-8.175c-.175.15-.354.293-.532.439" transform="translate(-9348.403 2426)" fill="#ffec00"/>
    <path id="Trazado_205417" data-name="Trazado 205417" d="M369,547.581l6.862,6.7c.18-.143.361-.285.538-.433l-6.823-6.658c-.193.13-.38.27-.577.4" transform="translate(-9348.403 2426)" fill="#ffec00"/>
    <path id="Trazado_205418" data-name="Trazado 205418" d="M380.19,555.371l9.008,7.6.013.011c.164-.152.325-.306.486-.461l.015-.014-9.025-7.612c-.165.16-.329.321-.5.478" transform="translate(-9348.403 2426)" fill="#ffec00"/>
    <path id="Trazado_205419" data-name="Trazado 205419" d="M370.645,546.425c-.186.143-.375.281-.566.418l7.3,6.155c.171-.154.336-.314.5-.472l-7.235-6.1" transform="translate(-9348.403 2426)" fill="#ffec00"/>
    <path id="Trazado_205420" data-name="Trazado 205420" d="M381.791,553.772l9.628,6.993h0c.016-.016.031-.033.046-.049q.215-.227.426-.457h0l-9.63-6.994c-.155.171-.312.338-.47.506" transform="translate(-9348.403 2426)" fill="#ffec00"/>
    <path id="Trazado_205421" data-name="Trazado 205421" d="M371.133,546.031l7.676,5.575c.161-.165.323-.329.48-.5l-7.6-5.522c-.178.154-.368.3-.552.445" transform="translate(-9348.403 2426)" fill="#ffec00"/>
    <path id="Trazado_205422" data-name="Trazado 205422" d="M383.3,552.058l10.209,6.339c.146-.178.284-.362.428-.542h0l-10.2-6.335c-.142.181-.287.36-.433.538" transform="translate(-9348.403 2426)" fill="#ffec00"/>
    <path id="Trazado_205423" data-name="Trazado 205423" d="M372.167,545.145l8,4.97c.149-.176.292-.357.437-.536l-7.925-4.92q-.255.246-.516.486" transform="translate(-9348.403 2426)" fill="#ffec00"/>
    <path id="Trazado_205424" data-name="Trazado 205424" d="M373.649,543.655c-.159.175-.311.355-.477.524l8.263,4.335c.137-.186.277-.37.41-.559Z" transform="translate(-9348.403 2426)" fill="#ffec00"/>
    <path id="Trazado_205425" data-name="Trazado 205425" d="M384.707,550.23l10.735,5.631h0c.055-.078.111-.155.167-.231.075-.107.154-.211.229-.318l.009-.013L385.1,549.663c-.13.19-.261.38-.395.567" transform="translate(-9348.403 2426)" fill="#ffec00"/>
    <path id="Trazado_205426" data-name="Trazado 205426" d="M386,548.29l11.228,4.889q.182-.3.358-.592L386.358,547.7c-.118.2-.241.394-.362.59" transform="translate(-9348.403 2426)" fill="#ffec00"/>
    <path id="Trazado_205427" data-name="Trazado 205427" d="M374.575,542.577c-.145.182-.289.366-.439.542l0,.005,8.48,3.692c.125-.194.245-.391.365-.588l-8.4-3.657,0,.006" transform="translate(-9348.403 2426)" fill="#ffec00"/>
    <path id="Trazado_205428" data-name="Trazado 205428" d="M387.172,546.25l11.67,4.1,0,0c.089-.17.173-.345.26-.517.017-.032.033-.065.05-.1h0l-11.672-4.1c-.1.206-.2.414-.309.618" transform="translate(-9348.403 2426)" fill="#ffec00"/>
    <path id="Trazado_205429" data-name="Trazado 205429" d="M375.462,541.408c-.135.192-.278.378-.419.566l-.006.008,8.641,3.039c.111-.2.221-.407.328-.612l-8.542-3,0,0" transform="translate(-9348.403 2426)" fill="#ffec00"/>
    <path id="Trazado_205430" data-name="Trazado 205430" d="M376.289,540.155c-.125.206-.265.4-.4.6l8.74,2.378c.1-.21.194-.42.287-.632Z" transform="translate(-9348.403 2426)" fill="#ffec00"/>
    <path id="Trazado_205431" data-name="Trazado 205431" d="M388.2,544.106l12.062,3.281h0c.092-.211.192-.42.282-.633h0l-12.066-3.282c-.089.213-.185.423-.278.634" transform="translate(-9348.403 2426)" fill="#ffec00"/>
    <path id="Trazado_205432" data-name="Trazado 205432" d="M376.846,539.158l-.161.291,8.782,1.717c.082-.216.156-.435.234-.653l-8.667-1.7c-.06.115-.125.227-.188.34" transform="translate(-9348.403 2426)" fill="#ffec00"/>
    <path id="Trazado_205433" data-name="Trazado 205433" d="M389.1,541.875l12.4,2.424h0c.077-.217.152-.435.227-.654l-12.4-2.424q-.11.328-.226.654" transform="translate(-9348.403 2426)" fill="#ffec00"/>
    <path id="Trazado_205434" data-name="Trazado 205434" d="M377.48,537.894c-.025.053-.048.108-.073.161l8.751,1.06c.067-.222.136-.442.2-.666L377.7,537.4c-.073.166-.149.33-.225.494" transform="translate(-9348.403 2426)" fill="#ffec00"/>
    <path id="Trazado_205435" data-name="Trazado 205435" d="M389.837,539.561l12.684,1.537,0-.01c.052-.188.1-.379.147-.568.008-.03.015-.061.024-.091h0l-12.679-1.537c-.058.224-.116.447-.178.669" transform="translate(-9348.403 2426)" fill="#ffec00"/>
    <path id="Trazado_205436" data-name="Trazado 205436" d="M390.411,537.175l6.981.336h0q-1.223-.255-2.6-.493l-.022,0q-.68-.118-1.4-.23c-.268-.042-.549-.082-.824-.123-.228-.034-.449-.069-.682-.1l-.065,0-1.244-.06c-.042.228-.092.453-.138.679" transform="translate(-9348.403 2426)" fill="#ffec00"/>
    <path id="Trazado_205437" data-name="Trazado 205437" d="M378.29,535.905c-.079.225-.157.452-.244.674h0l8.667.417c.051-.225.1-.452.143-.679l-8.567-.412Z" transform="translate(-9348.403 2426)" fill="#ffec00"/>
    <path id="Trazado_205438" data-name="Trazado 205438" d="M335.11,535.215q-1.189.081-2.337.172l-.1.008q-1.07.084-2.106.176l-.1.008h.008l4.755,0c-.041-.121-.092-.238-.13-.36" transform="translate(-9348.403 2426)" fill="#ffec00"/>
    <path id="Trazado_205439" data-name="Trazado 205439" d="M323.272,537.336l-9.16.672-.016,0-.182.048-.346.093c-.193.052-.38.1-.563.158l-.307.09c-.189.057-.371.115-.548.173-.082.027-.166.053-.245.08-.25.084-.489.17-.713.256l-.008,0h0l12.231-.9c-.052-.225-.1-.451-.144-.677" transform="translate(-9348.403 2426)" fill="#ffec00"/>
    <path id="Trazado_205440" data-name="Trazado 205440" d="M335.552,536.439l0-.005-8.6.631c.051.227.107.451.164.675l8.7-.638c-.091-.218-.172-.441-.257-.663" transform="translate(-9348.403 2426)" fill="#ffec00"/>
    <path id="Trazado_205441" data-name="Trazado 205441" d="M336.468,538.55c-.106-.211-.195-.433-.295-.648l-8.663,1.272c.067.221.13.444.2.663l8.757-1.286h0" transform="translate(-9348.403 2426)" fill="#ffec00"/>
    <path id="Trazado_205442" data-name="Trazado 205442" d="M323.858,539.71l-12.59,1.849c.033.114.068.226.1.339s.065.217.1.324h0l12.584-1.848q-.1-.332-.2-.664" transform="translate(-9348.403 2426)" fill="#ffec00"/>
    <path id="Trazado_205443" data-name="Trazado 205443" d="M337.121,539.732q-.123-.22-.244-.442h-.006l-8.668,1.923c.083.217.173.431.26.645l8.76-1.943c-.036-.06-.068-.123-.1-.184" transform="translate(-9348.403 2426)" fill="#ffec00"/>
    <path id="Trazado_205444" data-name="Trazado 205444" d="M324.6,542.013l-12.294,2.728v0c.076.206.159.408.238.613l.012.031,12.29-2.727c-.083-.215-.168-.43-.247-.647" transform="translate(-9348.403 2426)" fill="#ffec00"/>
    <path id="Trazado_205445" data-name="Trazado 205445" d="M325.506,544.232,313.573,547.8c.094.21.183.423.281.631l11.934-3.572c-.1-.208-.188-.421-.282-.631" transform="translate(-9348.403 2426)" fill="#ffec00"/>
    <path id="Trazado_205446" data-name="Trazado 205446" d="M337.652,540.6h0l-8.615,2.579c.1.209.2.418.3.626l8.71-2.607c-.135-.2-.265-.4-.394-.6" transform="translate(-9348.403 2426)" fill="#ffec00"/>
    <path id="Trazado_205447" data-name="Trazado 205447" d="M326.541,546.364l-11.519,4.38c.109.2.221.4.333.606l11.522-4.381c-.112-.2-.227-.4-.336-.6" transform="translate(-9348.403 2426)" fill="#ffec00"/>
    <path id="Trazado_205448" data-name="Trazado 205448" d="M338.927,542.387c-.119-.152-.239-.3-.356-.457-.027-.037-.057-.072-.084-.109l-8.5,3.231c.112.2.224.4.34.6l8.592-3.267Z" transform="translate(-9348.403 2426)" fill="#ffec00"/>
    <path id="Trazado_205449" data-name="Trazado 205449" d="M339.816,543.452c-.147-.163-.3-.32-.441-.488l-8.322,3.876c.125.194.256.385.386.576l8.417-3.92-.04-.044" transform="translate(-9348.403 2426)" fill="#ffec00"/>
    <path id="Trazado_205450" data-name="Trazado 205450" d="M327.717,548.393l-11.068,5.155,0,0c.122.194.249.384.374.576h0l11.057-5.15c-.126-.192-.247-.389-.369-.584" transform="translate(-9348.403 2426)" fill="#ffec00"/>
    <path id="Trazado_205451" data-name="Trazado 205451" d="M340.824,544.523c-.169-.167-.333-.336-.5-.508l-8.1,4.514c.138.185.272.373.413.555l8.184-4.561" transform="translate(-9348.403 2426)" fill="#ffec00"/>
    <path id="Trazado_205452" data-name="Trazado 205452" d="M329.011,550.321,318.456,556.2c.135.186.267.375.4.559l10.56-5.885q-.207-.276-.41-.556" transform="translate(-9348.403 2426)" fill="#ffec00"/>
    <path id="Trazado_205453" data-name="Trazado 205453" d="M330.416,552.141l-10.01,6.571c.147.177.3.35.449.524h0l10.007-6.569c-.15-.174-.3-.349-.447-.526" transform="translate(-9348.403 2426)" fill="#ffec00"/>
    <path id="Trazado_205454" data-name="Trazado 205454" d="M341.4,545.066l-.086-.08-7.827,5.138c.15.176.306.346.46.519l7.88-5.173c-.147-.13-.285-.269-.427-.4" transform="translate(-9348.403 2426)" fill="#ffec00"/>
    <path id="Trazado_205455" data-name="Trazado 205455" d="M331.927,553.844,322.5,561.06l.007.008c.154.161.307.322.463.481l.008.008,9.424-7.214c-.162-.164-.319-.332-.477-.5" transform="translate(-9348.403 2426)" fill="#ffec00"/>
    <path id="Trazado_205456" data-name="Trazado 205456" d="M342.872,546.319l-.008-.007c-.181-.141-.358-.285-.534-.431l-7.485,5.73c.161.165.32.331.484.493l7.549-5.78-.006-.005" transform="translate(-9348.403 2426)" fill="#ffec00"/>
    <path id="Trazado_205457" data-name="Trazado 205457" d="M333.527,555.436l-8.8,7.807,0,0c.038.036.077.07.116.106q.2.18.393.359l8.8-7.813c-.172-.153-.346-.3-.514-.461" transform="translate(-9348.403 2426)" fill="#ffec00"/>
    <path id="Trazado_205458" data-name="Trazado 205458" d="M343.366,546.7,336.274,553c.17.155.345.3.519.455l7.155-6.35c-.193-.134-.392-.261-.582-.4" transform="translate(-9348.403 2426)" fill="#ffec00"/>
    <path id="Trazado_205459" data-name="Trazado 205459" d="M335.218,556.9l-8.155,8.371h0l0,0c.177.144.36.28.539.421l.009-.009,8.138-8.353c-.181-.141-.357-.288-.535-.433" transform="translate(-9348.403 2426)" fill="#ffec00"/>
    <path id="Trazado_205460" data-name="Trazado 205460" d="M345.031,547.811c-.2-.12-.4-.243-.589-.37l0,0-6.658,6.834c.179.144.359.287.542.426Z" transform="translate(-9348.403 2426)" fill="#ffec00"/>
    <path id="Trazado_205461" data-name="Trazado 205461" d="M336.98,558.25l-7.465,8.865c.187.132.372.268.561.4h0l7.472-8.874c-.19-.129-.382-.256-.569-.389" transform="translate(-9348.403 2426)" fill="#ffec00"/>
    <path id="Trazado_205462" data-name="Trazado 205462" d="M345.528,548.1l-6.186,7.346c.189.131.381.258.572.385l6.217-7.383c-.205-.11-.4-.232-.6-.348" transform="translate(-9348.403 2426)" fill="#ffec00"/>
    <path id="Trazado_205463" data-name="Trazado 205463" d="M338.818,559.465l-6.767,9.332c.2.121.4.234.593.351l6.759-9.322c-.2-.117-.39-.24-.585-.361" transform="translate(-9348.403 2426)" fill="#ffec00"/>
    <path id="Trazado_205464" data-name="Trazado 205464" d="M346.627,548.7l-5.658,7.8c.2.119.391.239.59.354l5.7-7.858c-.21-.1-.422-.2-.629-.3" transform="translate(-9348.403 2426)" fill="#ffec00"/>
    <path id="Trazado_205465" data-name="Trazado 205465" d="M340.71,560.564l-6.031,9.73c.2.108.4.22.606.325l6.037-9.742c-.2-.1-.41-.205-.612-.313" transform="translate(-9348.403 2426)" fill="#ffec00"/>
    <path id="Trazado_205466" data-name="Trazado 205466" d="M348.369,549.479c-.21-.084-.422-.163-.629-.253h0l-5.1,8.225c.2.107.41.206.615.308l5.128-8.273-.014-.006" transform="translate(-9348.403 2426)" fill="#ffec00"/>
    <path id="Trazado_205467" data-name="Trazado 205467" d="M342.663,561.523l-5.287,10.1c.208.1.42.182.63.274h0l5.283-10.089c-.211-.091-.418-.187-.626-.282" transform="translate(-9348.403 2426)" fill="#ffec00"/>
    <path id="Trazado_205468" data-name="Trazado 205468" d="M348.869,549.671l-4.508,8.609c.209.094.416.191.628.28l4.524-8.642c-.218-.074-.428-.166-.644-.247" transform="translate(-9348.403 2426)" fill="#ffec00"/>
    <path id="Trazado_205469" data-name="Trazado 205469" d="M344.658,562.361l-4.518,10.4h0c.214.08.425.167.641.245L345.3,562.6c-.216-.077-.431-.154-.645-.235" transform="translate(-9348.403 2426)" fill="#ffec00"/>
    <path id="Trazado_205470" data-name="Trazado 205470" d="M350.663,550.258l-.057-.017c-.2-.057-.4-.114-.606-.177l-3.884,8.942c.214.08.431.153.647.228Z" transform="translate(-9348.403 2426)" fill="#ffec00"/>
    <path id="Trazado_205471" data-name="Trazado 205471" d="M351.789,550.546c-.217-.049-.435-.093-.65-.148h0l-3.23,9.211c.219.067.437.134.658.2l3.245-9.253-.02-.005" transform="translate(-9348.403 2426)" fill="#ffec00"/>
    <path id="Trazado_205472" data-name="Trazado 205472" d="M346.7,563.061l-3.741,10.665h0c.132.04.265.077.4.115.088.024.175.05.262.075l0-.005,3.736-10.654q-.33-.094-.657-.2" transform="translate(-9348.403 2426)" fill="#ffec00"/>
    <path id="Trazado_205473" data-name="Trazado 205473" d="M348.763,563.631,345.816,574.5h0c.222.053.442.112.666.162l2.949-10.875c-.224-.049-.446-.1-.668-.156" transform="translate(-9348.403 2426)" fill="#ffec00"/>
    <path id="Trazado_205474" data-name="Trazado 205474" d="M352.284,550.649,349.72,560.1q.334.08.67.151l2.566-9.464c-.226-.039-.448-.094-.672-.14" transform="translate(-9348.403 2426)" fill="#ffec00"/>
    <path id="Trazado_205475" data-name="Trazado 205475" d="M353.43,550.859l-1.875,9.623c.225.039.452.073.678.107l1.878-9.646c-.228-.027-.457-.05-.681-.084" transform="translate(-9348.403 2426)" fill="#ffec00"/>
    <path id="Trazado_205476" data-name="Trazado 205476" d="M350.857,564.071,348.709,575.1c.225.039.453.069.678.1h0l2.148-11.027c-.226-.035-.453-.068-.678-.108" transform="translate(-9348.403 2426)" fill="#ffec00"/>
    <path id="Trazado_205477" data-name="Trazado 205477" d="M352.97,564.371l-1.34,11.135c.227.025.453.053.681.075h0l1.34-11.132c-.228-.021-.454-.051-.681-.077" transform="translate(-9348.403 2426)" fill="#ffec00"/>
    <path id="Trazado_205478" data-name="Trazado 205478" d="M355.257,551.058c-.224-.015-.446-.034-.668-.056h-.01l-1.172,9.741c.227.025.453.055.681.075l1.175-9.759h-.006" transform="translate(-9348.403 2426)" fill="#ffec00"/>
    <path id="Trazado_205479" data-name="Trazado 205479" d="M355.731,551.078l-.465,9.819c.228.011.457.016.686.023l.464-9.814c-.23,0-.457-.017-.685-.028" transform="translate(-9348.403 2426)" fill="#ffec00"/>
    <path id="Trazado_205480" data-name="Trazado 205480" d="M355.093,564.549l-.53,11.2h.008c.225.011.452.015.678.022v-.005l.529-11.189c-.228-.007-.458-.012-.685-.023" transform="translate(-9348.403 2426)" fill="#ffec00"/>
    <path id="Trazado_205481" data-name="Trazado 205481" d="M356.852,564.595l.141,11.2h0c.23,0,.457-.011.686-.015h0l-.142-11.2c-.228.005-.455.016-.685.016" transform="translate(-9348.403 2426)" fill="#ffec00"/>
    <path id="Trazado_205482" data-name="Trazado 205482" d="M356.824,551.123l-.142-.006.124,9.822h.018c.224,0,.445-.01.667-.015l-.123-9.824c-.183,0-.361.022-.544.022" transform="translate(-9348.403 2426)" fill="#ffec00"/>
    <path id="Trazado_205483" data-name="Trazado 205483" d="M323.416,538.012c.132.572.282,1.137.442,1.7q.1.333.2.664c.171.552.351,1.1.548,1.639.079.217.164.432.247.647q.309.8.656,1.572c.094.21.184.423.283.631.238.507.49,1.007.752,1.5.109.2.224.4.337.606.269.481.548.957.84,1.424.122.2.243.391.369.584q.445.684.924,1.344.2.281.41.556.484.644,1,1.263c.146.178.3.352.446.527q.519.6,1.065,1.177c.157.167.315.335.476.5q.549.558,1.123,1.092c.168.157.342.308.514.461q.578.515,1.178,1c.178.145.354.292.535.433.4.314.81.621,1.226.917.187.133.379.26.569.389q.624.428,1.269.826c.2.121.388.244.585.361q.645.383,1.308.737c.2.109.407.21.612.314q.662.337,1.34.646c.209.095.416.191.626.282q.678.293,1.37.556c.213.081.429.158.645.235q.689.246,1.392.465.327.1.657.2.7.2,1.411.373c.222.054.444.107.668.156.471.1.946.2,1.425.284.225.04.452.073.678.108q.713.111,1.435.192c.227.025.453.056.681.077.478.044.959.076,1.443.1.227.012.456.016.685.023.348.011.7.024,1.046.024h.028c.229,0,.456-.01.685-.015.359-.007.718-.016,1.074-.034.228-.012.456-.03.683-.047q.725-.051,1.44-.133c.227-.026.456-.047.682-.078.481-.064.958-.14,1.433-.225.225-.04.448-.087.672-.132q.717-.142,1.422-.314c.222-.054.444-.109.665-.167q.708-.189,1.4-.406c.219-.069.437-.138.654-.21q.7-.234,1.384-.5c.214-.082.426-.169.638-.255q.687-.279,1.359-.587c.209-.1.418-.189.624-.289q.674-.324,1.33-.678c.2-.108.4-.223.6-.335q.657-.371,1.3-.768c.2-.121.392-.24.584-.365q.638-.415,1.255-.859c.187-.133.369-.273.552-.41q.617-.459,1.211-.946c.178-.146.357-.289.532-.438q.592-.505,1.16-1.036c.167-.157.332-.318.5-.478q.564-.547,1.1-1.121c.157-.168.315-.335.469-.506.356-.394.7-.8,1.04-1.208.146-.178.29-.358.433-.538.334-.423.659-.852.973-1.291.134-.187.265-.376.395-.566q.464-.675.894-1.374c.122-.2.245-.391.362-.59.282-.476.555-.959.814-1.45.107-.2.206-.412.309-.618q.378-.753.72-1.525c.093-.212.189-.421.278-.635.22-.525.423-1.059.617-1.6q.117-.326.226-.654c.185-.548.358-1.1.515-1.659.063-.222.12-.446.178-.669.147-.567.278-1.14.4-1.718.046-.226.1-.451.137-.679.007-.038.017-.074.023-.112l-.013,0q-.843-.111-1.723-.217l-.054-.006q-.873-.105-1.783-.2l-.062-.007h0c-.023.124-.053.246-.078.369-.045.227-.092.454-.143.679-.109.489-.228.973-.36,1.452-.062.224-.131.445-.2.667q-.213.707-.458,1.4c-.078.218-.152.437-.234.653-.172.451-.356.9-.548,1.338-.093.212-.19.422-.287.632q-.3.645-.626,1.274-.161.308-.328.612-.336.612-.7,1.207c-.12.2-.24.394-.365.588q-.371.578-.766,1.138c-.134.189-.273.373-.411.559q-.4.543-.827,1.066c-.145.179-.288.36-.437.536-.286.337-.581.668-.881.993-.157.169-.32.332-.481.5q-.454.469-.929.919c-.167.159-.333.318-.5.473q-.477.432-.972.845c-.177.148-.358.29-.538.433-.332.264-.668.521-1.011.771-.185.135-.37.272-.558.4q-.515.359-1.043.7c-.194.124-.391.241-.587.361q-.529.321-1.074.621c-.2.111-.4.224-.6.33-.362.19-.727.374-1.1.55-.207.1-.418.187-.627.281q-.555.248-1.12.473c-.212.085-.423.173-.638.253-.376.141-.756.272-1.138.4-.218.072-.437.137-.657.2q-.57.174-1.151.326-.331.087-.666.167c-.385.092-.773.174-1.164.251-.224.044-.448.087-.673.126-.389.067-.778.13-1.171.182-.226.03-.455.052-.682.077q-.585.065-1.177.107c-.227.016-.454.035-.683.046-.284.014-.569.019-.855.025-.222.005-.443.015-.667.015h-.018c-.287,0-.571-.011-.855-.019-.229-.007-.458-.012-.686-.023-.394-.02-.787-.045-1.178-.08-.228-.02-.454-.05-.681-.075-.393-.044-.785-.094-1.173-.153-.227-.034-.453-.068-.678-.107q-.586-.1-1.166-.229-.336-.072-.669-.151c-.389-.093-.775-.191-1.157-.3-.221-.062-.439-.129-.657-.2-.385-.117-.765-.242-1.143-.374-.216-.075-.434-.148-.648-.228q-.568-.213-1.127-.447c-.211-.089-.418-.186-.627-.279q-.559-.251-1.106-.522c-.206-.1-.413-.2-.616-.308q-.548-.288-1.081-.6c-.2-.115-.394-.235-.59-.354q-.534-.326-1.054-.67c-.192-.127-.384-.254-.572-.385q-.519-.363-1.022-.746c-.183-.139-.362-.283-.542-.426q-.5-.4-.986-.819c-.174-.151-.349-.3-.519-.456q-.483-.437-.945-.893c-.164-.162-.323-.329-.484-.494q-.459-.474-.9-.968c-.153-.172-.309-.342-.459-.518q-.435-.512-.847-1.04c-.142-.182-.276-.37-.413-.555q-.406-.547-.789-1.113c-.13-.191-.26-.382-.386-.577q-.375-.582-.723-1.183c-.116-.2-.228-.4-.34-.6q-.34-.618-.654-1.251c-.1-.207-.2-.416-.3-.626q-.3-.651-.573-1.317c-.088-.214-.177-.427-.26-.644q-.261-.681-.492-1.377c-.072-.219-.135-.442-.2-.663q-.215-.711-.4-1.434c-.056-.224-.112-.448-.164-.675-.084-.37-.164-.741-.235-1.116v0l-.356.041c-.407.045-.81.091-1.206.137l-.57.069q-.59.071-1.16.146l-.343.043h0c.058.32.127.635.193.951.047.226.092.453.144.677" transform="translate(-9348.403 2426)" fill="#e5007e"/>
    <path id="Trazado_205484" data-name="Trazado 205484" d="M322.952,635.939h-2.147l-7.485,7.485v2.147l9.355-9.355Z" transform="translate(-9348.403 2426)" fill="#ffec00"/>
    <path id="Trazado_205485" data-name="Trazado 205485" d="M318.659,635.939l-5.339,5.339v2.146l7.486-7.485Z" transform="translate(-9348.403 2426)" fill="#e20613"/>
    <path id="Trazado_205486" data-name="Trazado 205486" d="M316.512,635.939l-3.193,3.193v2.146l5.34-5.339Z" transform="translate(-9348.403 2426)" fill="#312782"/>
    <path id="Trazado_205487" data-name="Trazado 205487" d="M314.682,635.939a3.323,3.323,0,0,1-1.158-.218,1.083,1.083,0,0,1-.2.049v3.362l3.192-3.193Z" transform="translate(-9348.403 2426)" fill="#ffec00"/>
    <path id="Trazado_205488" data-name="Trazado 205488" d="M313.32,635.644v.125a1.091,1.091,0,0,0,.2-.048c-.069-.026-.139-.047-.2-.077" transform="translate(-9348.403 2426)" fill="#e20613"/>
    <path id="Trazado_205489" data-name="Trazado 205489" d="M335.05,643.47l-7.531-7.531h-2.147l9.678,9.678,9.4-9.4.276-.276h-2.146Z" transform="translate(-9348.403 2426)" fill="#ffec00"/>
    <path id="Trazado_205490" data-name="Trazado 205490" d="M342.581,635.939h-2.147l-5.384,5.385-5.385-5.385h-2.147l7.532,7.531Z" transform="translate(-9348.403 2426)" fill="#e20613"/>
    <path id="Trazado_205491" data-name="Trazado 205491" d="M340.435,635.939h-2.147l-3.238,3.238-3.238-3.238h-2.146l5.384,5.385Z" transform="translate(-9348.403 2426)" fill="#312782"/>
    <path id="Trazado_205492" data-name="Trazado 205492" d="M338.288,635.939h-6.476l3.238,3.238Z" transform="translate(-9348.403 2426)" fill="#ffec00"/>
    <path id="Trazado_205493" data-name="Trazado 205493" d="M356.825,643.47l-7.531-7.531h-2.147l9.678,9.678,9.4-9.4.277-.276h-2.147Z" transform="translate(-9348.403 2426)" fill="#ffec00"/>
    <path id="Trazado_205494" data-name="Trazado 205494" d="M364.356,635.939h-2.147l-5.384,5.385-5.385-5.385h-2.147l7.532,7.531Z" transform="translate(-9348.403 2426)" fill="#e20613"/>
    <path id="Trazado_205495" data-name="Trazado 205495" d="M362.21,635.939h-2.147l-3.238,3.238-3.238-3.238H351.44l5.384,5.385Z" transform="translate(-9348.403 2426)" fill="#312782"/>
    <path id="Trazado_205496" data-name="Trazado 205496" d="M360.063,635.939h-6.476l3.238,3.238Z" transform="translate(-9348.403 2426)" fill="#ffec00"/>
    <path id="Trazado_205497" data-name="Trazado 205497" d="M378.6,643.47l-7.531-7.531h-2.147l9.678,9.678,9.4-9.4.277-.276h-2.146Z" transform="translate(-9348.403 2426)" fill="#ffec00"/>
    <path id="Trazado_205498" data-name="Trazado 205498" d="M386.132,635.939h-2.147l-5.384,5.385-5.385-5.385h-2.147l7.532,7.531Z" transform="translate(-9348.403 2426)" fill="#e20613"/>
    <path id="Trazado_205499" data-name="Trazado 205499" d="M383.985,635.939h-2.147l-3.238,3.238-3.238-3.238h-2.146l5.384,5.385Z" transform="translate(-9348.403 2426)" fill="#312782"/>
    <path id="Trazado_205500" data-name="Trazado 205500" d="M381.838,635.939h-6.476l3.238,3.238Z" transform="translate(-9348.403 2426)" fill="#ffec00"/>
    <path id="Trazado_205501" data-name="Trazado 205501" d="M390.7,635.939l9.632,9.632v-2.146l-7.485-7.486Z" transform="translate(-9348.403 2426)" fill="#ffec00"/>
    <path id="Trazado_205502" data-name="Trazado 205502" d="M392.844,635.939l7.486,7.486v-2.147l-5.339-5.339Z" transform="translate(-9348.403 2426)" fill="#e20613"/>
    <path id="Trazado_205503" data-name="Trazado 205503" d="M394.991,635.939l5.339,5.339v-2.146l-3.193-3.193Z" transform="translate(-9348.403 2426)" fill="#312782"/>
    <path id="Trazado_205504" data-name="Trazado 205504" d="M398.616,635.939h-1.48l3.193,3.193V635.77a1.12,1.12,0,0,1-.4-.1,3.351,3.351,0,0,1-1.308.265" transform="translate(-9348.403 2426)" fill="#ffec00"/>
    <path id="Trazado_205505" data-name="Trazado 205505" d="M400.329,635.77v-.315a3.346,3.346,0,0,1-.4.219,1.11,1.11,0,0,0,.4.1" transform="translate(-9348.403 2426)" fill="#e20613"/>
    <path id="Trazado_205506" data-name="Trazado 205506" d="M322.081,707.3l-8.761-8.761v2.147l6.614,6.614Z" transform="translate(-9348.403 2426)" fill="#e20613"/>
    <path id="Trazado_205507" data-name="Trazado 205507" d="M319.935,707.3l-6.615-6.614v2.146l4.468,4.468h2.147Z" transform="translate(-9348.403 2426)" fill="#312782"/>
    <path id="Trazado_205508" data-name="Trazado 205508" d="M313.32,706.193a1.11,1.11,0,0,1,1.07,1.106h3.4l-4.468-4.468Z" transform="translate(-9348.403 2426)" fill="#ffec00"/>
    <path id="Trazado_205509" data-name="Trazado 205509" d="M313.32,706.193V707.3h1.07a1.11,1.11,0,0,0-1.07-1.106" transform="translate(-9348.403 2426)" fill="#e20613"/>
    <path id="Trazado_205510" data-name="Trazado 205510" d="M335.05,700.639l6.66,6.66h2.147l-8.807-8.807-8.807,8.807h2.147Z" transform="translate(-9348.403 2426)" fill="#e20613"/>
    <path id="Trazado_205511" data-name="Trazado 205511" d="M328.39,707.3h2.147l4.513-4.513,4.514,4.513h2.146l-6.66-6.66Z" transform="translate(-9348.403 2426)" fill="#312782"/>
    <path id="Trazado_205512" data-name="Trazado 205512" d="M330.536,707.3h3.4a1.116,1.116,0,0,1,2.231,0h3.4l-4.513-4.513Z" transform="translate(-9348.403 2426)" fill="#ffec00"/>
    <path id="Trazado_205513" data-name="Trazado 205513" d="M335.05,706.184a1.116,1.116,0,0,0-1.116,1.115h2.231a1.115,1.115,0,0,0-1.115-1.115" transform="translate(-9348.403 2426)" fill="#e20613"/>
    <path id="Trazado_205514" data-name="Trazado 205514" d="M348.018,707.3h2.147l6.66-6.66,6.66,6.66h2.147l-8.807-8.806Z" transform="translate(-9348.403 2426)" fill="#e20613"/>
    <path id="Trazado_205515" data-name="Trazado 205515" d="M350.165,707.3h2.147l4.513-4.513,4.514,4.513h2.146l-6.66-6.66Z" transform="translate(-9348.403 2426)" fill="#312782"/>
    <path id="Trazado_205516" data-name="Trazado 205516" d="M352.311,707.3h3.4a1.115,1.115,0,0,1,2.231,0h3.4l-4.513-4.513Z" transform="translate(-9348.403 2426)" fill="#ffec00"/>
    <path id="Trazado_205517" data-name="Trazado 205517" d="M356.825,706.184a1.116,1.116,0,0,0-1.116,1.115h2.232a1.116,1.116,0,0,0-1.116-1.115" transform="translate(-9348.403 2426)" fill="#e20613"/>
    <path id="Trazado_205518" data-name="Trazado 205518" d="M378.6,700.639l6.66,6.66h2.147l-8.807-8.807-8.807,8.807h2.147Z" transform="translate(-9348.403 2426)" fill="#e20613"/>
    <path id="Trazado_205519" data-name="Trazado 205519" d="M371.94,707.3h2.147l4.513-4.513,4.514,4.513h2.146l-6.66-6.66Z" transform="translate(-9348.403 2426)" fill="#312782"/>
    <path id="Trazado_205520" data-name="Trazado 205520" d="M374.087,707.3h3.4a1.115,1.115,0,0,1,2.23,0h3.4l-4.513-4.513Z" transform="translate(-9348.403 2426)" fill="#ffec00"/>
    <path id="Trazado_205521" data-name="Trazado 205521" d="M378.6,706.184a1.115,1.115,0,0,0-1.116,1.115h2.231a1.115,1.115,0,0,0-1.115-1.115" transform="translate(-9348.403 2426)" fill="#e20613"/>
    <path id="Trazado_205522" data-name="Trazado 205522" d="M389.487,707.234,388,705.747l-9.4-9.4-9.9,9.9-.991.991-1.487-1.487-9.4-9.4-9.9,9.9-.991.991-1.487-1.487-9.4-9.4-9.9,9.9-.992.991-1.486-1.487-9.356-9.355v2.146l8.761,8.761h4.162l8.807-8.806,8.807,8.806h4.161l8.807-8.806,8.807,8.806h4.162l8.807-8.806,8.806,8.806h4.161l8.762-8.761v-2.146l-9.851,9.851Z" transform="translate(-9348.403 2426)" fill="#ffec00"/>
    <path id="Trazado_205523" data-name="Trazado 205523" d="M393.716,707.3l6.614-6.615v-2.146l-8.762,8.761Z" transform="translate(-9348.403 2426)" fill="#e20613"/>
    <path id="Trazado_205524" data-name="Trazado 205524" d="M394.509,707.3h1.352l4.468-4.468v-2.147l-6.613,6.615Z" transform="translate(-9348.403 2426)" fill="#312782"/>
    <path id="Trazado_205525" data-name="Trazado 205525" d="M399.26,707.3a1.11,1.11,0,0,1,1.069-1.106v-3.362l-4.468,4.468Z" transform="translate(-9348.403 2426)" fill="#ffec00"/>
    <path id="Trazado_205526" data-name="Trazado 205526" d="M399.26,707.3h1.069v-1.106a1.11,1.11,0,0,0-1.069,1.106" transform="translate(-9348.403 2426)" fill="#e20613"/>
    <path id="Trazado_205527" data-name="Trazado 205527" d="M313.32,662.22v2.147l6.615,6.614L313.32,677.6v2.146l8.761-8.761Z" transform="translate(-9348.403 2426)" fill="#e20613"/>
    <path id="Trazado_205528" data-name="Trazado 205528" d="M313.32,664.367v2.147l4.468,4.467-4.468,4.468V677.6l6.615-6.615Z" transform="translate(-9348.403 2426)" fill="#312782"/>
    <path id="Trazado_205529" data-name="Trazado 205529" d="M313.32,666.513v3.361a1.107,1.107,0,0,1,0,2.213v3.362l4.468-4.468Z" transform="translate(-9348.403 2426)" fill="#ffec00"/>
    <path id="Trazado_205530" data-name="Trazado 205530" d="M314.39,670.981a1.11,1.11,0,0,0-1.07-1.106v2.212a1.11,1.11,0,0,0,1.07-1.106" transform="translate(-9348.403 2426)" fill="#e20613"/>
    <path id="Trazado_205531" data-name="Trazado 205531" d="M326.243,670.981l8.807,8.807,8.807-8.807-8.807-8.807Zm8.807,6.66-6.66-6.66,6.66-6.66,6.66,6.66Z" transform="translate(-9348.403 2426)" fill="#e20613"/>
    <path id="Trazado_205532" data-name="Trazado 205532" d="M328.39,670.981l6.66,6.661,6.66-6.661-6.66-6.659Zm6.66,4.514-4.514-4.514,4.514-4.513,4.514,4.513Z" transform="translate(-9348.403 2426)" fill="#312782"/>
    <path id="Trazado_205533" data-name="Trazado 205533" d="M330.536,670.981l4.514,4.514,4.513-4.514-4.513-4.513Zm5.629,0a1.116,1.116,0,1,1-1.115-1.115,1.116,1.116,0,0,1,1.115,1.115" transform="translate(-9348.403 2426)" fill="#ffec00"/>
    <path id="Trazado_205534" data-name="Trazado 205534" d="M333.934,670.981a1.116,1.116,0,1,0,1.116-1.115,1.116,1.116,0,0,0-1.116,1.115" transform="translate(-9348.403 2426)" fill="#e20613"/>
    <path id="Trazado_205535" data-name="Trazado 205535" d="M348.018,670.981l8.807,8.807,8.807-8.807-8.807-8.807Zm8.807,6.66-6.66-6.66,6.66-6.66,6.66,6.66Z" transform="translate(-9348.403 2426)" fill="#e20613"/>
    <path id="Trazado_205536" data-name="Trazado 205536" d="M350.165,670.981l6.66,6.661,6.66-6.661-6.66-6.659Zm6.66,4.514-4.514-4.514,4.514-4.513,4.514,4.513Z" transform="translate(-9348.403 2426)" fill="#312782"/>
    <path id="Trazado_205537" data-name="Trazado 205537" d="M352.311,670.981l4.513,4.514,4.514-4.514-4.514-4.513Zm5.629,0a1.115,1.115,0,1,1-1.116-1.115,1.116,1.116,0,0,1,1.116,1.115" transform="translate(-9348.403 2426)" fill="#ffec00"/>
    <path id="Trazado_205538" data-name="Trazado 205538" d="M355.709,670.981a1.115,1.115,0,1,0,1.116-1.115,1.116,1.116,0,0,0-1.116,1.115" transform="translate(-9348.403 2426)" fill="#e20613"/>
    <path id="Trazado_205539" data-name="Trazado 205539" d="M369.793,670.981l8.807,8.807,8.807-8.807-8.807-8.807Zm8.807,6.66-6.66-6.66,6.66-6.66,6.66,6.66Z" transform="translate(-9348.403 2426)" fill="#e20613"/>
    <path id="Trazado_205540" data-name="Trazado 205540" d="M371.94,670.981l6.66,6.661,6.66-6.661-6.66-6.659Zm6.66,4.514-4.514-4.514,4.514-4.513,4.514,4.513Z" transform="translate(-9348.403 2426)" fill="#312782"/>
    <path id="Trazado_205541" data-name="Trazado 205541" d="M374.087,670.981l4.513,4.514,4.514-4.514-4.514-4.513Zm5.628,0a1.115,1.115,0,1,1-1.115-1.115,1.116,1.116,0,0,1,1.115,1.115" transform="translate(-9348.403 2426)" fill="#ffec00"/>
    <path id="Trazado_205542" data-name="Trazado 205542" d="M377.485,670.981a1.115,1.115,0,1,0,1.116-1.115,1.116,1.116,0,0,0-1.116,1.115" transform="translate(-9348.403 2426)" fill="#e20613"/>
    <path id="Trazado_205543" data-name="Trazado 205543" d="M389.487,670.916,388,669.429l-9.4-9.4-9.9,9.9-.991.991-1.486-1.487-9.4-9.4-9.9,9.9-.991.991-1.487-1.487-9.4-9.4-9.9,9.9-.991.991-1.487-1.487-9.355-9.355v2.146l8.761,8.761-8.761,8.761v2.147l9.355-9.356h0l1.487-1.487.991.991,9.9,9.9,9.4-9.4h0l1.487-1.487.991.991,9.9,9.9,9.4-9.4h0l1.486-1.487.991.991,9.9,9.9,9.4-9.4h0l1.487-1.487.991.991,9.851,9.851v-2.147l-8.761-8.761,8.761-8.761v-2.146l-9.851,9.851Zm-54.437,8.872-8.807-8.807,8.807-8.806,8.806,8.806Zm21.775,0-8.807-8.807,8.807-8.806,8.806,8.806Zm21.775,0-8.807-8.807,8.807-8.806,8.807,8.806Z" transform="translate(-9348.403 2426)" fill="#ffec00"/>
    <path id="Trazado_205544" data-name="Trazado 205544" d="M400.329,679.742V677.6l-6.614-6.614,6.614-6.614v-2.148l-8.761,8.762Z" transform="translate(-9348.403 2426)" fill="#e20613"/>
    <path id="Trazado_205545" data-name="Trazado 205545" d="M400.329,677.6v-2.147l-4.468-4.468,4.468-4.468v-2.146l-6.614,6.614Z" transform="translate(-9348.403 2426)" fill="#312782"/>
    <path id="Trazado_205546" data-name="Trazado 205546" d="M400.329,675.449v-3.362a1.107,1.107,0,0,1,0-2.212v-3.362l-4.468,4.468Z" transform="translate(-9348.403 2426)" fill="#ffec00"/>
    <path id="Trazado_205547" data-name="Trazado 205547" d="M399.26,670.981a1.11,1.11,0,0,0,1.069,1.106v-2.212a1.11,1.11,0,0,0-1.069,1.106" transform="translate(-9348.403 2426)" fill="#e20613"/>
    <path id="Trazado_205548" data-name="Trazado 205548" d="M398.616,629.228H314.682a3.375,3.375,0,0,0-3.355,3.355,3.4,3.4,0,0,0,.069.681,3.36,3.36,0,0,0,1.923,2.38c.067.03.136.051.2.077a3.345,3.345,0,0,0,1.158.217h8.27l-.277.277-9.356,9.356v14.5l9.356,9.355,1.487,1.487.991-.991,9.9-9.9,9.4,9.4,1.487,1.487.991-.991,9.9-9.9,9.4,9.4,1.487,1.487.991-.991,9.9-9.9,9.4,9.4,1.487,1.487.991-.991,9.851-9.851v-14.5l-9.633-9.633h7.92a3.348,3.348,0,0,0,1.963-6.065c-.018-.013-.033-.03-.051-.043a3.34,3.34,0,0,0-1.912-.6m-54.166,6.987-9.4,9.4-9.678-9.678h19.356Zm21.775,0-9.4,9.4-9.678-9.678H366.5Zm21.775,0-9.4,9.4-9.678-9.678h19.355Z" transform="translate(-9348.403 2426)" fill="#4856a0"/>
    <path id="Trazado_205549" data-name="Trazado 205549" d="M357.627,491.741a11.89,11.89,0,0,0,7.491,10.576,10.065,10.065,0,0,1-.658-2.718,12.28,12.28,0,0,0,6.685,2.309,23.043,23.043,0,0,0,8.736-1.06,15.856,15.856,0,0,1-7.535-8.813c-2.233-6.39-9.42-12.265-15.521-6.683,0,0-7.13-7.712-11.83,1.836s-10.5,8.519-10.5,8.519,1.175,1.763,4.848,1.836c0,0-3.526,1.322-5.95,2.424a31.624,31.624,0,0,0,9.093,1.944c6.248.421,13.671-1.122,15.144-10.17" transform="translate(-9348.403 2426)" fill="#29120b"/>
  </g>
</svg>
