<svg xmlns="http://www.w3.org/2000/svg" xmlns:xlink="http://www.w3.org/1999/xlink" width="295" height="259.26" viewBox="0 0 295 259.26">
  <defs>
    <clipPath id="clip-path">
      <rect id="Rectángulo_44140" data-name="Rectángulo 44140" width="141.649" height="259.259" fill="none"/>
    </clipPath>
  </defs>
  <g id="Grupo_145691" data-name="Grupo 145691" transform="translate(-180 -1950)">
    <path id="Unión_8" data-name="Unión 8" d="M0,295V107.684H.034A111.079,111.079,0,0,1,2.244,88.15,109.809,109.809,0,0,1,18.855,48.674a110.715,110.715,0,0,1,48.572-40A109.816,109.816,0,0,1,88.151,2.243,111.185,111.185,0,0,1,110.4,0h23.2a111.185,111.185,0,0,1,22.249,2.243,109.81,109.81,0,0,1,39.476,16.611,110.73,110.73,0,0,1,40,48.572,109.879,109.879,0,0,1,6.432,20.723,111.012,111.012,0,0,1,2.21,19.535H244v2.275c0,.146,0,.292,0,.438h0V295Z" transform="translate(475 1962.479) rotate(90)" fill="#c0c3b0" style="mix-blend-mode: multiply;isolation: isolate"/>
    <g id="Grupo_145664" data-name="Grupo 145664" transform="translate(196.225 1988.646)">
      <g id="Grupo_145543" data-name="Grupo 145543" transform="translate(0)">
        <path id="Trazado_197614" data-name="Trazado 197614" d="M217.242,126.731c-9.771,6.7-16.647,17.591-15.758,29.754.87,11.894,7.424,22.684,15.329,31.565,5.9-6.005,11.309-13.071,17.208-19.075l-9.1,27.648a115.2,115.2,0,0,0,43.115,42.4c8.129-2.048,16.632-4.928,23.612-9.6L280.131,244.7c-1.184,1.608,30.571,18.621,32.776,19.736,8.534,4.316,16.718,9.891,25.876,12.769,31.741,9.973,27.176-24.819,18.569-43.62a219.447,219.447,0,0,0-33.169-51.755,61.1,61.1,0,0,1-2.05,20.739c-1.756-12.766-6.653-22.656-9.1-35.308a326.993,326.993,0,0,1-31.19-28.083,182.159,182.159,0,0,1-25.9,9.043,80.109,80.109,0,0,1,20.776-12.982c-9.166-8.816-23.732-14.744-36.349-15.417a38.011,38.011,0,0,0-23.125,6.907" transform="translate(-201.407 -119.806)" fill="#eaad9b"/>
        <path id="Trazado_197615" data-name="Trazado 197615" d="M188.368,144.855s106.866,74.8,152.816,159.863" transform="translate(-167.408 -122.752)" fill="#eaad9b" stroke="#211d1d" stroke-linecap="round" stroke-linejoin="round" stroke-width="0.665"/>
        <line id="Línea_1906" data-name="Línea 1906" x2="6.215" y2="56.349" transform="translate(98.02 36.259)" fill="none" stroke="#211d1d" stroke-linecap="round" stroke-linejoin="round" stroke-width="0.665"/>
        <path id="Trazado_197616" data-name="Trazado 197616" d="M276.7,213.661l65.375-4.966-6.323-55.084" transform="translate(-246.239 -123.782)" fill="#eaad9b" stroke="#211d1d" stroke-linecap="round" stroke-linejoin="round" stroke-width="0.665"/>
      </g>
    </g>
    <g id="Grupo_145665" data-name="Grupo 145665" transform="translate(276 1950)">
      <g id="Grupo_145341" data-name="Grupo 145341" clip-path="url(#clip-path)">
        <path id="Trazado_197192" data-name="Trazado 197192" d="M21.873,54.412c3.341-3.415,8.721-6.177,15.3-7.861,0-.041,0-.08,0-.12a.3.3,0,0,1,.3-.3.3.3,0,0,1,.289.271c.6-.146,1.2-.284,1.816-.411,0-.1-.005-.194-.005-.293a.3.3,0,0,1,.6,0c0,.061,0,.118,0,.178.352-.069.7-.141,1.059-.2,0-.269-.013-.531-.013-.8a.3.3,0,1,1,.6,0c0,.232.01.457.011.688.488-.08.995-.136,1.491-.2,0-.2-.009-.4-.009-.606a.3.3,0,0,1,.3-.3V35.618a17.468,17.468,0,0,1-1.982-3.037c4.885-3.4-4.326-13.686.838-15.847,5.519-2.312.642-7.447,4.806-8.6a6.652,6.652,0,0,0,4.477-4.982h.018c6.955,0,12.6,4.174,12.7,18.011a2.929,2.929,0,0,1,2.786-.784c1.786.618,2.376,3.6,1.315,6.66s-3.37,5.037-5.155,4.419a2.121,2.121,0,0,1-.753-.49,17.965,17.965,0,0,1-3.129,5.095v9.157l.174.024c0-.165.007-.327.007-.492a.3.3,0,0,1,.6,0c0,.194-.008.38-.009.572.475.064.958.119,1.425.193,0-.217.011-.426.011-.643a.3.3,0,0,1,.6,0c0,.252-.011.493-.013.743.359.061.706.137,1.059.2,0-.04,0-.078,0-.119a.3.3,0,0,1,.6,0c0,.079,0,.155,0,.233.624.125,1.241.255,1.847.4a.285.285,0,0,1,.259-.2.3.3,0,0,1,.3.3c0,.014,0,.027,0,.041C77.05,49.129,84.634,54.617,85.609,61.1l.045.007,3.409,13.084c3.522-2.253,7.787-6.962,8.116-10.633.628-7.033-10.058-4.446-9.627-19.819C88.067,25.42,69.579,39.8,74.2,25.915s-4.28-9.567-7.05-18.982C64.643-1.593,53.634-.016,51.573.359,49.511-.016,38.5-1.593,35.993,6.933c-2.77,9.415-11.67,5.1-7.05,18.982S15.078,25.42,15.593,43.736C16.059,60.4,2.241,58.084,7.719,67.443L21.275,53.888Zm14.41-34.036a2.308,2.308,0,0,1,1.537.054c.047.656.114,1.3.188,1.937a1.287,1.287,0,0,0-1.1-.227c-.988.341-1.2,2.3-.488,4.367.69,1.988,1.988,3.341,2.963,3.143.182.708.353,1.327.5,1.844-1.748.379-3.9-1.531-4.916-4.457-1.059-3.06-.471-6.042,1.315-6.66" transform="translate(-2.197 0)" fill="#29120b"/>
        <path id="Trazado_197193" data-name="Trazado 197193" d="M22.993,293.659h-.03v50.5l-16,6.051a8.67,8.67,0,0,0-5.6,8.11H38.948a6.768,6.768,0,0,0,6.769-6.768V311.376H22.993Z" transform="translate(-0.465 -100.312)" fill="#c46e32"/>
        <path id="Trazado_197194" data-name="Trazado 197194" d="M104.4,311.377H81.67V293.66h-.015v41.992l-.023-.009v16c-.176,4.072,2.079,6.768,5.818,6.768h37.59a8.673,8.673,0,0,0-5.605-8.11l-15.024-5.824V294.922H104.4Z" transform="translate(-27.882 -100.312)" fill="#c46e32"/>
        <rect id="Rectángulo_44139" data-name="Rectángulo 44139" width="22.724" height="17.718" transform="translate(22.529 193.346)" fill="#a84d17"/>
        <path id="Trazado_197195" data-name="Trazado 197195" d="M60.753,86.947a76.908,76.908,0,0,1-2.011-17.578c-.358.063-.707.135-1.06.2a93.9,93.9,0,0,0,1.573,17.374Z" transform="translate(-19.704 -23.696)" fill="#c46e32"/>
        <path id="Trazado_197196" data-name="Trazado 197196" d="M29.883,78.564,39.966,87.4h6.527a105.16,105.16,0,0,1-1.306-16.7c-6.582,1.684-11.963,4.446-15.3,7.861" transform="translate(-10.208 -24.152)" fill="#c46e32"/>
        <path id="Trazado_197197" data-name="Trazado 197197" d="M55.322,87.112h2.1a92.8,92.8,0,0,1-1.589-17.259c-.616.128-1.218.266-1.816.411,0,.011.012.017.012.028a106.258,106.258,0,0,0,1.293,16.82" transform="translate(-18.452 -23.861)" fill="#c46e32"/>
        <path id="Trazado_197198" data-name="Trazado 197198" d="M63.879,86.782a69.684,69.684,0,0,1-2.191-17.9c-.5.068-1,.124-1.491.2A76.625,76.625,0,0,0,62.24,86.782Z" transform="translate(-20.563 -23.531)" fill="#c46e32"/>
        <path id="Trazado_197199" data-name="Trazado 197199" d="M89.768,86.916a93.886,93.886,0,0,0,1.574-17.434c-.354-.067-.7-.143-1.059-.2a76.985,76.985,0,0,1-2.013,17.637Z" transform="translate(-30.152 -23.665)" fill="#c46e32"/>
        <path id="Trazado_197200" data-name="Trazado 197200" d="M86.5,86.764a76.663,76.663,0,0,0,2.044-17.737c-.467-.074-.949-.129-1.425-.193a69.756,69.756,0,0,1-2.191,17.93Z" transform="translate(-29.01 -23.513)" fill="#c46e32"/>
        <path id="Trazado_197201" data-name="Trazado 197201" d="M93.526,87.081a106.338,106.338,0,0,0,1.292-16.82c0-.039.028-.066.043-.1-.606-.144-1.223-.275-1.847-.4a92.861,92.861,0,0,1-1.591,17.319Z" transform="translate(-31.23 -23.83)" fill="#c46e32"/>
        <path id="Trazado_197202" data-name="Trazado 197202" d="M63.2,64.3A69.988,69.988,0,0,0,65.46,82.8H76.745A69.514,69.514,0,0,0,79,64.792l-.174-.024V62.883c-12,6.548-15.92-5.648-15.92-5.648V64a.3.3,0,0,1,.3.3" transform="translate(-21.487 -19.551)" fill="#c46e32"/>
        <path id="Trazado_197203" data-name="Trazado 197203" d="M78.822,61.811V54.539a10.472,10.472,0,0,1-7.763,3.849A10.673,10.673,0,0,1,62.9,54.1v2.066s3.919,12.2,15.92,5.648" transform="translate(-21.487 -18.479)" fill="#a84d17"/>
        <path id="Trazado_197204" data-name="Trazado 197204" d="M54.415,42.009c-.151-.518-.323-1.136-.5-1.845-.975.2-2.273-1.154-2.963-3.143-.716-2.069-.5-4.026.488-4.367a1.29,1.29,0,0,1,1.1.226c-.074-.637-.142-1.281-.188-1.936a2.3,2.3,0,0,0-1.537-.054c-1.786.618-2.374,3.6-1.315,6.66,1.015,2.927,3.167,4.837,4.916,4.458" transform="translate(-16.729 -10.515)" fill="#c46e32"/>
        <path id="Trazado_197205" data-name="Trazado 197205" d="M93.585,41.094c.986.342,2.367-1.057,3.085-3.127s.5-4.025-.488-4.367c-.675-.234-1.531.358-2.235,1.41a24.927,24.927,0,0,1-1.011,5.413,1.183,1.183,0,0,0,.649.672" transform="translate(-31.746 -11.46)" fill="#29120b"/>
        <path id="Trazado_197206" data-name="Trazado 197206" d="M73.081,42.709h0c.159.022.153.022,0,0" transform="translate(-24.964 -14.589)" fill="#c46e32"/>
        <path id="Trazado_197207" data-name="Trazado 197207" d="M69.621,41.542a10.472,10.472,0,0,0,7.763-3.849,17.985,17.985,0,0,0,3.129-5.1,2.1,2.1,0,0,0,.753.49c1.786.618,4.094-1.36,5.155-4.419s.471-6.042-1.314-6.66a2.929,2.929,0,0,0-2.786.783c-.1-13.837-5.744-18.011-12.7-18.011H69.6a6.652,6.652,0,0,1-4.477,4.982c-4.164,1.156.713,6.291-4.806,8.6-5.165,2.161,4.047,12.442-.838,15.847a17.493,17.493,0,0,0,1.982,3.037,10.671,10.671,0,0,0,8.157,4.291M82.249,25.182c.705-1.051,1.561-1.644,2.236-1.41.987.34,1.2,2.3.488,4.367s-2.1,3.47-3.086,3.127a1.182,1.182,0,0,1-.649-.672,24.894,24.894,0,0,0,1.011-5.413m-4.384.745c0,.651-.922,1.179-2.06,1.179s-2.058-.528-2.058-1.179.92-1.179,2.058-1.179,2.06.527,2.06,1.179m-3.07-6.918c.324,0,.587.525.587,1.169s-.263,1.169-.587,1.169-.589-.523-.589-1.169.263-1.169.589-1.169M73.475,21.9a.3.3,0,0,1,.376.2,2.379,2.379,0,0,0,2.2,1.47.3.3,0,0,1-.022.6H76a2.964,2.964,0,0,1-2.721-1.888.3.3,0,0,1,.2-.376m-4.549-.478a.935.935,0,0,1,1.766-.157c.665,1.742-.177,5.722-1.554,5.835-1.5.125-.651-3.919-.212-5.678m-2.405,7.919a10.716,10.716,0,0,0,1.643.408l.234.026.365.027c.282.016.566.02.85.012s.565-.034.847-.062c.041,0,.039,0,.057,0a.434.434,0,0,1,.053-.013c.159-.032.317-.057.476-.092a9.951,9.951,0,0,0,1.622-.5,1.412,1.412,0,0,1,1.72.977,1.436,1.436,0,0,1-.977,1.722,11.154,11.154,0,0,1-7.636.2,1.434,1.434,0,0,1-.977-1.722,1.41,1.41,0,0,1,1.722-.977M64.357,19.01c.326,0,.588.525.588,1.169s-.262,1.169-.588,1.169-.588-.523-.588-1.169.264-1.169.588-1.169m-1.251,4.559A2.4,2.4,0,0,0,65.3,22.1a.3.3,0,0,1,.375-.2.3.3,0,0,1,.2.376,2.97,2.97,0,0,1-2.723,1.888h-.023a.3.3,0,0,1-.022-.6m-1.4,2.359c0-.652.922-1.179,2.058-1.179s2.059.527,2.059,1.179-.922,1.179-2.059,1.179-2.058-.528-2.058-1.179" transform="translate(-20.048 -1.633)" fill="#c46e32"/>
        <path id="Trazado_197208" data-name="Trazado 197208" d="M74.116,35.367c1.377-.113,2.218-4.093,1.554-5.835a.935.935,0,0,0-1.766.157c-.439,1.759-1.291,5.8.212,5.678" transform="translate(-25.026 -9.896)" fill="#a84d17"/>
        <path id="Trazado_197209" data-name="Trazado 197209" d="M67.4,36.287c0-.652-.922-1.179-2.06-1.179s-2.058.527-2.058,1.179.922,1.179,2.058,1.179,2.06-.528,2.06-1.179" transform="translate(-21.615 -11.993)" fill="#f1a876"/>
        <path id="Trazado_197210" data-name="Trazado 197210" d="M81.558,36.287c0,.651.92,1.179,2.058,1.179s2.059-.528,2.059-1.179-.922-1.179-2.059-1.179-2.058.527-2.058,1.179" transform="translate(-27.86 -11.993)" fill="#f1a876"/>
        <path id="Trazado_197211" data-name="Trazado 197211" d="M66.992,28.732c.326,0,.588-.523.588-1.169s-.262-1.169-.588-1.169-.588.525-.588,1.169.264,1.169.588,1.169" transform="translate(-22.683 -9.016)" fill="#29120b"/>
        <path id="Trazado_197212" data-name="Trazado 197212" d="M82.844,28.732c.324,0,.588-.523.588-1.169s-.264-1.169-.588-1.169-.588.525-.588,1.169.262,1.169.588,1.169" transform="translate(-28.098 -9.016)" fill="#29120b"/>
        <path id="Trazado_197213" data-name="Trazado 197213" d="M67.945,42.921a1.433,1.433,0,0,0,.978,1.722,11.152,11.152,0,0,0,7.636-.2,1.436,1.436,0,0,0,.978-1.722,1.412,1.412,0,0,0-1.721-.977,9.8,9.8,0,0,1-1.622.5c-.159.035-.318.061-.476.092-.041.008-.039.009-.054.013s-.016,0-.057,0c-.282.028-.563.053-.847.062s-.568.005-.851-.012l-.364-.026-.234-.026a10.706,10.706,0,0,1-1.643-.408,1.411,1.411,0,0,0-1.722.977m3.37-.568h0c.155.023.161.023,0,0m-2.2.8c.04.01,3.9.959,6.961-.419l.4.149-.151.4a10.28,10.28,0,0,1-4.191.809,13.943,13.943,0,0,1-3.164-.354.3.3,0,0,1,.147-.579" transform="translate(-23.196 -14.233)" fill="#a84d17"/>
        <path id="Trazado_197214" data-name="Trazado 197214" d="M69.405,44.287a13.942,13.942,0,0,0,3.164.354,10.291,10.291,0,0,0,4.191-.809l.151-.4-.4-.149c-3.062,1.378-6.921.429-6.961.419a.3.3,0,0,0-.147.579" transform="translate(-23.631 -14.787)" fill="#29120b"/>
        <path id="Trazado_197215" data-name="Trazado 197215" d="M65.274,33.045l.023,0a2.967,2.967,0,0,0,2.723-1.888.3.3,0,0,0-.2-.375.3.3,0,0,0-.376.2,2.394,2.394,0,0,1-2.2,1.468.3.3,0,0,0,.022.6" transform="translate(-22.195 -10.509)" fill="#29120b"/>
        <path id="Trazado_197216" data-name="Trazado 197216" d="M83.562,33.044l.023,0a.3.3,0,0,0,.022-.6,2.38,2.38,0,0,1-2.2-1.47.3.3,0,1,0-.571.18,2.962,2.962,0,0,0,2.721,1.888" transform="translate(-27.61 -10.51)" fill="#29120b"/>
        <path id="Trazado_197217" data-name="Trazado 197217" d="M76.509,219.474c.124.161.22.3.332.45q.681-.862,1.555-1.851c-.068-.018-.131-.03-.208-.056q-.873.782-1.679,1.458" transform="translate(-26.135 -74.473)" fill="#f3e5ce"/>
        <path id="Trazado_197218" data-name="Trazado 197218" d="M72.765,215.568c.257.282.485.548.723.818.236-.271.466-.536.722-.818-.236-.152-.471-.3-.724-.475-.252.171-.486.322-.722.475" transform="translate(-24.856 -73.474)" fill="#f3e5ce"/>
        <path id="Trazado_197219" data-name="Trazado 197219" d="M80.261,216.6c.284-.311.577-.627.884-.949-.311.294-.619.585-.922.864.014.028.027.057.039.084" transform="translate(-27.403 -73.666)" fill="#f3e5ce"/>
        <path id="Trazado_197220" data-name="Trazado 197220" d="M77.018,211.738c.082.088.169.179.248.265q.818-.847,1.711-1.725c.215-.211.423-.4.635-.608-.893.747-1.762,1.437-2.594,2.067" transform="translate(-26.309 -71.622)" fill="#f3e5ce"/>
        <path id="Trazado_197221" data-name="Trazado 197221" d="M61.676,205.021l.207.176c-.066-.066-.14-.134-.2-.2,0,.007,0,.015,0,.023" transform="translate(-21.068 -70.026)" fill="#f3e5ce"/>
        <path id="Trazado_197222" data-name="Trazado 197222" d="M69.355,211.734c-.835-.633-1.707-1.325-2.6-2.075.216.208.427.4.644.616q.893.875,1.712,1.725c.078-.086.165-.177.248-.265" transform="translate(-22.802 -71.618)" fill="#f3e5ce"/>
        <path id="Trazado_197223" data-name="Trazado 197223" d="M68.349,218.073q.875.989,1.555,1.851c.112-.151.207-.289.332-.45q-.8-.675-1.679-1.458c-.077.026-.14.038-.208.056" transform="translate(-23.348 -74.473)" fill="#f3e5ce"/>
        <path id="Trazado_197224" data-name="Trazado 197224" d="M66.979,216.6c.012-.028.025-.056.039-.085-.307-.282-.618-.576-.932-.873.31.325.605.643.893.958" transform="translate(-22.575 -73.661)" fill="#f3e5ce"/>
        <path id="Trazado_197225" data-name="Trazado 197225" d="M85.734,205.2l.206-.175c0-.007,0-.015,0-.023-.064.065-.138.133-.2.2" transform="translate(-29.286 -70.026)" fill="#f3e5ce"/>
        <path id="Trazado_197226" data-name="Trazado 197226" d="M66.151,205.958c-3.914,3.84-7.581,6.45-8.191,5.828-.454-.463.89-2.715,3.221-5.42a49.25,49.25,0,0,1-4.037,3.378c.12.313.173.566.067.674-.126.129-.445.057-.862-.126-1.184.789-2.031,1.16-2.284.9-.223-.228.042-.9.667-1.863-.288-.2-.577-.4-.9-.648-.324.246-.614.448-.9.648.625.961.89,1.635.666,1.863-.253.257-1.1-.113-2.283-.9-.416.182-.734.255-.861.126-.106-.108-.054-.361.067-.674a49.358,49.358,0,0,1-4.038-3.377c2.331,2.7,3.674,4.956,3.22,5.419-.608.622-4.277-1.988-8.191-5.828a47.241,47.241,0,0,1-4.673-5.225L22.033,184.6l-6.812,71.024H74.414l7.315-49.663v49.663H95.454l-7.733-73.3-16.888,18.4a47.184,47.184,0,0,1-4.681,5.234" transform="translate(-5.199 -62.282)" fill="#f3e5ce"/>
        <path id="Trazado_197227" data-name="Trazado 197227" d="M70.1,108.624c-3.55,0-6.628-4.906-8.532-12.557h-1.5c2.012,10.446,5.749,17.5,10.031,17.5s8.021-7.057,10.033-17.5h-1.5c-1.9,7.651-4.984,12.557-8.534,12.557" transform="translate(-20.52 -32.816)" fill="#f3e5ce"/>
        <path id="Trazado_197228" data-name="Trazado 197228" d="M68.712,114.169c-4.546,0-8.511-7.31-10.612-18.1H56c2.224,13.755,7.083,23.323,12.712,23.323s10.49-9.569,12.714-23.323h-2.1c-2.1,10.792-6.065,18.1-10.612,18.1" transform="translate(-19.129 -32.816)" fill="#f3e5ce"/>
        <path id="Trazado_197229" data-name="Trazado 197229" d="M71.238,104.926c-2.527,0-4.756-3.4-6.3-8.859H63.3c1.822,7.252,4.683,11.958,7.9,11.958s6.084-4.706,7.905-11.958H77.538c-1.544,5.46-3.773,8.859-6.3,8.859" transform="translate(-21.623 -32.816)" fill="#f3e5ce"/>
        <path id="Trazado_197230" data-name="Trazado 197230" d="M72.43,104.326c2.186,0,4.2-3.2,5.643-8.259H66.787c1.447,5.055,3.456,8.259,5.643,8.259" transform="translate(-22.814 -32.816)" fill="#f3e5ce"/>
        <path id="Trazado_197231" data-name="Trazado 197231" d="M85.257,85.208C84.283,78.728,76.7,73.24,66.035,70.583a105.182,105.182,0,0,1-1.308,16.779h5.567l8.981,34.46L61.1,152.366c-.593-.036-1.2-.063-1.843-.067-4.095-.027-7.419.658-7.424,1.527-.006.813,2.9,1.493,6.62,1.6-1.478,1.119-3.218,2.539-5.053,4.089-1.06.9-2.039,1.777-2.925,2.617-.886-.84-1.865-1.722-2.925-2.617-1.836-1.551-3.576-2.971-5.055-4.089,3.722-.109,6.626-.789,6.622-1.6-.007-.869-3.33-1.554-7.426-1.527-.641,0-1.25.03-1.843.067L21.679,121.822l1.015-3.9L10.346,105.576,5.9,122.651a15.066,15.066,0,0,0,5.429,15.77l7.354,8.013,14.8,16.129a47.25,47.25,0,0,0,4.673,5.224c3.914,3.84,7.583,6.45,8.191,5.828.454-.462-.888-2.714-3.22-5.419a49.226,49.226,0,0,0,4.037,3.377c-.12.313-.173.566-.066.675.126.128.444.056.861-.126,1.184.789,2.031,1.16,2.283.9.224-.228-.041-.9-.666-1.863.287-.2.577-.4.9-.647.324.245.614.448.9.647-.625.961-.89,1.635-.666,1.863.252.258,1.1-.113,2.283-.9.417.182.735.254.862.126.107-.109.053-.362-.067-.674a49.4,49.4,0,0,0,4.038-3.378c-2.332,2.706-3.675,4.957-3.222,5.42.61.622,4.277-1.988,8.191-5.828a47.124,47.124,0,0,0,4.681-5.234l16.888-18.4,5.265-5.735a15.067,15.067,0,0,0,5.427-15.77L88.713,98.3,85.3,85.215Zm-42.8,73.9c0-.007,0-.015,0-.023.065.066.139.134.2.2-.07-.061-.137-.117-.207-.176m3.8,7.941c-.288-.315-.583-.633-.893-.959.314.3.625.592.932.874-.014.029-.027.057-.039.085m-.454-4.9c.9.75,1.768,1.443,2.6,2.075-.082.088-.169.179-.248.265q-.818-.847-1.712-1.725c-.218-.214-.429-.408-.644-.616m2.606,7.41q-.681-.862-1.554-1.851c.068-.018.131-.03.208-.056q.873.782,1.679,1.458c-.124.161-.221.3-.332.45m2.075-2.539c-.238-.271-.466-.536-.723-.818.236-.153.471-.3.723-.475.252.172.486.323.722.475-.256.282-.485.547-.722.818m2.075,2.539c-.112-.151-.207-.289-.332-.449q.8-.675,1.679-1.458c.076.026.14.038.207.056q-.875.988-1.555,1.851m.25-5.069c-.078-.086-.165-.177-.248-.265.832-.63,1.7-1.32,2.595-2.067-.213.2-.421.4-.636.607q-.892.875-1.711,1.725m1.9,2.555c-.012-.027-.025-.056-.039-.084.3-.279.611-.57.922-.864-.307.322-.6.637-.884.949m3.59-7.765c.065-.065.14-.133.2-.2,0,.008,0,.016,0,.023l-.206.175" transform="translate(-1.846 -24.111)" fill="#c46e32"/>
        <path id="Trazado_197232" data-name="Trazado 197232" d="M8.5,109.423l12.348,12.349-1.016,3.9,18.173,30.544c.593-.036,1.2-.063,1.843-.067,4.1-.026,7.419.658,7.426,1.527,0,.813-2.9,1.494-6.621,1.6,1.478,1.118,3.218,2.538,5.054,4.089,1.06.9,2.038,1.776,2.925,2.617.887-.84,1.865-1.72,2.926-2.617,1.835-1.551,3.575-2.971,5.053-4.089-3.72-.109-6.626-.789-6.62-1.6,0-.868,3.329-1.553,7.424-1.527.64,0,1.251.032,1.843.067L77.431,125.67,68.449,91.209H62.881c-2.3,14.095-7.393,23.924-13.3,23.924s-11-9.829-13.3-23.924H29.758L19.675,82.37l-.6-.524L5.522,95.4,0,100.923Z" transform="translate(0 -27.958)" fill="#f3e5ce"/>
        <path id="Trazado_197233" data-name="Trazado 197233" d="M138.287,162.523c0-.038,0-.076,0-.115a.284.284,0,0,1,.284-.284.281.281,0,0,1,.276.258c.569-.138,1.143-.27,1.73-.392,0-.094,0-.184,0-.279a.286.286,0,0,1,.571,0c0,.057,0,.112,0,.169.336-.066.668-.134,1.009-.194,0-.256-.013-.506-.013-.764a.285.285,0,1,1,.57,0c0,.221.009.435.011.656.464-.076.947-.13,1.42-.195,0-.194-.009-.382-.009-.577a30.738,30.738,0,0,1,3.467.482l.135-18.181-7.755-3.258a16.662,16.662,0,0,1-1.889-2.894c4.654-3.244-4.122-13.038.8-15.1,5.258-2.2.611-7.095,4.579-8.2a6.338,6.338,0,0,0,4.265-4.747h.018c6.627,0,12,3.977,12.1,17.159a2.792,2.792,0,0,1,2.655-.746c1.7.589,2.263,3.43,1.252,6.345s-3.21,4.8-4.911,4.21a2.018,2.018,0,0,1-.718-.467c-.779,1.876-8.553,6.317-9.744,7.651l.125,18.223,2.4-.3.166.022c0-.157.007-.311.007-.469a.285.285,0,0,1,.57,0c0,.184-.007.362-.008.545.453.061.912.113,1.357.184,0-.206.011-.406.011-.612a.286.286,0,0,1,.572,0c0,.239-.011.469-.013.708.343.058.672.13,1.009.194,0-.038,0-.075,0-.113a.285.285,0,1,1,.57,0c0,.074,0,.147,0,.221.595.119,1.182.244,1.759.381a.27.27,0,0,1,.247-.19.284.284,0,0,1,.284.284v.04c1.377.676,1.36,3.248,4.7,4.322,7.391,2.376,11.059,3.481,11.469-11.166.49-17.449-8.9-11.508-4.492-24.736s-4.078-9.115-6.716-18.085c-2.39-8.123-12.878-6.62-14.842-6.263-1.964-.356-12.453-1.859-14.842,6.263-2.639,8.97-11.119,4.856-6.716,18.085s-8.771,11.788-8.281,29.237c.444,15.872,14.291,4.286,20.562,2.682M133,125.326a2.2,2.2,0,0,1,1.464.051c.045.625.109,1.238.179,1.846a1.226,1.226,0,0,0-1.051-.217c-.94.325-1.148,2.189-.465,4.16.658,1.894,1.894,3.183,2.823,2.994.173.675.336,1.264.481,1.757-1.666.361-3.717-1.459-4.683-4.247-1.009-2.915-.449-5.756,1.252-6.345" transform="translate(-40.21 -36.179)" fill="#29120b"/>
        <path id="Trazado_197234" data-name="Trazado 197234" d="M136.149,334.4l-.493-9.177c-1.547-25.434-1.339-75.138-1.339-75.138l12.321,2.6-4.126,74.332-.433,8.346s1.62,4.492-2.834,5.949-17.663,4.75-19.605,2.746,16.509-9.657,16.509-9.657" transform="translate(-40.819 -85.427)" fill="#c46e32"/>
        <path id="Trazado_197235" data-name="Trazado 197235" d="M147.287,315.386c.207-.136.391.188.192.322-1.34.9-2.854,2.129-2.035,3.908.394.861,1.568.718,1.346-.291-.144-.671-.692-1.008-.911-.144-.068.267-.449.15-.406-.113.143-.838.733-1.3,1.448-.66a1.406,1.406,0,0,1-.2,2.256c-1.088.639-1.889-.833-1.993-1.7-.207-1.7,1.291-2.775,2.556-3.578" transform="translate(-49.433 -107.723)" fill="#a84d17"/>
        <path id="Trazado_197236" data-name="Trazado 197236" d="M150.4,285.248c-1.277-4.39-4.444-6.709-8.316-8.343-.128-15.029-.08-26.82-.08-26.82l12.321,2.6L151.6,301.859c-.061-1.894-.122-3.792-.18-5.668-.085-3.646,0-7.38-1.017-10.943" transform="translate(-48.504 -85.427)" fill="#a84d17"/>
        <path id="Trazado_197237" data-name="Trazado 197237" d="M178.493,334.4l.493-9.177c1.547-25.434,1.339-75.138,1.339-75.138l-12.319,2.6,4.124,74.332.435,8.346s-1.621,4.492,2.834,5.949,17.662,4.75,19.6,2.746-16.51-9.657-16.51-9.657" transform="translate(-57.39 -85.427)" fill="#c46e32"/>
        <path id="Trazado_197238" data-name="Trazado 197238" d="M179.958,315.386c-.207-.136-.391.188-.192.322,1.34.9,2.854,2.129,2.034,3.908-.392.861-1.568.718-1.346-.291.146-.671.695-1.008.911-.144.07.267.45.15.406-.113-.143-.838-.732-1.3-1.447-.66a1.406,1.406,0,0,0,.2,2.256c1.09.639,1.89-.833,1.994-1.7.208-1.7-1.291-2.775-2.556-3.578" transform="translate(-61.378 -107.723)" fill="#a84d17"/>
        <path id="Trazado_197239" data-name="Trazado 197239" d="M171.931,285.248c1.275-4.39,4.443-6.709,8.316-8.343.128-15.029.08-26.82.08-26.82l-12.319,2.6,2.729,49.174c.058-1.894.118-3.792.178-5.668.084-3.646,0-7.38,1.017-10.943" transform="translate(-57.39 -85.427)" fill="#a84d17"/>
        <path id="Trazado_197240" data-name="Trazado 197240" d="M183.575,186.823c.446-2.933,5.243,7.518,7.168,17.185s5.974,54.052,5.974,54.052,9.783,8.234,7.1,11.365c-1.155,1.342-5.136-5.9-5.136-5.9s3.137,11.379,1.25,11.859c-1.915.489-3.857-11.459-3.857-11.459s1.6,12.077-1.726,12.719c-1.628.312-1.319-13.561-1.319-13.561s-1.2,5-2.048,6.38c-.891,1.447-3.239.444-2.524-3.5s3.856-8.077,3.856-8.077-6.624-46.366-7.518-52.094-1.895-14.5-1.216-18.975" transform="translate(-62.632 -63.646)" fill="#c46e32"/>
        <path id="Trazado_197241" data-name="Trazado 197241" d="M189.65,216.987a12.9,12.9,0,0,1,2.631-2.187c-.574-4.742-1.109-8.633-1.538-10.791-1.925-9.667-6.722-20.118-7.168-17.186-.679,4.475.321,13.247,1.216,18.975.431,2.765,2.2,14.983,3.907,26.893-.192-2.693-.3-5.392-.3-8.094.09-2.236-.269-5.728,1.252-7.609" transform="translate(-62.631 -63.646)" fill="#a84d17"/>
        <path id="Trazado_197242" data-name="Trazado 197242" d="M125.2,271.354c1.307,2.559,4.355,1.269,3.64-2.669s-4.3-11.456-4.3-11.456,6.623-46.364,7.518-52.094,1.9-14.5,1.217-18.977c-.444-2.929-5.243,7.519-7.168,17.185s-6.026,54.6-6.026,54.6-8.628,5.233-8.515,8.132.4,10.218,3.464,10.334,8.917-1.364,10.167-5.057" transform="translate(-38.111 -63.419)" fill="#c46e32"/>
        <path id="Trazado_197243" data-name="Trazado 197243" d="M146.69,317.213a3.2,3.2,0,0,0-.942-.5,4.078,4.078,0,0,1-1.256-.936,5.452,5.452,0,0,1-1.283-2.986.064.064,0,0,0-.126.015,6.3,6.3,0,0,0,.868,3.095c.478.787,1.555,1.876,2.547,1.778.216-.02.387-.29.192-.463" transform="translate(-48.876 -106.831)" fill="#a84d17"/>
        <path id="Trazado_197244" data-name="Trazado 197244" d="M140.631,319.641a9.567,9.567,0,0,1-1.284-.383,3.926,3.926,0,0,1-1.143-1.2,12.282,12.282,0,0,1-1.344-2.785.063.063,0,0,0-.122.033,12.215,12.215,0,0,0,1.084,3.474c.461.853,1.8,1.875,2.809,1.467a.316.316,0,0,0,0-.6" transform="translate(-46.708 -107.679)" fill="#a84d17"/>
        <path id="Trazado_197245" data-name="Trazado 197245" d="M139.073,186.158c-.444-2.929-5.243,7.52-7.168,17.185-.4,2-.888,5.506-1.416,9.808,2,1.219,3.965,2.744,4.387,4.991.574,2.871-.862,6.125-1.436,9-.478,2.871-.67,5.843-1.148,8.714-.385,2.2-1.149,4.213-1.63,6.412-.861,3.927-1.148,8.141-1.818,12.161-.575,3.831-.481,6.319,1.341,9.765.958,1.817,2.2,3.831,2.107,5.936a7.142,7.142,0,0,1-.5,2.192c1.444,1.064,3.438-.369,2.845-3.637-.716-3.938-4.3-11.456-4.3-11.456s6.623-46.364,7.518-52.094,1.9-14.5,1.217-18.977" transform="translate(-43.906 -63.419)" fill="#a84d17"/>
        <path id="Trazado_197246" data-name="Trazado 197246" d="M126.611,302.782a9.166,9.166,0,0,0,.113,3.845c.271,1,1.028,2.471,2.107,2.738a.443.443,0,0,0,.5-.648c-.258-.41-.63-.7-.909-1.1a6.6,6.6,0,0,1-.712-1.6,10.4,10.4,0,0,1-.641-3.177c-.009-.25-.411-.328-.454-.061" transform="translate(-43.198 -103.371)" fill="#a84d17"/>
        <path id="Trazado_197247" data-name="Trazado 197247" d="M155.708,159.589s.541,10.741-1.25,13.783-4.507,2.687-4.582,3.76,3.559,3.444,8.67,3.444,9.158-2.191,8.621-3.444-4.3-1.788-4.652-3.76-.72-13.783-.72-13.783Z" transform="translate(-51.196 -54.515)" fill="#ab4c1c"/>
        <path id="Trazado_197248" data-name="Trazado 197248" d="M164.648,159.589h-6.087a66.253,66.253,0,0,1-.332,10.558c2.258-.3,4.539-.492,6.824-.623-.226-4.149-.4-9.935-.4-9.935" transform="translate(-54.05 -54.515)" fill="#8e3a1a"/>
        <path id="Trazado_197249" data-name="Trazado 197249" d="M143.45,145.936c-.144-.493-.307-1.082-.48-1.757-.93.189-2.166-1.1-2.824-2.994-.683-1.972-.475-3.835.465-4.16a1.226,1.226,0,0,1,1.051.216c-.07-.607-.134-1.221-.179-1.845a2.2,2.2,0,0,0-1.464-.052c-1.7.589-2.262,3.43-1.252,6.345.967,2.788,3.017,4.608,4.683,4.247" transform="translate(-47.23 -46.198)" fill="#c46e32"/>
        <path id="Trazado_197250" data-name="Trazado 197250" d="M180.768,145.064c.939.327,2.255-1.007,2.94-2.979s.475-3.836-.465-4.16c-.643-.223-1.458.341-2.13,1.343a23.738,23.738,0,0,1-.963,5.157,1.126,1.126,0,0,0,.618.639" transform="translate(-61.538 -47.097)" fill="#29120b"/>
        <path id="Trazado_197251" data-name="Trazado 197251" d="M161.233,146.6h0c.151.021.146.021,0,0" transform="translate(-55.076 -50.079)" fill="#c46e32"/>
        <path id="Trazado_197252" data-name="Trazado 197252" d="M157.937,145.491a9.976,9.976,0,0,0,7.4-3.667,17.107,17.107,0,0,0,2.981-4.854,2.023,2.023,0,0,0,.718.467c1.7.589,3.9-1.3,4.912-4.209s.449-5.756-1.253-6.346a2.79,2.79,0,0,0-2.654.747c-.1-13.183-5.473-17.16-12.1-17.16h-.018a6.336,6.336,0,0,1-4.264,4.747c-3.968,1.1.679,5.993-4.579,8.2-4.921,2.059,3.855,11.853-.8,15.1a16.7,16.7,0,0,0,1.888,2.894,10.171,10.171,0,0,0,7.772,4.088m12.031-15.586c.672-1,1.487-1.566,2.13-1.343.941.325,1.148,2.188.465,4.16s-2,3.306-2.939,2.98a1.13,1.13,0,0,1-.619-.64,23.726,23.726,0,0,0,.963-5.157m-4.177.71c0,.621-.879,1.123-1.963,1.123s-1.961-.5-1.961-1.123.877-1.124,1.961-1.124,1.963.5,1.963,1.124m-2.925-6.591c.309,0,.56.5.56,1.114s-.252,1.114-.56,1.114-.56-.5-.56-1.114.25-1.114.56-1.114m-1.258,2.757a.286.286,0,0,1,.358.186,2.267,2.267,0,0,0,2.091,1.4.286.286,0,0,1-.02.571l-.022,0a2.823,2.823,0,0,1-2.593-1.8.286.286,0,0,1,.186-.358m-4.334-.455a.89.89,0,0,1,1.682-.15c.633,1.66-.169,5.451-1.48,5.56-1.432.119-.621-3.734-.2-5.409m-2.292,7.543a10.192,10.192,0,0,0,1.566.389l.223.025.347.025c.269.016.54.019.811.011s.538-.032.807-.059c.039,0,.037,0,.054,0s.012,0,.051-.012c.151-.03.3-.055.454-.088a9.435,9.435,0,0,0,1.545-.481,1.346,1.346,0,0,1,1.639.931,1.369,1.369,0,0,1-.932,1.641,10.629,10.629,0,0,1-7.275.193,1.367,1.367,0,0,1-.931-1.641,1.344,1.344,0,0,1,1.641-.931m-2.061-9.845c.31,0,.56.5.56,1.114s-.25,1.114-.56,1.114-.56-.5-.56-1.114.252-1.114.56-1.114m-1.192,4.344a2.281,2.281,0,0,0,2.091-1.4.283.283,0,0,1,.358-.188.287.287,0,0,1,.188.358,2.829,2.829,0,0,1-2.594,1.8l-.022,0a.286.286,0,0,1-.02-.571m-1.329,2.247c0-.621.878-1.124,1.961-1.124s1.963.5,1.963,1.124-.879,1.123-1.963,1.123-1.961-.5-1.961-1.123" transform="translate(-50.393 -37.735)" fill="#c46e32"/>
        <path id="Trazado_197253" data-name="Trazado 197253" d="M162.219,139.608c1.312-.108,2.113-3.9,1.48-5.559a.89.89,0,0,0-1.682.149c-.419,1.676-1.23,5.529.2,5.409" transform="translate(-55.135 -45.607)" fill="#a84d17"/>
        <path id="Trazado_197254" data-name="Trazado 197254" d="M155.816,140.485c0-.621-.878-1.124-1.962-1.124s-1.961.5-1.961,1.124.879,1.123,1.961,1.123,1.962-.5,1.962-1.123" transform="translate(-51.886 -47.605)" fill="#f1a876"/>
        <path id="Trazado_197255" data-name="Trazado 197255" d="M169.31,140.485c0,.621.877,1.123,1.961,1.123s1.962-.5,1.962-1.123-.878-1.124-1.962-1.124-1.961.5-1.961,1.124" transform="translate(-57.835 -47.605)" fill="#f1a876"/>
        <path id="Trazado_197256" data-name="Trazado 197256" d="M155.432,133.286c.31,0,.56-.5.56-1.114s-.25-1.114-.56-1.114-.561.5-.561,1.114.252,1.114.561,1.114" transform="translate(-52.903 -44.769)" fill="#29120b"/>
        <path id="Trazado_197257" data-name="Trazado 197257" d="M170.535,133.286c.308,0,.56-.5.56-1.114s-.251-1.114-.56-1.114-.561.5-.561,1.114.25,1.114.561,1.114" transform="translate(-58.062 -44.769)" fill="#29120b"/>
        <path id="Trazado_197258" data-name="Trazado 197258" d="M156.34,146.8a1.366,1.366,0,0,0,.932,1.641,10.625,10.625,0,0,0,7.275-.192,1.368,1.368,0,0,0,.931-1.641,1.346,1.346,0,0,0-1.639-.932,9.334,9.334,0,0,1-1.545.481c-.151.034-.3.058-.454.088a.341.341,0,0,0-.051.013c-.018,0-.015,0-.054,0-.269.027-.537.051-.807.059s-.541,0-.81-.011l-.347-.026-.224-.024a10.186,10.186,0,0,1-1.565-.389,1.344,1.344,0,0,0-1.641.931m3.21-.541h0c.148.022.153.022,0,0m-2.094.762a11.669,11.669,0,0,0,6.632-.4l.379.142-.144.377a9.791,9.791,0,0,1-3.993.77,13.317,13.317,0,0,1-3.015-.337.285.285,0,0,1,.14-.552" transform="translate(-53.391 -49.739)" fill="#a84d17"/>
        <path id="Trazado_197259" data-name="Trazado 197259" d="M157.732,148.106a13.314,13.314,0,0,0,3.014.337,9.794,9.794,0,0,0,3.993-.77l.144-.377-.379-.142a11.66,11.66,0,0,1-6.631.4.285.285,0,0,0-.14.552" transform="translate(-53.807 -50.267)" fill="#29120b"/>
        <path id="Trazado_197260" data-name="Trazado 197260" d="M153.8,137.4h.022a2.829,2.829,0,0,0,2.594-1.8.288.288,0,0,0-.188-.358.283.283,0,0,0-.358.188,2.281,2.281,0,0,1-2.091,1.4.286.286,0,0,0,.02.572" transform="translate(-52.438 -46.192)" fill="#29120b"/>
        <path id="Trazado_197261" data-name="Trazado 197261" d="M171.219,137.395h.022a.286.286,0,0,0,.02-.571,2.266,2.266,0,0,1-2.091-1.4.286.286,0,0,0-.545.173,2.823,2.823,0,0,0,2.593,1.8" transform="translate(-57.597 -46.192)" fill="#29120b"/>
        <path id="Trazado_197262" data-name="Trazado 197262" d="M137.977,225.275l-3.316,72.888h39.058l-3.765-75.226Z" transform="translate(-45.999 -76.154)" fill="#f3e5ce"/>
        <path id="Trazado_197263" data-name="Trazado 197263" d="M127.47,206.327l14.549,24.455c.475-.029.963-.05,1.476-.054,3.28-.021,5.94.527,5.945,1.223,0,.651-2.322,1.2-5.3,1.283,1.184.9,2.577,2.033,4.047,3.274.849.717,1.632,1.423,2.342,2.1.71-.673,1.493-1.379,2.342-2.1,1.47-1.241,2.863-2.378,4.046-3.274-2.979-.087-5.305-.631-5.3-1.283,0-.7,2.665-1.244,5.943-1.223.513,0,1,.025,1.475.054l14.551-24.455-7.191-27.591-7.453-.491c-.995,4.878-2.924,7.073-7.652,7.073s-6.674-.849-7.738-6.79l-6.078.207Z" transform="translate(-43.543 -60.888)" fill="#f3e5ce"/>
        <path id="Trazado_197264" data-name="Trazado 197264" d="M97.121,267.893H81.695V285.61h22.726V269.156h.014V218.23Z" transform="translate(-27.906 -74.546)" fill="#a84d17"/>
        <path id="Trazado_197265" data-name="Trazado 197265" d="M70.947,95.171c2.526,0,4.756-3.4,6.3-8.859a69.751,69.751,0,0,0,2.191-17.93c0-.193.009-.379.009-.573a.3.3,0,0,0-.6,0c0,.166-.007.327-.008.492A69.513,69.513,0,0,1,76.59,86.312c-1.447,5.055-3.457,8.259-5.643,8.259s-4.2-3.2-5.643-8.259a69.98,69.98,0,0,1-2.259-18.5.3.3,0,0,0-.6,0c0,.2.008.4.009.606a69.656,69.656,0,0,0,2.191,17.9c1.544,5.46,3.773,8.859,6.3,8.859" transform="translate(-21.332 -23.061)" fill="#96191d"/>
        <path id="Trazado_197266" data-name="Trazado 197266" d="M69.83,98.933c3.55,0,6.63-4.906,8.534-12.557a77.024,77.024,0,0,0,2.013-17.638c0-.25.012-.491.012-.743a.3.3,0,0,0-.6,0c0,.217-.009.427-.011.643a76.625,76.625,0,0,1-2.044,17.737c-1.821,7.252-4.683,11.957-7.9,11.957s-6.084-4.706-7.9-11.957a76.625,76.625,0,0,1-2.043-17.692c0-.232-.012-.456-.012-.689a.3.3,0,1,0-.6,0c0,.271.011.533.013.8A76.942,76.942,0,0,0,61.3,86.376c1.9,7.651,4.982,12.557,8.532,12.557" transform="translate(-20.247 -23.125)" fill="#96191d"/>
        <path id="Trazado_197267" data-name="Trazado 197267" d="M68.974,104.907c4.547,0,8.511-7.31,10.612-18.1a92.859,92.859,0,0,0,1.591-17.319c0-.078,0-.154,0-.233a.3.3,0,1,0-.6,0c0,.04,0,.078,0,.119a93.887,93.887,0,0,1-1.574,17.434c-2.012,10.446-5.751,17.5-10.033,17.5s-8.019-7.057-10.031-17.5A93.9,93.9,0,0,1,57.37,69.431c0-.061,0-.118,0-.178a.3.3,0,0,0-.6,0c0,.1,0,.194,0,.293a92.807,92.807,0,0,0,1.589,17.259c2.1,10.792,6.066,18.1,10.612,18.1" transform="translate(-19.392 -23.554)" fill="#96191d"/>
        <path id="Trazado_197268" data-name="Trazado 197268" d="M82.336,70.365a.3.3,0,0,0-.3-.3.285.285,0,0,0-.259.2c-.013.034-.041.061-.041.1a106.257,106.257,0,0,1-1.293,16.82c-2.225,13.755-7.085,23.324-12.714,23.324S57.241,100.94,55.017,87.185a106.257,106.257,0,0,1-1.293-16.82c0-.011-.011-.017-.012-.028a.3.3,0,0,0-.289-.271.3.3,0,0,0-.3.3c0,.041,0,.08,0,.12a105.067,105.067,0,0,0,1.307,16.7c2.3,14.095,7.393,23.923,13.3,23.923s11-9.829,13.3-23.923a105.181,105.181,0,0,0,1.308-16.779c0-.014,0-.028,0-.041" transform="translate(-18.147 -23.934)" fill="#96191d"/>
      </g>
    </g>
  </g>
</svg>
